<?xml version="1.0" encoding="utf-8"?>
<!-- Generator: Adobe Illustrator 28.5.0, SVG Export Plug-In . SVG Version: 9.03 Build 54727)  -->
<svg version="1.0" id="Layer_1" xmlns="http://www.w3.org/2000/svg" xmlns:xlink="http://www.w3.org/1999/xlink" x="0px" y="0px"
	 viewBox="0 0 500 500" style="enable-background:new 0 0 500 500;" xml:space="preserve">
<style type="text/css">
	.st0{fill:#A8A9AA;}
	.st1{fill:#003DA6;}
</style>
<g>
	<polygon class="st0" points="12.5,317.9 35,300.8 444.2,300.8 438.9,317.9 	"/>
	<path class="st1" d="M188.2,182.1L53.1,286.6H93l21.4-16.6l67.1-16.6l-9.3,33.2h31l29.2-104.5C232.4,182.1,188.2,182.1,188.2,182.1
		z M183.6,247H144l50.6-38.7L183.6,247z"/>
	<path class="st1" d="M367.2,182.1l-36.7,24h-47.6c0,0-10.2-0.2-12.5,7.7l-12,35.1c0,0-5.4,11.8,11,13.6h66.4l-7.8,24.1h-75.7
		c0,0-32.4-1.4-24-30.5l17-53c0,0,5.3-20.9,41.7-20.9S367.2,182.1,367.2,182.1z"/>
	<path class="st1" d="M487.5,182.1l-36.7,24h-47.6c0,0-10.2-0.2-12.5,7.7l-12,35.1c0,0-5.4,11.8,11,13.6h66.4l-7.8,24.1h-75.7
		c0,0-32.4-1.4-24-30.5l17-53c0,0,5.3-20.9,41.7-20.9S487.5,182.1,487.5,182.1z"/>
</g>
</svg>
