<?xml version="1.0" encoding="utf-8"?>
<!-- Generator: Adobe Illustrator 28.5.0, SVG Export Plug-In . SVG Version: 9.03 Build 54727)  -->
<svg version="1.0" id="Layer_1" xmlns="http://www.w3.org/2000/svg" xmlns:xlink="http://www.w3.org/1999/xlink" x="0px" y="0px"
	 viewBox="0 0 500 500" style="enable-background:new 0 0 500 500;" xml:space="preserve">
<style type="text/css">
	.st0{fill:#CFD4D8;}
	.st1{fill:#EF483E;}
	.st2{fill:#FFFFFF;}
</style>
<g transform="matrix(1.66567 0 0 1.66567 112.866 99.8967)">
	<path class="st0" d="M-60.7,3.6l1.7,5.2c2.6,8.2,5.3,16.6,7.8,24.8c2.5,8,5.1,16.1,7.8,24c0.9,2.6,1.7,5.2,2.6,7.7l0.5,1.6l1.7,0.3
		c1.1,0.2,2.2,0.4,3.4,0.6c1.6,0.3,3.2,0.5,4.8,0.8c3.9,0.7,7,1.2,10.4,1.8c4.7,7.2,8.3,12.6,12.7,18.4c-4.9,6.7-8.7,12.7-14.1,21.2
		c-2.9,0.5-5.6,1-9.7,1.7c-1.4,0.3-3,0.5-4.5,0.8c-1.4,0.2-2.7,0.4-3.9,0.6l-1.7,0.3l-0.5,1.6c-0.9,2.6-1.7,5.2-2.6,7.8
		c-2.7,8.1-5.3,16.2-7.8,24.3c-2.5,8.2-5.1,16.4-7.7,24.6l-1.4,4.5l4.6-0.8c5.6-1,12.3-2.5,20.2-4.3c27.4-6.2,68.7-15.6,118.2-15.6
		h0.4c49.5,0.1,113.5,13.9,138.7,19.9l4.9,1.1l-1.5-4.8c-2.5-7.8-5.1-16-7.7-24.6c-3-9.8-4.6-14.8-7.8-24.3
		c-0.9-2.6-1.7-5.2-2.6-7.8l-0.5-1.6l-1.7-0.3c-1.2-0.2-2.4-0.4-3.7-0.6c-1.5-0.3-3.1-0.5-4.5-0.8c-1.7-0.3-3.2-0.6-4.5-0.8
		c-1.1-0.2-2.1-0.4-3.2-0.6V69.9c1-0.2,2-0.4,3.1-0.6c1.4-0.3,2.8-0.5,4.6-0.9c1.5-0.3,3.1-0.5,4.7-0.8c1.2-0.2,2.4-0.4,3.5-0.6
		l1.7-0.3l0.5-1.6l0.5-1.5c0.7-2.1,1.4-4.2,2.1-6.3c2.7-8,5.3-16,7.8-24c1.1-3.7,2.3-7.4,3.4-11.2c1.3-4.4,2.7-9.1,4.1-13.5l1.4-4.5
		l-4.7,0.9c-1.2,0.2-3.3,0.7-6.6,1.5C194.8,11.2,136.2,25,82.3,25C10.3,25-54.7,5.4-55.5,5.1L-60.7,3.6L-60.7,3.6z"/>
	<path class="st1" d="M214.2,147.4c-2.5-8.1-5.1-16.2-7.8-24.2c-0.9-2.6-1.7-5.2-2.6-7.8c-2.6-0.5-5.6-0.9-8.2-1.4
		c-4.2-0.7-6.8-1.3-10-1.8V67.2c3.2-0.5,5.8-1.1,10-1.8c2.6-0.5,5.5-0.9,8.2-1.4c0.9-2.6,1.7-5.2,2.6-7.7c2.7-8,5.3-16,7.8-24
		c2.6-8.3,4.9-16.6,7.5-24.8c-8.1,1.6-76.2,20-138.8,20c-70.1,0-134.8-18.7-138.7-20c2.6,8.2,5.3,16.5,7.8,24.8
		c2.5,8,5.1,16.1,7.8,24c0.9,2.6,1.7,5.2,2.6,7.7c2.6,0.5,5.5,0.9,8.2,1.4c4.7,0.8,7.9,1.4,11.5,2c5.6,8.4,9.4,14.3,14.5,21
		c-5.6,7.6-9.8,14.2-15.8,23.8c-3.4,0.6-6.4,1.1-10.9,1.9c-2.6,0.5-5.8,0.9-8.5,1.4c-0.9,2.6-1.7,5.2-2.6,7.8
		c-2.7,8-5.3,16.1-7.8,24.2c-2.5,8.2-5.1,16.4-7.7,24.6c25.5-4.7,75.3-20,139.2-19.9c54.4,0.1,125.6,16.7,139.2,19.9
		C219.3,163.8,216.8,155.5,214.2,147.4"/>
	<path class="st2" d="M199.8,27.2c-52.8,13.2-102.7,19-158.4,14.5v17.6c6.1,0.3,7.1,0.5,13.2,0.7c-6.6,7.7-9.8,11.6-16.3,19.7
		c-5.9-8.3-8.9-12.6-14.8-21.7c5.3,0.6,5.9,0.8,11.3,1.2V41.6c-24.9-3.5-50.5-8.1-70.3-13.4c3.1,9.9,4.3,13.9,7.4,23.2
		c6.8,1.1,10.2,1.6,17,2.6c9.8,15.3,14.7,21.9,24.6,34.6c-10.4,13.7-15.6,21-25.9,37.6c-6.7,0.9-10,1.5-16.6,2.5
		c-3.1,9.4-4.3,14-7.4,24c24-5.9,45.4-9.9,70.3-13.3V121c-6.3,0.4-7.5,0.7-13.8,1.3c6.9-9.9,10.3-14.5,17.3-23.5
		c7,8.7,10.5,12.9,17.6,21.2c-6.2,0.2-7.4,0.4-13.6,0.9v17.7c13.3-1.1,26.6-1.6,39.9-1.5c39.9,0.3,77.9,6,117.8,16
		c-3.1-10-4.6-14.8-7.7-24.3c-8.6-1.4-13-2.1-21.7-3.3V54.7c8.8-1.2,13.2-1.8,21.7-3.3c3.1-9.3,4.6-14.1,7.7-24L199.8,27.2z
		 M137.7,58.2v63.6c-3.3-0.3-6.6-0.6-9.9-0.8H127V58.8c4-0.3,6.7-0.4,10.7-0.8L137.7,58.2z M94.5,60.5v59c-1.8,0-2.6,0-4.4-0.1
		C79,106.6,73.4,100.6,62.3,87.9c10.3-11,15.4-16.3,25.8-27.4C90.6,60.5,91.9,60.5,94.5,60.5L94.5,60.5z"/>
</g>
</svg>
