<?xml version="1.0" encoding="utf-8"?>
<!-- Generator: Adobe Illustrator 28.5.0, SVG Export Plug-In . SVG Version: 9.03 Build 54727)  -->
<svg version="1.0" id="Layer_1" xmlns="http://www.w3.org/2000/svg" xmlns:xlink="http://www.w3.org/1999/xlink" x="0px" y="0px"
	 viewBox="0 0 1280 1280" style="enable-background:new 0 0 1280 1280;" xml:space="preserve">
<style type="text/css">
	.st0{fill:#FFFFFF;}
	.st1{fill:#4827EC;}
</style>
<g>
	<path class="st0" d="M275.7,61.2c3.7-7.1,8.9-12.6,15.8-16.6c6.8-3.9,14.9-5.9,24.2-5.9c8,0,15.1,1.5,21.4,4.5s11.4,7.2,15.3,12.7
		s6.6,11.8,7.9,19.1h-30.4c-1.4-3-3.4-5.4-5.9-7.1c-2.6-1.7-5.5-2.5-8.8-2.5c-4.9,0-8.7,1.8-11.5,5.5c-2.8,3.6-4.2,8.5-4.2,14.7
		s1.4,11,4.2,14.7c2.8,3.6,6.7,5.5,11.5,5.5c3.3,0,6.2-0.8,8.8-2.5c2.6-1.7,4.5-4.1,5.9-7.1h30.4c-1.3,7.3-3.9,13.6-7.9,19.1
		c-3.9,5.5-9.1,9.7-15.3,12.7c-6.3,3-13.4,4.5-21.4,4.5c-9.3,0-17.3-2-24.2-5.9c-6.8-3.9-12.1-9.5-15.8-16.6
		c-3.7-7.1-5.5-15.2-5.5-24.3S272,68.3,275.7,61.2z"/>
	<path class="st0" d="M455.8,39.6v92h-28.9V95.8h-27.4v35.9h-28.9v-92h28.9v33.1h27.4V39.6H455.8z"/>
	<path class="st0" d="M527.8,117.7h-30.7l-4.5,13.9h-30.3l33.7-92h33.3l33.5,92h-30.4L527.8,117.7z M520.8,96l-8.3-25.6L504.2,96
		H520.8z"/>
	<path class="st0" d="M679.9,39.6v92h-28.7V85.8L637,131.7h-24.7l-14.2-45.9v45.9h-28.9v-92h35.4l20.3,55.2l19.8-55.2L679.9,39.6
		L679.9,39.6z"/>
	<path class="st0" d="M764.2,87c-2.7,4.7-6.7,8.5-11.9,11.2c-5.2,2.8-11.6,4.2-19,4.2h-11.4v29.2H693v-92h40.3
		c11.3,0,19.9,2.9,25.9,8.6s9,13.4,9,23C768.2,77,766.8,82.3,764.2,87z M738.9,71.2c0-5.6-3-8.4-9-8.4h-8.2v16.9h8.2
		C735.9,79.7,738.9,76.8,738.9,71.2z"/>
	<path class="st0" d="M806.1,39.6v92h-28.9v-92C777.2,39.6,806.1,39.6,806.1,39.6z"/>
	<path class="st0" d="M840.1,126.5c-7.2-4.1-13-9.7-17.2-16.9c-4.2-7.2-6.4-15.3-6.4-24.3s2.1-17.1,6.4-24.3
		c4.2-7.2,10-12.8,17.2-16.8s15.2-6,23.9-6s16.6,2,23.8,6s12.9,9.6,17.1,16.8c4.2,7.2,6.3,15.3,6.3,24.3s-2.1,17.1-6.3,24.3
		c-4.2,7.2-9.9,12.8-17.2,16.9c-7.2,4.1-15.1,6.1-23.7,6.1C855.3,132.6,847.4,130.5,840.1,126.5z M877.2,100.1
		c3.1-3.7,4.7-8.6,4.7-14.9s-1.6-11.3-4.7-15c-3.1-3.7-7.5-5.5-13.3-5.5s-10.3,1.8-13.4,5.5c-3.1,3.7-4.7,8.7-4.7,15
		c0,6.2,1.6,11.2,4.7,14.9c3.1,3.7,7.6,5.5,13.4,5.5C869.7,105.7,874.1,103.8,877.2,100.1z"/>
	<path class="st0" d="M1009.8,131.7H981l-30.5-46.3v46.3h-28.9v-92h28.9l30.5,47V39.6h28.9v92.1H1009.8z"/>
</g>
<g>
	<g>
		<g>
			<path class="st1" d="M695.1,1078.8h380.7c7.9,0,14.2,6.3,14.2,14.2v28.8c0,7.9-6.3,14.2-14.2,14.2H695.1
				c-7.9,0-14.2-6.3-14.2-14.2V1093C680.9,1085.1,687.2,1078.8,695.1,1078.8z"/>
			<path class="st1" d="M695.1,985.2h380.7c7.9,0,14.2,6.3,14.2,14.2v28.8c0,7.9-6.3,14.2-14.2,14.2H695.1
				c-7.9,0-14.2-6.3-14.2-14.2v-28.8C680.9,991.5,687.2,985.2,695.1,985.2z"/>
			<path class="st1" d="M695.1,891.5h380.7c7.9,0,14.2,6.3,14.2,14.2v28.8c0,7.9-6.3,14.2-14.2,14.2H695.1
				c-7.9,0-14.2-6.3-14.2-14.2v-28.8C680.9,897.9,687.2,891.5,695.1,891.5z"/>
			<path class="st1" d="M695.1,797.9h380.7c7.9,0,14.2,6.3,14.2,14.2v28.8c0,7.9-6.3,14.2-14.2,14.2H695.1
				c-7.9,0-14.2-6.3-14.2-14.2v-28.8C680.9,804.2,687.2,797.9,695.1,797.9z"/>
			<path class="st0" d="M695.1,704.2h380.7c7.9,0,14.2,6.3,14.2,14.2v28.8c0,7.9-6.3,14.2-14.2,14.2H695.1
				c-7.9,0-14.2-6.3-14.2-14.2v-28.8C680.9,710.6,687.2,704.2,695.1,704.2z"/>
			<path class="st0" d="M695.1,610.5h380.7c7.9,0,14.2,6.3,14.2,14.2v28.8c0,7.9-6.3,14.2-14.2,14.2H695.1
				c-7.9,0-14.2-6.3-14.2-14.2v-28.8C680.9,617,687.2,610.5,695.1,610.5z"/>
			<path class="st0" d="M695.1,516.9h380.7c7.9,0,14.2,6.3,14.2,14.2v28.8c0,7.9-6.3,14.2-14.2,14.2H695.1
				c-7.9,0-14.2-6.3-14.2-14.2v-28.8C680.9,523.3,687.2,516.9,695.1,516.9z"/>
			<path class="st0" d="M695.1,423.3h380.7c7.9,0,14.2,6.3,14.2,14.2v28.8c0,7.9-6.3,14.2-14.2,14.2H695.1
				c-7.9,0-14.2-6.3-14.2-14.2v-28.8C680.9,429.7,687.2,423.3,695.1,423.3z"/>
			<path class="st0" d="M695.1,329.6h380.7c7.9,0,14.2,6.3,14.2,14.2v28.8c0,7.9-6.3,14.2-14.2,14.2H695.1
				c-7.9,0-14.2-6.3-14.2-14.2v-28.8C680.9,336,687.2,329.6,695.1,329.6z"/>
			<path class="st0" d="M695.1,236h380.7c7.9,0,14.2,6.3,14.2,14.2V279c0,7.9-6.3,14.2-14.2,14.2H695.1c-7.9,0-14.2-6.3-14.2-14.2
				v-28.8C680.9,242.3,687.2,236,695.1,236z"/>
			<path class="st0" d="M204.2,1078.8h380.7c7.9,0,14.2,6.3,14.2,14.2v28.8c0,7.9-6.3,14.2-14.2,14.2H204.2
				c-7.9,0-14.2-6.3-14.2-14.2V1093C190,1085.1,196.3,1078.8,204.2,1078.8z"/>
			<path class="st0" d="M204.2,985.2h380.7c7.9,0,14.2,6.3,14.2,14.2v28.8c0,7.9-6.3,14.2-14.2,14.2H204.2
				c-7.9,0-14.2-6.3-14.2-14.2v-28.8C190,991.5,196.3,985.2,204.2,985.2z"/>
			<path class="st0" d="M204.2,891.5h380.7c7.9,0,14.2,6.3,14.2,14.2v28.8c0,7.9-6.3,14.2-14.2,14.2H204.2
				c-7.9,0-14.2-6.3-14.2-14.2v-28.8C190,897.9,196.3,891.5,204.2,891.5z"/>
			<path class="st0" d="M204.2,797.9h380.7c7.9,0,14.2,6.3,14.2,14.2v28.8c0,7.9-6.3,14.2-14.2,14.2H204.2
				c-7.9,0-14.2-6.3-14.2-14.2v-28.8C190,804.2,196.3,797.9,204.2,797.9z"/>
			<path class="st0" d="M204.2,704.2h380.7c7.9,0,14.2,6.3,14.2,14.2v28.8c0,7.9-6.3,14.2-14.2,14.2H204.2
				c-7.9,0-14.2-6.3-14.2-14.2v-28.8C190,710.6,196.3,704.2,204.2,704.2z"/>
			<path class="st0" d="M204.2,610.5h380.7c7.9,0,14.2,6.3,14.2,14.2v28.8c0,7.9-6.3,14.2-14.2,14.2H204.2
				c-7.9,0-14.2-6.3-14.2-14.2v-28.8C190,617,196.3,610.5,204.2,610.5z"/>
			<path class="st1" d="M204.2,516.9h380.7c7.9,0,14.2,6.3,14.2,14.2v28.8c0,7.9-6.3,14.2-14.2,14.2H204.2
				c-7.9,0-14.2-6.3-14.2-14.2v-28.8C190,523.3,196.3,516.9,204.2,516.9z"/>
			<path class="st1" d="M204.2,423.3h380.7c7.9,0,14.2,6.3,14.2,14.2v28.8c0,7.9-6.3,14.2-14.2,14.2H204.2
				c-7.9,0-14.2-6.3-14.2-14.2v-28.8C190,429.7,196.3,423.3,204.2,423.3z"/>
			<path class="st1" d="M204.2,329.6h380.7c7.9,0,14.2,6.3,14.2,14.2v28.8c0,7.9-6.3,14.2-14.2,14.2H204.2
				c-7.9,0-14.2-6.3-14.2-14.2v-28.8C190,336,196.3,329.6,204.2,329.6z"/>
			<path class="st1" d="M204.2,236h380.7c7.9,0,14.2,6.3,14.2,14.2V279c0,7.9-6.3,14.2-14.2,14.2H204.2c-7.9,0-14.2-6.3-14.2-14.2
				v-28.8C190,242.3,196.3,236,204.2,236z"/>
		</g>
	</g>
</g>
<g>
	<path class="st1" d="M151.5,379.6l-48-48c-2.7-2.7-7-2.7-9.7,0l-48,48c-2.6,2.7-2.6,7.1,0.2,9.7c2.7,2.6,6.9,2.6,9.5,0L91.7,353
		v120.6c0,3.8,3.1,6.9,6.9,6.9s6.9-3.1,6.9-6.9V353l36.3,36.3c2.7,2.6,7.1,2.6,9.7-0.2C154,386.5,154,382.3,151.5,379.6z"/>
</g>
<g>
	<path class="st1" d="M1128.5,992.3l48,48c2.7,2.7,7,2.7,9.7,0l48-48c2.6-2.7,2.6-7.1-0.2-9.7c-2.7-2.6-6.9-2.6-9.5,0l-36.3,36.3
		V898.3c0-3.8-3.1-6.9-6.9-6.9s-6.9,3.1-6.9,6.9V1019l-36.3-36.3c-2.7-2.6-7.1-2.6-9.7,0.2C1126,985.5,1126,989.7,1128.5,992.3z"/>
</g>
</svg>
