<?xml version="1.0" encoding="UTF-8"?>
<svg id="Layer_1" data-name="Layer 1" xmlns="http://www.w3.org/2000/svg" version="1.1" viewBox="0 0 1280 1280">
  <defs>
    <style>
      .cls-1 {
        fill: #af0;
      }

      .cls-1, .cls-2 {
        stroke-width: 0px;
      }

      .cls-2 {
        fill: #fff;
      }
    </style>
  </defs>
  <g>
    <path class="cls-2" d="M212.7,60.7c3.7-7.1,8.9-12.6,15.8-16.6,6.8-3.9,14.9-5.9,24.2-5.9s15.1,1.5,21.4,4.5c6.3,3,11.4,7.2,15.3,12.7s6.6,11.8,7.9,19.1h-30.4c-1.4-3-3.4-5.4-5.9-7.1-2.6-1.7-5.5-2.5-8.8-2.5-4.9,0-8.7,1.8-11.5,5.5-2.8,3.6-4.2,8.5-4.2,14.7s1.4,11,4.2,14.7c2.8,3.6,6.7,5.5,11.5,5.5s6.2-.8,8.8-2.5,4.5-4.1,5.9-7.1h30.4c-1.3,7.3-3.9,13.6-7.9,19.1-3.9,5.5-9.1,9.7-15.3,12.7-6.3,3-13.4,4.5-21.4,4.5s-17.3-2-24.2-5.9c-6.8-3.9-12.1-9.5-15.8-16.6s-5.5-15.2-5.5-24.3,1.8-17.4,5.5-24.5Z"/>
    <path class="cls-2" d="M328.7,126c-7.2-4.1-13-9.7-17.2-16.9-4.2-7.2-6.4-15.3-6.4-24.3s2.1-17.1,6.4-24.3c4.2-7.2,10-12.8,17.2-16.8s15.2-6,23.9-6,16.6,2,23.8,6c7.2,4,12.9,9.6,17.1,16.8s6.3,15.3,6.3,24.3-2.1,17.1-6.3,24.3c-4.2,7.2-9.9,12.8-17.2,16.9-7.2,4.1-15.1,6.1-23.7,6.1s-16.7-2.1-23.9-6.1ZM365.8,99.6c3.1-3.7,4.7-8.6,4.7-14.9s-1.6-11.3-4.7-15-7.5-5.5-13.3-5.5-10.3,1.8-13.4,5.5-4.7,8.7-4.7,15,1.6,11.2,4.7,14.9c3.1,3.7,7.6,5.5,13.4,5.5,5.7,0,10.1-1.8,13.3-5.5Z"/>
    <path class="cls-2" d="M520.7,39.1v92h-28.7v-45.8l-14.2,45.9h-24.7l-14.1-45.9v45.9h-28.9V39.2h35.4l20.3,55.2,19.8-55.2h35.1q0-.1,0-.1Z"/>
    <path class="cls-2" d="M605,86.5c-2.7,4.7-6.7,8.5-11.9,11.2-5.2,2.8-11.6,4.2-19,4.2h-11.4v29.2h-28.9V39.1h40.2c11.3,0,19.9,2.9,25.9,8.6s9,13.4,9,23c0,5.8-1.2,11.1-3.9,15.8ZM579.7,70.7c0-5.6-3-8.4-9-8.4h-8.2v16.9h8.2c6.1,0,9-2.9,9-8.5Z"/>
    <path class="cls-2" d="M647,62.1v11.3h28.6v21.7h-28.6v13h32.5v23h-61.4V39.1h61.4v23s-32.5,0-32.5,0Z"/>
    <path class="cls-2" d="M762.7,39.1v22.9h-24.4v69.2h-28.9V62h-24.2v-22.9h77.5Z"/>
    <path class="cls-2" d="M799.3,39.1v92h-28.9V39.1s28.9,0,28.9,0Z"/>
    <path class="cls-2" d="M884.6,39.1v22.9h-24.4v69.2h-28.9V62h-24.2v-22.9h77.5Z"/>
    <path class="cls-2" d="M913.4,126c-7.2-4.1-13-9.7-17.2-16.9-4.2-7.2-6.4-15.3-6.4-24.3s2.1-17.1,6.4-24.3c4.2-7.2,10-12.8,17.2-16.8s15.2-6,23.9-6,16.6,2,23.8,6,12.9,9.6,17.1,16.8c4.2,7.2,6.3,15.3,6.3,24.3s-2.1,17.1-6.3,24.3c-4.2,7.2-9.9,12.8-17.2,16.9-7.2,4.1-15.1,6.1-23.7,6.1s-16.7-2.1-23.9-6.1ZM950.5,99.6c3.1-3.7,4.7-8.6,4.7-14.9s-1.6-11.3-4.7-15c-3.1-3.7-7.5-5.5-13.3-5.5s-10.3,1.8-13.4,5.5c-3.1,3.7-4.7,8.7-4.7,15s1.6,11.2,4.7,14.9c3.1,3.7,7.6,5.5,13.4,5.5,5.8,0,10.2-1.8,13.3-5.5Z"/>
    <path class="cls-2" d="M1041.1,131.2l-17.3-33h0v33h-28.9V39.2h42.9c7.5,0,13.8,1.3,19.1,4,5.3,2.6,9.3,6.2,11.9,10.8s4,9.7,4,15.4-1.7,11.6-5.1,16.4-8.3,8.2-14.8,10.3l20,35.2h-31.7ZM1023.7,78.9h11.4c2.8,0,4.9-.6,6.2-1.9,1.4-1.3,2.1-3.2,2.1-5.9s-.7-4.3-2.1-5.7c-1.4-1.4-3.5-2.1-6.2-2.1h-11.4v15.6h0Z"/>
  </g>
  <g>
    <path class="cls-1" d="M695.1,1078.8h380.7c7.9,0,14.2,6.3,14.2,14.2v28.8c0,7.9-6.3,14.2-14.2,14.2h-380.7c-7.9,0-14.2-6.3-14.2-14.2v-28.8c0-7.9,6.3-14.2,14.2-14.2Z"/>
    <path class="cls-1" d="M695.1,985.2h380.7c7.9,0,14.2,6.3,14.2,14.2v28.8c0,7.9-6.3,14.2-14.2,14.2h-380.7c-7.9,0-14.2-6.3-14.2-14.2v-28.8c0-7.9,6.3-14.2,14.2-14.2Z"/>
    <path class="cls-1" d="M695.1,891.5h380.7c7.9,0,14.2,6.3,14.2,14.2v28.8c0,7.9-6.3,14.2-14.2,14.2h-380.7c-7.9,0-14.2-6.3-14.2-14.2v-28.8c0-7.8,6.3-14.2,14.2-14.2Z"/>
    <path class="cls-1" d="M695.1,797.9h380.7c7.9,0,14.2,6.3,14.2,14.2v28.8c0,7.9-6.3,14.2-14.2,14.2h-380.7c-7.9,0-14.2-6.3-14.2-14.2v-28.8c0-7.9,6.3-14.2,14.2-14.2Z"/>
    <path class="cls-2" d="M695.1,704.2h380.7c7.9,0,14.2,6.3,14.2,14.2v28.8c0,7.9-6.3,14.2-14.2,14.2h-380.7c-7.9,0-14.2-6.3-14.2-14.2v-28.8c0-7.8,6.3-14.2,14.2-14.2Z"/>
    <path class="cls-2" d="M695.1,610.5h380.7c7.9,0,14.2,6.3,14.2,14.2v28.8c0,7.9-6.3,14.2-14.2,14.2h-380.7c-7.9,0-14.2-6.3-14.2-14.2v-28.8c0-7.7,6.3-14.2,14.2-14.2Z"/>
    <path class="cls-2" d="M695.1,516.9h380.7c7.9,0,14.2,6.3,14.2,14.2v28.8c0,7.9-6.3,14.2-14.2,14.2h-380.7c-7.9,0-14.2-6.3-14.2-14.2v-28.8c0-7.8,6.3-14.2,14.2-14.2Z"/>
    <path class="cls-2" d="M695.1,423.3h380.7c7.9,0,14.2,6.3,14.2,14.2v28.8c0,7.9-6.3,14.2-14.2,14.2h-380.7c-7.9,0-14.2-6.3-14.2-14.2v-28.8c0-7.8,6.3-14.2,14.2-14.2Z"/>
    <path class="cls-2" d="M695.1,329.6h380.7c7.9,0,14.2,6.3,14.2,14.2v28.8c0,7.9-6.3,14.2-14.2,14.2h-380.7c-7.9,0-14.2-6.3-14.2-14.2v-28.8c0-7.8,6.3-14.2,14.2-14.2Z"/>
    <path class="cls-2" d="M695.1,236h380.7c7.9,0,14.2,6.3,14.2,14.2v28.8c0,7.9-6.3,14.2-14.2,14.2h-380.7c-7.9,0-14.2-6.3-14.2-14.2v-28.8c0-7.9,6.3-14.2,14.2-14.2Z"/>
    <path class="cls-2" d="M204.2,1078.8h380.7c7.9,0,14.2,6.3,14.2,14.2v28.8c0,7.9-6.3,14.2-14.2,14.2H204.2c-7.9,0-14.2-6.3-14.2-14.2v-28.8c0-7.9,6.3-14.2,14.2-14.2Z"/>
    <path class="cls-2" d="M204.2,985.2h380.7c7.9,0,14.2,6.3,14.2,14.2v28.8c0,7.9-6.3,14.2-14.2,14.2H204.2c-7.9,0-14.2-6.3-14.2-14.2v-28.8c0-7.9,6.3-14.2,14.2-14.2Z"/>
    <path class="cls-2" d="M204.2,891.5h380.7c7.9,0,14.2,6.3,14.2,14.2v28.8c0,7.9-6.3,14.2-14.2,14.2H204.2c-7.9,0-14.2-6.3-14.2-14.2v-28.8c0-7.8,6.3-14.2,14.2-14.2Z"/>
    <path class="cls-2" d="M204.2,797.9h380.7c7.9,0,14.2,6.3,14.2,14.2v28.8c0,7.9-6.3,14.2-14.2,14.2H204.2c-7.9,0-14.2-6.3-14.2-14.2v-28.8c0-7.9,6.3-14.2,14.2-14.2Z"/>
    <path class="cls-2" d="M204.2,704.2h380.7c7.9,0,14.2,6.3,14.2,14.2v28.8c0,7.9-6.3,14.2-14.2,14.2H204.2c-7.9,0-14.2-6.3-14.2-14.2v-28.8c0-7.8,6.3-14.2,14.2-14.2Z"/>
    <path class="cls-2" d="M204.2,610.5h380.7c7.9,0,14.2,6.3,14.2,14.2v28.8c0,7.9-6.3,14.2-14.2,14.2H204.2c-7.9,0-14.2-6.3-14.2-14.2v-28.8c0-7.7,6.3-14.2,14.2-14.2Z"/>
    <path class="cls-1" d="M204.2,516.9h380.7c7.9,0,14.2,6.3,14.2,14.2v28.8c0,7.9-6.3,14.2-14.2,14.2H204.2c-7.9,0-14.2-6.3-14.2-14.2v-28.8c0-7.8,6.3-14.2,14.2-14.2Z"/>
    <path class="cls-1" d="M204.2,423.3h380.7c7.9,0,14.2,6.3,14.2,14.2v28.8c0,7.9-6.3,14.2-14.2,14.2H204.2c-7.9,0-14.2-6.3-14.2-14.2v-28.8c0-7.8,6.3-14.2,14.2-14.2Z"/>
    <path class="cls-1" d="M204.2,329.6h380.7c7.9,0,14.2,6.3,14.2,14.2v28.8c0,7.9-6.3,14.2-14.2,14.2H204.2c-7.9,0-14.2-6.3-14.2-14.2v-28.8c0-7.8,6.3-14.2,14.2-14.2Z"/>
    <path class="cls-1" d="M204.2,236h380.7c7.9,0,14.2,6.3,14.2,14.2v28.8c0,7.9-6.3,14.2-14.2,14.2H204.2c-7.9,0-14.2-6.3-14.2-14.2v-28.8c0-7.9,6.3-14.2,14.2-14.2Z"/>
  </g>
  <path class="cls-1" d="M152.1,379.6l-48-48c-2.7-2.7-7-2.7-9.7,0l-48,48c-2.6,2.7-2.6,7.1.2,9.7,2.7,2.6,6.9,2.6,9.5,0l36.3-36.3v120.6c0,3.8,3.1,6.9,6.9,6.9s6.9-3.1,6.9-6.9v-120.6l36.3,36.3c2.7,2.6,7.1,2.6,9.7-.2,2.5-2.6,2.5-6.8,0-9.5Z"/>
  <path class="cls-1" d="M1127.9,992.4l48,48c2.7,2.7,7,2.7,9.7,0l48-48c2.6-2.7,2.6-7.1-.2-9.7-2.7-2.6-6.9-2.6-9.5,0l-36.3,36.3v-120.7c0-3.8-3.1-6.9-6.9-6.9s-6.9,3.1-6.9,6.9v120.7l-36.3-36.3c-2.7-2.6-7.1-2.6-9.7.2-2.5,2.6-2.5,6.8.1,9.5Z"/>
</svg>