<?xml version="1.0" encoding="UTF-8"?>
<svg id="Layer_1" data-name="Layer 1" xmlns="http://www.w3.org/2000/svg" version="1.1" viewBox="0 0 1280 1280">
  <defs>
    <style>
      .cls-1 {
        fill: #af0;
      }

      .cls-1, .cls-2 {
        stroke-width: 0px;
      }

      .cls-2 {
        fill: #fff;
      }
    </style>
  </defs>
  <g>
    <path class="cls-1" d="M695.1,1078.8h380.7c7.9,0,14.2,6.3,14.2,14.2v28.8c0,7.9-6.3,14.2-14.2,14.2h-380.7c-7.9,0-14.2-6.3-14.2-14.2v-28.8c0-7.9,6.3-14.2,14.2-14.2h0Z"/>
    <path class="cls-1" d="M695.1,985.2h380.7c7.9,0,14.2,6.3,14.2,14.2v28.8c0,7.9-6.3,14.2-14.2,14.2h-380.7c-7.9,0-14.2-6.3-14.2-14.2v-28.8c0-7.9,6.3-14.2,14.2-14.2h0Z"/>
    <path class="cls-1" d="M695.1,891.5h380.7c7.9,0,14.2,6.3,14.2,14.2v28.8c0,7.9-6.3,14.2-14.2,14.2h-380.7c-7.9,0-14.2-6.3-14.2-14.2v-28.8c0-7.8,6.3-14.2,14.2-14.2h0Z"/>
    <path class="cls-1" d="M695.1,797.9h380.7c7.9,0,14.2,6.3,14.2,14.2v28.8c0,7.9-6.3,14.2-14.2,14.2h-380.7c-7.9,0-14.2-6.3-14.2-14.2v-28.8c0-7.9,6.3-14.2,14.2-14.2h0Z"/>
    <path class="cls-2" d="M695.1,704.2h380.7c7.9,0,14.2,6.3,14.2,14.2v28.8c0,7.9-6.3,14.2-14.2,14.2h-380.7c-7.9,0-14.2-6.3-14.2-14.2v-28.8c0-7.8,6.3-14.2,14.2-14.2h0Z"/>
    <path class="cls-2" d="M695.1,610.5h380.7c7.9,0,14.2,6.3,14.2,14.2v28.8c0,7.9-6.3,14.2-14.2,14.2h-380.7c-7.9,0-14.2-6.3-14.2-14.2v-28.8c0-7.7,6.3-14.2,14.2-14.2h0Z"/>
    <path class="cls-2" d="M695.1,516.9h380.7c7.9,0,14.2,6.3,14.2,14.2v28.8c0,7.9-6.3,14.2-14.2,14.2h-380.7c-7.9,0-14.2-6.3-14.2-14.2v-28.8c0-7.8,6.3-14.2,14.2-14.2h0Z"/>
    <path class="cls-2" d="M695.1,423.3h380.7c7.9,0,14.2,6.3,14.2,14.2v28.8c0,7.9-6.3,14.2-14.2,14.2h-380.7c-7.9,0-14.2-6.3-14.2-14.2v-28.8c0-7.8,6.3-14.2,14.2-14.2h0Z"/>
    <path class="cls-2" d="M695.1,329.6h380.7c7.9,0,14.2,6.3,14.2,14.2v28.8c0,7.9-6.3,14.2-14.2,14.2h-380.7c-7.9,0-14.2-6.3-14.2-14.2v-28.8c0-7.8,6.3-14.2,14.2-14.2h0Z"/>
    <path class="cls-2" d="M695.1,236h380.7c7.9,0,14.2,6.3,14.2,14.2v28.8c0,7.9-6.3,14.2-14.2,14.2h-380.7c-7.9,0-14.2-6.3-14.2-14.2v-28.8c0-7.9,6.3-14.2,14.2-14.2h0Z"/>
    <path class="cls-2" d="M204.2,1078.8h380.7c7.9,0,14.2,6.3,14.2,14.2v28.8c0,7.9-6.3,14.2-14.2,14.2H204.2c-7.9,0-14.2-6.3-14.2-14.2v-28.8c0-7.9,6.3-14.2,14.2-14.2Z"/>
    <path class="cls-2" d="M204.2,985.2h380.7c7.9,0,14.2,6.3,14.2,14.2v28.8c0,7.9-6.3,14.2-14.2,14.2H204.2c-7.9,0-14.2-6.3-14.2-14.2v-28.8c0-7.9,6.3-14.2,14.2-14.2h0Z"/>
    <path class="cls-2" d="M204.2,891.5h380.7c7.9,0,14.2,6.3,14.2,14.2v28.8c0,7.9-6.3,14.2-14.2,14.2H204.2c-7.9,0-14.2-6.3-14.2-14.2v-28.8c0-7.8,6.3-14.2,14.2-14.2Z"/>
    <path class="cls-2" d="M204.2,797.9h380.7c7.9,0,14.2,6.3,14.2,14.2v28.8c0,7.9-6.3,14.2-14.2,14.2H204.2c-7.9,0-14.2-6.3-14.2-14.2v-28.8c0-7.9,6.3-14.2,14.2-14.2Z"/>
    <path class="cls-2" d="M204.2,704.2h380.7c7.9,0,14.2,6.3,14.2,14.2v28.8c0,7.9-6.3,14.2-14.2,14.2H204.2c-7.9,0-14.2-6.3-14.2-14.2v-28.8c0-7.8,6.3-14.2,14.2-14.2Z"/>
    <path class="cls-2" d="M204.2,610.5h380.7c7.9,0,14.2,6.3,14.2,14.2v28.8c0,7.9-6.3,14.2-14.2,14.2H204.2c-7.9,0-14.2-6.3-14.2-14.2v-28.8c0-7.7,6.3-14.2,14.2-14.2Z"/>
    <path class="cls-1" d="M204.2,516.9h380.7c7.9,0,14.2,6.3,14.2,14.2v28.8c0,7.9-6.3,14.2-14.2,14.2H204.2c-7.9,0-14.2-6.3-14.2-14.2v-28.8c0-7.8,6.3-14.2,14.2-14.2Z"/>
    <path class="cls-1" d="M204.2,423.3h380.7c7.9,0,14.2,6.3,14.2,14.2v28.8c0,7.9-6.3,14.2-14.2,14.2H204.2c-7.9,0-14.2-6.3-14.2-14.2v-28.8c0-7.8,6.3-14.2,14.2-14.2Z"/>
    <path class="cls-1" d="M204.2,329.6h380.7c7.9,0,14.2,6.3,14.2,14.2v28.8c0,7.9-6.3,14.2-14.2,14.2H204.2c-7.9,0-14.2-6.3-14.2-14.2v-28.8c0-7.8,6.3-14.2,14.2-14.2Z"/>
    <path class="cls-1" d="M204.2,236h380.7c7.9,0,14.2,6.3,14.2,14.2v28.8c0,7.9-6.3,14.2-14.2,14.2H204.2c-7.9,0-14.2-6.3-14.2-14.2v-28.8c0-7.9,6.3-14.2,14.2-14.2Z"/>
  </g>
  <path class="cls-1" d="M152.1,379.6l-48-48c-2.7-2.7-7-2.7-9.7,0l-48,48c-2.6,2.7-2.6,7.1.2,9.7,2.7,2.6,6.9,2.6,9.5,0l36.3-36.3v120.6c0,3.8,3.1,6.9,6.9,6.9s6.9-3.1,6.9-6.9v-120.6l36.3,36.3c2.7,2.6,7.1,2.6,9.7-.2,2.5-2.6,2.5-6.8,0-9.5h-.1Z"/>
  <path class="cls-1" d="M1127.9,992.4l48,48c2.7,2.7,7,2.7,9.7,0l48-48c2.6-2.7,2.6-7.1-.2-9.7-2.7-2.6-6.9-2.6-9.5,0l-36.3,36.3v-120.7c0-3.8-3.1-6.9-6.9-6.9s-6.9,3.1-6.9,6.9v120.7l-36.3-36.3c-2.7-2.6-7.1-2.6-9.7.2-2.5,2.6-2.5,6.8,0,9.5h0Z"/>
  <g>
    <path class="cls-2" d="M353.8,59.9c3.8-7.4,9.3-13.2,16.5-17.3,7.1-4.1,15.6-6.2,25.2-6.2s15.8,1.6,22.3,4.7c6.6,3.1,11.9,7.5,16,13.2,4.1,5.7,6.9,12.4,8.2,20h-31.8c-1.4-3.2-3.5-5.6-6.2-7.4-2.7-1.8-5.7-2.6-9.2-2.6-5.1,0-9.1,1.9-12,5.7-2.9,3.8-4.4,8.9-4.4,15.3s1.5,11.5,4.4,15.3c2.9,3.8,6.9,5.7,12,5.7s6.5-.9,9.2-2.6c2.7-1.8,4.7-4.2,6.2-7.4h31.8c-1.4,7.6-4.1,14.3-8.2,20-4.1,5.7-9.5,10.1-16,13.2-6.6,3.1-14,4.7-22.3,4.7s-18.1-2.1-25.2-6.2c-7.1-4.1-12.6-9.9-16.5-17.3-3.8-7.4-5.8-15.9-5.8-25.4s1.9-18,5.8-25.4Z"/>
    <path class="cls-2" d="M474.8,128.1c-7.6-4.3-13.6-10.1-18-17.6-4.4-7.5-6.7-16-6.7-25.4s2.2-17.9,6.7-25.4c4.4-7.5,10.4-13.4,18-17.6,7.6-4.2,15.9-6.3,24.9-6.3s17.3,2.1,24.8,6.3c7.5,4.2,13.5,10.1,17.8,17.6,4.4,7.5,6.6,16,6.6,25.4s-2.2,17.9-6.6,25.4c-4.4,7.5-10.4,13.4-17.9,17.6-7.6,4.3-15.8,6.4-24.8,6.4s-17.4-2.1-24.9-6.4ZM513.6,100.6c3.3-3.8,4.9-9,4.9-15.5s-1.6-11.8-4.9-15.7c-3.3-3.8-7.9-5.8-13.8-5.8s-10.7,1.9-14,5.8c-3.3,3.8-4.9,9.1-4.9,15.7s1.6,11.7,4.9,15.5c3.3,3.8,7.9,5.8,14,5.8s10.6-1.9,13.8-5.8Z"/>
    <path class="cls-2" d="M652,133.5h-30.1l-31.9-48.3v48.3h-30.1V37.4h30.1l31.9,49.1v-49.1h30.1v96.1Z"/>
    <path class="cls-2" d="M733.4,37.4v23.9h-37.7v13.3h27.1v22.7h-27.1v36.2h-30.1V37.4h67.9Z"/>
    <path class="cls-2" d="M825.9,74.7v24.8h-63.2v-24.8h63.2Z"/>
    <path class="cls-2" d="M898.1,61.4v11.8h29.9v22.7h-29.9v13.6h33.9v24h-64.1V37.4h64.1v24h-33.9Z"/>
  </g>
</svg>