<?xml version="1.0" encoding="utf-8"?>
<!-- Generator: Adobe Illustrator 28.5.0, SVG Export Plug-In . SVG Version: 9.03 Build 54727)  -->
<svg version="1.0" id="Layer_1" xmlns="http://www.w3.org/2000/svg" xmlns:xlink="http://www.w3.org/1999/xlink" x="0px" y="0px"
	 viewBox="0 0 1280 1280" style="enable-background:new 0 0 1280 1280;" xml:space="preserve">
<style type="text/css">
	.st0{fill:#FFFFFF;}
	.st1{fill:#AAFF00;}
</style>
<g>
	<g>
		<path class="st0" d="M508.1,63v11.3h28.6V96h-28.6v13h32.5v23h-61.4V40h61.4v23H508.1z"/>
		<path class="st0" d="M580.4,110.2h27.8V132h-56.7V40h28.9V110.2z"/>
		<path class="st0" d="M646.2,40v92.1h-28.9V40H646.2z"/>
		<path class="st0" d="M731.6,40v22.9h-24.4v69.2h-28.9V62.9H654V40H731.6z"/>
		<path class="st0" d="M768.2,63v11.3h28.6V96h-28.6v13h32.5v23h-61.4V40h61.4v23H768.2z"/>
	</g>
	<g>
		<g>
			<path class="st1" d="M695.1,1078.8h380.7c7.9,0,14.2,6.3,14.2,14.2v28.8c0,7.9-6.3,14.2-14.2,14.2H695.1
				c-7.9,0-14.2-6.3-14.2-14.2V1093C680.9,1085.1,687.2,1078.8,695.1,1078.8z"/>
			<path class="st1" d="M695.1,985.2h380.7c7.9,0,14.2,6.3,14.2,14.2v28.8c0,7.9-6.3,14.2-14.2,14.2H695.1
				c-7.9,0-14.2-6.3-14.2-14.2v-28.8C680.9,991.5,687.2,985.2,695.1,985.2z"/>
			<path class="st1" d="M695.1,891.5h380.7c7.9,0,14.2,6.3,14.2,14.2v28.8c0,7.9-6.3,14.2-14.2,14.2H695.1
				c-7.9,0-14.2-6.3-14.2-14.2v-28.8C680.9,897.9,687.2,891.5,695.1,891.5z"/>
			<path class="st1" d="M695.1,797.9h380.7c7.9,0,14.2,6.3,14.2,14.2v28.8c0,7.9-6.3,14.2-14.2,14.2H695.1
				c-7.9,0-14.2-6.3-14.2-14.2v-28.8C680.9,804.2,687.2,797.9,695.1,797.9z"/>
			<path class="st0" d="M695.1,704.2h380.7c7.9,0,14.2,6.3,14.2,14.2v28.8c0,7.9-6.3,14.2-14.2,14.2H695.1
				c-7.9,0-14.2-6.3-14.2-14.2v-28.8C680.9,710.6,687.2,704.2,695.1,704.2z"/>
			<path class="st0" d="M695.1,610.5h380.7c7.9,0,14.2,6.3,14.2,14.2v28.8c0,7.9-6.3,14.2-14.2,14.2H695.1
				c-7.9,0-14.2-6.3-14.2-14.2v-28.8C680.9,617,687.2,610.5,695.1,610.5z"/>
			<path class="st0" d="M695.1,516.9h380.7c7.9,0,14.2,6.3,14.2,14.2v28.8c0,7.9-6.3,14.2-14.2,14.2H695.1
				c-7.9,0-14.2-6.3-14.2-14.2v-28.8C680.9,523.3,687.2,516.9,695.1,516.9z"/>
			<path class="st0" d="M695.1,423.3h380.7c7.9,0,14.2,6.3,14.2,14.2v28.8c0,7.9-6.3,14.2-14.2,14.2H695.1
				c-7.9,0-14.2-6.3-14.2-14.2v-28.8C680.9,429.7,687.2,423.3,695.1,423.3z"/>
			<path class="st0" d="M695.1,329.6h380.7c7.9,0,14.2,6.3,14.2,14.2v28.8c0,7.9-6.3,14.2-14.2,14.2H695.1
				c-7.9,0-14.2-6.3-14.2-14.2v-28.8C680.9,336,687.2,329.6,695.1,329.6z"/>
			<path class="st0" d="M695.1,236h380.7c7.9,0,14.2,6.3,14.2,14.2V279c0,7.9-6.3,14.2-14.2,14.2H695.1c-7.9,0-14.2-6.3-14.2-14.2
				v-28.8C680.9,242.3,687.2,236,695.1,236z"/>
			<path class="st0" d="M204.2,1078.8h380.7c7.9,0,14.2,6.3,14.2,14.2v28.8c0,7.9-6.3,14.2-14.2,14.2H204.2
				c-7.9,0-14.2-6.3-14.2-14.2V1093C190,1085.1,196.3,1078.8,204.2,1078.8z"/>
			<path class="st0" d="M204.2,985.2h380.7c7.9,0,14.2,6.3,14.2,14.2v28.8c0,7.9-6.3,14.2-14.2,14.2H204.2
				c-7.9,0-14.2-6.3-14.2-14.2v-28.8C190,991.5,196.3,985.2,204.2,985.2z"/>
			<path class="st0" d="M204.2,891.5h380.7c7.9,0,14.2,6.3,14.2,14.2v28.8c0,7.9-6.3,14.2-14.2,14.2H204.2
				c-7.9,0-14.2-6.3-14.2-14.2v-28.8C190,897.9,196.3,891.5,204.2,891.5z"/>
			<path class="st0" d="M204.2,797.9h380.7c7.9,0,14.2,6.3,14.2,14.2v28.8c0,7.9-6.3,14.2-14.2,14.2H204.2
				c-7.9,0-14.2-6.3-14.2-14.2v-28.8C190,804.2,196.3,797.9,204.2,797.9z"/>
			<path class="st0" d="M204.2,704.2h380.7c7.9,0,14.2,6.3,14.2,14.2v28.8c0,7.9-6.3,14.2-14.2,14.2H204.2
				c-7.9,0-14.2-6.3-14.2-14.2v-28.8C190,710.6,196.3,704.2,204.2,704.2z"/>
			<path class="st0" d="M204.2,610.5h380.7c7.9,0,14.2,6.3,14.2,14.2v28.8c0,7.9-6.3,14.2-14.2,14.2H204.2
				c-7.9,0-14.2-6.3-14.2-14.2v-28.8C190,617,196.3,610.5,204.2,610.5z"/>
			<path class="st1" d="M204.2,516.9h380.7c7.9,0,14.2,6.3,14.2,14.2v28.8c0,7.9-6.3,14.2-14.2,14.2H204.2
				c-7.9,0-14.2-6.3-14.2-14.2v-28.8C190,523.3,196.3,516.9,204.2,516.9z"/>
			<path class="st1" d="M204.2,423.3h380.7c7.9,0,14.2,6.3,14.2,14.2v28.8c0,7.9-6.3,14.2-14.2,14.2H204.2
				c-7.9,0-14.2-6.3-14.2-14.2v-28.8C190,429.7,196.3,423.3,204.2,423.3z"/>
			<path class="st1" d="M204.2,329.6h380.7c7.9,0,14.2,6.3,14.2,14.2v28.8c0,7.9-6.3,14.2-14.2,14.2H204.2
				c-7.9,0-14.2-6.3-14.2-14.2v-28.8C190,336,196.3,329.6,204.2,329.6z"/>
			<path class="st1" d="M204.2,236h380.7c7.9,0,14.2,6.3,14.2,14.2V279c0,7.9-6.3,14.2-14.2,14.2H204.2c-7.9,0-14.2-6.3-14.2-14.2
				v-28.8C190,242.3,196.3,236,204.2,236z"/>
		</g>
	</g>
</g>
<g>
	<path class="st1" d="M152.8,379.6l-48-48c-2.7-2.7-7-2.7-9.7,0l-48,48c-2.6,2.7-2.6,7.1,0.2,9.7c2.7,2.6,6.9,2.6,9.5,0L93,353
		v120.6c0,3.8,3.1,6.9,6.9,6.9s6.9-3.1,6.9-6.9V353l36.3,36.3c2.7,2.6,7.1,2.6,9.7-0.2C155.3,386.5,155.3,382.3,152.8,379.6z"/>
</g>
<g>
	<path class="st1" d="M1127.2,992.4l48,48c2.7,2.7,7,2.7,9.7,0l48-48c2.6-2.7,2.6-7.1-0.2-9.7c-2.7-2.6-6.9-2.6-9.5,0L1187,1019
		V898.3c0-3.8-3.1-6.9-6.9-6.9s-6.9,3.1-6.9,6.9V1019l-36.3-36.3c-2.7-2.6-7.1-2.6-9.7,0.2C1124.7,985.5,1124.7,989.7,1127.2,992.4z
		"/>
</g>
</svg>
