<?xml version="1.0" encoding="UTF-8"?>
<svg xmlns="http://www.w3.org/2000/svg" version="1.1" xmlns:xlink="http://www.w3.org/1999/xlink" viewBox="0 0 1920 1024">
  <defs>
    <style>
      .cls-1 {
        stroke-width: 10px;
      }

      .cls-1, .cls-2, .cls-3 {
        fill: none;
      }

      .cls-1, .cls-3 {
        stroke: #fff;
        stroke-miterlimit: 10;
      }

      .cls-4 {
        clip-path: url(#clippath-2);
      }

      .cls-2, .cls-5, .cls-6, .cls-7, .cls-8 {
        stroke-width: 0px;
      }

      .cls-5 {
        fill: #af0;
      }

      .cls-9 {
        clip-path: url(#clippath-1);
      }

      .cls-6 {
        fill: #212121;
      }

      .cls-10 {
        clip-path: url(#clippath);
      }

      .cls-11 {
        clip-path: url(#clippath-3);
      }

      .cls-7 {
        fill: #fff;
      }

      .cls-8 {
        fill: #212121;
      }

      .cls-3 {
        stroke-width: 2px;
      }
    </style>
    <clipPath id="clippath">
      <rect class="cls-2" x="80" y="849.9" width="510.5" height="39.8"/>
    </clipPath>
    <clipPath id="clippath-1">
      <rect class="cls-2" x="1329.5" y="849.9" width="510.5" height="39.8"/>
    </clipPath>
    <clipPath id="clippath-2">
      <rect class="cls-2" x="1329.5" y="131.8" width="510.5" height="39.8"/>
    </clipPath>
    <clipPath id="clippath-3">
      <rect class="cls-2" x="80" y="131.8" width="510.5" height="39.8"/>
    </clipPath>
  </defs>
  <g id="Layer_2" data-name="Layer 2">
    <rect class="cls-6" width="1920" height="1024"/>
  </g>
  <g id="Layer_1" data-name="Layer 1">
    <g id="Layer_1-2" data-name="Layer 1">
      <rect class="cls-2" width="1920" height="1024"/>
    </g>
    <g id="Layer_2-2" data-name="Layer 2">
      <line class="cls-3" x1="766.1" y1="705.9" x2="1153.9" y2="318.1"/>
      <line class="cls-3" x1="1153.9" y1="705.9" x2="766.1" y2="318.1"/>
    </g>
    <g id="wireframe">
      <g class="cls-10">
        <g>
          <rect class="cls-5" x="77.3" y="828.1" width="4" height="83.3" transform="translate(-591.8 310.8) rotate(-45)"/>
          <rect class="cls-5" x="107.5" y="828" width="4" height="83.3" transform="translate(-582.9 332.2) rotate(-45)"/>
          <rect class="cls-5" x="137.6" y="828" width="4" height="83.3" transform="translate(-574.1 353.4) rotate(-45)"/>
          <rect class="cls-5" x="167.7" y="828.1" width="4" height="83.3" transform="translate(-565.3 374.7) rotate(-45)"/>
          <rect class="cls-5" x="197.8" y="828.1" width="4" height="83.3" transform="translate(-556.5 396) rotate(-45)"/>
          <rect class="cls-5" x="227.9" y="828" width="4" height="83.3" transform="translate(-547.6 417.3) rotate(-45)"/>
          <rect class="cls-5" x="258" y="828" width="4" height="83.3" transform="translate(-538.8 438.6) rotate(-45)"/>
          <rect class="cls-5" x="288.1" y="828.1" width="4" height="83.3" transform="translate(-530 459.9) rotate(-45)"/>
          <rect class="cls-5" x="318.2" y="828.1" width="4" height="83.3" transform="translate(-521.2 481.1) rotate(-45)"/>
          <rect class="cls-5" x="348.3" y="828.1" width="4" height="83.3" transform="translate(-512.4 502.4) rotate(-45)"/>
          <rect class="cls-5" x="378.4" y="828.1" width="4" height="83.3" transform="translate(-503.6 523.7) rotate(-45)"/>
          <rect class="cls-5" x="408.5" y="828.1" width="4" height="83.3" transform="translate(-494.8 545) rotate(-45)"/>
          <rect class="cls-5" x="438.6" y="828.1" width="4" height="83.3" transform="translate(-485.9 566.3) rotate(-45)"/>
          <rect class="cls-5" x="468.7" y="828.1" width="4" height="83.3" transform="translate(-477.1 587.6) rotate(-45)"/>
          <rect class="cls-5" x="498.8" y="828.1" width="4" height="83.3" transform="translate(-468.3 608.9) rotate(-45)"/>
          <rect class="cls-5" x="528.9" y="828.1" width="4" height="83.3" transform="translate(-459.5 630.2) rotate(-45)"/>
          <rect class="cls-5" x="559" y="828.1" width="4" height="83.3" transform="translate(-450.7 651.4) rotate(-45)"/>
          <rect class="cls-5" x="589.1" y="828.1" width="4" height="83.3" transform="translate(-441.9 672.7) rotate(-45)"/>
        </g>
      </g>
      <g class="cls-9">
        <g>
          <rect class="cls-5" x="1838.7" y="828.2" width="4" height="83.3" transform="translate(-76 1556.3) rotate(-45)"/>
          <rect class="cls-5" x="1808.6" y="828.2" width="4" height="83.3" transform="translate(-84.8 1535) rotate(-45)"/>
          <rect class="cls-5" x="1778.5" y="828.2" width="4" height="83.3" transform="translate(-93.6 1513.7) rotate(-45)"/>
          <rect class="cls-5" x="1748.4" y="828.2" width="4" height="83.3" transform="translate(-102.4 1492.4) rotate(-45)"/>
          <rect class="cls-5" x="1718.3" y="828.2" width="4" height="83.3" transform="translate(-111.2 1471.2) rotate(-45)"/>
          <rect class="cls-5" x="1688.2" y="828.2" width="4" height="83.3" transform="translate(-120 1449.9) rotate(-45)"/>
          <rect class="cls-5" x="1658.1" y="828.2" width="4" height="83.3" transform="translate(-128.9 1428.6) rotate(-45)"/>
          <rect class="cls-5" x="1628" y="828.2" width="4" height="83.3" transform="translate(-137.7 1407.3) rotate(-45)"/>
          <rect class="cls-5" x="1597.8" y="828.2" width="4" height="83.4" transform="translate(-146.1 1387.5) rotate(-45)"/>
          <rect class="cls-5" x="1567.7" y="828.2" width="4" height="83.4" transform="translate(-154.9 1366.2) rotate(-45)"/>
          <rect class="cls-5" x="1537.6" y="828.2" width="4" height="83.3" transform="translate(-164.2 1343.4) rotate(-45)"/>
          <rect class="cls-5" x="1507.5" y="828.2" width="4" height="83.3" transform="translate(-173 1322.1) rotate(-45)"/>
          <rect class="cls-5" x="1477.4" y="828.2" width="4" height="83.3" transform="translate(-181.8 1300.8) rotate(-45)"/>
          <rect class="cls-5" x="1447.3" y="828.2" width="4" height="83.3" transform="translate(-190.6 1279.5) rotate(-45)"/>
          <rect class="cls-5" x="1417.2" y="828.2" width="4" height="83.3" transform="translate(-199.4 1258.3) rotate(-45)"/>
          <rect class="cls-5" x="1387.1" y="828.2" width="4" height="83.3" transform="translate(-208.2 1237) rotate(-45)"/>
          <rect class="cls-5" x="1357" y="828.2" width="4" height="83.3" transform="translate(-217 1215.7) rotate(-45)"/>
          <rect class="cls-5" x="1326.9" y="828.2" width="4" height="83.3" transform="translate(-225.9 1194.4) rotate(-45)"/>
        </g>
      </g>
      <g class="cls-4">
        <g>
          <rect class="cls-5" x="1838.7" y="110.1" width="4" height="83.3" transform="translate(431.8 1346) rotate(-45)"/>
          <rect class="cls-5" x="1808.6" y="110.1" width="4" height="83.3" transform="translate(423 1324.7) rotate(-45)"/>
          <rect class="cls-5" x="1778.5" y="110.1" width="4" height="83.3" transform="translate(414.2 1303.4) rotate(-45)"/>
          <rect class="cls-5" x="1748.4" y="110.1" width="4" height="83.3" transform="translate(405.4 1282.1) rotate(-45)"/>
          <rect class="cls-5" x="1718.3" y="110.1" width="4" height="83.3" transform="translate(396.5 1260.8) rotate(-45)"/>
          <rect class="cls-5" x="1688.2" y="110.1" width="4" height="83.3" transform="translate(387.7 1239.6) rotate(-45)"/>
          <rect class="cls-5" x="1658.1" y="110.1" width="4" height="83.3" transform="translate(378.9 1218.3) rotate(-45)"/>
          <rect class="cls-5" x="1628" y="110.1" width="4" height="83.3" transform="translate(370.1 1197) rotate(-45)"/>
          <rect class="cls-5" x="1597.8" y="110.1" width="4" height="83.4" transform="translate(362.1 1176.7) rotate(-45)"/>
          <rect class="cls-5" x="1567.7" y="110.1" width="4" height="83.4" transform="translate(353.3 1155.4) rotate(-45)"/>
          <rect class="cls-5" x="1537.6" y="110.1" width="4" height="83.3" transform="translate(343.6 1133.1) rotate(-45)"/>
          <rect class="cls-5" x="1507.5" y="110.1" width="4" height="83.3" transform="translate(334.8 1111.8) rotate(-45)"/>
          <rect class="cls-5" x="1477.4" y="110.1" width="4" height="83.3" transform="translate(326 1090.5) rotate(-45)"/>
          <rect class="cls-5" x="1447.3" y="110.1" width="4" height="83.3" transform="translate(317.2 1069.2) rotate(-45)"/>
          <rect class="cls-5" x="1417.2" y="110.1" width="4" height="83.3" transform="translate(308.4 1047.9) rotate(-45)"/>
          <rect class="cls-5" x="1387.1" y="110.1" width="4" height="83.3" transform="translate(299.5 1026.7) rotate(-45)"/>
          <rect class="cls-5" x="1357" y="110.1" width="4" height="83.3" transform="translate(290.7 1005.4) rotate(-45)"/>
          <rect class="cls-5" x="1326.9" y="110.1" width="4" height="83.3" transform="translate(281.9 984.1) rotate(-45)"/>
        </g>
      </g>
      <g class="cls-11">
        <g>
          <rect class="cls-5" x="589.2" y="110.1" width="4" height="83.3" transform="translate(65.8 462.4) rotate(-45)"/>
          <rect class="cls-5" x="559.1" y="110.1" width="4" height="83.3" transform="translate(57 441.2) rotate(-45)"/>
          <rect class="cls-5" x="529" y="110.1" width="4" height="83.3" transform="translate(48.2 419.9) rotate(-45)"/>
          <rect class="cls-5" x="498.9" y="110.1" width="4" height="83.3" transform="translate(39.4 398.6) rotate(-45)"/>
          <rect class="cls-5" x="468.8" y="110.1" width="4" height="83.3" transform="translate(30.6 377.3) rotate(-45)"/>
          <rect class="cls-5" x="438.7" y="110.1" width="4" height="83.3" transform="translate(21.8 356) rotate(-45)"/>
          <rect class="cls-5" x="408.6" y="110.1" width="4" height="83.3" transform="translate(12.9 334.7) rotate(-45)"/>
          <rect class="cls-5" x="378.5" y="110.1" width="4" height="83.3" transform="translate(4.1 313.5) rotate(-45)"/>
          <rect class="cls-5" x="348.3" y="110.1" width="4" height="83.4" transform="translate(-4.6 292.4) rotate(-45)"/>
          <rect class="cls-5" x="318.2" y="110.1" width="4" height="83.4" transform="translate(-13.4 271.1) rotate(-45)"/>
          <rect class="cls-5" x="288.1" y="110.1" width="4" height="83.3" transform="translate(-22.3 249.5) rotate(-45)"/>
          <rect class="cls-5" x="258" y="110.1" width="4" height="83.3" transform="translate(-31.2 228.3) rotate(-45)"/>
          <rect class="cls-5" x="227.9" y="110.1" width="4" height="83.3" transform="translate(-40 207) rotate(-45)"/>
          <rect class="cls-5" x="197.8" y="110.1" width="4" height="83.3" transform="translate(-48.8 185.7) rotate(-45)"/>
          <rect class="cls-5" x="167.7" y="110.1" width="4" height="83.3" transform="translate(-57.6 164.4) rotate(-45)"/>
          <rect class="cls-5" x="137.6" y="110.1" width="4" height="83.3" transform="translate(-66.4 143.1) rotate(-45)"/>
          <rect class="cls-5" x="107.5" y="110.1" width="4" height="83.3" transform="translate(-75.2 121.8) rotate(-45)"/>
          <rect class="cls-5" x="77.4" y="110.1" width="4" height="83.3" transform="translate(-84.1 100.6) rotate(-45)"/>
        </g>
      </g>
    </g>
    <rect class="cls-5" x="80" y="905.7" width="510.5" height="8"/>
    <rect class="cls-5" x="1331.2" y="905.7" width="510.5" height="8"/>
    <rect class="cls-5" x="1331.2" y="107.9" width="510.5" height="8"/>
    <rect class="cls-5" x="80" y="107.9" width="510.5" height="8"/>
    <g>
      <polygon class="cls-7" points="1340.6 585.5 1364.2 567.6 1793.5 567.6 1787.9 585.5 1340.6 585.5"/>
      <path class="cls-7" d="M1524.9,443.1l-141.7,109.6h41.9l22.5-17.4,70.4-17.4-9.8,34.8h32.5l30.6-109.6s-46.4,0-46.4,0ZM1520.1,511.2h-41.5l53.1-40.6-11.5,40.6Z"/>
      <path class="cls-7" d="M1712.7,443.1l-38.5,25.2h-49.9s-10.7-.2-13.1,8.1l-12.6,36.8s-5.7,12.4,11.5,14.3h69.7l-8.2,25.3h-79.4s-34-1.5-25.2-32l17.8-55.6s5.6-21.9,43.7-21.9,84.1-.1,84.1-.1Z"/>
      <path class="cls-7" d="M1838.9,443.1l-38.5,25.2h-49.9s-10.7-.2-13.1,8.1l-12.6,36.8s-5.7,12.4,11.5,14.3h69.7l-8.2,25.3h-79.4s-34-1.5-25.2-32l17.8-55.6s5.6-21.9,43.7-21.9,84.1-.1,84.1-.1Z"/>
    </g>
    <g>
      <path class="cls-8" d="M454.8,366.5c-.2-.2-49.2-17.8-119.5-17.8h0c-70.4,0-119.3,17.6-119.5,17.8-11.6,26.1-32.5,177.8,117.6,299.7l1.9,1.5h0l2-1.5c150.1-121.8,129.1-273.6,117.6-299.7"/>
      <path class="cls-7" d="M335.3,341.3c-74,0-125.4,18.7-125.6,18.9-12.2,27.8-34.2,187.4,123.6,317.1l2,1.6h0l2.1-1.6c157.7-129.7,135.8-289.3,123.6-317.1-.2-.2-51.6-19-125.6-19h0ZM335.1,348.9h0c70.3,0,119,17.6,119.3,17.7,7.4,16.7,18.6,85.1-13.9,164.2l-4.7-8.6c-.5-.9-.9-1.7-1.4-2.6v-.2c-11.3-20.7-77.7-143.2-88.5-161.9-.7,0-2.8,0-6.3,0h-8.5c-3.5,0-5.7,0-6.3,0l-90.7,166.2c.7,1.7,4.6,11.7,9.9,22.3,1.4-2.5,6.2-11.2,11.8-21.8,6.6-12.2,15.4-28.2,24.6-45.4,36.2-19.9,74.5-1.9,94.8,25.2-.2,0-.2,0,0,0-2.8-1.9-5.7-3.5-8.7-4.9-10-5-21.1-7.6-32.3-7.6-40.6,0-73.6,33.6-73.6,75s2.3,21.3,6.4,30.5c-76.2-103.9-60.5-208.9-51.1-230.2.2-.2,49-17.8,119.3-17.8h0ZM311.6,357.3c-21.1,1.1-52.8,4.6-85.4,14.2l-.7.2h0l-3.9,1.1c-10.8,37.4-7.5,89.2,8.4,139.2,1.9-3.4,8.4-15.3,13.1-24.2-7.7-29.6-7.9-55.6-7.9-55.7v-.4h.3c.2-.2,17.2-5,40-8.1,1.7-3.4,9.2-17.1,17.9-32.9,6.2-11.2,12.2-22.2,18.2-33.3h0ZM359.1,357.3c21.6,38.7,46.7,85.1,63.4,116,9.6,17.7,16.8,31.1,18.8,34.6,10.7-35.1,12.4-57.2,13.1-66.7.2-1.6.2-2.9.3-3.9-6.2-2-12.4-3.9-18.7-5.5v.3c0,1.7-.2,6.3-1.9,19.8l-.2,1.5-.7-1.3c-4.8-8.6-8.8-16.1-13.5-24.8-5.8-11-13.1-24.7-25-46l-.5-.9,1,.2c11.7,1.8,22.6,3.5,38.6,7.6h.3c0,0,0,.4,0,.4,1.5,7.3,2.1,16.3,2.1,22.2,6.7,1.9,16.3,4.8,18.9,5.5-.6-25.1-5.7-41.9-6.2-43.8-14.8-4.4-45.8-12.6-89.9-15.2h0ZM335.3,378.2l12.2,22.5s-7.6-.4-12.2-.4-12.2.4-12.2.4l12.2-22.5ZM276.7,380.6l-.5.9c-4.7,8.4-6.6,12-9.4,17.1-1.1,2-2.2,4.2-3.8,7.1v.2c0,0-.3,0-.3,0-.2,0-17.8,3.4-26.8,5.9l-.7.2v-.7c.8-11.8,1.4-16.3,2.5-22.7v-.3c0,0,.4,0,.4,0,17-4.2,26.4-5.8,37.6-7.4l.9-.2ZM335.3,419.9c3,0,14.9.2,22.9.7h.2l.2.2,3.1,5.7c9.3,16.8,19,34.9,28.6,52.5-12.9-9.8-40.9-30.4-55.1-42-1.2,1.4-43.6,32.9-54.7,41.5,10.4-19.2,21.7-39.7,31.4-57.6l.2-.2h.2c7.6-.3,15.3-.5,22.9-.7h0ZM342.2,449.3c13.1,11.3,28.8,22.2,48.1,29.6,4.1,7.6,8.5,15.6,12.2,22.4-41.3-22.2-62.4-55.1-60.3-52h0ZM351.3,518.8c18.8,0,35.4,9.2,35.4,9.2v19.1l-45.6,46.3h48.7s-6.8,8.8-11.4,14h-59.7v-14l52.3-50.9v-4.2s-4.4-5.4-19.6-5.4-17.9,4.6-17.9,4.6v10.3h-14.8v-19.8c0,0,13.8-9.2,32.6-9.2h0ZM305.6,520.9v86.5h-14.1v-79.4c7-6.1,14.1-7.1,14.1-7.1h0ZM292.9,628.4c12.6,8.5,27.3,13.1,42.4,13.1s29.3-4.1,41.6-13c-12.4,13.4-25.7,25.9-39.9,37.4l-1.9,1.5h0l-1.9-1.5c-14.4-11.5-27.8-24.1-40.4-37.4h0Z"/>
    </g>
    <rect class="cls-1" x="910.6" y="462.6" width="98.9" height="98.9"/>
  </g>
</svg>