<?xml version="1.0" encoding="UTF-8"?>
<svg id="Layer_1" data-name="Layer 1" xmlns="http://www.w3.org/2000/svg" version="1.1" viewBox="0 0 1920 1024">
  <defs>
    <style>
      .cls-1 {
        fill: #212121;
      }

      .cls-1, .cls-2 {
        stroke-width: 0px;
      }

      .cls-3 {
        stroke: #af0;
        stroke-width: 10px;
      }

      .cls-3, .cls-4 {
        fill: none;
        stroke-miterlimit: 10;
      }

      .cls-2 {
        fill: #fff;
      }

      .cls-4 {
        stroke: #fff;
        stroke-width: 2px;
      }
    </style>
  </defs>
  <g id="Layer_1-2" data-name="Layer 1-2">
    <g id="Layer_2-2" data-name="Layer 2-2">
      <line class="cls-4" x1="748.6" y1="723.4" x2="1171.2" y2="300.8"/>
      <line class="cls-4" x1="1171.2" y1="723.4" x2="748.6" y2="300.8"/>
    </g>
    <g>
      <polygon class="cls-2" points="1374.7 592.2 1400.4 572.7 1868.3 572.7 1862.2 592.2 1374.7 592.2"/>
      <path class="cls-2" d="M1575.6,437l-154.4,119.4h45.7l24.5-19,76.7-19-10.7,37.9h35.4l33.3-119.4h-50.6,0ZM1570.4,511.2h-45.2l57.9-44.2-12.5,44.2h-.2Z"/>
      <path class="cls-2" d="M1780.3,437l-42,27.5h-54.4s-11.7-.2-14.3,8.8l-13.7,40.1s-6.2,13.5,12.5,15.6h76l-8.9,27.6h-86.5s-37.1-1.6-27.5-34.9l19.4-60.6s6.1-23.9,47.6-23.9,91.7-.1,91.7-.1h.1Z"/>
      <path class="cls-2" d="M1917.8,437l-42,27.5h-54.4s-11.7-.2-14.3,8.8l-13.7,40.1s-6.2,13.5,12.5,15.6h76l-8.9,27.6h-86.5s-37.1-1.6-27.5-34.9l19.4-60.6s6.1-23.9,47.6-23.9,91.7-.1,91.7-.1h.1Z"/>
    </g>
    <g>
      <path class="cls-1" d="M409.3,353.5c-.2-.2-53.6-19.4-130.2-19.4h0c-76.7,0-130,19.2-130.2,19.4-12.6,28.4-35.4,193.8,128.2,326.6l2.1,1.6h0l2.2-1.6c163.6-132.7,140.7-298.2,128.2-326.6"/>
      <path class="cls-2" d="M279.1,326.1c-80.6,0-136.7,20.4-136.9,20.6-13.3,30.3-37.3,204.2,134.7,345.6l2.2,1.7h0l2.3-1.7c171.9-141.4,148-315.3,134.7-345.6-.2-.2-56.2-20.7-136.9-20.7h-.1ZM278.9,334.4h0c76.6,0,129.7,19.2,130,19.3,8.1,18.2,20.3,92.7-15.1,179l-5.1-9.4c-.5-1-1-1.9-1.5-2.8v-.2c-12.3-22.6-84.7-156.1-96.5-176.4h-23l-98.8,181.1c.8,1.9,5,12.8,10.8,24.3,1.5-2.7,6.8-12.2,12.9-23.8,7.2-13.3,16.8-30.7,26.8-49.5,39.5-21.7,81.2-2.1,103.3,27.5q-.1,0,0,0c-3.1-2.1-6.2-3.8-9.5-5.3-10.9-5.4-23-8.3-35.2-8.3-44.2,0-80.2,36.6-80.2,81.7s2.5,23.2,7,33.2c-83-113.2-65.9-227.7-55.7-250.9.2-.2,53.4-19.4,130-19.4h-.2ZM253.3,343.5c-23,1.2-57.5,5-93.1,15.5l-.8.2h0l-4.3,1.2c-11.8,40.8-8.2,97.2,9.2,151.7,2.1-3.7,9.2-16.7,14.3-26.4-8.4-32.3-8.6-60.6-8.6-60.7v-.4h.3c.2-.2,18.7-5.4,43.6-8.8,1.9-3.7,10-18.6,19.5-35.9,6.8-12.2,13.3-24.2,19.8-36.3h.1ZM305,343.5c23.5,42.2,50.9,92.7,69.1,126.4,10.5,19.3,18.3,33.9,20.5,37.7,11.7-38.3,13.5-62.3,14.3-72.7.2-1.7.2-3.2.3-4.3-6.8-2.2-13.5-4.3-20.4-6v.3c0,1.9-.2,6.9-2.1,21.6l-.2,1.6-.8-1.4c-5.2-9.4-9.6-17.5-14.7-27-6.3-12-14.3-26.9-27.2-50.1l-.5-1,1.1.2c12.8,2,24.6,3.8,42.1,8.3h.3v.4c1.6,8,2.3,17.8,2.3,24.2,7.3,2.1,17.8,5.2,20.6,6-.7-27.4-6.2-45.7-6.8-47.7-16.1-4.8-49.9-13.7-98-16.6h.1ZM279.1,366.3l13.3,24.5s-8.3-.4-13.3-.4-13.3.4-13.3.4l13.3-24.5ZM215.2,368.9l-.5,1c-5.1,9.2-7.2,13.1-10.2,18.6-1.2,2.2-2.4,4.6-4.1,7.7v.2h-.3c-.2,0-19.4,3.7-29.2,6.4l-.8.2v-.8c.9-12.9,1.5-17.8,2.7-24.7v-.3h.4c18.5-4.6,28.8-6.3,41-8.1l1-.2h.1,0ZM279.1,411.7c3.3,0,16.2.2,25,.8h.2l.2.2,3.4,6.2c10.1,18.3,20.7,38,31.2,57.2-14.1-10.7-44.6-33.1-60.1-45.8-1.3,1.5-47.5,35.9-59.6,45.2,11.3-20.9,23.6-43.3,34.2-62.8l.2-.2h.2c8.3-.3,16.7-.5,25-.8h.1ZM286.6,443.8c14.3,12.3,31.4,24.2,52.4,32.3,4.5,8.3,9.3,17,13.3,24.4-45-24.2-68-60.1-65.7-56.7h0ZM296.5,519.5c20.5,0,38.6,10,38.6,10v20.8l-49.7,50.5h53.1s-7.4,9.6-12.4,15.3h-65.1v-15.3l57-55.5v-4.6s-4.8-5.9-21.4-5.9-19.5,5-19.5,5v11.2h-16.1v-21.6s15-10,35.5-10h0ZM246.7,521.8v94.3h-15.4v-86.5c7.6-6.6,15.4-7.7,15.4-7.7h0ZM232.9,639c13.7,9.3,29.8,14.3,46.2,14.3s31.9-4.5,45.3-14.2c-13.5,14.6-28,28.2-43.5,40.8l-2.1,1.6h0l-2.1-1.6c-15.7-12.5-30.3-26.3-44-40.8h.2Z"/>
    </g>
    <rect class="cls-3" x="906.1" y="458.3" width="107.8" height="107.8"/>
  </g>
</svg>