<?xml version="1.0" encoding="UTF-8"?>
<svg id="Layer_1" data-name="Layer 1" xmlns="http://www.w3.org/2000/svg" version="1.1" viewBox="0 0 1024 576">
  <defs>
    <style>
      .cls-1 {
        fill: #202020;
      }

      .cls-1, .cls-2, .cls-3, .cls-4, .cls-5 {
        stroke-width: 0px;
      }

      .cls-2 {
        fill: #fefefe;
      }

      .cls-3 {
        fill: #08df00;
      }

      .cls-4 {
        fill: #484848;
      }

      .cls-5 {
        fill: #b9b9b9;
      }
    </style>
  </defs>
  <path class="cls-3" d="M500.2,497.5c-.1.3-.3.6-.3.9h0c.1-.3.2-.6.3-1h0Z"/>
  <path class="cls-3" d="M504.3,485.8h.2c-.2,0-.4,0-.6.1h.4Z"/>
  <path class="cls-3" d="M501.2,492.5c.1.4.2.8.2,1.1.3-.7.7-1.3,1.5-1.7h-.2l-.2-.5c-.1-.3-.1-.5,0-.8h-.6c-.7-.2-1.1-1.1-1.1-1.9s0-.4,0-.7v-.7c-.1.2-.3.3-.4.5-.6.7-1.1,1.2-1.2,2h.1c.1,0,.2.1.4.2,1,.6,1.3,1.7,1.6,2.4h0Z"/>
  <path class="cls-3" d="M194.9,365.5l.8.3h0l-.8-.4h0Z"/>
  <path class="cls-3" d="M502.7,496.1c-.1.4-.3.8-.4,1.3,0,.1,0,.2-.1.4.3-.8.5-1.5.8-2.3.2-.5.3-.9.5-1.4-.1.2-.2.5-.4,1-.1.3-.2.7-.4,1.1h0Z"/>
  <path class="cls-3" d="M502,485.5s-.1.2-.2.3c.3,0,.5-.1.8-.2h-.6,0Z"/>
  <path class="cls-3" d="M536.9,455v.7s.2.1.3.2c0,0,.3.2.5.3h0c0-.3-.4-1.1-.7-1.1h0Z"/>
  <path class="cls-3" d="M485.3,522.4h0l.7-.5h0l-.8.4h0Z"/>
  <path class="cls-3" d="M535.4,467c-.3.3-.5.7-.7,1h1v-.2c-.2-.3-.3-.5-.3-.8Z"/>
  <path class="cls-3" d="M540.8,459.5c-.5-.7-.3-1.6,0-2.7,0-.4.2-.6.2-.7h-.5c-.3.7-.7,1.4-1.4,1.4h-.2c.3.5.2,1,.2,1.4v.7c0,.5,0,.6.6.9,0,.1.3.2.4.4.5.5.8.9.9,1.3l1.4-1.5s.2-.3.3-.5c-.8,0-1.4-.2-1.8-.8h-.1Z"/>
  <path class="cls-3" d="M514.1,476.7v-.3.3Z"/>
  <path class="cls-3" d="M622.9,127l.4-.7h0l-.5.7h0Z"/>
  <polygon class="cls-3" points="622.8 127 622.8 127 622.8 127 622.8 127"/>
  <g>
    <path class="cls-2" d="M406.8,432.9c-2.7-3.5-5.1-7.3-7-11.3-2.5,5.8-4.5,11.8-6,18-4.7-7-5-24.3-6.1-31.9,0,0-7.5,12.3-9.6,16-1.7-10.3-2.2-20.7-1.4-31.1-4.3,2-8,4.7-11.3,8-.5-9.5-3.2-18.3-8-26.5-1.8.7-3.7,1.4-5.7,1.9,4.8,7.7,7.4,16,7.9,25.1l.8,12.7s10-8.4,10.1-8.7c0,5.7,1.9,19.3,1.9,19.3,0,0,3.2,16.1,3.2,16.2l8.4-13.5c.6,5.6,2.3,10.9,5,15.8l7,11.3c1.5-6.1,3.4-12.1,5.7-18,14.9,17.5,31.9,32.8,50.9,45.8,14.1,9.7,28,18.4,42.1,26.2,4.7.4,9.5.6,14.3.7-18.4-9.6-36.2-20.3-53.4-32.1-18.2-12.5-34.4-27.1-48.7-44ZM641.2,283.6c2.9,2.3,7.7-2.2,8.2-4,1.2.3,2.4.3,3.5,0,1.2-.3,2.2-.9,3.1-1.7.6-1,.9-2.1.9-3.2,0-1.1-.1-2.2-.6-3.3l-.6-1.5c-.8-.8-1.1-2.4-2.8-1.8-1.6.6-5,1.5-6.3,4.4-5.7,0-7.2,3.8-9.5,6.4-3.6-.4-5.3,3.3-7.4,5.7,1,1,4.1,6.8,11.4-1ZM650.7,328.1c1.1,1.6,3.5,1.5,5.3,1.9,1.8.3,5.2,1.1,6.1-1.6-.3-.3-.6-1.2-1-1.4-3-.8-6-1.5-9-2-.6,0-1.1.3-1.6.6,0-.2,0-.3,0-.5l-.5-.3c-2.4-1.8-5.1-2.6-8.2-2.5-.4,0-.7.2-1,.5-.8-2.5-2.9-3.2-6.1-2.4-.6,0-1.1,0-1.7,0,.2.4.5.8.8,1.2,2.3,1.9,4.9,3.3,7.8,4.3,1.4.8,2.8,1.4,4.4,1.9,1.3.2,3.3,1.2,4.8.5ZM623.6,177l2.4-1.7-.8.8-1.6.9ZM644.7,178.4c-.7-.6-1.5-1.2-2.3-1.8l-2.4-1.7c1,.7,1.8,1.4,2.8,2l1.9,1.5ZM638.2,173.8l-1.3-.9-1-.6-2.1-1.3-1.3-.6-1.4-.8,2.3,1.4,4.8,2.8ZM626,166.6l1.2.7-1.2-.7ZM617.3,309.1c-1.6-10.7-2.1-21.4-1.5-32.1,1.7-14.8,1.2-29.6-1.4-44.3-1.5-7.5-4.5-14.4-8.9-20.6-5.2-9.5-14.9-17.3-22.2-25.7,0,0,1-.9,1.4-.3l5.1,4.2c4.5,2.6,8.4,5.9,11.7,9.8l5.7,6.8c3.2,3.8,6.2,7.7,8.9,11.8-.2,1.7.2,3.3,1,4.8.8,1.5,2,2.7,3.4,3.5,4.8,2.5,10.5,5.7,15.8,3,5.7-5,11.3-9.7,18.5-7.9.8,0,.9,1.6.5,2.3-3.3,4.8-10.1,2.2-14,5.7-11.3,7.8-11.3,7-14.5,6.5-1.1-.3-5.7-3.5-6.6-1,2.9,14.2,2.9,28.4,0,42.7-2.6,14.5.9,35.1,4.2,51.4,0,2.4.4,4.7.9,7.1-4.3-8.8-7-18-8.1-27.7ZM542.6,296c.9-5.2,2.3-10.4,4.2-15.3-5.7,7-10,11.3-13.3,11.3,1.2-6.2,2.9-12.3,5-18.3-6.3,7.5-12.7,12.2-19.5,11.6,1.7-8.4,4.1-16.5,7.3-24.5,3.1-7.9,6.9-15.6,11.4-22.9,4.5-7.3,9.5-14.1,15.2-20.5,5.7-6.4,11.8-12.3,18.5-17.6h6.3l4.1,4.2,4.4,4.4c2.3,2.4,4.4,4.9,6.3,7.6.5.7,1,1.5,1.5,2.3.3.5.6,1,1,1.5,2.3,3.4,4.2,7,5.7,10.9-35.2,30.2-34.6,74.9-57.9,65.2ZM543.4,193v-.4c5.2-3,10.8-4.8,15.9-7.9-6.9,1.8-13.6,4-20.3,6.5-1.5,1-3,1.8-4.6,2.4-.7-.4.5-3.9,2.5-6.7,1.2-1.7,2.7-2.5,0-2.3-10.8,1.1-3.4-3.9-3.4-3.9,0,0,4.1-11.3-2.4-9.5-4.6,1.4-17.5,11.7-25,12.1,3.9-8.4,25.9-26.5,34-30.5-3.3,1.5-21.3,9.6-21.5,2.8,2.2-1.1,30.4-18.2,34.8-18.9,2.1-.4,4.2-.5,6.4-.5,3,.6,5.8,1.5,8.7,2.6-1.1-1.5-5.7-4.5-5-5.1,1.8-2.7,18,2.4,26.5,9,1.2,1,1.2,3,1.2,4.6,0,1.6-.5,4.2-1.7,5-.7.3-1.3.7-1.7,1.4-.4.6-.6,1.4-.6,2.1,1,0,4.1,1.5,4.9,1-3.5,2.2-9.1,3.6-10.3,8.4-.5-1.8-1.2-3.4-2.3-4.9-2.9-2.9-6.1-5.6-9.4-8.1-9.1,3.1-17.2,8-24.1,14.8-3.4,3.9-5.5,8.5-6.6,13.5,2.4,3.8,3.3,5,3.3,5.7,6.7-6.3,15.3-11.3,12.9-7.6v.3c5.8-3.3,12-5.6,18.5-7,2-1.1,9.3-2.9,12.6,1.1,0,0-3.7,1.3-4.2,1.6-1.4.4-3.6-.7-4.1,1.1-.2,1.3,0,2.4,1,3.4,1,.9,2.6.5,3.5,1.5.9,1.1.4.8.6,1.2.1.2.3.4.5.5,1.1.7,2.4.7,3.5,1.5,0,.4-1.3,0-1.8,0-6.6.4-13.1,1.6-19.4,3.8-6.3,2.1-12.2,5.1-17.6,8.9-10,6.6-17.8,15.3-23.2,26-3.3,4.1-6.3,8.3-9.1,12.7,2.6-7.4,6.1-14.3,10.5-20.8,4.3-6.5,9.4-12.4,15.2-17.6,1.5-1.3,3.3-2.7,1.3-3.5ZM636.4,202.1c1-.8,2.2-1.5,3.2-2.3,1.1-1.1,2.5-1.6,4-1.5,1.2,0,1.2,2.5,1.8,3.3.9,1,1.9,1.9,2.9,2.7,1.3,1.2,5.7,3.2,4.7,5.3,0,.3-.3.6-.6.7-.3.2-.6.2-.9.2-1.3-.4-2.6-1-3.7-1.8-2.2-1-4.4-2-6.6-2.9-.5,0-6.7-2.3-6.7-1.8,0-1,1.2-1.7,1.9-2.2h0ZM484.1,311.9c-1.9,1.1-3.9,1.7-6.1,1.7s-4.2-.6-6.1-1.7c-4.4-2.6-8-7.1-13.1-8l-1.5-.9c4.1.3,7.8,1.6,11.3,3.7,2.4,1,4.6,2.7,7.2,3.5,2.2.5,4.3.1,6.1-1.2.7-.6,1.3-1.3,1.6-2.2.3-.9.4-1.8.3-2.7-.4-.6-.9-1.1-1.6-1.4-.7-.3-1.4-.4-2.1-.3-1.9,1.2-2.6,3.2-4,4.7.2-2.1.8-4.1,1.8-5.9,1-1.9,2.3-3.5,3.9-4.8,1.7,1,3.1,2.4,4,4.1,1,1.8,1.4,3.6,1.3,5.6,0,1.1-.3,2.2-.8,3.2-.5,1-1.3,1.8-2.2,2.4ZM680.7,385.8c1.5-2.4,2.1-4.9,1.8-7.8,0-.2,0-.5,0-.7-1.9-4.4-4.1-8.5-6.7-12.5l-1-1.5c-.8-1.2-1.4-2.5-1.8-3.9-.4-1.4-.7-2.8-.7-4.2,0-1.4.1-2.9.4-4.3.3-1.4.9-2.7,1.6-4,1-1.3,1.7-2.8,2.1-4.4-1.3-4.4-4.5-5.3-8.5-6.5-11.1-.5-21.8-3.1-31.9-7.7,1,3.7,2.3,7.3,3.8,10.8,1.1,2.4,2.3,4.9,3.5,7.4,5.3,10.7,11.9,21.7,15.8,30.3l-6.1-7.2c-3.5-4.2-6.8-8.6-9.7-13.2-4.8-7.6-8.5-15.6-11.3-24.1-.7-2.2-1.5-4.4-2.1-6.6-.5-1.3-.8-2.6-1.2-4.1-2.6-14.5-3.4-29.1-2.4-43.9l.5-.7c11.3-9.5,24.2-15.9,38.6-19.2.4-2.4,1.1-4.6,2.1-6.8.3-.8.3-1.6,0-2.4-.7-2.2-3.6-3.8-5.7-5.7-1.4-1.2-2.6-2.6-3.4-4.2-.9-1.6-1.4-3.3-1.6-5.2,1.6-2.7,3.4-5.3,5.3-7.8,4.2-7,10.5-6.1,13.2-13.7.2-.7.3-1.5.3-2.3-.2-2.7-1.3-5-3.1-7-8.5-7.5-15-13.7-21.6-19.3-5.1,2.3-9.5,5.5-13.4,9.6-3.8,4.1-6.8,8.7-8.9,13.9,0,0-7.4.3-9.6,3.5-.3.4-.6.9-.8,1.4-3.5-4.9-6.5-8.3-6.6-8.4l-.8-1-4.9-5.7-1.5-1.6c-2.3-2.5-4.9-4.7-7.6-6.7,4.8-6.3,10.4-11.6,17-16,1.3-.3,2.6-.9,3.8-1.6.7-.6,1.5-1,2.4-1.3,1.5-.6,4-1.5,6.1-2.4-5.7-3.2-17-5.2-20.4-6.8-.6-.3-1-.7-1.2-1.3-1.4-2.8,1.9-7.9,1.9-10.9.7-2.9.3-5.8-1.1-8.4-.6-1.2-1.2-2.3-2-3.3-16.1-17.3-35-30.8-56.6-40.5l-1-1c5-6.3,8.2-13.4,9.6-21.3-1.5,3.4-3.7,6.4-6.4,8.9.7-5.7.6-11.3-.4-16.9-1-5.6-2.7-11-5.3-16.1,1.4,8.6,1.4,17.2,0,25.7-.5,2.6-1.4,5.1-2.6,7.5.6-9.8-1-19.3-5-28.3-1.6-3.8-3.3-6.7-4.4-8.8-4.3-6.4-9.8-11.4-16.6-15.1,3.2,3,5.4,6.6,6.8,10.7,2.4,6.2,3.8,13,5,16.5.1.4.3.8.5,1.2,2.4,2.3,5.7,2.9,7.6,6.5,1.6,3.3,2.3,6.7,2.1,10.3-.6-.5-1.1-1.1-1.4-1.8v-.3c-.2-.5-.5-1-.8-1.4,0-1-1.2-1.7-1.6-2.6,0-.1,0-.3,0-.4-4.8-5.7-10.2-10.8-16.2-15.2,2.4,2.8,4.5,6.6,7.5,9.6,3.8,5.7,6.8,11.7,9.1,18.1,1,2.7,2,5.4,3.1,8.3-.1.3-.1.6,0,.8v.3c.3.5.6.9,0,1.5-.6.6-.6-.3-1,0-3.3-7.2-7.7-13.6-13.2-19.4-5.5-5.7-11.7-10.4-18.7-14.1,12.5,8.4,16.6,20,23.4,32.7l-.3.3-.4-.5v.6h-2.8c.2,0,0,0,0,0-6.4.3-12.7,1-18.9,2.3h-1.1c-3.7.3-7.4.9-10.9,2l-1.2.5c-.5.3-1.1.6-1.6.7l-2.3,1c-1.6,0-5.7,2.4-6.6,2.7-2.8.7-5.4,1.8-7.8,3.5-2,1.2-3.9,2.5-5.7,4.1l-.7.6c-3.1,2.5-1.9,2.5-5.3,4.5h-.5l-12.4,7.4-4.7,3.7c-.7.6-1.4,1.2-2.2,1.8l-1.5,1.1c-1.5,1.1-2.9,2.3-4.3,3.5-1.9,1.8-3.6,3.7-5.2,5.7-.5.8-1.2,1.4-1.6,2.1-.8,1.1-1.5,2.3-2.1,3.6v.7c-.3,1.5-.6,3-1.1,4.5-.2.6-.3,1.2-.4,1.8-.3,2.4-.5,4.8-.6,7.2v1.4c0,.7,0,1.4,0,2,.2,6,1.6,11.6,4.3,17,.7,1.5,1.5,2.9,2.4,4.5.4.7.9,1.4,1.4,2,0,.1,0,.3,0,.4l1.5,2.1.9,1.1.7,1c1.1,1.4,2.3,2.7,3.6,4-.2.1-.3.3-.5.5l.7,2.9c-2.5,5.4-3.6,11-3.3,17,1.1-4.4,2.9-8.6,5.3-12.6-2.4,14.3-5.9,28.3-10.4,42,3.6-.7,9.6-14,11-16.5,1.5-2.5-8.5,26.8-10.5,34.7,12.7-10.9,13.1-36.6,14.2-45.8.8,2.4.9,28.3,2.3,30.4,1.4-6.4,6.1-27.1,1.4-43.7,1.2.5,7.8,6,7.8,6l.7.7.5.5.5.5c5.2,6.3,9.3,13.3,12.2,20.9,3.1,3.5,5.7,7.2,7.9,11.3,1.1,1.6,2.2,3.1,3.5,4.6.2.3.4.6.6.9l.3.8,1.1,1.6c.8,1,1.4,2.1,1.9,3.3.3.7-.5,1.3,0,2.2-2.3,8.2-3.8,16.6-4.7,25.1l-1.1-1.1c-2.8-2.4-6-4-9.6-4.7-.6-.2-1.1-.6-1.4-1.1-1-1.2-1-3-2-4.3-13.2,26.3-19,9.3-30.1,39.6,5.7,5,7.1,3.1,19,5.1,3.2.6,6.2,1.9,8.8,3.9,2.9,2,5.7,4.4,8.1,6.4,1.5.6,3.1,1,4.6,1.3,3.8.4,7.5,0,11.2-1.1,3.6-1.1,6.9-2.9,9.9-5.3.3,4.6-.8,8.7-3.3,12.6,2,7,4.8,13.6,8.3,20,2.3,5.1,5.5,9.7,9.5,13.6,4.1,4.1,8.7,7.7,13.7,10.7,10.2,5.1,21.1,7.8,32.5,8,4.6.7,10.3.4,15.2,1.1l28.3,3.1c18,2.9,35.8,6.9,55.3,5.7.8,0,1.7,0,2.5,0h2.4c-6.5,2.3-13.1,3.9-19.9,5-4.2,1-8.3,1.9-13.6,2.7-4.5.6-43.6,7.6-45.3,8.5-2.2,1.4-4.1,3.2-5.7,5.3-.9,1.1-1.7,2.4-2.5,3.6-1.7,3.4-4.1,6.3-7.2,8.5-2.8,1.1-5.7,1.5-8.7,1.1-3-.4-5.7-1.5-8.2-3.2-.9-.6-1.8-1.4-2.7-2.2l-1.2-1.1c-13.1-12.2-48.6-52.3-55.9-64.6-1.7-3-3.7-5.7-4.4-7-.6-1-1.4-1.9-2.3-2.7l-.5-.4c-.9-.8-2-1.3-3.1-1.6-1.2-.3-2.3-.3-3.5,0-3.5,0-6.8-.5-10-1.9-3.2-1.3-6-3.3-8.3-5.8-1.3-1.5-2.4-3.2-3.1-5,0-.3,0-.5-.5-.7-2.4-1-4.8-1.6-7.4-1.6-.5,1.5-1.2,3-2.1,4.4-1.9,3.6-5.7,11.3-7.7,14.8-2,3.5-5.7,6.7-7.8,10.5-1.1,1.4-1.8,3-2.2,4.8-3.9-.3-7.8-.4-11.7-.3-2.3,0-4.5.2-6.8.5h-2.4l-2.2-10.3h-3.4c-4.9.2-9.6,1.2-14.1,2.9-1.8-1.8-4.2-4-7.2-6.7-1,1.8-2,3.5-3.2,5.1,3.3,2.7,6,5,8.1,6.8l1.1,1c4.5-1.9,9.2-3.1,14-3.5h3.4l2.7,10.4c3-.5,6.1-.8,9.1-1.1,8.2-.3,16.3.6,24.2,2.6,8,2,15.5,5.1,22.6,9.2,13.4,7.5,26.2,15.8,38.4,25.1,1.7,1.2,3.3,2.6,4.8,4.1-16,5.9-32.6,8.5-49.7,7.9,23.7,7.8,58.4.8,58.4.8,12.8,7.4,17,10.9,29.7,18.7l15.4,9.3c-5.7-.5-13.2,6.5-28.3,12.1,7.8.9,15.7,1.1,23.5.5l9.8-1.8h1.5c-.3-4.7.6-9.1,2.5-13.3.6-1.2,1.3-2.3,2-3.4-2.2,1.5-4.1,3.4-5.7,5.7v-4.2c.5-.8,1-1.6,1.5-2.3,2.1-3.1,4.5-6,7.3-8.5,3.1-2.5,6.1-5.3,9.3-7.7,22.3-17,49.7-21.6,76.5-27.7,7.6-1.8,14.1-5.5,19.5-11.2ZM599.2,544.6c-8.6-2.5-17-5.2-25.1-8-20,4.8-40.4,7.3-61,7.3-8.1,0-16.2-.4-24.2-1.1-8.1-.8-16.1-1.9-24-3.4-8-1.5-15.8-3.4-23.6-5.6-7.8-2.2-15.4-4.8-23-7.8-7.5-2.9-14.9-6.2-22.2-9.9-7.2-3.6-14.3-7.6-21.1-11.9-6.9-4.3-13.5-8.9-19.9-13.8-6.4-4.9-12.6-10.1-18.6-15.6-.6,0-1.3,0-1.9,0-1.6,0-3.1-.3-4.6-.8-4.5-2.8-8.7-6-12.6-9.5-10.1-9.1-5.7-3.6-12.5-13.7-.3,0-.5,0-.8,0-.7,0-1.6,0-2.6.3-1,0-1.9-.3-2.7-.9-4.1-4.6-7.5-9.7-10.2-15.2-2.6-5.6-4.4-11.4-5.4-17.5-.5-2.3-2.3-2.6-4.4-4.9-2.4-5.1-7.5-24.6-7.5-24.6-6.9-18.9-12-38.2-15.2-58.1v-.5c-1.7-9.8-2.9-19.7-3.5-29.7-1.2-8.6-1.4-17.3-.5-25.9,0-2.4-.1-4.7-.5-7.1-.3-15.3,1.3-30.4,4.9-45.3.9-4,1.6-14.4,3.1-20.4,8.9-22,19.2-43.5,30.7-64.3,3.7-6.2,14.4-21.8,14.4-21.8,7.5-11.3,25.5-31.5,39.1-38.3,3.1-2,5.8-4.4,8.2-7.2-.7-.6,12.9-11.3,21.8-19,7.4-5.5,15.5-9.6,24.3-12.4,9.2-2.9,18.6-4.3,28.3-4.2,11.3-4.3,23-6.6,35-7,4.7-.9,9.5-1.8,14.2-2.4,4.8-.7,9.5-1.2,14.3-1.7,4.8-.4,9.6-.7,14.4-.9,4.8-.2,9.6-.2,14.4,0,4.8.1,9.6.4,14.4.7,4.8.4,9.6.9,14.3,1.5,4.8.6,9.5,1.4,14.2,2.3,4.7.9,9.4,1.9,14.1,3.1,4.7,1.2,9.3,2.5,13.9,3.9,4.6,1.4,9.2,3,13.7,4.6,4.5,1.7,9,3.5,13.4,5.4,4.4,1.9,8.8,4,13.1,6.1,4.3,2.2,8.5,4.4,12.7,6.8,4.2,2.4,8.3,4.9,12.3,7.5,4,2.6,8,5.4,11.9,8.2,3.9,2.8,7.7,5.8,11.4,8.8,3.7,3.1,7.4,6.2,10.9,9.4,3.5,3.3,7,6.6,10.4,10,3.4,3.4,6.6,7,9.8,10.6,3.2,3.6,6.2,7.3,9.2,11.1,3,3.8,5.8,7.7,8.6,11.6,2.7,3.9,5.4,8,7.9,12.1,2.5,4.1,4.9,8.3,7.2,12.5,2.3,4.2,4.5,8.5,6.5,12.9,2.1,4.3,4,8.8,5.8,13.2,1.8,4.5,3.5,9,5.1,13.5,1.6,4.5,3,9.1,4.3,13.8,1.3,4.6,2.5,9.3,3.5,14,1.1,4.7,2,9.4,2.8,14.2.8,4.7,1.5,9.5,2,14.3.5,4.8.9,9.6,1.2,14.4.3,4.8.4,9.6.4,14.4,0,14.2-1,28.2-3.2,42.2-2.2,14-5.6,27.7-10.1,41.1-4.5,13.4-10.1,26.4-16.7,38.9-6.6,12.5-14.2,24.4-22.8,35.6-3.5,4.5-7,8.9-10.8,13.2-2.7,3-5.7,6-8.2,8.9-2.5,2.9-4.6,4.7-7.1,7.1-2.4,2.3-4.9,4.6-7.4,6.8l-5.4,4.9c-1.9,1.6-3.7,3.1-5.7,4.6-4,3.2-8.1,6.3-12.3,9.3l-6.9,4.7-1.8,1.2-4.4,2.8-.9.6-3.6,2.2-7.5,5.7c-7,3.7-6.8,4.2-13.4,7.4,7.9.3,24.2-9.2,32.2-11.3,4.2,4.7,9.1,8.5,14.7,11.3-6.2,0-11.9,1.7-17,5.2,7.8,1.8,15.8,2.4,23.8,1.9,10.1,9.1,20.7,17.6,31.8,25.4-18.8,2.5-37.6,3.1-56.5,1.8-18.9-1.3-37.5-4.6-55.7-9.8ZM717.3,544.2s-46.6-37.2-49.1-39.6c6.3-4.4,12.4-9.1,18.3-14,5.9-4.9,11.6-10.1,17.1-15.5,5.5-5.4,10.7-11.1,15.7-16.9,5-5.9,9.7-11.9,14.2-18.2,4.5-6.3,8.7-12.7,12.6-19.3,3.9-6.6,7.6-13.4,10.9-20.3,3.3-6.9,6.4-14,9.1-21.2,2.7-7.2,5.2-14.5,7.3-21.9,2.1-7.4,3.9-14.9,5.4-22.4,1.5-7.6,2.6-15.1,3.5-22.8.8-7.7,1.3-15.3,1.5-23,.2-7.7,0-15.4-.4-23.1-.5-7.7-1.3-15.3-2.4-22.9-1.1-7.6-2.6-15.2-4.3-22.6-1.8-7.5-3.9-14.9-6.3-22.2-2.4-7.3-5.1-14.5-8.1-21.6-3-7.1-6.3-14-9.9-20.8-3.6-6.8-7.5-13.4-11.7-19.9-4.2-6.5-8.6-12.7-13.3-18.8-4.7-6.1-9.7-12-14.9-17.6-5.2-5.7-10.6-11.1-16.3-16.3-5.7-5.2-11.5-10.1-17.6-14.8-6.1-4.7-12.4-9.1-18.8-13.3-6.5-4.2-13.1-8-19.9-11.6-6.8-3.6-13.7-6.9-20.8-9.9-7.1-3-14.3-5.7-21.6-8.1-7.3-2.4-14.7-4.5-22.2-6.2-7.5-1.8-15-3.2-22.6-4.3-7.6-1.1-15.3-1.9-22.9-2.4-7.7-.5-15.4-.6-23.1-.4-7.7.2-15.4.7-23,1.5-7.6.8-15.2,2-22.8,3.5-12.4.5-24.4,2.9-36,7-9.8.1-19.5,1.6-28.9,4.5-8.4,2.4-16.2,6.2-23.4,11.3l-3.6,2.3c-.5.3-.9.6-1.3,1-3.5,3.1-7.8,6.6-11.3,9.7-4.3,3.2-8.2,6.8-11.8,10.8l-1.1.7c-1.2,1.4-2.5,2.6-4,3.6-16.7,8.3-36.1,31.6-42.8,41.6-.4.7-10.9,16-14.7,22.2,0,.1,0,.3,0,.4-11.8,21.4-22.3,43.4-31.6,66-.1.3-.2.6-.3,1-1,4.5-1.7,9.1-2.2,13.6-.3,2.7-.7,5.7-.9,6.9v.6c0,.5,0,1.3-.5,2.4-3.6,14.9-5.1,30-4.5,45.3,0,1.1,0,2.1.3,3.1,0,.7,0,1.5,0,2.2,0,.3,0,.5,0,.8v6.7c-.7,7.2-.3,14.3.9,21.3v.4c.7,9.3,1.8,18.6,3.5,27.7v.7c0,.4,0,.8,0,1.1,3.4,20.2,8.5,39.9,15.5,59.1,2.2,8.7,4.8,17.3,8,25.7.8,1.6,1.9,2.9,3.3,3.9,3.1,13.4,9.2,25.4,18.1,36,.9,1.1,2.1,1.9,3.4,2.5,1.3.6,2.6.9,4.1.9h.4c3.5,4.2,7.3,8.2,11.3,11.9h.3c4.3,3.9,8.9,7.3,13.8,10.4,1.6,1,3.3,1.5,5.1,1.5.6,0,1.3,0,1.9,0,8,7.3,16.5,14,25.3,20.3,8.8,6.2,18,11.9,27.6,17.1,9.5,5.1,19.3,9.7,29.4,13.7,10.1,4,20.4,7.3,30.9,10,10.5,2.7,21.1,4.8,31.8,6.3,10.7,1.5,21.5,2.3,32.4,2.4,10.8.2,21.6-.3,32.4-1.5,10.8-1.1,21.4-2.9,32-5.4,7.7,2.6,15.2,5,22.6,7.2,25.4,7.3,51.3,10.9,77.7,10.7,13.2.1,26.3-.8,39.3-2.8,1-.2,1.9-.5,2.7-.9.9-.4,1.7-1,2.4-1.7.7-.7,1.3-1.4,1.8-2.3.5-.8.8-1.7,1-2.7.2-1,.3-1.9.2-2.9,0-1-.3-1.9-.6-2.8-.4-.9-.8-1.7-1.4-2.5-.6-.8-1.3-1.4-2.1-2h.2Z"/>
    <path class="cls-5" d="M374,336.7c-2.7,2.7-5.6,5.2-8.7,7.6l-.8.7-9.8-9.6c-.7.8-2.5,2.9-4.8,5.1-2.5,2.4-5.2,4.6-8,6.7l-6.2-6.2c1.9-.2,3.6-.8,5.3-1.7,1.7-.9,3.1-2.1,4.3-3.6,1.7-1.6,3.2-3.3,4.7-5.1l-3.7-3.7-11.7,7.5c-.9.6-2,.9-3.1.8-1.1,0-2.1-.5-3-1.2l-5-5.3-5.7,5.7,5.2,5.3.8.7c.9,1,1.9,1.4,3.2,1.4l2.9-.5-9.8,10.1s0-1.1.5-2.7c0-1.2-.4-2.3-1.2-3.1l-.8-.8-5.4-5.7-1.3,1.4c-.8.8-1.5,1.7-2,2.7l-.6,1.1-1.1-3.8-.9-.9-3.6-1,.9-.5c1-.6,1.9-1.3,2.7-2l1.4-1.4-6.1-5.9c-.7-.5-1.4-.8-2.3-.7l-2.3.4.7-1c2.7-3.7,5.6-7.2,8.7-10.5,3.2-3.1,8.7-7.4,8.8-7.5l6,5.7c-1.6.2-3.1.8-4.5,1.6-1.7,1.1-3.3,2.3-4.7,3.7-1.7,1.5-3.3,3.2-4.8,4.9l4.7,4.6,19-18.7c.7-.6,1.2-1.3,1.5-2.2,2.4-.4,4.7-1.1,6.9-2.3l1.8-1.1-1,1.8c-1.2,2.3-2,4.7-2.3,7.2-.9.2-1.7.6-2.3,1.2l-8.3,8.2,3.6,3.6h.5l11.3-7s3.7-2.3,6,0l15.5,15.5c1-.9,2.3-2,4.2-4l3.3-3.6-15.7-15.7c-.8-.6-1.7-1-2.7-1h-2.3l6.7-6.7,19.6,19.6c.8.8,1.7,1.2,2.9,1.1h2.3l-1.8,2.3c-2.5,2.9-5.1,5.8-7.9,8.4M339.5,287.6c2.9,0,5.8.3,8.6.9,2.8.6,5.6,1.5,8.2,2.7,2.6,1.2,5.1,2.7,7.4,4.4,2.3,1.7,4.4,3.7,6.3,5.9-1.8-1.6-3.8-3.1-5.9-4.3-2.1-1.3-4.3-2.3-6.6-3.2-2.3-.9-4.6-1.5-7-1.9-2.4-.4-4.8-.7-7.3-.7s-4.9.2-7.3.7c-2.4.4-4.7,1.1-7,1.9-2.3.9-4.5,1.9-6.6,3.2-2.1,1.3-4,2.7-5.9,4.3l-4-4c3.7-3.2,7.9-5.7,12.5-7.4,4.6-1.7,9.4-2.6,14.3-2.6ZM510.4,471.6c65,29.9,109.4,37.8,123.6,33.5l-11.9-6.1-1.6-1-1.2-.7-.5-.3-1.6-1-1.7-1.1-1.3-.9-.6-.4-1-.8-.7-.5-1.2-1-1.4-1-.6-.5-2.4-1.8-4.2-3.2-.6-.4-1.6-1.2-.7-.5-2.3-1.7-2.4-1.7-.8-.5-1.9-1.3-.8-.6-2.8-1.8c-5.7-3.8-9.2-6.3-14.8-10.4-7,1.4-14,2.1-21.1,2.1h-39.1l-3.7-.4c-5.8-1.2-11.5-2.8-17-4.9,13.8,3.7,35.3-2.9,49.3-9.6l4.9-2.8c-9.8-6.7-22.6-14.4-32.9-20.9-13.6,3.1-27.3,3.6-41.1,1.6-13.9-3.3-27.4-7.9-40.4-13.9,0,0,21.2,4.5,59.1-3.7-11.9-10.1-24.7-18.9-38.5-26.3-19.4-12.3-38-8.9-58.2-5.7l-.6-1.4c1.4-2.5,3.1-4.8,5.2-6.7,2.1-1.9,4.5-3.5,7.2-4.6-3.5-.1-6.9.3-10.3,1.2-3.4,1-6.5,2.4-9.4,4.4l-3-3.1s-2.6-2.7-7.6-7.2c1.2-1.3,2.4-2.7,3.5-4.2,1.2-2.4,2.1-4.9,2.8-7.5.8-1.6,1.6-3.2,2.3-4.8.7-1.6,1.2-3.3,1.7-5,.5-1.7.9-3.4,1.2-5.2.3-1.7.5-3.5.6-5.3.1-1.8.1-3.5,0-5.3,0-1.8-.3-3.5-.5-5.3-.3-1.8-.6-3.5-1.1-5.2-.5-1.7-1-3.4-1.7-5.1-.6-1.6-1.4-3.3-2.2-4.8-.8-1.6-1.7-3.1-2.7-4.6-1-1.5-2-2.9-3.2-4.3-1.1-1.4-2.3-2.7-3.6-3.9-1.3-1.2-2.6-2.4-4-3.5-1.4-1.1-2.9-2.1-4.4-3-1.5-.9-3.1-1.8-4.7-2.5-1.6-.8-3.2-1.4-4.9-2-1.7-.6-3.4-1.1-5.1-1.5-1.7-.4-3.5-.7-5.2-.9-1.8-.2-3.5-.3-5.3-.3-1.8,0-3.5,0-5.3.3-1.8.2-3.5.5-5.2.8-1.7.4-3.4.8-5.1,1.4-1.7.6-3.3,1.2-4.9,1.9-1.6.7-3.2,1.6-4.7,2.5-1.5.9-3,1.9-4.4,3-1.4,1.1-2.8,2.2-4.1,3.4-1.3,1.2-2.5,2.5-3.7,3.8-1.2,1.3-2.2,2.7-3.2,4.2-1,1.5-1.9,3-2.8,4.5-.8,1.6-1.6,3.2-2.2,4.8-.7,1.6-1.2,3.3-1.7,5-.5,1.7-.9,3.4-1.2,5.2-.3,1.7-.5,3.5-.6,5.3-.1,1.8-.1,3.5,0,5.3,0,1.8.3,3.5.6,5.3.3,1.8.7,3.5,1.1,5.2.5,1.7,1,3.4,1.7,5,.7,1.6,1.4,3.3,2.2,4.8.8,1.6,1.7,3.1,2.7,4.6,1,1.5,2.1,2.9,3.2,4.2,1.1,1.4,2.4,2.6,3.6,3.9,1.3,1.2,2.6,2.4,4,3.4,1.4,1.1,2.9,2.1,4.4,3,1.5.9,3.1,1.8,4.7,2.5,1.6.8,3.3,1.4,4.9,2,1.7.6,3.4,1,5.1,1.4,1.7.4,3.5.7,5.2.9,1.8.2,3.5.3,5.3.3,4.2,0,8.4-.5,12.4-1.6,1.9-.5,3.8-1.1,5.7-1.9-1.4-2.4-3.1-4.7-4.9-6.8-4.2,1.4-8.5,2.1-13,2.2-2.9,0-5.8-.3-8.6-.9-2.8-.6-5.6-1.5-8.2-2.7-2.6-1.2-5.1-2.7-7.4-4.4-2.3-1.7-4.4-3.7-6.3-5.9,2.8,2.4,5.8,4.4,9.1,6,3.3,1.6,6.8,2.7,10.4,3.4,3.6.6,7.2.8,10.9.4,3.7-.4,7.2-1.2,10.6-2.5,3-1.1,5.9-2.6,8.5-4.4l4.1,3.8c2,1.9,4,3.8,5.9,5.7,8.7,8.5,16.1,16.2,16.1,16.2-.6,4.7-.6,9.4,0,14,1.9-2.6,4.4-4.2,7.5-5.1.4,3.9,1.2,7.6,2.4,11.3.6-2.2,1.8-4.1,3.5-5.7,39,38.1,82.7,69.5,131.3,94.2,42.5,23.1,87.3,40.2,134.4,51.4l.5-.8c-54.6-17.3-106.3-41.1-155-71.1l1.2-.3ZM546.7,280.6c4.5-12.6,10.7-24.4,18.4-35.4,7.7-11,16.8-20.7,27.2-29.1-1.9-2.7-4.1-5.3-6.4-7.8-11,8.3-20.5,18-28.6,29.1-8.1,11.1-14.4,23.1-19,36.1-2.1,6-3.7,12.1-5,18.3,3.3.3,8-4.2,13.4-11.2ZM610.8,202.2c8.8-10.6,19.4-19.1,31.8-25.4-1-.6-1.8-1.3-2.8-2l-1.6-1-4.8-3.1c-2.5,1.5-5,2.9-7.4,4.6l-2.4,1.7-2.7,2-2.1,1.7-2.7,2.3-1.9,1.7-2.8,2.6-1.6,1.6-2.7,2.8-1.5,1.7-1,1.2,1.5,1.6,4.8,5.9ZM537.2,43.5c0-.8-.3-1.6-.5-2.4-.3-1.1-.6-2.1-1-3.1v-.6l-2.3-4.6c-3.4-.3-6.2-.4-9.1-.6,2.1,1.4,4.2,3,6.1,4.6,2.4,2,4.5,4.2,6.6,6.6h.1ZM533.8,32.8l3.5,3.6c2.8,3.3,5.3,6.8,7.4,10.6l1.2,2c6.1.9,12.2,2,18.2,3.3,6,1.3,12,2.9,17.9,4.7,5.9,1.8,11.7,3.8,17.5,6.1,5.8,2.3,11.4,4.8,17,7.5,5.6,2.7,11,5.6,16.3,8.8,5.3,3.1,10.5,6.5,15.6,10,5.1,3.5,10,7.3,14.8,11.2,4.8,3.9,9.4,8,13.8,12.3,4.5,4.3,8.7,8.7,12.8,13.4,4.1,4.6,8,9.4,11.7,14.3,3.7,4.9,7.3,10,10.6,15.2,3.3,5.2,6.4,10.5,9.3,16,2.9,5.5,5.6,11,8.1,16.7,2.5,5.7,4.7,11.4,6.7,17.3,2,5.8,3.8,11.8,5.4,17.7,1.6,6,2.9,12,4,18.1,1.1,6.1,1.9,12.2,2.5,18.4.6,6.2,1,12.3,1.1,18.5.1,6.2,0,12.4-.4,18.5-.4,6.2-1,12.3-1.8,18.4-.9,6.1-1.9,12.2-3.3,18.2-1.3,6-2.9,12-4.7,17.9-1.8,5.9-3.8,11.7-6.1,17.5-2.3,5.8-4.7,11.4-7.4,17-2.7,5.6-5.6,11-8.7,16.3-3.1,5.3-6.5,10.5-10,15.6-3.5,5.1-7.3,10-11.2,14.8-3.9,4.8-8,9.4-12.3,13.8-4.3,4.4-8.7,8.7-13.4,12.8-4.6,4.1-9.4,8-14.3,11.7-4.9,3.7-10,7.3-15.2,10.6-5.2,3.3-10.5,6.5-16,9.4,4.6,2.7,9.6,5.7,15.5,8.3,5.7-3.3,11.3-6.9,16.7-10.7,5.4-3.8,10.7-7.8,15.8-12,5.1-4.2,10.1-8.6,14.8-13.2,4.8-4.6,9.3-9.4,13.7-14.3,4.4-5,8.6-10.1,12.6-15.4,4-5.3,7.8-10.7,11.3-16.3,3.6-5.6,6.9-11.3,10-17.1,3.1-5.8,6-11.8,8.6-17.9,2.6-6.1,5-12.2,7.2-18.5,2.1-6.3,4-12.6,5.7-19,1.6-6.4,3-12.9,4.2-19.4,1.1-6.5,2-13.1,2.6-19.7.6-6.6,1-13.2,1.1-19.8,0-6.6,0-13.2-.5-19.8-.4-6.6-1.1-13.2-2.1-19.7-1-6.5-2.2-13-3.6-19.5-1.5-6.5-3.2-12.8-5.2-19.1-2-6.3-4.2-12.5-6.7-18.7-2.5-6.1-5.2-12.2-8.1-18.1-2.9-5.9-6.1-11.7-9.5-17.4-3.4-5.7-7-11.2-10.9-16.6-3.8-5.4-7.9-10.6-12.1-15.7-4.3-5.1-8.7-10-13.3-14.7-4.6-4.7-9.5-9.2-14.5-13.6-5-4.3-10.2-8.5-15.5-12.4-5.3-3.9-10.8-7.6-16.4-11.1-5.6-3.5-11.4-6.8-17.2-9.8-5.9-3-11.9-5.8-18-8.4-6.1-2.6-12.3-4.9-18.6-7-6.3-2.1-12.6-3.9-19.1-5.5-6.4-1.6-12.9-2.9-19.4-4-6.5-1.1-13.1-1.9-19.7-2.4h.1ZM513.1,518.9c-14.6,0-29.1-1.3-43.4-4-14.4-2.7-28.3-6.6-42-11.9-13.6-5.3-26.6-11.8-39-19.4-12.4-7.7-24-16.5-34.8-26.3,0,1,.2,2,.5,3,1.7,3.2,2.8,6.6,3.3,10.2v6.5c.1.9.1,1.8,0,2.7,6.9,5.5,14.1,10.5,21.5,15.2,7.4,4.7,15.1,9,23,12.9,7.9,3.9,16,7.4,24.2,10.4,8.3,3,16.7,5.6,25.2,7.8,8.5,2.2,17.2,3.9,25.9,5.1,8.7,1.3,17.5,2.1,26.3,2.4,8.8.3,17.6.2,26.4-.4,8.8-.6,17.5-1.6,26.2-3.1-9.2-3.6-18.3-7.5-27.3-11.6-5.4.3-10.7.5-16,.5"/>
    <path class="cls-4" d="M343.3,291.5c4.9,0,9.6.9,14.2,2.6,4.6,1.7,8.7,4.2,12.4,7.4-1.8-2-3.7-3.9-5.8-5.5-2.1-1.6-4.4-3.1-6.8-4.2-2.4-1.2-4.9-2.1-7.5-2.8-2.6-.7-5.2-1.1-7.9-1.3-2.7-.2-5.3,0-8,.3-2.7.4-5.2,1-7.8,1.8-2.5.9-5,2-7.3,3.3-2.3,1.3-4.5,2.9-6.5,4.7l4,4c3.7-3.3,7.9-5.8,12.5-7.5,4.6-1.8,9.4-2.6,14.3-2.6M593.9,218.5c-.5-.8-.9-1.6-1.5-2.3-10.4,8.5-19.5,18.2-27.3,29.1-7.8,11-13.9,22.7-18.4,35.4-1.9,5-3.3,10.1-4.2,15.3,23.3,9.7,22.6-35,57.8-65.2-1.4-3.9-3.3-7.5-5.7-10.9-.3-.5-.6-1-.8-1.5ZM631,169.3l-.8-.4-1.5-.9-1.5-.7-1.2-.7c-2.1.9-4.6,1.9-6.1,2.4-.9.3-1.7.7-2.4,1.3-1.2.7-2.4,1.3-3.8,1.6-6.6,4.4-12.2,9.7-17,16,2.8,2,5.3,4.2,7.6,6.7l1-1.2,1.5-1.7,2.7-2.8,1.6-1.6,2.8-2.6,1.9-1.7,2.7-2.3,2.2-1.7,2.7-2,1.7-1,.8-.5c2.4-1.6,4.9-3.1,7.4-4.6l-2.3-1.4v-.3ZM538.4,273.6c4.6-13,10.9-25,19-36.1,8.1-11.1,17.6-20.8,28.6-29.1l-4.4-4.4-4.1-4.2h-6.3c-6.7,5.3-12.9,11.2-18.6,17.6-5.7,6.4-10.8,13.2-15.2,20.5-4.5,7.3-8.3,14.9-11.4,22.9-3.1,8-5.6,16.1-7.3,24.5,7,.6,13.3-4.1,19.6-11.6ZM610.9,202l.8,1s3.1,3.6,6.6,8.4c.2-.5.5-.9.8-1.4,2.2-3.2,9.6-3.5,9.6-3.5,2.1-5.2,5-9.8,8.9-13.9,3.8-4,8.3-7.2,13.4-9.6l-2.7-2.2-.5-.4-2.5-2-.3-.3-2.1-1.6c-12.4,6.3-23,14.8-31.9,25.6v-.2ZM309.8,343.5c.5-1,1.2-1.9,2-2.7l1.3-1.4,5.4,5.7.8.8c.9.9,1.3,1.9,1.2,3.1-.3,1.6-.5,2.7-.5,2.7l9.8-9.8-2.9.5c-1.3,0-2.4-.5-3.2-1.4l-.7-.8-5.2-5.7,5.7-5.7,4.9,5c.9.7,1.9,1.1,3,1.2,1.1,0,2.1-.2,3.1-.8l11.7-7.4,3.7,3.7c-1.5,1.8-3,3.5-4.7,5.1-1.2,1.5-2.6,2.7-4.3,3.6-1.7.9-3.4,1.5-5.3,1.7l6.2,6.2c2.8-2.1,5.5-4.3,8-6.7,2.3-2.3,4-4.3,4.8-5.2l9.7,9.7.9-.7c3.1-2.3,6-4.9,8.7-7.6,2.7-2.9,5.3-5.9,7.7-9.1l1.8-2.3h-2.3c-1.1.1-2.1-.2-2.9-1.1l-19.6-19.6-6.6,7.4h2.3c1,0,1.9.4,2.7,1l15.7,15.7-3.3,3.6c-1.9,2-3.2,3.1-4.2,4l-15.5-15.7c-2.3-2.2-5.7,0-6,0l-11.3,7h-.5l-3.6-3.6,8.3-8.2c.7-.6,1.4-1.1,2.3-1.2.3-2.6,1-5,2.3-7.2l1-1.8-1.8,1.1c-2.2,1.2-4.5,1.9-6.9,2.3-.2.9-.7,1.6-1.5,2.2l-18.6,18.7-4.7-4.6c1.5-1.7,3.1-3.4,4.8-4.9,1.4-1.4,3-2.7,4.7-3.7,1.4-.8,2.9-1.3,4.5-1.6l-6-5.7s-5.7,4.4-8.8,7.5c-3.1,3.3-6,6.8-8.7,10.5l-.7,1,2.3-.4c.8,0,1.6.2,2.3.7l6,6-1.4,1.4c-.8.8-1.7,1.5-2.7,2l-.9.5,3.6,1.2.9.9,1.1,3.8.4-.7ZM656.1,524.9c5.1-3.5,10.8-5.2,17-5.2-5.6-2.9-10.5-6.6-14.7-11.3-8,2.1-24.3,11.6-32.2,11.3,6.6-3.2,6.5-3.7,13.4-7.4l7.5-5.7,3.6-2.4c-3.8-1.6-7.7-3.5-11-5.1-5.7-2.8-10.9-5.7-15.5-8.3-3.6-2.1-6.9-4.2-10-6.3,24.3-12.2,45.7-28.3,64.2-48.2,3.3-3.6,6.6-7.3,9.7-11.1,3.1-3.8,6.1-7.7,8.9-11.7,2.8-4,5.6-8.1,8.1-12.3,2.6-4.2,5-8.5,7.3-12.8,2.3-4.4,4.5-8.8,6.5-13.3,2-4.5,3.9-9,5.6-13.7,1.7-4.6,3.3-9.3,4.7-14,1.4-4.7,2.7-9.5,3.8-14.3,1.1-4.8,2-9.6,2.8-14.5.8-4.9,1.4-9.7,1.9-14.6.5-4.9.8-9.8.9-14.7.1-4.9.1-9.8,0-14.7-.2-4.9-.5-9.8-1-14.7-.5-4.9-1.2-9.8-2-14.6-.8-4.9-1.8-9.7-2.9-14.5-1.1-4.8-2.4-9.5-3.9-14.2-1.4-4.7-3-9.3-4.8-13.9-1.7-4.6-3.6-9.1-5.7-13.6-2-4.5-4.2-8.9-6.6-13.2-2.3-4.3-4.8-8.6-7.4-12.8-2.6-4.2-5.4-8.2-8.2-12.2-2.9-4-5.9-7.9-9-11.7-3.1-3.8-6.4-7.5-9.8-11.1-3.4-3.6-6.9-7-10.5-10.4-3.6-3.4-7.3-6.6-11.1-9.7-3.8-3.1-7.7-6.1-11.7-9-4-2.9-8.1-5.6-12.3-8.2-4.2-2.6-8.4-5-12.8-7.3-4.3-2.3-8.8-4.5-13.3-6.5-4.5-2-9-3.9-13.6-5.6-4.6-1.7-9.3-3.3-14-4.7-4.7-1.4-9.5-2.7-14.3-3.8.2.8.3,1.6.4,2.5h.9c0,.2,0,.5,0,.7,0,.6,0,1.2.4,1.9.1,2.5.1,5.1,0,7.6v1c0,1.9-.9,5.3-1.4,7.6,0,.4,0,.9,0,1.3l-2.9,7.5s25.4,16.2,32.8,22.1c8.5,7.1,16,15,22.6,23.8.3.5.5,1,.8,1.5.6,1.3.9,2.6.9,4s-.3,2.8-.9,4c0,.7-.4,1.5-.6,2.3-.4,1.1-.4,2.2,0,3.2,1,1.6,3.6,2.2,6.2,3.3l2.2,1c10.2,5.3,20,11.4,29.3,18.2,8.7,7.2,17,15,24.7,23.3,1.6,1.8,3.1,3.6,4.4,5.7.8,1.1,1.3,2.3,1.7,3.6.4,1.3.5,2.6.5,4,0,1.4-.3,2.7-.8,3.9-.5,1.3-1.2,2.4-2,3.5-4.3,3.8-8.5,7.8-12.3,12-.8,1-1.1,2.1-1.1,3.4.6,3.5,2.1,6.6,4.6,9.2,1.7,2.2,3,4.6,4,7.2-.2,1-.5,1.9-.8,2.9-.5,1.9-1.1,4.3-1.4,6.1,0,.5-.1,1-.3,1.4-.2.4-.5.9-.8,1.2-.3.3-.7.6-1.2.8-.4.2-.9.3-1.4.3-3.2,1-6.3,2.2-9.3,3.6l-.7.3.4.7c.7,2.7.9,5.4.6,8.1-.6,4.2-14.2,9.4-14.2,9.4-.6,1.6-7.4,4.1-10,4.8-1.7.4-3.4.4-5,0-.7.7,0,2.4-.3,10.4-.1,2.5-.1,4.9,0,7.4v.3c.5,1.6,1.6,2.7,4.2,4.5l11.3,2.8c.4,0,2.3,1.3,4.1,2h.3c.4,0,.9,0,1.3,0h.7c2.8.2,5.4.9,8,2,.4.2.8.5,1.2.8.4.8.7,1.6,1,2.4v.7c0,.4.2.7.4,1.1v.4c.3.6.7,1.1,1.2,1.5.5.3,1,.4,1.5.3h.6c4.9,1.2,9.4,3.3,13.5,6.3,1.3.8,2.3,1.8,2.9,3.2v.6c.3,1.8.2,3.7-.3,5.4-.5,1.8-1.2,3.4-2.3,4.9-.3.4-.5.8-.7,1.2v.4c-1,2.2-3.1,6.8,3.6,15.8,6.7,9,8.1,12.3,5.6,18.7l-.4,1.1c-1.3,2.8-3,5.2-5.2,7.3-2.2,2.1-4.7,3.8-7.4,5.1-4,2.5-43.4,11.9-57.8,17.5-12,4-23,9.9-32.9,17.7-4.9,4.9-6.8,16-8.6,24.8l-5.1-3.5c-1,1.1-2.2,1.8-3.7,2.1-.3,0-.7,0-1,0l-1.8.3h-1.5l-9.8,1.8c-7.9.6-15.7.5-23.5-.5,15.1-5.7,22.6-12.6,28.3-12.1l-15.2-9.6c-12.5-7.8-17-11.3-29.7-18.7,0,0-34.7,7-58.4-.8,17,.8,33.5-1.6,49.5-7.2-1.4-1.5-3-2.9-4.8-4.1-12.2-9.3-25-17.7-38.4-25.1-7.1-4.1-14.6-7.2-22.6-9.2-8-2-16-2.9-24.2-2.6-3.1,0-6.1.6-9.1,1.1l-2.7-10.4h-3.4c-4.9.4-9.5,1.6-14,3.5l-1.1-1c-2.1-1.9-4.9-4.2-8.1-6.8-1.1,1.5-2.2,2.9-3.5,4.2,5,4.5,7.6,7.2,7.6,7.2l3,3.1c2.9-2,6-3.5,9.4-4.4,3.4-1,6.8-1.4,10.3-1.2-2.6,1.1-5,2.7-7.2,4.6-2.1,1.9-3.9,4.2-5.2,6.7l.6,1.4c20.2-3.5,38.8-6.9,58.2,5.7,13.8,7.4,26.6,16.1,38.5,26.3-37.9,8.2-59.1,3.7-59.1,3.7,13,6,26.4,10.7,40.4,13.9,13.8,2,27.5,1.4,41.1-1.7,10,6.5,23.1,14.2,32.9,20.9l-4.9,2.8c-14,6.7-35.5,13.3-49.3,9.6,5.5,2.1,11.2,3.7,17,4.9l3.7.4h39.1c7,.8,14,.9,21.1.4,5.7,4.1,9.1,6.6,14.8,10.4l2.8,1.8.8.6,1.9,1.3.8.5,2.4,1.7,2.3,1.7.7.5,1.6,1.2.6.4,4.2,3.2,2.4,1.8.6.5,1.4,1,1.2,1,.7.5,1,.8.6.4,1.3.9,1.7,1.1,1.6,1,.5.3,1.2.7,1.6,1,11.9,6.1c-14.2,4.3-58.4-3.6-123.6-33.5l-1.2.3c48.9,30.2,100.8,53.9,155.6,71.3l-.5.8c-47.1-11.1-91.9-28.2-134.4-51.3-48.5-24.9-92.2-56.4-131.1-94.6-1.7,1.6-2.8,3.4-3.5,5.7-1.2-3.7-2-7.5-2.4-11.3-3.1.8-5.6,2.5-7.5,5.1-.6-4.7-.6-9.4,0-14,0,0-7.4-7.8-16.1-16.2-1.9-1.9-4-3.8-5.9-5.7l-4.1-3.9c-2.7,1.8-5.5,3.3-8.5,4.4-3.4,1.3-7,2.2-10.6,2.5-3.7.4-7.3.2-10.9-.4-3.6-.6-7.1-1.8-10.4-3.4-3.3-1.6-6.3-3.6-9.1-6,1.9,2.2,4,4.1,6.3,5.9,2.3,1.7,4.8,3.2,7.4,4.4,2.6,1.2,5.3,2.1,8.2,2.7,2.8.6,5.7.9,8.5.9,4.4,0,8.8-.7,13-2.2,1.9,2.1,3.5,4.4,4.9,6.8,4.8,8.2,7.5,17,8,26.5,3.3-3.4,7-6.1,11.3-8-.8,10.4-.3,20.8,1.4,31.1,2.2-3.7,9.6-16,9.6-16,1,7.6,1.4,24.8,6.1,31.9,1.6-5.9,3.6-11.7,6.1-17.3,2,4,4.3,7.8,7,11.3,14.4,16.8,30.7,31.4,49.1,43.7,17.2,11.7,35,22.4,53.4,32.1,6.5,3.4,13,6.6,19.6,9.7,8.9,4.1,17.9,8,27.3,11.6,5.7,2.3,11.8,4.5,17.9,6.6,8.1,2.8,16.5,5.7,25.1,8,18.3,5.1,36.9,8.4,55.8,9.6,18.9,1.3,37.8.6,56.6-2-11.1-7.7-21.8-16.1-31.9-25.1-8,.5-15.9-.2-23.8-2"/>
    <path class="cls-1" d="M535.8,37.4v.6c.4,1,.7,2.1.9,3.1,0,.8.3,1.6.5,2.4-2.1-2.4-4.3-4.6-6.7-6.6-1.9-1.7-3.9-3.2-6-4.6,3,0,6,.2,9,.5l2.3,4.7M656,277.9c-.9.8-1.9,1.4-3.1,1.7-1.2.3-2.4.3-3.5,0-.5,1.8-5.3,6.2-8.2,4-7.4,7.6-10.4,1.8-11.3.8,2.1-2.1,3.8-5.7,7.4-5.7,2.2-2.7,3.7-6.2,9.5-6.4,1.3-2.9,4.3-3,6.3-4.4,2-1.4,2,.9,2.8,1.8l.6,1.5c.5,1.1.7,2.2.6,3.4,0,1.2-.4,2.3-1,3.3ZM634.4,320.1c3.2-.8,5.2,0,6.1,2.4.3,0,.7-.5,1-.5,3,0,5.8.8,8.2,2.5l.5.3c0,.2,0,.3,0,.5.5-.3,1.1-.5,1.6-.6,3,.5,6,1.1,9,2,.5,0,.7,1.1,1,1.4-.9,2.7-3.9,1.6-6.1,1.6s-4.1-.3-5.3-1.9c-1.5.9-3.5,0-5.1-.4-1.5-.4-3-1-4.4-1.9-2.9-1-5.4-2.4-7.8-4.3-.3-.4-.6-.8-.8-1.2.7,0,1.4,0,2,0ZM513.1,21.8c-17.3,0-34.4,1.7-51.3,5.1-12.1.4-23.8,2.7-35,7-9.6,0-19.1,1.4-28.3,4.2-8.8,2.8-16.9,7-24.3,12.4-8.9,7.9-22.6,18.4-21.8,19-2.4,2.8-5.1,5.2-8.2,7.2-13.6,6.8-31.6,27.2-39.1,38.3,0,0-10.7,15.7-14.4,21.8-11.7,20.9-22,42.5-31.1,64.6-1.5,5.9-2.2,16.4-3.1,20.4-3.6,14.9-5.3,30-4.9,45.3.4,2.3.5,4.7.5,7.1-.8,8.6-.6,17.2.7,25.8.7,10,1.9,19.9,3.7,29.7v.5c3.2,19.7,8.2,39,15,57.8,0,0,5.1,19.5,7.5,24.6,2.2,2.3,3.9,2.6,4.4,4.9.9,6.1,2.7,11.9,5.4,17.4,2.6,5.5,6,10.6,10.1,15.1.8.6,1.7.9,2.7.9,1,0,1.9-.3,2.6-.3.3,0,.5,0,.8,0,6.6,10.1,2.4,4.6,12.5,13.7,4,3.5,8.2,6.7,12.6,9.6,1.5.5,3.1.8,4.6.8.6,0,1.3,0,1.9,0,5.9,5.5,12.1,10.7,18.6,15.6,6.4,4.9,13.1,9.5,19.9,13.8,6.9,4.3,13.9,8.3,21.1,11.9,7.2,3.6,14.6,6.9,22.1,9.9,7.5,2.9,15.2,5.5,23,7.8,7.8,2.2,15.6,4.1,23.6,5.6,8,1.5,16,2.6,24,3.4,8.1.8,16.1,1.1,24.2,1.1,20.7,0,41-2.4,61.1-7.2-6-2.1-12-4.3-17.9-6.6-14.3,2.5-28.6,3.7-43.1,3.7-14,0-28-1.1-41.8-3.5-13.8-2.3-27.4-5.8-40.6-10.4-13.2-4.6-26-10.3-38.3-17.1-12.3-6.8-23.9-14.5-34.9-23.2.1-.9.1-1.8,0-2.7v-6.5c-.5-3.6-1.6-7-3.3-10.2-.3-1-.5-2-.5-3,10.8,9.9,22.4,18.7,34.8,26.4,12.4,7.7,25.5,14.2,39.1,19.5,13.6,5.3,27.6,9.2,42,11.9,14.4,2.7,28.9,4,43.5,3.9,5.7,0,10.6,0,15.8-.5-6.6-3.1-13.1-6.3-19.6-9.7-4.8,0-9.6,0-14.3-.7-14.5-8-28.5-16.8-42.1-26.2-19-13-36-28.3-50.9-45.8-2.2,5.9-4.1,11.9-5.7,18l-7-11.3c-2.7-4.9-4.4-10.2-5-15.8l-8.4,13.5-3.2-16.2s-1.7-13.7-1.9-19.3c-.6.3-10.6,8.9-10.6,8.9l-.7-13.2c-.4-9.1-3.1-17.4-7.9-25.1-4.1,1.1-8.2,1.6-12.4,1.6-6.6,0-12.9-1.3-19-3.9-1.5-.6-3-1.4-4.4-2.1-1.4-.8-2.8-1.6-4.2-2.6-1.3-.9-2.6-1.9-3.9-3-1.2-1.1-2.4-2.2-3.6-3.4-1.1-1.2-2.2-2.4-3.2-3.7-1-1.3-2-2.6-2.8-4-.9-1.4-1.7-2.8-2.4-4.3-.7-1.5-1.4-3-2-4.5-.6-1.5-1.1-3.1-1.5-4.7-.4-1.6-.8-3.2-1.1-4.8-.3-1.6-.5-3.2-.6-4.9-.1-1.6-.1-3.3,0-4.9,0-1.6.2-3.3.4-4.9.2-1.6.5-3.2.9-4.8.4-1.6.8-3.2,1.4-4.7.5-1.5,1.1-3.1,1.8-4.5.7-1.5,1.4-2.9,2.3-4.3.8-1.4,1.7-2.8,2.7-4.1,1-1.3,2-2.6,3.1-3.8,1.1-1.2,2.2-2.4,3.5-3.5,1.2-1.1,2.5-2.1,3.8-3.1,1.3-1,2.7-1.9,4.1-2.7,1.4-.8,2.8-1.6,4.3-2.3,1.5-.7,3-1.3,4.5-1.8,1.5-.5,3.1-1,4.7-1.4,1.6-.4,3.2-.7,4.8-.9,1.6-.2,3.2-.4,4.9-.4,1.6,0,3.3,0,4.9,0,1.6.1,3.3.3,4.9.6,1.6.3,3.2.6,4.8,1,1.6.4,3.1.9,4.7,1.5,1.5.6,3,1.2,4.5,2,1.5.7,2.9,1.5,4.3,2.4,1.4.9,2.7,1.8,4,2.8,1.3,1,2.5,2.1,3.7,3.2,1.2,1.1,2.3,2.3,3.4,3.6,1.1,1.2,2.1,2.5,3,3.9.9,1.3,1.8,2.7,2.6,4.2.8,1.4,1.5,2.9,2.1,4.4.6,1.5,1.2,3,1.7,4.6.5,1.6.9,3.1,1.2,4.7.3,1.6.6,3.2.8,4.8.2,1.6.3,3.3.3,4.9,0,1.6,0,3.3-.2,4.9-.2,1.6-.4,3.2-.7,4.8-.3,1.6-.7,3.2-1.2,4.7-.5,1.6-1,3.1-1.7,4.6-.6,1.5-1.3,3-2.1,4.4,3,2.7,5.7,4.9,7.2,6.7,4.5-1.8,9.3-2.8,14.1-2.9h3.4l2.2,10.3h2.4c2.3-.3,4.5-.5,6.8-.5,3.9-.2,7.8,0,11.7.3.4-1.8,1.1-3.4,2.2-4.8,2.4-3.8,5.7-6.5,7.8-10.5,2.1-4,5.7-11.3,7.7-14.8.8-1.4,1.5-2.9,2.1-4.4,2.6,0,5,.6,7.4,1.6,0,0,.5.4.5.7.7,1.9,1.8,3.5,3.1,5,2.4,2.4,5.1,4.3,8.3,5.5,3.1,1.3,6.4,1.9,9.8,1.8,1.1-.3,2.2-.3,3.3,0,1.1.2,2.1.7,3,1.4l.5.4c.9.8,1.7,1.6,2.3,2.7.7,1.2,2.7,4,4.4,7,7.2,12.6,42.7,52.7,55.5,64.9l1.2,1.1c1,.8,2.1,1.5,3.2,2.2,1.3.9,2.6,1.6,4.1,2.1,1.5.5,2.9.9,4.5,1,1.5.1,3.1,0,4.6-.2,1.5-.3,3-.7,4.4-1.3,3.1-2.2,5.5-5,7.2-8.5.8-1.2,1.6-2.4,2.5-3.6,1.5-2.3,3.4-4.1,5.7-5.7,1.5-.9,40.6-7.9,45.3-8.5,5.7-.8,9.4-1.7,13.6-2.7,6.8-1.1,13.4-2.7,19.9-5h-2.4c-.8,0-1.7,0-2.5,0-19.5,1.2-37.3-2.7-55.3-5.7l-28.3-3.1c-4.9-.7-10.6-.4-15.2-1.1-11.5-.2-22.3-2.8-32.5-8-5-3-9.6-6.6-13.7-10.7-4.2-3.7-7.5-8-10.1-12.9-3.5-6.4-6.2-13-8.3-20,2.3-2.9,3.7-6.1,4.2-9.7-3,2.4-6.3,4.2-9.9,5.3-3.7,1.1-7.4,1.5-11.2,1.1-1.6-.3-3.1-.7-4.6-1.3-2.5-2-5.2-4.4-8.1-6.4-2.6-2-5.6-3.3-8.8-3.9-11.9-2-13.4,0-19-5.1,11.3-30.4,17-13.5,30.1-39.6,1,1.3,1,3.1,2,4.3.4.5.8.9,1.4,1.1,3.6.7,6.8,2.3,9.6,4.7l1.1,1.1c.9-8.5,2.4-16.8,4.7-25.1-.3-.8.5-1.5,0-2.2-.5-1.2-1.1-2.3-1.9-3.3l-1.1-1.6-.4-.8c-.1-.3-.3-.6-.6-.9-1.3-1.5-2.4-3-3.5-4.6-2.2-4.1-4.9-7.8-7.9-11.3-2.9-7.7-6.9-14.6-12.2-20.9l-.5-.5-.5-.5-.7-1.4s-6.6-5.7-7.8-6c4.7,16.6,0,37.3-1.4,43.7-1.4-2-1.5-28.3-2.3-30.5-1.1,9.2-1.5,34.9-14.2,45.8,2-7.9,10.4-34.4,10.5-34.7-1.5,2.5-7.5,15.8-11,16.5,4.5-13.8,7.9-27.8,10.4-42-2.4,4-4.2,8.3-5.3,12.9-.3-5.9.8-11.6,3.3-17l-.9-3.2c.1-.2.3-.4.5-.5-1.3-1.3-2.4-2.6-3.6-4l-.7-1-.9-1.1-1.5-2.1c0-.1,0-.3,0-.5-.5-.7-1-1.4-1.4-2-.9-1.5-1.7-3-2.4-4.5v-.3c-2.7-5.3-4.1-11-4.3-17,0-.7,0-1.4,0-2,.5-.3,0-1,0-1.4,0-2.4.3-4.8.6-7.2,0-.6.2-1.2.4-1.8.5-1.5.8-3,1.1-4.5v-.7c.6-1.3,1.3-2.5,2.1-3.6.5-.7,1.1-1.4,1.6-2.1,1.6-2,3.3-3.9,5.2-5.7,1.4-1.2,2.8-2.4,4.3-3.5l1.5-1.1c.8-.5,1.5-1.1,2.2-1.8l4.7-3.7,12.4-7.4h.5c3.4-2,2.3-1.9,5.3-4.5l.7-.6c1.7-1.6,3.6-2.9,5.7-4.1,2.4-1.7,4.9-2.9,7.8-3.5,1.1,0,5.1-2.4,6.7-2.7l2.3-1c.6-.2,1.1-.4,1.6-.7l1.2-.5c3.6-1.1,7.2-1.8,10.9-2h1.1c6.2-1.2,12.5-2,18.9-2.3,0,0,.5,0,2.8-.3v-.6l.4.5.3-.3c-6.8-12.7-10.9-24.3-23.4-32.7,6.8,3.4,12.9,7.8,18.3,13.2,5.4,5.4,9.8,11.5,13.3,18.3.4,0,.6.4,1,0,.4-.4.3-1,0-1.5v-.3c-.1-.3-.1-.6,0-.9-1.1-2.9-2.1-5.7-3.1-8.3-2.3-6.4-5.3-12.4-9.1-18.1-3-3-5.1-6.8-7.5-9.6,6,4.5,11.4,9.5,16.2,15.2,0,.1,0,.3,0,.4.4.9,1.4,1.6,1.6,2.6.4.4.6.9.8,1.4v.3c.3.7.7,1.4,1.4,1.8.2-3.6-.5-7-2.1-10.3-2.1-3.5-5.2-4.2-7.6-6.5-.2-.4-.4-.8-.5-1.2-1.2-3.5-2.6-10.2-5-16.5-1.4-4.1-3.6-7.7-6.8-10.7,6.6,3.3,12,7.9,16.4,13.9,1.1,2.2,2.8,5,4.4,8.8,4,9.1,5.7,18.6,5,28.6,1.1-2.4,1.8-4.8,2.2-7.4,1.4-8.6,1.4-17.2,0-25.7,2.5,5.1,4.3,10.5,5.3,16.1,1,5.6,1.1,11.3.4,16.9,2.7-2.6,4.9-5.6,6.4-9-1.4,7.9-4.6,15-9.6,21.3l1,1c21.6,9.6,40.5,23.1,56.6,40.5.8,1,1.5,2.2,2,3.3,1.6,2.9,1.9,6,1,9.2,0,2.9-3.2,8-1.9,10.9.3.6.7,1,1.2,1.3,3.3,1.7,14.7,3.6,20.4,6.8l1.4.7,1.5.7,1.5.8.8.5,1.4.8,1.1.6,2.1,1.3,1,.6,1.3.9,1.6,1,2.4,1.7c.8.6,1.6,1.1,2.3,1.8l.3.3c.9.7,1.8,1.4,2.7,2.1l.5.4,2.7,2.2c6.6,5.7,13.1,11.8,21.6,19.3,2.3,2,3.6,4.5,4,7.5,0,.8-.1,1.5-.3,2.3-2.7,7.6-8.9,6.7-13.2,13.7-1.9,2.5-3.7,5.1-5.3,7.8.2,1.8.7,3.5,1.6,5.2.9,1.6,2,3,3.4,4.2,1.8,2,4.6,3.6,5.7,5.7.3.8.3,1.6,0,2.4-1,2.2-1.8,4.4-2.2,6.8-14.4,3.3-27.3,9.7-38.6,19.2l-.6.7c-1,14.7-.3,29.2,2.3,43.7.3,1.4.7,2.8,1.2,4.1.6,2.3,1.4,4.5,2.1,6.6,2.8,8.6,6.6,16.7,11.4,24.3,2.8,4.5,5.9,8.8,9.3,12.9l6.1,7.2c-4-8.6-10.4-19.5-15.7-30.3-1.2-2.5-2.4-5-3.5-7.4-1.5-3.5-2.8-7.1-3.8-10.8,10.1,4.6,20.8,7.2,31.9,7.7,4,1.1,7.2,2.1,8.5,6.5-.3,1.6-1,3.1-2.1,4.4-.7,1.3-1.2,2.6-1.6,4-.3,1.4-.5,2.8-.4,4.3,0,1.4.3,2.9.7,4.2.4,1.4,1,2.7,1.8,3.9l1,1.5c2.6,4,4.8,8.2,6.7,12.5,0,.2,0,.4,0,.7.3,2.8-.3,5.4-1.8,7.8-5.4,5.7-11.9,9.5-19.5,11.3-26.8,6.1-54.2,10.8-76.5,27.7-3.2,2.4-6.2,5.1-9.3,7.7-3,2.5-5.8,5.2-8.1,8.3-.5.6-1,1.4-1.5,2.3v4.1c1.5-2.2,3.4-4.1,5.7-5.7-.7,1.1-1.4,2.2-2,3.4-2,4.2-2.8,8.6-2.5,13.3l1.8-.3c.3,0,.7,0,1,0,1.5-.3,2.7-1,3.7-2.1l5.1,3.5c1.8-8.9,3.7-19.9,8.6-24.8,10.3-7.9,21.6-13.7,34-17.5,14.4-5.7,53.8-15,57.8-17.5,2.8-1.2,5.3-2.9,7.4-5,2.2-2.1,3.9-4.6,5.2-7.3l.4-1.1c2.7-6.6,3.1-7.6-4.2-17.4-7.2-9.8-4.6-13.6-3.6-15.8v-.4c.2-.4.4-.8.7-1.2,1.1-1.5,1.9-3.1,2.3-4.9.4-1.8.5-3.6.3-5.4v-.6c0-.2,0,0,0,0-.7-1.3-1.7-2.4-2.9-3.2-4.1-3-8.6-5.1-13.5-6.3h-.6c-.5,0-1,0-1.5-.3-.5-.4-.9-.9-1.2-1.5v-.4c-.2-.3-.3-.7-.4-1.1v-.7c-.2-.8-.6-1.6-1-2.4-.3-.3-.7-.6-1.2-.8-2.5-1.1-5.2-1.8-8-2h-.7c-.4,0-.9,0-1.3,0h-.3c-1.8-.7-3.7-2-4.1-2l-11.3-2.8c-2.7-1.8-3.8-2.8-4.2-4.5-.5-1.6,0,0,0-.3-.1-2.5-.1-4.9,0-7.4,0-8-.4-9.7.3-10.4,1.7.4,3.4.4,5,0,2.6-.6,9.4-3.2,10-4.8,0,0,13.6-5.3,14.2-9.4.3-2.7.2-5.4-.6-8.1l-.4-.7.7-.3c3-1.4,6.1-2.6,9.3-3.6.5,0,1-.1,1.4-.3.4-.2.8-.5,1.2-.8.3-.3.6-.8.8-1.2.2-.4.3-.9.3-1.4.3-1.8.9-4.2,1.4-6.1.5-1.9.7-2.9.7-3.3-1-2.6-2.3-5-4-7.2-2.4-2.6-4-5.7-4.6-9.2,0-1.3.4-2.4,1.1-3.4,3.5-4.6,7.2-8.9,11.2-13.1.9-1,1.6-2.1,2.1-3.4.5-1.2.8-2.5,1-3.9.1-1.3,0-2.7-.3-4-.3-1.3-.8-2.5-1.5-3.7-1.3-2-2.7-3.9-4.4-5.7-7.7-8.3-16-16.1-24.7-23.3-9.3-6.8-19.1-12.9-29.3-18.2l-2.2-1c-2.7-1.2-5.2-1.7-6.2-3.3-.4-1.1-.4-2.2,0-3.2,0-.8.4-1.6.6-2.3.6-1.3.9-2.6.9-4s-.3-2.8-.9-4c-.3-.5-.6-1-.8-1.5-6.6-8.8-14.2-16.8-22.6-23.8-7.4-5.9-32.8-22.1-32.8-22.1l2.3-7.6c0-.5,0-1.1,0-1.6.5-2.3,1.2-5.7,1.4-7.5v-1c.1-2.5.1-5.1,0-7.6,0-.6,0-1.2-.4-1.9,0-.2,0-.5,0-.7h-1c0-.8-.2-1.5-.3-2.3,6.2,1.4,12.3,3.1,18.3,5,6,1.9,12,4.1,17.8,6.6,5.8,2.4,11.6,5.1,17.2,8,5.6,2.9,11.1,6.1,16.5,9.4,5.4,3.4,10.6,7,15.6,10.8,5.1,3.8,9.9,7.8,14.7,12.1,4.7,4.2,9.2,8.6,13.6,13.2,4.3,4.6,8.5,9.4,12.4,14.3,3.9,5,7.7,10.1,11.2,15.3,3.5,5.3,6.8,10.7,9.9,16.2,3.1,5.5,5.9,11.2,8.5,17,2.6,5.8,4.9,11.7,7,17.6,2.1,6,3.9,12,5.5,18.2,1.6,6.1,2.9,12.3,4,18.6,1.1,6.2,1.9,12.5,2.4,18.8.5,6.3.8,12.6.8,19,0,14.1-1.4,28.1-4,42-2.7,13.9-6.6,27.3-11.8,40.5-5.2,13.1-11.6,25.6-19.1,37.6-7.6,11.9-16.2,23-25.8,33.3-18.5,19.9-39.9,35.9-64.2,48.2,3.1,2.1,6.4,4.2,10,6.3,5.4-2.9,10.8-6,16-9.4,5.2-3.3,10.3-6.9,15.2-10.6,4.9-3.7,9.7-7.7,14.3-11.8,4.6-4.1,9.1-8.4,13.3-12.8,4.3-4.5,8.4-9.1,12.3-13.8,3.9-4.8,7.6-9.7,11.2-14.8,3.5-5.1,6.9-10.3,10-15.6,3.1-5.3,6-10.8,8.7-16.3,2.7-5.6,5.2-11.2,7.4-17,2.2-5.8,4.3-11.6,6.1-17.5,1.8-5.9,3.4-11.9,4.7-17.9,1.3-6,2.4-12.1,3.3-18.2.8-6.1,1.5-12.3,1.8-18.4.4-6.2.5-12.3.4-18.5-.1-6.2-.5-12.3-1.1-18.5-.6-6.1-1.4-12.3-2.5-18.3-1.1-6.1-2.4-12.1-3.9-18.1-1.6-6-3.3-11.9-5.4-17.7-2-5.8-4.3-11.6-6.7-17.2-2.5-5.7-5.2-11.2-8.1-16.7-2.9-5.5-6-10.8-9.3-16-3.3-5.2-6.8-10.3-10.6-15.2-3.7-4.9-7.6-9.7-11.7-14.3-4.1-4.6-8.4-9.1-12.8-13.4-4.4-4.3-9-8.4-13.8-12.3-4.8-3.9-9.7-7.7-14.7-11.2-5.1-3.5-10.2-6.9-15.6-10-5.3-3.1-10.8-6.1-16.3-8.8-5.5-2.7-11.2-5.2-16.9-7.5-5.7-2.3-11.6-4.3-17.5-6.1-5.9-1.8-11.9-3.4-17.9-4.7-6-1.3-12.1-2.4-18.2-3.3l-1.2-2c-2.1-3.8-4.6-7.3-7.4-10.6l-3.5-3.6c6.6.5,13.2,1.3,19.7,2.4,6.5,1.1,13,2.4,19.4,4,6.4,1.6,12.8,3.4,19.1,5.5,6.3,2.1,12.5,4.4,18.6,7,6.1,2.6,12.1,5.4,18,8.4,5.9,3,11.6,6.3,17.2,9.8,5.6,3.5,11.1,7.2,16.4,11.1,5.3,3.9,10.5,8.1,15.5,12.4,5,4.3,9.8,8.9,14.5,13.6,4.6,4.7,9.1,9.6,13.3,14.7,4.2,5.1,8.3,10.3,12.1,15.7,3.8,5.4,7.5,10.9,10.9,16.6,3.4,5.7,6.6,11.5,9.5,17.4,2.9,5.9,5.6,12,8.1,18.1,2.5,6.1,4.7,12.4,6.7,18.7,2,6.3,3.7,12.7,5.2,19.1,1.5,6.5,2.7,13,3.6,19.5,1,6.5,1.6,13.1,2.1,19.7.4,6.6.6,13.2.5,19.8,0,6.6-.4,13.2-1.1,19.8-.6,6.6-1.5,13.1-2.6,19.7-1.1,6.5-2.5,13-4.2,19.4-1.6,6.4-3.5,12.7-5.7,19-2.1,6.3-4.5,12.4-7.2,18.5-2.6,6.1-5.5,12-8.6,17.9-3.1,5.8-6.4,11.6-10,17.1-3.6,5.6-7.3,11-11.3,16.3-4,5.3-8.2,10.4-12.6,15.4-4.4,4.9-9,9.7-13.7,14.3-4.8,4.6-9.7,9-14.8,13.2-5.1,4.2-10.4,8.2-15.8,12-5.4,3.8-11,7.3-16.7,10.7,3.3,1.6,7.2,3.5,11,5.1l.7-.5,4.4-2.8,1.8-1.2,6.9-4.7c4.2-3,8.3-6.1,12.3-9.3,1.9-1.5,3.7-3,5.7-4.6l5.4-4.7c2.5-2.2,5-4.5,7.4-6.8,2.4-2.3,4.8-4.7,7.1-7.1,2.3-2.4,5.7-5.7,8.2-8.9,3.8-4.3,7.4-8.7,10.8-13.2,8.6-11.3,16.2-23.1,22.8-35.6,6.6-12.5,12.2-25.5,16.7-38.9,4.5-13.4,7.9-27.1,10.1-41.1,2.2-14,3.3-28.1,3.2-42.2,0-4.3-.1-8.5-.3-12.8-.2-4.3-.5-8.5-1-12.8-.4-4.2-.9-8.5-1.6-12.7-.6-4.2-1.4-8.4-2.2-12.6-.8-4.2-1.8-8.3-2.8-12.5-1-4.1-2.2-8.3-3.4-12.3-1.2-4.1-2.6-8.1-4-12.2-1.4-4-3-8-4.6-11.9-1.6-3.9-3.4-7.8-5.2-11.7-1.8-3.9-3.7-7.7-5.8-11.4-2-3.8-4.1-7.5-6.3-11.1-2.2-3.7-4.5-7.3-6.9-10.8-2.4-3.6-4.8-7-7.4-10.5-2.5-3.4-5.2-6.8-7.9-10.1-2.7-3.3-5.5-6.5-8.4-9.7-2.9-3.2-5.8-6.3-8.8-9.3-3-3-6.1-6-9.3-8.8-3.2-2.9-6.4-5.7-9.7-8.4-3.3-2.7-6.7-5.3-10.1-7.9-3.4-2.5-6.9-5-10.5-7.4-3.5-2.4-7.2-4.7-10.8-6.9-3.7-2.2-7.4-4.3-11.1-6.3-3.8-2-7.6-3.9-11.4-5.8-3.9-1.8-7.8-3.6-11.7-5.2-3.9-1.6-7.9-3.2-12-4.6-4-1.4-8.1-2.8-12.2-4-4.1-1.2-8.2-2.4-12.3-3.4-4.1-1-8.3-2-12.5-2.8-4.2-.8-8.4-1.6-12.6-2.2-4.2-.6-8.5-1.2-12.7-1.6-4.2-.4-8.5-.7-12.8-1-4.3-.2-8.5-.3-12.8-.3ZM627.1,236.7c3.1.4,3.5,1.2,14.5-6.5,4-3.7,10.7-1.1,14-5.7.4-.7.3-2-.5-2.3-7.4-1.8-12.8,2.9-18.5,7.9-5.3,2.8-11.3-.4-15.8-3-1.5-.8-2.6-1.9-3.5-3.4-.8-1.5-1.2-3-1.1-4.7-2.7-4.1-5.7-8.1-8.9-11.8l-5.7-6.8c-3.3-4-7.2-7.2-11.7-9.8l-5.2-4.2c-.5-.6-1.2,0-1.4.3,7.3,8.4,17,16.2,22.2,25.7,4.3,6.2,7.2,12.9,8.8,20.3,2.6,14.7,3,29.4,1.4,44.3-.7,10.8-.2,21.5,1.5,32.1,1.1,9.7,3.8,19,8.2,27.8-.5-2.3-.8-4.7-.9-7.1-3.3-16.3-6.9-36.9-4.2-51.4,2.9-14.2,2.9-28.4,0-42.7,1.1-2.4,5.4.7,6.6,1h.2ZM542.2,196.2c-5.8,5.2-10.9,11.1-15.2,17.6-4.3,6.5-7.8,13.4-10.4,20.8,2.8-4.4,5.8-8.6,9.1-12.7,5.4-10.7,13.2-19.4,23.2-26,5.5-3.8,11.4-6.7,17.6-8.9,6.3-2.1,12.7-3.4,19.4-3.8.5,0,1.5.4,1.8,0-1-.7-2.4-.7-3.5-1.5-.2-.1-.4-.3-.5-.5,0-.3,0-.7-.6-1.2-.6-.4-2.5-.6-3.5-1.5-.9-1-1.2-2.2-1-3.5.5-1.8,2.7-.7,4.1-1.1.5,0,4.2-1.6,4.2-1.6-3.3-4-10.6-2.2-12.6-1.1-6.5,1.4-12.7,3.7-18.5,7v-.3c2.4-3.4-6.2,1.4-12.9,7.6,0-.7-.9-1.9-3.3-5.7,1-5.1,3.2-9.6,6.6-13.5,6.9-6.7,15-11.6,24.1-14.8,3.3,2.5,6.4,5.2,9.4,8.1,1.1,1.5,1.9,3.1,2.3,4.9,1.2-4.8,6.8-6.2,10.3-8.4-.7.4-3.9-.9-4.9-1,0-.8.1-1.5.6-2.1.4-.6,1-1.1,1.7-1.4,1.2-.8,1.7-3.7,1.7-5s0-3.6-1.2-4.6c-8.5-6.6-24.7-11.7-26.5-9-.5.6,3.9,3.6,5,5.1-2.8-1.1-5.7-2-8.7-2.6-2.2,0-4.3,0-6.4.4-4.4.7-32.6,17.8-34.8,18.9,0,6.8,18.1-1.2,21.5-2.8-8.1,4-30.2,22.1-34,30.5,7.4-.4,20.3-10.7,25-12.1,6.5-1.9,2.4,9.4,2.4,9.4,0,0-7.4,5,3.4,3.9,2.7-.3,1.2.6,0,2.3-2.1,2.8-3.2,6.3-2.5,6.7,1.6-.7,3.2-1.5,4.6-2.4,6.6-2.5,13.4-4.7,20.3-6.5-5.1,3.2-10.8,4.9-15.9,7.9v.8c1.9.8.1,2.2-1.3,3.1ZM647.8,208.8c1.2.7,2.4,1.3,3.7,1.8.3,0,.6,0,.9-.2.3-.2.5-.4.6-.7.7-2.1-3.4-4.1-4.7-5.3-1.1-.8-2.1-1.7-2.9-2.7-.6-.8-.5-3.1-1.8-3.3-1.6-.1-2.9.4-4,1.5-1,.8-2.2,1.4-3.2,2.3-1,.8-1.8,1.2-1.9,2.2,0-.6,6.2,1.5,6.7,1.8,2.2.9,4.4,1.9,6.6,2.9ZM476.1,310.2c-2.5-.8-4.8-2.5-7.2-3.5-3.5-2.1-7.3-3.4-11.3-3.7l1.5.9c5,.9,8.7,5.7,13.1,8,1.9,1.2,3.9,1.7,6.1,1.7s4.2-.6,6.1-1.7c1-.6,1.7-1.4,2.2-2.4.5-1,.8-2.1.8-3.2.2-2-.2-4-1.1-5.8-.9-1.8-2.3-3.3-4-4.3-1.6,1.4-2.9,3-3.9,4.8-1,1.9-1.6,3.8-1.8,5.9,1.4-1.5,2-3.5,4-4.7.7-.1,1.5,0,2.1.3.7.3,1.2.8,1.6,1.4.1.9,0,1.8-.3,2.7-.3.9-.9,1.6-1.6,2.2-1.9,1.5-4,2-6.3,1.5Z"/>
  </g>
</svg>