<?xml version="1.0" encoding="UTF-8"?>
<svg xmlns="http://www.w3.org/2000/svg" version="1.1" xmlns:xlink="http://www.w3.org/1999/xlink" viewBox="0 0 1920 1024">
  <defs>
    <style>
      .cls-1, .cls-2, .cls-3 {
        stroke-width: 0px;
      }

      .cls-1, .cls-4, .cls-5 {
        fill: none;
      }

      .cls-6 {
        clip-path: url(#clippath-1);
      }

      .cls-2 {
        fill: #212121;
      }

      .cls-4 {
        stroke: #af0;
        stroke-width: 5px;
      }

      .cls-4, .cls-5 {
        stroke-miterlimit: 10;
      }

      .cls-7 {
        clip-path: url(#clippath);
      }

      .cls-3 {
        fill: #fff;
      }

      .cls-5 {
        stroke: #fff;
        stroke-width: 2px;
      }
    </style>
    <clipPath id="clippath">
      <rect class="cls-1" x="755.5" y="494.3" width="145.4" height="145.4"/>
    </clipPath>
    <clipPath id="clippath-1">
      <rect class="cls-1" x="914.8" y="494.3" width="145.4" height="145.4"/>
    </clipPath>
  </defs>
  <g id="Layer_2" data-name="Layer 2">
    <rect class="cls-2" width="1920" height="1024"/>
  </g>
  <g id="Layer_1" data-name="Layer 1">
    <g>
      <g>
        <g>
          <g>
            <path class="cls-3" d="M1402.3,452.5c1.7-3.3,4.2-5.9,7.3-7.7,3.2-1.8,6.9-2.7,11.2-2.7s7,.7,9.9,2.1,5.3,3.4,7.1,5.9c1.8,2.5,3.1,5.5,3.7,8.9h-14.1c-.6-1.4-1.6-2.5-2.7-3.3-1.2-.8-2.5-1.2-4.1-1.2-2.3,0-4,.8-5.3,2.5s-2,4-2,6.8.7,5.1,2,6.8c1.3,1.7,3.1,2.5,5.3,2.5s2.9-.4,4.1-1.2c1.2-.8,2.1-1.9,2.7-3.3h14.1c-.6,3.4-1.8,6.3-3.7,8.9-1.8,2.5-4.2,4.5-7.1,5.9s-6.2,2.1-9.9,2.1-8.1-.9-11.2-2.7c-3.2-1.8-5.6-4.4-7.3-7.7-1.7-3.3-2.6-7.1-2.6-11.3s.9-8,2.6-11.3h0Z"/>
            <path class="cls-3" d="M1456.2,482.9c-3.4-1.9-6-4.5-8-7.9-2-3.3-3-7.1-3-11.3s1-8,3-11.3,4.6-6,8-7.8c3.4-1.9,7.1-2.8,11.1-2.8s7.7.9,11.1,2.8c3.3,1.9,6,4.5,7.9,7.8,2,3.3,2.9,7.1,2.9,11.3s-1,8-2.9,11.3c-2,3.3-4.6,6-8,7.9s-7,2.8-11,2.8-7.7-.9-11.1-2.8ZM1473.5,470.6c1.4-1.7,2.2-4,2.2-6.9s-.7-5.3-2.2-7-3.5-2.6-6.2-2.6-4.8.9-6.2,2.6c-1.5,1.7-2.2,4-2.2,7s.7,5.2,2.2,6.9c1.4,1.7,3.5,2.6,6.2,2.6s4.7-.9,6.2-2.6Z"/>
            <path class="cls-3" d="M1535.1,485.3h-13.4l-14.2-21.5v21.5h-13.4v-42.8h13.4l14.2,21.9v-21.9h13.4v42.8Z"/>
            <path class="cls-3" d="M1571.4,442.5v10.6h-16.8v5.9h12.1v10.1h-12.1v16.1h-13.4v-42.8h30.2Z"/>
            <path class="cls-3" d="M1589.3,453.2v5.3h13.3v10.1h-13.3v6h15.1v10.7h-28.5v-42.8h28.5v10.7h-15.1Z"/>
            <path class="cls-3" d="M1631,485.3l-8-15.3h0v15.3h-13.4v-42.8h19.9c3.5,0,6.4.6,8.9,1.8,2.5,1.2,4.3,2.9,5.5,5s1.8,4.5,1.8,7.2-.8,5.4-2.4,7.6-3.9,3.8-6.9,4.8l9.3,16.4h-14.7ZM1622.9,461h5.3c1.3,0,2.3-.3,2.9-.9s1-1.5,1-2.7-.3-2-1-2.7-1.6-1-2.9-1h-5.3v7.2h0Z"/>
            <path class="cls-3" d="M1663.4,453.2v5.3h13.3v10.1h-13.3v6h15.1v10.7h-28.5v-42.8h28.5v10.7h-15.1Z"/>
            <path class="cls-3" d="M1724.6,485.3h-13.4l-14.2-21.5v21.5h-13.4v-42.8h13.4l14.2,21.9v-21.9h13.4v42.8Z"/>
            <path class="cls-3" d="M1732,452.5c1.7-3.3,4.2-5.9,7.3-7.7,3.2-1.8,6.9-2.7,11.2-2.7s7,.7,9.9,2.1,5.3,3.4,7.1,5.9c1.8,2.5,3.1,5.5,3.7,8.9h-14.1c-.6-1.4-1.6-2.5-2.7-3.3s-2.5-1.2-4.1-1.2c-2.3,0-4,.8-5.3,2.5s-2,4-2,6.8.7,5.1,2,6.8c1.3,1.7,3.1,2.5,5.3,2.5s2.9-.4,4.1-1.2,2.1-1.9,2.7-3.3h14.1c-.6,3.4-1.8,6.3-3.7,8.9-1.8,2.5-4.2,4.5-7.1,5.9s-6.2,2.1-9.9,2.1-8.1-.9-11.2-2.7c-3.2-1.8-5.6-4.4-7.3-7.7-1.7-3.3-2.6-7.1-2.6-11.3s.9-8,2.6-11.3h0Z"/>
            <path class="cls-3" d="M1789.5,453.2v5.3h13.3v10.1h-13.3v6h15.1v10.7h-28.5v-42.8h28.5v10.7h-15.1Z"/>
            <path class="cls-3" d="M1846.3,459.1v11.1h-28.2v-11.1h28.2Z"/>
            <path class="cls-3" d="M1866.4,452.5c1.7-3.3,4.2-5.9,7.3-7.7,3.2-1.8,6.9-2.7,11.2-2.7s7,.7,9.9,2.1,5.3,3.4,7.1,5.9c1.8,2.5,3.1,5.5,3.7,8.9h-14.1c-.6-1.4-1.6-2.5-2.7-3.3-1.2-.8-2.5-1.2-4.1-1.2-2.3,0-4,.8-5.3,2.5s-2,4-2,6.8.7,5.1,2,6.8c1.3,1.7,3.1,2.5,5.3,2.5s2.9-.4,4.1-1.2c1.2-.8,2.1-1.9,2.7-3.3h14.1c-.6,3.4-1.8,6.3-3.7,8.9-1.8,2.5-4.2,4.5-7.1,5.9s-6.2,2.1-9.9,2.1-8.1-.9-11.2-2.7c-3.2-1.8-5.6-4.4-7.3-7.7-1.7-3.3-2.6-7.1-2.6-11.3s.9-8,2.6-11.3h0Z"/>
          </g>
          <g>
            <path class="cls-3" d="M1402.3,559.4c1.7-3.3,4.2-5.9,7.3-7.7,3.2-1.8,6.9-2.7,11.2-2.7s7,.7,9.9,2.1c2.9,1.4,5.3,3.4,7.1,5.9,1.8,2.5,3.1,5.5,3.7,8.9h-14.1c-.6-1.4-1.6-2.5-2.7-3.3-1.2-.8-2.5-1.2-4.1-1.2-2.3,0-4,.8-5.3,2.5s-2,4-2,6.8.7,5.1,2,6.8,3.1,2.5,5.3,2.5,2.9-.4,4.1-1.2,2.1-1.9,2.7-3.3h14.1c-.6,3.4-1.8,6.3-3.7,8.9-1.8,2.5-4.2,4.5-7.1,5.9s-6.2,2.1-9.9,2.1-8.1-.9-11.2-2.7c-3.2-1.8-5.6-4.4-7.3-7.7-1.7-3.3-2.6-7.1-2.6-11.3s.9-8,2.6-11.3Z"/>
            <path class="cls-3" d="M1456.2,589.8c-3.4-1.9-6-4.5-8-7.9-2-3.3-3-7.1-3-11.3s1-8,3-11.3,4.6-6,8-7.8c3.4-1.9,7.1-2.8,11.1-2.8s7.7.9,11.1,2.8c3.3,1.9,6,4.5,7.9,7.8,2,3.3,2.9,7.1,2.9,11.3s-1,8-2.9,11.3c-2,3.3-4.6,6-8,7.9s-7,2.8-11,2.8-7.7-.9-11.1-2.8ZM1473.5,577.5c1.4-1.7,2.2-4,2.2-6.9s-.7-5.3-2.2-7-3.5-2.6-6.2-2.6-4.8.9-6.2,2.6c-1.5,1.7-2.2,4-2.2,7s.7,5.2,2.2,6.9c1.4,1.7,3.5,2.6,6.2,2.6s4.7-.9,6.2-2.6Z"/>
            <path class="cls-3" d="M1535.1,592.2h-13.4l-14.2-21.5v21.5h-13.4v-42.8h13.4l14.2,21.9v-21.9h13.4v42.8Z"/>
            <path class="cls-3" d="M1571.4,549.4v10.6h-16.8v5.9h12.1v10.1h-12.1v16.1h-13.4v-42.8h30.2Z"/>
            <path class="cls-3" d="M1589.3,560.1v5.3h13.3v10.1h-13.3v6h15.1v10.7h-28.5v-42.8h28.5v10.7h-15.1Z"/>
            <path class="cls-3" d="M1631,592.2l-8-15.3h0v15.3h-13.4v-42.8h19.9c3.5,0,6.4.6,8.9,1.8s4.3,2.9,5.5,5,1.8,4.5,1.8,7.2-.8,5.4-2.4,7.6c-1.6,2.2-3.9,3.8-6.9,4.8l9.3,16.4h-14.7ZM1622.9,567.9h5.3c1.3,0,2.3-.3,2.9-.9.6-.6,1-1.5,1-2.7s-.3-2-1-2.7-1.6-1-2.9-1h-5.3v7.2h0Z"/>
            <path class="cls-3" d="M1663.4,560.1v5.3h13.3v10.1h-13.3v6h15.1v10.7h-28.5v-42.8h28.5v10.7h-15.1Z"/>
            <path class="cls-3" d="M1724.6,592.2h-13.4l-14.2-21.5v21.5h-13.4v-42.8h13.4l14.2,21.9v-21.9h13.4v42.8Z"/>
            <path class="cls-3" d="M1732,559.4c1.7-3.3,4.2-5.9,7.3-7.7,3.2-1.8,6.9-2.7,11.2-2.7s7,.7,9.9,2.1c2.9,1.4,5.3,3.4,7.1,5.9,1.8,2.5,3.1,5.5,3.7,8.9h-14.1c-.6-1.4-1.6-2.5-2.7-3.3s-2.5-1.2-4.1-1.2c-2.3,0-4,.8-5.3,2.5s-2,4-2,6.8.7,5.1,2,6.8,3.1,2.5,5.3,2.5,2.9-.4,4.1-1.2,2.1-1.9,2.7-3.3h14.1c-.6,3.4-1.8,6.3-3.7,8.9-1.8,2.5-4.2,4.5-7.1,5.9s-6.2,2.1-9.9,2.1-8.1-.9-11.2-2.7c-3.2-1.8-5.6-4.4-7.3-7.7-1.7-3.3-2.6-7.1-2.6-11.3s.9-8,2.6-11.3Z"/>
            <path class="cls-3" d="M1789.5,560.1v5.3h13.3v10.1h-13.3v6h15.1v10.7h-28.5v-42.8h28.5v10.7h-15.1Z"/>
            <path class="cls-3" d="M1846.3,566v11.1h-28.2v-11.1h28.2Z"/>
            <path class="cls-3" d="M1894.6,552.1c3.4,1.8,6,4.3,7.8,7.6,1.8,3.2,2.7,6.9,2.7,11s-.9,7.7-2.7,11-4.4,5.8-7.8,7.7-7.3,2.8-11.8,2.8h-17.8v-42.8h17.8c4.5,0,8.4.9,11.8,2.7ZM1888.8,577.7c1.8-1.7,2.7-4,2.7-7.1s-.9-5.4-2.7-7.1c-1.8-1.7-4.2-2.5-7.2-2.5h-3.2v19.1h3.2c3,0,5.4-.8,7.2-2.5h0Z"/>
          </g>
        </g>
        <line class="cls-5" x1="1920" y1="517.2" x2="1385.5" y2="517.2"/>
      </g>
      <g>
        <g>
          <g>
            <path class="cls-3" d="M1400.8,163c1.7-3.3,4.2-5.9,7.3-7.7,3.2-1.8,6.9-2.7,11.2-2.7s7,.7,9.9,2.1c2.9,1.4,5.3,3.4,7.1,5.9,1.8,2.5,3.1,5.5,3.7,8.9h-14.1c-.6-1.4-1.6-2.5-2.7-3.3-1.2-.8-2.5-1.2-4.1-1.2-2.3,0-4,.8-5.3,2.5s-2,4-2,6.8.7,5.1,2,6.8,3.1,2.5,5.3,2.5,2.9-.4,4.1-1.2,2.1-1.9,2.7-3.3h14.1c-.6,3.4-1.8,6.3-3.7,8.9-1.8,2.5-4.2,4.5-7.1,5.9s-6.2,2.1-9.9,2.1-8.1-.9-11.2-2.7c-3.2-1.8-5.6-4.4-7.3-7.7-1.7-3.3-2.6-7.1-2.6-11.3s.9-8,2.6-11.3Z"/>
            <path class="cls-3" d="M1454.7,193.4c-3.4-1.9-6-4.5-8-7.9-2-3.3-3-7.1-3-11.3s1-8,3-11.3,4.6-6,8-7.8c3.4-1.9,7.1-2.8,11.1-2.8s7.7.9,11.1,2.8c3.3,1.9,6,4.5,7.9,7.8,2,3.3,2.9,7.1,2.9,11.3s-1,8-2.9,11.3c-2,3.3-4.6,6-8,7.9s-7,2.8-11,2.8-7.7-.9-11.1-2.8ZM1472,181.1c1.4-1.7,2.2-4,2.2-6.9s-.7-5.3-2.2-7-3.5-2.6-6.2-2.6-4.8.9-6.2,2.6c-1.5,1.7-2.2,4-2.2,7s.7,5.2,2.2,6.9c1.4,1.7,3.5,2.6,6.2,2.6s4.7-.9,6.2-2.6Z"/>
            <path class="cls-3" d="M1533.6,195.8h-13.4l-14.2-21.5v21.5h-13.4v-42.8h13.4l14.2,21.9v-21.9h13.4v42.8Z"/>
            <path class="cls-3" d="M1569.8,153v10.6h-16.8v5.9h12.1v10.1h-12.1v16.1h-13.4v-42.8h30.2Z"/>
            <path class="cls-3" d="M1587.8,163.7v5.3h13.3v10.1h-13.3v6h15.1v10.7h-28.5v-42.8h28.5v10.7h-15.1Z"/>
            <path class="cls-3" d="M1629.5,195.8l-8-15.3h0v15.3h-13.4v-42.8h19.9c3.5,0,6.4.6,8.9,1.8s4.3,2.9,5.5,5,1.8,4.5,1.8,7.2-.8,5.4-2.4,7.6c-1.6,2.2-3.9,3.8-6.9,4.8l9.3,16.4h-14.7ZM1621.4,171.5h5.3c1.3,0,2.3-.3,2.9-.9.6-.6,1-1.5,1-2.7s-.3-2-1-2.7-1.6-1-2.9-1h-5.3v7.2h0Z"/>
            <path class="cls-3" d="M1661.9,163.7v5.3h13.3v10.1h-13.3v6h15.1v10.7h-28.5v-42.8h28.5v10.7h-15.1Z"/>
            <path class="cls-3" d="M1723.1,195.8h-13.4l-14.2-21.5v21.5h-13.4v-42.8h13.4l14.2,21.9v-21.9h13.4v42.8Z"/>
            <path class="cls-3" d="M1730.5,163c1.7-3.3,4.2-5.9,7.3-7.7,3.2-1.8,6.9-2.7,11.2-2.7s7,.7,9.9,2.1c2.9,1.4,5.3,3.4,7.1,5.9,1.8,2.5,3.1,5.5,3.7,8.9h-14.1c-.6-1.4-1.6-2.5-2.7-3.3-1.2-.8-2.5-1.2-4.1-1.2-2.3,0-4,.8-5.3,2.5s-2,4-2,6.8.7,5.1,2,6.8,3.1,2.5,5.3,2.5,2.9-.4,4.1-1.2,2.1-1.9,2.7-3.3h14.1c-.6,3.4-1.8,6.3-3.7,8.9-1.8,2.5-4.2,4.5-7.1,5.9s-6.2,2.1-9.9,2.1-8.1-.9-11.2-2.7c-3.2-1.8-5.6-4.4-7.3-7.7-1.7-3.3-2.6-7.1-2.6-11.3s.9-8,2.6-11.3Z"/>
            <path class="cls-3" d="M1788,163.7v5.3h13.3v10.1h-13.3v6h15.1v10.7h-28.5v-42.8h28.5v10.7h-15.1Z"/>
            <path class="cls-3" d="M1844.8,169.6v11.1h-28.2v-11.1h28.2Z"/>
            <path class="cls-3" d="M1890.9,189.3h-14.3l-2.1,6.5h-14.1l15.6-42.8h15.5l15.6,42.8h-14.1l-2.1-6.5ZM1887.7,179.2l-3.9-11.9-3.9,11.9h7.8Z"/>
          </g>
          <g>
            <path class="cls-3" d="M1400.8,269.9c1.7-3.3,4.2-5.9,7.3-7.7,3.2-1.8,6.9-2.7,11.2-2.7s7,.7,9.9,2.1,5.3,3.4,7.1,5.9c1.8,2.5,3.1,5.5,3.7,8.9h-14.1c-.6-1.4-1.6-2.5-2.7-3.3-1.2-.8-2.5-1.2-4.1-1.2-2.3,0-4,.8-5.3,2.5s-2,4-2,6.8.7,5.1,2,6.8c1.3,1.7,3.1,2.5,5.3,2.5s2.9-.4,4.1-1.2c1.2-.8,2.1-1.9,2.7-3.3h14.1c-.6,3.4-1.8,6.3-3.7,8.9-1.8,2.5-4.2,4.5-7.1,5.9s-6.2,2.1-9.9,2.1-8.1-.9-11.2-2.7c-3.2-1.8-5.6-4.4-7.3-7.7-1.7-3.3-2.6-7.1-2.6-11.3s.9-8,2.6-11.3h0Z"/>
            <path class="cls-3" d="M1454.7,300.3c-3.4-1.9-6-4.5-8-7.9-2-3.3-3-7.1-3-11.3s1-8,3-11.3,4.6-6,8-7.8c3.4-1.9,7.1-2.8,11.1-2.8s7.7.9,11.1,2.8c3.3,1.9,6,4.5,7.9,7.8,2,3.3,2.9,7.1,2.9,11.3s-1,8-2.9,11.3c-2,3.3-4.6,6-8,7.9s-7,2.8-11,2.8-7.7-.9-11.1-2.8ZM1472,288c1.4-1.7,2.2-4,2.2-6.9s-.7-5.3-2.2-7-3.5-2.6-6.2-2.6-4.8.9-6.2,2.6c-1.5,1.7-2.2,4-2.2,7s.7,5.2,2.2,6.9c1.4,1.7,3.5,2.6,6.2,2.6s4.7-.9,6.2-2.6Z"/>
            <path class="cls-3" d="M1533.6,302.7h-13.4l-14.2-21.5v21.5h-13.4v-42.8h13.4l14.2,21.9v-21.9h13.4v42.8Z"/>
            <path class="cls-3" d="M1569.8,259.9v10.6h-16.8v5.9h12.1v10.1h-12.1v16.1h-13.4v-42.8h30.2Z"/>
            <path class="cls-3" d="M1587.8,270.6v5.3h13.3v10.1h-13.3v6h15.1v10.7h-28.5v-42.8h28.5v10.7h-15.1Z"/>
            <path class="cls-3" d="M1629.5,302.7l-8-15.3h0v15.3h-13.4v-42.8h19.9c3.5,0,6.4.6,8.9,1.8,2.5,1.2,4.3,2.9,5.5,5s1.8,4.5,1.8,7.2-.8,5.4-2.4,7.6-3.9,3.8-6.9,4.8l9.3,16.4h-14.7ZM1621.4,278.4h5.3c1.3,0,2.3-.3,2.9-.9s1-1.5,1-2.7-.3-2-1-2.7-1.6-1-2.9-1h-5.3v7.2h0Z"/>
            <path class="cls-3" d="M1661.9,270.6v5.3h13.3v10.1h-13.3v6h15.1v10.7h-28.5v-42.8h28.5v10.7h-15.1Z"/>
            <path class="cls-3" d="M1723.1,302.7h-13.4l-14.2-21.5v21.5h-13.4v-42.8h13.4l14.2,21.9v-21.9h13.4v42.8Z"/>
            <path class="cls-3" d="M1730.5,269.9c1.7-3.3,4.2-5.9,7.3-7.7,3.2-1.8,6.9-2.7,11.2-2.7s7,.7,9.9,2.1,5.3,3.4,7.1,5.9c1.8,2.5,3.1,5.5,3.7,8.9h-14.1c-.6-1.4-1.6-2.5-2.7-3.3-1.2-.8-2.5-1.2-4.1-1.2-2.3,0-4,.8-5.3,2.5s-2,4-2,6.8.7,5.1,2,6.8c1.3,1.7,3.1,2.5,5.3,2.5s2.9-.4,4.1-1.2c1.2-.8,2.1-1.9,2.7-3.3h14.1c-.6,3.4-1.8,6.3-3.7,8.9-1.8,2.5-4.2,4.5-7.1,5.9s-6.2,2.1-9.9,2.1-8.1-.9-11.2-2.7c-3.2-1.8-5.6-4.4-7.3-7.7-1.7-3.3-2.6-7.1-2.6-11.3s.9-8,2.6-11.3h0Z"/>
            <path class="cls-3" d="M1788,270.6v5.3h13.3v10.1h-13.3v6h15.1v10.7h-28.5v-42.8h28.5v10.7h-15.1Z"/>
            <path class="cls-3" d="M1844.8,276.5v11.1h-28.2v-11.1h28.2Z"/>
            <path class="cls-3" d="M1898.2,284.5c1.4,1.9,2.1,4,2.1,6.5,0,3.7-1.2,6.6-3.7,8.7s-6,3.1-10.7,3.1h-22.4v-42.8h21.8c4.3,0,7.8.9,10.3,2.8s3.7,4.7,3.7,8.3-.7,4.6-2,6.3c-1.3,1.7-3.1,2.9-5.2,3.4,2.6.6,4.6,1.8,6,3.7h0ZM1876.9,276.6h5.2c1.2,0,2.1-.2,2.7-.7s.9-1.2.9-2.2-.3-1.8-.9-2.3-1.5-.8-2.7-.8h-5.2v6ZM1885.7,291.2c.6-.5.9-1.2.9-2.3,0-2.1-1.2-3.1-3.6-3.1h-6.1v6h6.1c1.2,0,2.1-.2,2.7-.7h0Z"/>
          </g>
        </g>
        <line class="cls-5" x1="1920" y1="227.7" x2="1385.5" y2="227.7"/>
      </g>
      <g>
        <g>
          <g>
            <path class="cls-3" d="M1407.6,731.7c1.7-3.3,4.2-5.9,7.3-7.7,3.2-1.8,6.9-2.7,11.2-2.7s7,.7,9.9,2.1,5.3,3.4,7.1,5.9c1.8,2.5,3.1,5.5,3.7,8.9h-14.1c-.6-1.4-1.6-2.5-2.7-3.3-1.2-.8-2.5-1.2-4.1-1.2-2.3,0-4,.8-5.3,2.5s-2,4-2,6.8.7,5.1,2,6.8,3.1,2.5,5.3,2.5,2.9-.4,4.1-1.2,2.1-1.9,2.7-3.3h14.1c-.6,3.4-1.8,6.3-3.7,8.9-1.8,2.5-4.2,4.5-7.1,5.9s-6.2,2.1-9.9,2.1-8.1-.9-11.2-2.7c-3.2-1.8-5.6-4.4-7.3-7.7-1.7-3.3-2.6-7.1-2.6-11.3s.9-8,2.6-11.3Z"/>
            <path class="cls-3" d="M1461.5,762c-3.4-1.9-6-4.5-8-7.9-2-3.3-3-7.1-3-11.3s1-8,3-11.3,4.6-6,8-7.8,7.1-2.8,11.1-2.8,7.7.9,11.1,2.8c3.3,1.9,6,4.5,7.9,7.8,2,3.3,2.9,7.1,2.9,11.3s-1,8-2.9,11.3c-2,3.3-4.6,6-8,7.9s-7,2.8-11,2.8-7.7-.9-11.1-2.8ZM1478.7,749.7c1.4-1.7,2.2-4,2.2-6.9s-.7-5.3-2.2-7-3.5-2.6-6.2-2.6-4.8.9-6.2,2.6c-1.5,1.7-2.2,4-2.2,7s.7,5.2,2.2,6.9c1.4,1.7,3.5,2.6,6.2,2.6s4.7-.9,6.2-2.6Z"/>
            <path class="cls-3" d="M1540.3,764.4h-13.4l-14.2-21.5v21.5h-13.4v-42.8h13.4l14.2,21.9v-21.9h13.4v42.8Z"/>
            <path class="cls-3" d="M1576.6,721.6v10.6h-16.8v5.9h12.1v10.1h-12.1v16.1h-13.4v-42.8h30.2Z"/>
            <path class="cls-3" d="M1594.5,732.3v5.3h13.3v10.1h-13.3v6h15.1v10.7h-28.5v-42.8h28.5v10.7h-15.1Z"/>
            <path class="cls-3" d="M1636.2,764.4l-8-15.3h0v15.3h-13.4v-42.8h19.9c3.5,0,6.4.6,8.9,1.8s4.3,2.9,5.5,5,1.8,4.5,1.8,7.2-.8,5.4-2.4,7.6c-1.6,2.2-3.9,3.8-6.9,4.8l9.3,16.4h-14.7ZM1628.1,740.1h5.3c1.3,0,2.3-.3,2.9-.9.6-.6,1-1.5,1-2.7s-.3-2-1-2.7c-.7-.6-1.6-1-2.9-1h-5.3v7.2h0Z"/>
            <path class="cls-3" d="M1668.6,732.3v5.3h13.3v10.1h-13.3v6h15.1v10.7h-28.5v-42.8h28.5v10.7h-15.1Z"/>
            <path class="cls-3" d="M1729.8,764.4h-13.4l-14.2-21.5v21.5h-13.4v-42.8h13.4l14.2,21.9v-21.9h13.4v42.8Z"/>
            <path class="cls-3" d="M1737.2,731.7c1.7-3.3,4.2-5.9,7.3-7.7,3.2-1.8,6.9-2.7,11.2-2.7s7,.7,9.9,2.1c2.9,1.4,5.3,3.4,7.1,5.9,1.8,2.5,3.1,5.5,3.7,8.9h-14.1c-.6-1.4-1.6-2.5-2.7-3.3s-2.5-1.2-4.1-1.2c-2.3,0-4,.8-5.3,2.5s-2,4-2,6.8.7,5.1,2,6.8,3.1,2.5,5.3,2.5,2.9-.4,4.1-1.2,2.1-1.9,2.7-3.3h14.1c-.6,3.4-1.8,6.3-3.7,8.9-1.8,2.5-4.2,4.5-7.1,5.9s-6.2,2.1-9.9,2.1-8.1-.9-11.2-2.7c-3.2-1.8-5.6-4.4-7.3-7.7-1.7-3.3-2.6-7.1-2.6-11.3s.9-8,2.6-11.3Z"/>
            <path class="cls-3" d="M1794.7,732.3v5.3h13.3v10.1h-13.3v6h15.1v10.7h-28.5v-42.8h28.5v10.7h-15.1Z"/>
            <path class="cls-3" d="M1851.5,738.2v11.1h-28.2v-11.1h28.2Z"/>
            <path class="cls-3" d="M1883.7,732.3v5.3h13.3v10.1h-13.3v6h15.1v10.7h-28.5v-42.8h28.5v10.7h-15.1Z"/>
          </g>
          <g>
            <path class="cls-3" d="M1407.6,838.6c1.7-3.3,4.2-5.9,7.3-7.7,3.2-1.8,6.9-2.7,11.2-2.7s7,.7,9.9,2.1,5.3,3.4,7.1,5.9c1.8,2.5,3.1,5.5,3.7,8.9h-14.1c-.6-1.4-1.6-2.5-2.7-3.3-1.2-.8-2.5-1.2-4.1-1.2-2.3,0-4,.8-5.3,2.5s-2,4-2,6.8.7,5.1,2,6.8,3.1,2.5,5.3,2.5,2.9-.4,4.1-1.2,2.1-1.9,2.7-3.3h14.1c-.6,3.4-1.8,6.3-3.7,8.9-1.8,2.5-4.2,4.5-7.1,5.9s-6.2,2.1-9.9,2.1-8.1-.9-11.2-2.7c-3.2-1.8-5.6-4.4-7.3-7.7-1.7-3.3-2.6-7.1-2.6-11.3s.9-8,2.6-11.3Z"/>
            <path class="cls-3" d="M1461.5,868.9c-3.4-1.9-6-4.5-8-7.9-2-3.3-3-7.1-3-11.3s1-8,3-11.3,4.6-6,8-7.8,7.1-2.8,11.1-2.8,7.7.9,11.1,2.8c3.3,1.9,6,4.5,7.9,7.8,2,3.3,2.9,7.1,2.9,11.3s-1,8-2.9,11.3c-2,3.3-4.6,6-8,7.9s-7,2.8-11,2.8-7.7-.9-11.1-2.8ZM1478.7,856.7c1.4-1.7,2.2-4,2.2-6.9s-.7-5.3-2.2-7-3.5-2.6-6.2-2.6-4.8.9-6.2,2.6c-1.5,1.7-2.2,4-2.2,7s.7,5.2,2.2,6.9c1.4,1.7,3.5,2.6,6.2,2.6s4.7-.9,6.2-2.6Z"/>
            <path class="cls-3" d="M1540.3,871.3h-13.4l-14.2-21.5v21.5h-13.4v-42.8h13.4l14.2,21.9v-21.9h13.4v42.8Z"/>
            <path class="cls-3" d="M1576.6,828.5v10.6h-16.8v5.9h12.1v10.1h-12.1v16.1h-13.4v-42.8h30.2Z"/>
            <path class="cls-3" d="M1594.5,839.2v5.3h13.3v10.1h-13.3v6h15.1v10.7h-28.5v-42.8h28.5v10.7h-15.1Z"/>
            <path class="cls-3" d="M1636.2,871.3l-8-15.3h0v15.3h-13.4v-42.8h19.9c3.5,0,6.4.6,8.9,1.8s4.3,2.9,5.5,5,1.8,4.5,1.8,7.2-.8,5.4-2.4,7.6c-1.6,2.2-3.9,3.8-6.9,4.8l9.3,16.4h-14.7ZM1628.1,847h5.3c1.3,0,2.3-.3,2.9-.9.6-.6,1-1.5,1-2.7s-.3-2-1-2.7c-.7-.6-1.6-1-2.9-1h-5.3v7.2h0Z"/>
            <path class="cls-3" d="M1668.6,839.2v5.3h13.3v10.1h-13.3v6h15.1v10.7h-28.5v-42.8h28.5v10.7h-15.1Z"/>
            <path class="cls-3" d="M1729.8,871.3h-13.4l-14.2-21.5v21.5h-13.4v-42.8h13.4l14.2,21.9v-21.9h13.4v42.8Z"/>
            <path class="cls-3" d="M1737.2,838.6c1.7-3.3,4.2-5.9,7.3-7.7,3.2-1.8,6.9-2.7,11.2-2.7s7,.7,9.9,2.1c2.9,1.4,5.3,3.4,7.1,5.9,1.8,2.5,3.1,5.5,3.7,8.9h-14.1c-.6-1.4-1.6-2.5-2.7-3.3s-2.5-1.2-4.1-1.2c-2.3,0-4,.8-5.3,2.5s-2,4-2,6.8.7,5.1,2,6.8,3.1,2.5,5.3,2.5,2.9-.4,4.1-1.2,2.1-1.9,2.7-3.3h14.1c-.6,3.4-1.8,6.3-3.7,8.9-1.8,2.5-4.2,4.5-7.1,5.9s-6.2,2.1-9.9,2.1-8.1-.9-11.2-2.7c-3.2-1.8-5.6-4.4-7.3-7.7-1.7-3.3-2.6-7.1-2.6-11.3s.9-8,2.6-11.3Z"/>
            <path class="cls-3" d="M1794.7,839.2v5.3h13.3v10.1h-13.3v6h15.1v10.7h-28.5v-42.8h28.5v10.7h-15.1Z"/>
            <path class="cls-3" d="M1851.5,845.1v11.1h-28.2v-11.1h28.2Z"/>
            <path class="cls-3" d="M1900.5,828.5v10.6h-16.8v5.9h12.1v10.1h-12.1v16.1h-13.4v-42.8h30.2Z"/>
          </g>
        </g>
        <line class="cls-5" x1="1920" y1="796.3" x2="1385.5" y2="796.3"/>
      </g>
    </g>
    <g>
      <g class="cls-7">
        <g>
          <line class="cls-4" x1="748.4" y1="783.4" x2="907.9" y2="623.9"/>
          <line class="cls-4" x1="748.4" y1="768.2" x2="907.9" y2="608.7"/>
          <line class="cls-4" x1="748.4" y1="753" x2="907.9" y2="593.6"/>
          <line class="cls-4" x1="748.4" y1="737.8" x2="907.9" y2="578.4"/>
          <line class="cls-4" x1="748.4" y1="722.7" x2="907.9" y2="563.2"/>
          <line class="cls-4" x1="748.4" y1="707.5" x2="907.9" y2="548"/>
          <line class="cls-4" x1="748.4" y1="692.3" x2="907.9" y2="532.9"/>
          <line class="cls-4" x1="748.4" y1="677.1" x2="907.9" y2="517.7"/>
          <line class="cls-4" x1="748.4" y1="662" x2="907.9" y2="502.5"/>
          <line class="cls-4" x1="748.4" y1="646.8" x2="907.9" y2="487.3"/>
          <line class="cls-4" x1="748.4" y1="631.6" x2="907.9" y2="472.1"/>
          <line class="cls-4" x1="748.4" y1="616.4" x2="907.9" y2="457"/>
          <line class="cls-4" x1="748.4" y1="601.3" x2="907.9" y2="441.8"/>
          <line class="cls-4" x1="748.4" y1="586.1" x2="907.9" y2="426.6"/>
          <line class="cls-4" x1="748.4" y1="570.9" x2="907.9" y2="411.4"/>
          <line class="cls-4" x1="748.4" y1="555.7" x2="907.9" y2="396.3"/>
          <line class="cls-4" x1="748.4" y1="540.5" x2="907.9" y2="381.1"/>
          <line class="cls-4" x1="748.4" y1="525.4" x2="907.9" y2="365.9"/>
          <line class="cls-4" x1="748.4" y1="510.2" x2="907.9" y2="350.7"/>
        </g>
      </g>
      <g class="cls-6">
        <g>
          <line class="cls-4" x1="907.8" y1="783.4" x2="1067.3" y2="623.9"/>
          <line class="cls-4" x1="907.8" y1="768.2" x2="1067.3" y2="608.7"/>
          <line class="cls-4" x1="907.8" y1="753" x2="1067.3" y2="593.6"/>
          <line class="cls-4" x1="907.8" y1="737.8" x2="1067.3" y2="578.4"/>
          <line class="cls-4" x1="907.8" y1="722.7" x2="1067.3" y2="563.2"/>
          <line class="cls-4" x1="907.8" y1="707.5" x2="1067.3" y2="548"/>
          <line class="cls-4" x1="907.8" y1="692.3" x2="1067.3" y2="532.9"/>
          <line class="cls-4" x1="907.8" y1="677.1" x2="1067.3" y2="517.7"/>
          <line class="cls-4" x1="907.8" y1="662" x2="1067.3" y2="502.5"/>
          <line class="cls-4" x1="907.8" y1="646.8" x2="1067.3" y2="487.3"/>
          <line class="cls-4" x1="907.8" y1="631.6" x2="1067.3" y2="472.1"/>
          <line class="cls-4" x1="907.8" y1="616.4" x2="1067.3" y2="457"/>
          <line class="cls-4" x1="907.8" y1="601.3" x2="1067.3" y2="441.8"/>
          <line class="cls-4" x1="907.8" y1="586.1" x2="1067.3" y2="426.6"/>
          <line class="cls-4" x1="907.8" y1="570.9" x2="1067.3" y2="411.4"/>
          <line class="cls-4" x1="907.8" y1="555.7" x2="1067.3" y2="396.3"/>
          <line class="cls-4" x1="907.8" y1="540.5" x2="1067.3" y2="381.1"/>
          <line class="cls-4" x1="907.8" y1="525.4" x2="1067.3" y2="365.9"/>
          <line class="cls-4" x1="907.8" y1="510.2" x2="1067.3" y2="350.7"/>
        </g>
      </g>
      <g>
        <path class="cls-3" d="M77,462.4h-24.5l-25.9-39.2v39.2H2.2v-78h24.5l25.9,39.9v-39.9h24.5v78h0Z"/>
        <path class="cls-3" d="M105.8,458c-6.1-3.5-11-8.2-14.6-14.3-3.6-6.1-5.4-13-5.4-20.6s1.8-14.5,5.4-20.6,8.5-10.9,14.6-14.3,12.9-5.1,20.2-5.1,14.1,1.7,20.2,5.1c6.1,3.4,10.9,8.2,14.5,14.3,3.6,6.1,5.3,13,5.3,20.6s-1.8,14.5-5.3,20.6c-3.6,6.1-8.4,10.9-14.5,14.3-6.1,3.5-12.8,5.2-20.1,5.2s-14.1-1.7-20.2-5.2h0ZM137.3,435.7c2.6-3.1,4-7.3,4-12.6s-1.3-9.6-4-12.7c-2.6-3.1-6.4-4.7-11.2-4.7s-8.7,1.6-11.3,4.7c-2.6,3.1-4,7.4-4,12.7s1.3,9.5,4,12.6c2.6,3.1,6.4,4.7,11.3,4.7s8.6-1.6,11.2-4.7Z"/>
        <path class="cls-3" d="M249.7,462.4h-24.5l-25.9-39.2v39.2h-24.5v-78h24.5l25.9,39.9v-39.9h24.5v78Z"/>
        <path class="cls-3" d="M308.7,414.7v20.2h-51.3v-20.2h51.3Z"/>
        <path class="cls-3" d="M326.6,402.7c3.1-6,7.6-10.7,13.4-14s12.6-5,20.5-5,12.8,1.3,18.1,3.8c5.3,2.5,9.7,6.1,13,10.7s5.6,10,6.7,16.2h-25.8c-1.2-2.6-2.8-4.6-5-6s-4.6-2.1-7.4-2.1c-4.1,0-7.4,1.5-9.8,4.6s-3.6,7.2-3.6,12.4,1.2,9.4,3.6,12.5,5.6,4.6,9.8,4.6,5.3-.7,7.4-2.1c2.2-1.4,3.8-3.4,5-6h25.8c-1.1,6.2-3.3,11.6-6.7,16.2-3.3,4.6-7.7,8.2-13,10.7s-11.4,3.8-18.1,3.8-14.7-1.7-20.5-5-10.3-8-13.4-14-4.7-12.9-4.7-20.6,1.6-14.6,4.7-20.6h0Z"/>
        <path class="cls-3" d="M424.9,458c-6.1-3.5-11-8.2-14.6-14.3-3.6-6.1-5.4-13-5.4-20.6s1.8-14.5,5.4-20.6,8.5-10.9,14.6-14.3,12.9-5.1,20.2-5.1,14.1,1.7,20.2,5.1,10.9,8.2,14.5,14.3c3.6,6.1,5.3,13,5.3,20.6s-1.8,14.5-5.3,20.6c-3.6,6.1-8.4,10.9-14.5,14.3-6.1,3.5-12.8,5.2-20.1,5.2s-14.1-1.7-20.2-5.2h-.1ZM456.4,435.7c2.6-3.1,4-7.3,4-12.6s-1.3-9.6-4-12.7c-2.6-3.1-6.4-4.7-11.2-4.7s-8.7,1.6-11.3,4.7c-2.6,3.1-4,7.4-4,12.7s1.3,9.5,4,12.6c2.6,3.1,6.4,4.7,11.3,4.7s8.6-1.6,11.2-4.7Z"/>
        <path class="cls-3" d="M568.7,462.4h-24.5l-25.9-39.2v39.2h-24.5v-78h24.5l25.9,39.9v-39.9h24.5v78Z"/>
        <path class="cls-3" d="M634.8,384.4v19.4h-30.6v10.8h22v18.4h-22v29.4h-24.5v-78h55.1Z"/>
        <path class="cls-3" d="M667.6,403.9v9.6h24.2v18.4h-24.2v11h27.5v19.5h-52v-78h52v19.5h-27.5Z"/>
        <path class="cls-3" d="M743.6,462.4l-14.7-28h0v28h-24.5v-78h36.4c6.3,0,11.7,1.1,16.2,3.4,4.5,2.2,7.8,5.3,10.1,9.1,2.2,3.9,3.4,8.2,3.4,13.1s-1.5,9.8-4.4,13.9c-2.9,4-7.1,6.9-12.5,8.7l17,29.9h-26.9ZM728.8,418.1h9.7c2.3,0,4.1-.5,5.3-1.6s1.8-2.7,1.8-5-.6-3.7-1.8-4.8c-1.2-1.2-3-1.8-5.2-1.8h-9.7v13.2h0Z"/>
        <path class="cls-3" d="M802.6,403.9v9.6h24.2v18.4h-24.2v11h27.5v19.5h-52v-78h52v19.5h-27.5Z"/>
        <path class="cls-3" d="M914.2,462.4h-24.5l-25.9-39.2v39.2h-24.5v-78h24.5l25.9,39.9v-39.9h24.5v78Z"/>
        <path class="cls-3" d="M927.7,402.7c3.1-6,7.6-10.7,13.4-14,5.8-3.3,12.6-5,20.5-5s12.8,1.3,18.1,3.8,9.7,6.1,13,10.7,5.6,10,6.7,16.2h-25.8c-1.2-2.6-2.8-4.6-5-6s-4.6-2.1-7.4-2.1c-4.1,0-7.4,1.5-9.8,4.6-2.4,3.1-3.6,7.2-3.6,12.4s1.2,9.4,3.6,12.5c2.4,3.1,5.6,4.6,9.8,4.6s5.3-.7,7.4-2.1c2.2-1.4,3.8-3.4,5-6h25.8c-1.1,6.2-3.3,11.6-6.7,16.2-3.3,4.6-7.7,8.2-13,10.7s-11.4,3.8-18.1,3.8-14.7-1.7-20.5-5-10.3-8-13.4-14c-3.1-6-4.7-12.9-4.7-20.6s1.6-14.6,4.7-20.6h0Z"/>
        <path class="cls-3" d="M1032.7,403.9v9.6h24.2v18.4h-24.2v11h27.5v19.5h-52v-78h52v19.5h-27.5Z"/>
      </g>
      <g>
        <path class="cls-3" d="M91.5,545.6c-1.7-2.8-4.2-5-7.5-6.6-3.2-1.5-7.1-2.3-11.7-2.3-8.6,0-15.3,2.8-20,8.4-4.7,5.6-7.1,13.2-7.1,22.9s2.6,19.5,7.9,25c5.2,5.5,13.3,8.3,24.2,8.3s18.7-4.2,25-12.5h-35.7v-31.6h72.8v44.8c-6.2,10.6-14.7,19.7-25.6,27.3s-24.7,11.4-41.3,11.4-27.7-3.1-38.6-9.2c-11-6.1-19.4-14.7-25.2-25.7-5.8-11-8.8-23.6-8.8-37.7s2.9-26.7,8.8-37.7c5.8-11,14.2-19.6,25.1-25.7s23.7-9.2,38.3-9.2,33.9,4.5,45.7,13.5c11.8,9,18.7,21.2,20.9,36.7h-47.2Z"/>
        <path class="cls-3" d="M247.1,617.9h-47.6l-7.1,21.6h-47l52.2-142.7h51.6l52,142.7h-47.2l-7.1-21.6h.2ZM236.3,584.3l-12.9-39.7-12.9,39.7h25.8,0Z"/>
        <path class="cls-3" d="M483,496.8v142.7h-44.6v-71.2l-22,71.2h-38.3l-22-71.2v71.2h-44.8v-142.7h54.8l31.4,85.7,30.6-85.7h54.9Z"/>
        <path class="cls-3" d="M547.9,532.4v17.5h44.3v33.7h-44.3v20.2h50.4v35.7h-95.2v-142.7h95.2v35.7h-50.4Z"/>
        <path class="cls-3" d="M628.9,628.9c-11.1-8-17.1-19.7-18-35.2h47.6c.7,8.2,4.3,12.3,10.9,12.3s4.5-.6,6.1-1.7c1.7-1.1,2.5-2.9,2.5-5.3s-1.8-6.1-5.4-8.2c-3.6-2.1-9.3-4.5-16.9-7.2-9.1-3.2-16.7-6.4-22.7-9.5s-11.1-7.6-15.4-13.5c-4.3-5.9-6.4-13.5-6.2-22.8,0-9.3,2.4-17.2,7.2-23.7s11.3-11.5,19.6-14.8c8.3-3.4,17.6-5,27.9-5,17.5,0,31.3,4,41.6,12.1s15.7,19.4,16.2,34.1h-48.2c0-4-1.1-6.9-3-8.7-1.9-1.7-4.2-2.6-6.9-2.6s-3.4.6-4.6,1.9c-1.2,1.3-1.8,3.1-1.8,5.3s1.8,5.9,5.3,8c3.6,2.1,9.2,4.6,17,7.6,9,3.4,16.4,6.6,22.3,9.7,5.8,3.1,10.9,7.4,15.2,12.9s6.5,12.4,6.5,20.8-2.2,16.6-6.5,23.5-10.6,12.3-18.7,16.2c-8.2,3.9-17.9,5.8-29.2,5.8-17.1,0-31.1-4-42.2-12h-.2Z"/>
      </g>
    </g>
    <line class="cls-5" x1="1226.4" y1="793.1" x2="1226.4" y2="227.7"/>
  </g>
</svg>