<?xml version="1.0" encoding="utf-8"?>
<!-- Generator: Adobe Illustrator 27.9.4, SVG Export Plug-In . SVG Version: 9.03 Build 54784)  -->
<svg version="1.1" id="Layer_1" xmlns="http://www.w3.org/2000/svg" xmlns:xlink="http://www.w3.org/1999/xlink" x="0px" y="0px"
	 viewBox="0 0 1920 1024" style="enable-background:new 0 0 1920 1024;" xml:space="preserve">
<style type="text/css">
	.st0{fill:#212121;}
	.st1{clip-path:url(#SVGID_00000016787279130243024230000017658615501814602680_);}
	.st2{fill:#AAFF00;}
	.st3{clip-path:url(#SVGID_00000108304299030871174490000009691741047180118699_);}
	.st4{fill:none;stroke:#FFFFFF;stroke-miterlimit:10;}
	.st5{fill:#FFFFFF;}
</style>
<g id="Layer_3">
	<rect class="st0" width="1920" height="1024"/>
</g>
<g id="Layer_2_00000080183333954987148800000006789807500486875315_">
	<g>
		<defs>
			<rect id="SVGID_1_" x="704.8" y="100" width="510.5" height="39.8"/>
		</defs>
		<clipPath id="SVGID_00000018943421044478909810000016398723075263445413_">
			<use xlink:href="#SVGID_1_"  style="overflow:visible;"/>
		</clipPath>
		<g style="clip-path:url(#SVGID_00000018943421044478909810000016398723075263445413_);">
			<g>
				
					<rect x="1213.9" y="78.2" transform="matrix(0.7071 -0.7071 0.7071 0.7071 271.3692 894.8945)" class="st2" width="4" height="83.3"/>
				
					<rect x="1183.8" y="78.3" transform="matrix(0.7071 -0.7071 0.7071 0.7071 262.5107 873.6173)" class="st2" width="4" height="83.3"/>
				
					<rect x="1153.7" y="78.3" transform="matrix(0.7071 -0.7071 0.7071 0.7071 253.7106 852.34)" class="st2" width="4" height="83.3"/>
				
					<rect x="1123.6" y="78.3" transform="matrix(0.7071 -0.7071 0.7071 0.7071 244.8399 831.092)" class="st2" width="4" height="83.3"/>
				
					<rect x="1093.6" y="78.2" transform="matrix(0.7071 -0.7071 0.7071 0.7071 236.1399 809.7734)" class="st2" width="4" height="83.3"/>
				
					<rect x="1063.5" y="78.2" transform="matrix(0.7071 -0.7071 0.7071 0.7071 227.34 788.4962)" class="st2" width="4" height="83.3"/>
				
					<rect x="1033.3" y="78.2" transform="matrix(0.7071 -0.7071 0.7071 0.7071 218.4693 767.1896)" class="st2" width="4" height="83.3"/>
				
					<rect x="1003.2" y="78.3" transform="matrix(0.7071 -0.7071 0.7071 0.7071 209.6106 745.9124)" class="st2" width="4" height="83.3"/>
				
					<rect x="973.2" y="78.5" transform="matrix(0.7071 -0.7071 0.7071 0.7071 200.6082 724.7583)" class="st2" width="4" height="83.4"/>
				
					<rect x="943.1" y="78.5" transform="matrix(0.7071 -0.7071 0.7071 0.7071 191.8081 703.4811)" class="st2" width="4" height="83.4"/>
				
					<rect x="912.9" y="78.2" transform="matrix(0.7071 -0.7071 0.7071 0.7071 183.24 682.0099)" class="st2" width="4" height="83.3"/>
				
					<rect x="882.7" y="78.3" transform="matrix(0.7071 -0.7071 0.7071 0.7071 174.3107 660.7034)" class="st2" width="4" height="83.3"/>
				
					<rect x="852.6" y="78.3" transform="matrix(0.7071 -0.7071 0.7071 0.7071 165.5106 639.4261)" class="st2" width="4" height="83.3"/>
				
					<rect x="822.5" y="78.4" transform="matrix(0.7071 -0.7071 0.7071 0.7071 156.6399 618.1782)" class="st2" width="4" height="83.3"/>
				
					<rect x="792.4" y="78.3" transform="matrix(0.7071 -0.7071 0.7071 0.7071 147.8399 596.9009)" class="st2" width="4" height="83.3"/>
				
					<rect x="762.4" y="78.2" transform="matrix(0.7071 -0.7071 0.7071 0.7071 139.14 575.5822)" class="st2" width="4" height="83.3"/>
				
					<rect x="732.3" y="78.2" transform="matrix(0.7071 -0.7071 0.7071 0.7071 130.34 554.3049)" class="st2" width="4" height="83.3"/>
				
					<rect x="702.1" y="78.3" transform="matrix(0.7071 -0.7071 0.7071 0.7071 121.4106 532.9984)" class="st2" width="4" height="83.3"/>
			</g>
		</g>
	</g>
	<g>
		<defs>
			<rect id="SVGID_00000097463981439200426350000015470423027816789382_" x="704.8" y="884.2" width="510.5" height="39.8"/>
		</defs>
		<clipPath id="SVGID_00000005964951446513501900000017974154330622234275_">
			<use xlink:href="#SVGID_00000097463981439200426350000015470423027816789382_"  style="overflow:visible;"/>
		</clipPath>
		<g style="clip-path:url(#SVGID_00000005964951446513501900000017974154330622234275_);">
			<g>
				
					<rect x="1213.9" y="862.4" transform="matrix(0.7071 -0.7071 0.7071 0.7071 -283.1493 1124.5945)" class="st2" width="4" height="83.3"/>
				
					<rect x="1183.8" y="862.5" transform="matrix(0.7071 -0.7071 0.7071 0.7071 -292.0079 1103.3173)" class="st2" width="4" height="83.3"/>
				
					<rect x="1153.7" y="862.5" transform="matrix(0.7071 -0.7071 0.7071 0.7071 -300.808 1082.04)" class="st2" width="4" height="83.3"/>
				
					<rect x="1123.6" y="862.6" transform="matrix(0.7071 -0.7071 0.7071 0.7071 -309.6787 1060.792)" class="st2" width="4" height="83.3"/>
				
					<rect x="1093.6" y="862.4" transform="matrix(0.7071 -0.7071 0.7071 0.7071 -318.3787 1039.4734)" class="st2" width="4" height="83.3"/>
				
					<rect x="1063.5" y="862.4" transform="matrix(0.7071 -0.7071 0.7071 0.7071 -327.1786 1018.1962)" class="st2" width="4" height="83.3"/>
				
					<rect x="1033.3" y="862.4" transform="matrix(0.7071 -0.7071 0.7071 0.7071 -336.0493 996.8896)" class="st2" width="4" height="83.3"/>
				
					<rect x="1003.2" y="862.5" transform="matrix(0.7071 -0.7071 0.7071 0.7071 -344.9079 975.6124)" class="st2" width="4" height="83.3"/>
				
					<rect x="973.2" y="862.7" transform="matrix(0.7071 -0.7071 0.7071 0.7071 -353.9104 954.4583)" class="st2" width="4" height="83.4"/>
				
					<rect x="943.1" y="862.7" transform="matrix(0.7071 -0.7071 0.7071 0.7071 -362.7105 933.1811)" class="st2" width="4" height="83.4"/>
				
					<rect x="912.9" y="862.4" transform="matrix(0.7071 -0.7071 0.7071 0.7071 -371.2786 911.7099)" class="st2" width="4" height="83.3"/>
				
					<rect x="882.7" y="862.5" transform="matrix(0.7071 -0.7071 0.7071 0.7071 -380.2079 890.4033)" class="st2" width="4" height="83.3"/>
				
					<rect x="852.6" y="862.5" transform="matrix(0.7071 -0.7071 0.7071 0.7071 -389.0079 869.126)" class="st2" width="4" height="83.3"/>
				
					<rect x="822.5" y="862.5" transform="matrix(0.7071 -0.7071 0.7071 0.7071 -397.8079 847.8488)" class="st2" width="4" height="83.3"/>
				
					<rect x="792.5" y="862.6" transform="matrix(0.7071 -0.7071 0.7071 0.7071 -406.6786 826.6009)" class="st2" width="4" height="83.3"/>
				
					<rect x="762.4" y="862.4" transform="matrix(0.7071 -0.7071 0.7071 0.7071 -415.3786 805.2822)" class="st2" width="4" height="83.3"/>
				
					<rect x="732.3" y="862.4" transform="matrix(0.7071 -0.7071 0.7071 0.7071 -424.1786 784.0049)" class="st2" width="4" height="83.3"/>
				
					<rect x="702.1" y="862.5" transform="matrix(0.7071 -0.7071 0.7071 0.7071 -433.1079 762.6984)" class="st2" width="4" height="83.3"/>
			</g>
		</g>
	</g>
	<g>
		<g>
			<line class="st4" x1="759.9" y1="720.5" x2="1160.1" y2="320.3"/>
			<g>
				<g>
					<path class="st5" d="M742.5,608.5c-1.5-4.8-1.6-9.6-0.4-14.5c1.2-4.8,4-9.3,8.2-13.4c4.3-4.1,7.4-6,11.5-7.5s8.4-1.9,12.5-1.2
						c4.3,0.7,8.2,2.3,12.1,5.1l-13.6,13.6c-1.9-0.7-4-1-5.8-0.5c-1.9,0.4-3.6,1.4-5.1,2.7c-2.2,2.2-3,4.7-2.7,7.5
						c0.4,2.9,1.9,5.8,4.7,8.5c2.7,2.7,5.6,4.3,8.5,4.7c2.9,0.4,5.5-0.5,7.5-2.7c2.1-2.2,2.5-3.2,2.7-5.1c0.4-1.9,0.3-3.8-0.5-5.8
						l13.6-13.6c2.7,3.8,4.4,7.8,5.1,12.1s0.3,8.4-1.2,12.5s-4,8-7.5,11.5c-3.6,3.6-8.6,6.9-13.4,8.2c-4.8,1.2-9.6,1.2-14.5-0.4
						c-4.8-1.5-9.3-4.4-13.3-8.4s-6.9-8.5-8.4-13.3L742.5,608.5z"/>
					<path class="st5" d="M813.4,518.2l41.2,41.2l-12.9,12.9l-16.1-16.1l-12.4,12.4l16.1,16.1l-12.9,12.9l-41.2-41.2l12.9-12.9
						l14.8,14.8l12.4-12.4l-14.8-14.8L813.4,518.2z"/>
					<path class="st5" d="M880.7,520.9L867,534.6l4.3,8.2l-13.6,13.6l-26.1-56.3l15-15l56.3,26.2L889.2,525l-8.2-4.3L880.7,520.9z
						 M867.9,514.3l-15.2-7.7l7.7,15.2l7.4-7.4L867.9,514.3z"/>
					<path class="st5" d="M913.9,417.9l41.2,41.2l-12.9,12.9l-20.6-20.6l14.3,26.9l-11.1,11.1l-26.9-14.3l20.6,20.6l-12.9,12.9
						l-41.2-41.2l15.8-15.8l33.8,15.6L898,433.6l15.8-15.8H913.9z"/>
					<path class="st5" d="M972.8,401.4c1,3.3,0.8,6.7-0.3,10.4c-1.1,3.6-3.3,7-6.7,10.4l-5.1,5.1l13,13l-12.9,12.9l-41.2-41.2
						l18.1-18.1c5.1-5.1,10.2-7.7,15.5-7.8c5.4-0.1,10,1.9,14.4,6.3s4.4,5.6,5.2,8.9H972.8z M954.4,405.5c-2.5-2.5-5.1-2.5-7.8,0.3
						l-3.7,3.7l7.5,7.5l3.7-3.7C956.8,410.6,956.8,408.1,954.4,405.5z"/>
					<path class="st5" d="M970.4,361.3l41.2,41.2l-12.9,12.9l-41.2-41.2L970.4,361.3z"/>
					<path class="st5" d="M1024.5,384.9c-5.1,1.4-10.2,1.5-15.2,0.1c-5.1-1.4-9.7-4-13.7-8.1s-6.7-8.6-8.1-13.7s-1.2-10.2,0.1-15.2
						c1.4-5.1,4.1-9.5,8-13.4c3.8-4,8.4-6.6,13.3-8c5.1-1.4,10.2-1.5,15.2,0c5.1,1.4,9.7,4,13.7,8.1s6.7,8.6,8.1,13.7
						c1.4,5.1,1.2,10.2,0,15.2c-1.4,5.1-4,9.5-7.8,13.3s-8.4,6.6-13.4,8L1024.5,384.9z M1029.3,356.5c-0.3-3-1.8-5.9-4.5-8.8
						c-2.7-2.9-5.8-4.4-8.8-4.7s-5.9,1-8.4,3.4s-3.8,5.5-3.6,8.5c0.3,3,1.8,6,4.7,8.8c2.9,2.7,5.8,4.3,8.8,4.5c3,0.3,5.9-1,8.5-3.6
						c2.6-2.6,3.7-5.4,3.4-8.4L1029.3,356.5z"/>
					<path class="st5" d="M1102.9,311.2l-12.9,12.9l-34.4-7l20.7,20.7l-12.9,12.9l-41.2-41.2l12.9-12.9l34.7,7.4l-21.1-21.1
						l12.9-12.9l41.2,41.2H1102.9z"/>
				</g>
				<g>
					<path class="st5" d="M835.8,730.9c-1.5-4.8-1.6-9.6-0.4-14.5c1.2-4.8,4-9.3,8.2-13.4s7.4-6,11.5-7.5c4.1-1.5,8.4-1.9,12.5-1.2
						c4.3,0.7,8.2,2.3,12.1,5.1l-13.6,13.6c-1.9-0.7-4-1-5.8-0.5c-1.9,0.4-3.6,1.4-5.1,2.7c-2.2,2.2-3,4.7-2.7,7.5
						c0.4,2.9,1.9,5.8,4.7,8.5c2.7,2.7,5.6,4.3,8.5,4.7c2.9,0.4,5.5-0.5,7.5-2.7s2.5-3.2,2.7-5.1c0.4-1.9,0.3-3.8-0.5-5.8l13.6-13.6
						c2.7,3.8,4.4,7.8,5.1,12.1s0.3,8.4-1.2,12.5s-4,8-7.5,11.5c-3.6,3.6-8.6,6.9-13.4,8.2c-4.8,1.2-9.6,1.2-14.5-0.4
						c-4.8-1.5-9.3-4.4-13.3-8.4c-4-4-6.9-8.5-8.4-13.3L835.8,730.9z"/>
					<path class="st5" d="M916.9,708.3c-5.1,1.4-10.2,1.5-15.2,0.1c-5.1-1.4-9.7-4-13.7-8.1c-4-4-6.7-8.6-8.1-13.7
						s-1.2-10.2,0.1-15.2c1.4-5.1,4.1-9.5,8-13.4c3.8-3.8,8.4-6.6,13.3-8c5.1-1.4,10.2-1.5,15.2,0c5.1,1.4,9.7,4,13.7,8.1
						c4,4,6.7,8.6,8.1,13.7c1.4,5.1,1.2,10.2,0,15.2c-1.4,5.1-4,9.5-7.8,13.3c-3.8,3.8-8.4,6.6-13.4,8H916.9z M921.7,679.8
						c-0.3-3-1.8-5.9-4.5-8.8c-2.7-2.9-5.8-4.4-8.8-4.7c-3-0.3-5.9,1-8.4,3.4c-2.6,2.6-3.8,5.5-3.6,8.5c0.3,3,1.8,6,4.7,8.8
						c2.9,2.7,5.8,4.3,8.8,4.5c3,0.3,5.9-1,8.5-3.6c2.6-2.6,3.7-5.4,3.4-8.4L921.7,679.8z"/>
					<path class="st5" d="M995.3,634.6l-12.9,12.9l-34.4-7l20.7,20.7l-12.9,12.9l-41.2-41.2l12.9-12.9l34.7,7.4l-21.1-21.1
						l12.9-12.9l41.2,41.2H995.3z"/>
					<path class="st5" d="M992.3,555.1l10.3,10.3l-11,11l31,31l-12.9,12.9l-31-31l-10.8,10.8l-10.3-10.3L992.3,555.1L992.3,555.1z"
						/>
					<path class="st5" d="M1018.9,549.1l5.1,5.1l12.8-12.8l9.7,9.7l-12.8,12.8l5.8,5.8l14.5-14.5l10.3,10.3l-27.4,27.4l-41.2-41.2
						l27.4-27.4l10.3,10.3L1018.9,549.1z"/>
					<path class="st5" d="M1108.9,520.9l-12.9,12.9l-34.4-7l20.7,20.7l-12.9,12.9l-41.2-41.2l12.9-12.9l34.7,7.4l-21.1-21.1
						l12.9-12.9l41.2,41.2L1108.9,520.9z"/>
					<path class="st5" d="M1104.5,448c4.9-1.5,9.9-1.5,14.8-0.1c4.8,1.4,9.2,4,13.2,8s6.6,8.4,8,13.2c1.4,4.9,1.4,9.9,0,15
						c-1.4,5.1-4.3,9.7-8.6,14l-17.2,17.2l-41.2-41.2l17.2-17.2c4.3-4.3,8.9-7.3,14-8.6L1104.5,448z M1123.7,478.2
						c0-3.3-1.2-6.5-4.3-9.3c-3-2.9-6-4.4-9.3-4.3c-3.3,0-6.5,1.6-9.3,4.5l-3,3l18.4,18.4l3-3
						C1122.1,484.7,1123.6,481.5,1123.7,478.2z"/>
					<path class="st5" d="M1139.9,428l5.1,5.1l12.8-12.8l9.7,9.7l-12.8,12.8l5.8,5.8l14.5-14.5l10.3,10.3l-27.4,27.4l-41.2-41.2
						l27.4-27.4l10.3,10.3L1139.9,428L1139.9,428z"/>
					<path class="st5" d="M1211,418.8l-22.5-7l0,0l14.8,14.8l-12.9,12.9l-41.2-41.2l19.2-19.2c3.3-3.3,6.7-5.6,10.3-6.7
						c3.6-1.2,7-1.4,10.2-0.5c3.2,0.8,6.2,2.6,8.6,5.1c2.5,2.5,4.4,5.9,5.1,9.6c0.5,3.7,0,7.4-2.1,11.3l24.7,6.9L1211,419V418.8z
						 M1179.9,403.2l5.1-5.1c1.2-1.2,1.9-2.5,1.9-3.7c0-1.2-0.5-2.3-1.8-3.6c-1.2-1.2-2.2-1.6-3.6-1.6c-1.2,0-2.5,0.7-3.7,1.8
						l-5.1,5.1l7,7L1179.9,403.2z"/>
				</g>
			</g>
		</g>
		<g>
			<line class="st4" x1="1397" y1="747.4" x2="1797.2" y2="347.2"/>
			<g>
				<g>
					<path class="st5" d="M1351.3,663.6c-1.5-4.8-1.6-9.6-0.4-14.5c1.2-4.8,4-9.3,8.2-13.4s7.4-6,11.5-7.5c4.1-1.5,8.4-1.9,12.5-1.2
						c4.3,0.7,8.2,2.3,12.1,5.1l-13.6,13.6c-1.9-0.7-4-1-5.8-0.5c-1.9,0.4-3.6,1.4-5.1,2.7c-2.2,2.2-3,4.7-2.7,7.5
						c0.4,2.9,1.9,5.8,4.7,8.5c2.7,2.7,5.6,4.3,8.5,4.7c2.9,0.4,5.5-0.5,7.5-2.7s2.5-3.2,2.7-5.1c0.4-1.9,0.3-3.8-0.5-5.8l13.6-13.6
						c2.7,3.8,4.4,7.8,5.1,12.1c0.7,4.3,0.3,8.4-1.2,12.5c-1.5,4.1-4,8-7.5,11.5s-8.6,6.9-13.4,8.2c-4.8,1.2-9.6,1.2-14.5-0.4
						c-4.8-1.5-9.3-4.4-13.3-8.4c-4-4-6.9-8.5-8.4-13.3L1351.3,663.6z"/>
					<path class="st5" d="M1432.5,640.9c-5.1,1.4-10.2,1.5-15.2,0.1c-5.1-1.4-9.7-4-13.7-8.1s-6.7-8.6-8.1-13.7
						c-1.4-5.1-1.2-10.2,0.1-15.2c1.4-5.1,4.1-9.5,8-13.4c3.8-4,8.4-6.6,13.3-8c5.1-1.4,10.2-1.5,15.2,0c5.1,1.4,9.7,4,13.7,8.1
						s6.7,8.6,8.1,13.7c1.4,5.1,1.2,10.2,0,15.2c-1.4,5.1-4,9.5-7.8,13.3c-3.8,3.8-8.4,6.6-13.4,8H1432.5z M1437.3,612.5
						c-0.3-3-1.8-5.9-4.5-8.8s-5.8-4.4-8.8-4.7c-3-0.3-5.9,1-8.4,3.4c-2.6,2.6-3.8,5.5-3.6,8.5c0.3,3,1.8,6,4.7,8.8
						c2.9,2.7,5.8,4.3,8.8,4.5c3,0.3,5.9-1,8.5-3.6s3.7-5.4,3.4-8.4L1437.3,612.5z"/>
					<path class="st5" d="M1479.6,516l41.2,41.2l-12.9,12.9l-20.6-20.6l14.3,26.9l-11.1,11.1l-26.9-14.3l20.6,20.6l-12.9,12.9
						l-41.2-41.2l15.8-15.8l33.8,15.6l-15.9-33.6l15.8-15.8H1479.6z"/>
					<path class="st5" d="M1538.6,499.5c1,3.3,0.8,6.7-0.3,10.4c-1.1,3.6-3.3,7-6.7,10.4l-5.1,5.1l13,13l-12.9,12.9l-41.2-41.2
						l18.1-18.1c5.1-5.1,10.2-7.7,15.5-7.8c5.4-0.1,10,1.9,14.4,6.3c4.4,4.4,4.4,5.6,5.2,8.9H1538.6z M1520.2,503.8
						c-2.5-2.5-5.1-2.5-7.8,0.3l-3.7,3.7l7.5,7.5l3.7-3.7C1522.7,508.8,1522.7,506.4,1520.2,503.8z"/>
					<path class="st5" d="M1546.4,469.7l5.1,5.1l12.8-12.8l9.7,9.7l-12.8,12.8l5.8,5.8l14.5-14.5l10.3,10.3l-27.4,27.4l-41.2-41.2
						l27.4-27.4l10.3,10.3L1546.4,469.7L1546.4,469.7z"/>
					<path class="st5" d="M1588,407.6l10.3,10.3l-11,11l31,31l-12.9,12.9l-31-31l-10.8,10.8l-10.3-10.3L1588,407.6z"/>
					<path class="st5" d="M1604.3,391.2l41.2,41.2l-12.9,12.9l-41.2-41.2L1604.3,391.2z"/>
					<path class="st5" d="M1642.6,353.1l10.3,10.3l-11,11l31,31l-12.9,12.9l-31-31l-10.8,10.8l-10.3-10.3L1642.6,353.1z"/>
					<path class="st5" d="M1694.4,379c-5.1,1.4-10.2,1.5-15.2,0.1c-5.1-1.4-9.7-4-13.7-8.1c-4-4.1-6.7-8.6-8.1-13.7
						c-1.4-5.1-1.2-10.2,0.1-15.2c1.4-5.1,4.1-9.5,8-13.4c3.8-4,8.4-6.6,13.3-8c5.1-1.4,10.2-1.5,15.2,0c5.1,1.4,9.7,4,13.7,8.1
						s6.7,8.6,8.1,13.7c1.4,5.1,1.2,10.2,0,15.2c-1.4,5.1-4,9.5-7.8,13.3c-3.8,3.8-8.4,6.6-13.4,8L1694.4,379z M1699.2,350.6
						c-0.3-3-1.8-5.9-4.5-8.8c-2.7-2.9-5.8-4.4-8.8-4.7c-3-0.3-5.9,1-8.4,3.4s-3.8,5.5-3.6,8.5c0.3,3,1.8,6,4.7,8.8
						c2.9,2.7,5.8,4.3,8.8,4.5c3,0.3,5.9-1,8.5-3.6s3.7-5.4,3.4-8.4L1699.2,350.6z"/>
					<path class="st5" d="M1753.9,324.1l-22.5-7l0,0l14.8,14.8l-12.9,12.9l-41.2-41.2l19.2-19.2c3.3-3.3,6.7-5.6,10.3-6.7
						c3.6-1.2,7-1.4,10.2-0.5c3.2,0.8,6.2,2.6,8.6,5.1c2.5,2.5,4.4,5.9,5.1,9.6c0.5,3.7,0,7.4-2.1,11.3l24.7,6.9l-14.3,14.3V324.1z
						 M1722.8,308.5l5.1-5.1c1.2-1.2,1.9-2.5,1.9-3.7c0-1.2-0.5-2.3-1.8-3.6c-1.2-1.2-2.2-1.6-3.6-1.6c-1.2,0-2.5,0.7-3.7,1.8
						l-5.1,5.1l7,7L1722.8,308.5z"/>
				</g>
				<g>
					<path class="st5" d="M1592.4,701.4l-22.5-7l0,0l14.8,14.8l-12.9,12.9l-41.2-41.2l19.2-19.2c3.3-3.3,6.7-5.6,10.3-6.7
						c3.6-1.2,7-1.4,10.2-0.5c3.2,0.8,6.2,2.6,8.6,5.1c2.5,2.5,4.4,5.9,5.1,9.6c0.5,3.7,0,7.4-2.1,11.3l24.7,6.9l-14.3,14.3V701.4z
						 M1561.1,685.7l5.1-5.1c1.2-1.2,1.9-2.5,1.9-3.7c0-1.2-0.5-2.3-1.8-3.6c-1.2-1.2-2.2-1.6-3.6-1.6c-1.2,0-2.5,0.7-3.7,1.8
						l-5.1,5.1l7,7L1561.1,685.7z"/>
					<path class="st5" d="M1617.7,671.3c-5.1,1.4-10.2,1.5-15.2,0.1c-5.1-1.4-9.7-4-13.7-8.1s-6.7-8.6-8.1-13.7
						c-1.4-5.1-1.2-10.2,0.1-15.2c1.4-5.1,4.1-9.5,8-13.4s8.4-6.6,13.3-8c5.1-1.4,10.2-1.5,15.2,0c5.1,1.4,9.7,4,13.7,8.1
						c4,4,6.7,8.6,8.1,13.7c1.4,5.1,1.2,10.2,0,15.2c-1.4,5.1-4,9.5-7.8,13.3c-3.8,3.8-8.4,6.6-13.4,8H1617.7z M1622.6,642.9
						c-0.3-3-1.8-5.9-4.5-8.8c-2.7-2.9-5.8-4.4-8.8-4.7c-3-0.3-5.9,1-8.4,3.4s-3.8,5.5-3.6,8.5c0.3,3,1.8,6,4.7,8.8
						c2.9,2.7,5.8,4.3,8.8,4.5c3,0.3,5.9-1,8.5-3.6c2.6-2.6,3.7-5.4,3.4-8.4L1622.6,642.9z"/>
					<path class="st5" d="M1663.6,625.5c-5.1,1.4-10.2,1.5-15.2,0.1c-5.1-1.4-9.7-4-13.7-8.1c-4-4-6.7-8.6-8.1-13.7
						c-1.4-5.1-1.2-10.2,0.1-15.2c1.4-5.1,4.1-9.5,8-13.4s8.4-6.6,13.3-8c5.1-1.4,10.2-1.5,15.2,0c5.1,1.4,9.7,4,13.7,8.1
						c4,4.1,6.7,8.6,8.1,13.7s1.2,10.2,0,15.2c-1.4,5.1-4,9.5-7.8,13.3c-3.8,3.8-8.4,6.6-13.4,8H1663.6z M1668.4,597.1
						c-0.3-3-1.8-5.9-4.5-8.8c-2.7-2.9-5.8-4.4-8.8-4.7c-3-0.3-5.9,1-8.4,3.4c-2.5,2.5-3.8,5.5-3.6,8.5c0.3,3,1.8,6,4.7,8.8
						c2.9,2.7,5.8,4.3,8.8,4.5c3,0.3,5.9-1,8.5-3.6c2.6-2.6,3.7-5.4,3.4-8.4L1668.4,597.1z"/>
					<path class="st5" d="M1727.3,566.3l-29.9-5.9l17.8,17.8l-12.9,12.9l-41.2-41.2l12.9-12.9l17.3,17.3l-5.5-29.2l14.5-14.5
						l5.5,33.9l36.6,6.3l-15.4,15.4L1727.3,566.3z"/>
					<path class="st5" d="M1718.1,493.2l41.2,41.2l-12.9,12.9l-41.2-41.2L1718.1,493.2L1718.1,493.2z"/>
					<path class="st5" d="M1747.1,484.8l5.1,5.1l12.8-12.8l9.7,9.7l-12.8,12.8l5.8,5.8l14.5-14.5l10.3,10.3l-27.4,27.4l-41.2-41.2
						l27.4-27.4l10.3,10.3L1747.1,484.8L1747.1,484.8z"/>
				</g>
			</g>
		</g>
		<g>
			<line class="st4" x1="191.2" y1="756.6" x2="591.4" y2="356.4"/>
			<g>
				<g>
					<path class="st5" d="M175.9,665.2c1,3.3,0.8,6.7-0.3,10.4c-1.1,3.6-3.3,7-6.7,10.4l-5.1,5.1l13,13L164,717l-41.2-41.2
						l18.1-18.1c5.1-5.1,10.2-7.7,15.5-7.8c5.2,0,10,1.9,14.4,6.3c4.4,4.4,4.4,5.6,5.2,8.9L175.9,665.2z M157.6,669.4
						c-2.5-2.5-5.1-2.5-7.8,0.3l-3.7,3.7l7.5,7.5l3.7-3.7C160,674.5,160,672,157.6,669.4z"/>
					<path class="st5" d="M222.6,658.6l-22.5-7l0,0l14.8,14.8L202,679.3l-41.2-41.2l19.2-19.2c3.3-3.3,6.7-5.6,10.3-6.7
						c3.6-1.2,7-1.4,10.2-0.5s6.2,2.6,8.6,5.1c2.5,2.5,4.4,5.9,5.1,9.6c0.5,3.7,0,7.4-2.1,11.3l24.7,6.9l-14.3,14.3V658.6z
						 M191.3,643.1l5.1-5.1c1.2-1.2,1.9-2.5,1.9-3.7c0-1.2-0.5-2.3-1.8-3.6c-1.2-1.2-2.2-1.6-3.6-1.6c-1.2,0-2.5,0.7-3.7,1.8
						l-5.1,5.1l7,7L191.3,643.1z"/>
					<path class="st5" d="M222.9,596.5l5.1,5.1l12.8-12.8l9.7,9.7l-12.8,12.8l5.8,5.8l14.5-14.5l10.3,10.3l-27.4,27.4l-41.2-41.2
						l27.4-27.4l10.3,10.3L222.9,596.5L222.9,596.5z"/>
					<path class="st5" d="M281.6,517.2l41.2,41.2l-12.9,12.9l-20.6-20.6l14.3,26.9l-11.1,11.1l-26.9-14.3l20.6,20.6l-12.9,12.9
						l-41.2-41.2l15.8-15.8l33.8,15.6L265.7,533l15.8-15.8H281.6z"/>
					<path class="st5" d="M300.3,498.4l41.2,41.2l-12.9,12.9l-41.2-41.2L300.3,498.4z"/>
					<path class="st5" d="M329.4,490l5.1,5.1l12.8-12.8l9.7,9.7l-12.8,12.8l5.8,5.8l14.5-14.5l10.3,10.3l-27.4,27.4l-41.2-41.2
						l27.4-27.4l10.3,10.3L329.4,490L329.4,490z"/>
					<path class="st5" d="M400.5,480.7l-22.5-7l0,0l14.8,14.8l-12.9,12.9l-41.2-41.2l19.2-19.2c3.3-3.3,6.7-5.6,10.3-6.7
						c3.6-1.2,7-1.4,10.2-0.5c3.2,0.8,6.2,2.6,8.6,5.1s4.4,5.9,5.1,9.6c0.5,3.7,0,7.4-2.1,11.3l24.7,6.9l-14.3,14.3L400.5,480.7z
						 M369.2,465.1l5.1-5.1c1.2-1.2,1.9-2.5,1.9-3.7s-0.5-2.3-1.8-3.6c-1.2-1.2-2.2-1.6-3.6-1.6c-1.2,0-2.5,0.7-3.7,1.8l-5.1,5.1
						l7,7L369.2,465.1z"/>
					<path class="st5" d="M410.6,408.7l5.1,5.1l12.8-12.8l9.7,9.7l-12.8,12.8l5.8,5.8l14.5-14.5l10.3,10.3l-27.4,27.4l-41.2-41.2
						l27.4-27.4l10.3,10.3L410.6,408.7L410.6,408.7z"/>
					<path class="st5" d="M464.2,397.4l12.5-12.5l9.7,9.7L461,420l-41.2-41.2l12.9-12.9L464.2,397.4z"/>
					<path class="st5" d="M462.2,336.6l41.2,41.2l-12.9,12.9l-41.2-41.2L462.2,336.6z"/>
					<path class="st5" d="M500.4,298.3l10.3,10.3l-11,11l31,31l-12.9,12.9l-31-31L476,343.3L465.7,333L500.4,298.3L500.4,298.3z"/>
					<path class="st5" d="M527.1,292.3l5.1,5.1l12.8-12.8l9.7,9.7L542,307.1l5.8,5.8l14.5-14.5l10.3,10.3l-27.4,27.4L504,294.9
						l27.4-27.4l10.3,10.3L527.1,292.3L527.1,292.3z"/>
				</g>
				<g>
					<path class="st5" d="M386.2,648.8l5.1,5.1l12.8-12.8l9.7,9.7L401,663.6l5.8,5.8l14.5-14.5l10.3,10.3l-27.4,27.4L363,651.4
						l27.4-27.4l10.3,10.3L386.2,648.8z"/>
					<path class="st5" d="M439.7,637.6l12.5-12.5l9.7,9.7l-25.4,25.4L395.4,619l12.9-12.9L439.7,637.6z"/>
					<path class="st5" d="M437.7,576.6l41.2,41.2l-12.9,12.9l-41.2-41.2L437.7,576.6z"/>
					<path class="st5" d="M476,538.5l10.3,10.3l-11,11l31,31l-12.9,12.9l-31-31l-10.8,10.8l-10.3-10.3L476,538.5L476,538.5z"/>
					<path class="st5" d="M502.6,532.3l5.1,5.1l12.8-12.8l9.7,9.7l-12.8,12.8l5.8,5.8l14.5-14.5l10.3,10.3l-27.4,27.4l-41.2-41.2
						l27.4-27.4l10.3,10.3L502.6,532.3z"/>
				</g>
			</g>
		</g>
	</g>
	<rect x="1264.9" y="901.6" class="st5" width="450" height="5"/>
	<rect x="204.8" y="901.6" class="st5" width="450" height="5"/>
	<rect x="1264.9" y="117.4" class="st5" width="450" height="5"/>
	<rect x="204.8" y="117.4" class="st5" width="450" height="5"/>
</g>
</svg>
