<?xml version="1.0" encoding="utf-8"?>
<!-- Generator: Adobe Illustrator 27.9.4, SVG Export Plug-In . SVG Version: 9.03 Build 54784)  -->
<svg version="1.1" id="Layer_1" xmlns="http://www.w3.org/2000/svg" xmlns:xlink="http://www.w3.org/1999/xlink" x="0px" y="0px"
	 viewBox="0 0 1920 1024" style="enable-background:new 0 0 1920 1024;" xml:space="preserve">
<style type="text/css">
	.st0{fill:#212121;}
	.st1{fill:#CFD4D8;}
	.st2{fill:#FFFFFF;}
	.st3{clip-path:url(#SVGID_00000133492749194527924060000013771875520321586855_);}
	.st4{fill:#AAFF00;}
	.st5{clip-path:url(#SVGID_00000005961978497223966920000007895597699453967509_);}
	.st6{fill:none;stroke:#FFFFFF;stroke-width:2;stroke-miterlimit:10;}
</style>
<g id="Layer_3">
	<rect class="st0" width="1920" height="1024"/>
</g>
<g transform="matrix(1.66567 0 0 1.66567 112.866 99.8967)">
	<path class="st1" d="M-18.3,176.6l1.4,4.3c2.1,6.7,4.3,13.6,6.4,20.3c2,6.6,4.2,13.2,6.4,19.7c0.7,2.1,1.4,4.3,2.1,6.3l0.4,1.3
		l1.4,0.2c0.9,0.2,1.8,0.3,2.8,0.5c1.3,0.2,2.6,0.4,3.9,0.7c3.2,0.6,5.7,1,8.5,1.5c3.8,5.9,6.8,10.3,10.4,15.1
		c-4,5.5-7.1,10.4-11.5,17.4c-2.4,0.4-4.6,0.8-7.9,1.4c-1.1,0.2-2.5,0.4-3.7,0.7c-1.1,0.2-2.2,0.3-3.2,0.5l-1.4,0.2l-0.4,1.3
		c-0.7,2.1-1.4,4.3-2.1,6.4c-2.2,6.6-4.3,13.3-6.4,19.9c-2,6.7-4.2,13.4-6.3,20.1l-1.1,3.7l3.8-0.7c4.6-0.8,10.1-2,16.5-3.5
		C24,308.7,57.8,301,98.4,301h0.3c40.5,0.1,92.9,11.4,113.6,16.3l4,0.9l-1.2-3.9c-2-6.4-4.2-13.1-6.3-20.1c-2.5-8-3.8-12.1-6.4-19.9
		c-0.7-2.1-1.4-4.3-2.1-6.4l-0.4-1.3l-1.4-0.2c-1-0.2-2-0.3-3-0.5c-1.2-0.2-2.5-0.4-3.7-0.7c-1.4-0.2-2.6-0.5-3.7-0.7
		c-0.9-0.2-1.7-0.3-2.6-0.5v-33.1c0.8-0.2,1.6-0.3,2.5-0.5c1.1-0.2,2.3-0.4,3.8-0.7c1.2-0.2,2.5-0.4,3.8-0.7c1-0.2,2-0.3,2.9-0.5
		l1.4-0.2l0.4-1.3l0.4-1.2c0.6-1.7,1.1-3.4,1.7-5.2c2.2-6.6,4.3-13.1,6.4-19.7c0.9-3,1.9-6.1,2.8-9.2c1.1-3.6,2.2-7.5,3.4-11.1
		l1.1-3.7l-3.8,0.7c-1,0.2-2.7,0.6-5.4,1.2c-15.9,3.8-63.9,15.1-108,15.1c-59,0-112.2-16-112.8-16.3L-18.3,176.6L-18.3,176.6z"/>
	<path class="st0" d="M206.8,294.4c-2-6.6-4.2-13.3-6.4-19.8c-0.7-2.1-1.4-4.3-2.1-6.4c-2.1-0.4-4.6-0.7-6.7-1.1
		c-3.4-0.6-5.6-1.1-8.2-1.5v-36.8c2.6-0.4,4.7-0.9,8.2-1.5c2.1-0.4,4.5-0.7,6.7-1.1c0.7-2.1,1.4-4.3,2.1-6.3
		c2.2-6.6,4.3-13.1,6.4-19.7c2.1-6.8,4-13.6,6.1-20.3c-6.6,1.3-62.4,16.4-113.7,16.4c-57.4,0-110.4-15.3-113.6-16.4
		c2.1,6.7,4.3,13.5,6.4,20.3c2,6.6,4.2,13.2,6.4,19.7c0.7,2.1,1.4,4.3,2.1,6.3c2.1,0.4,4.5,0.7,6.7,1.1c3.8,0.7,6.5,1.1,9.4,1.6
		c4.6,6.9,7.7,11.7,11.9,17.2c-4.6,6.2-8,11.6-12.9,19.5c-2.8,0.5-5.2,0.9-8.9,1.6c-2.1,0.4-4.7,0.7-7,1.1c-0.7,2.1-1.4,4.3-2.1,6.4
		c-2.2,6.6-4.3,13.2-6.4,19.8c-2,6.7-4.2,13.4-6.3,20.1c20.9-3.8,61.7-16.4,114-16.3c44.5,0.1,102.8,13.7,114,16.3
		C211,307.8,208.9,301,206.8,294.4"/>
	<path class="st2" d="M195,195.9c-43.2,10.8-84.1,15.6-129.7,11.9v14.4c5,0.2,5.8,0.4,10.8,0.6c-5.4,6.3-8,9.5-13.3,16.1
		c-4.8-6.8-7.3-10.3-12.1-17.8c4.3,0.5,4.8,0.7,9.3,1v-14.4c-20.4-2.9-41.4-6.6-57.6-11c2.5,8.1,3.5,11.4,6.1,19
		c5.6,0.9,8.4,1.3,13.9,2.1c8,12.5,12,17.9,20.1,28.3c-8.5,11.2-12.8,17.2-21.2,30.8c-5.5,0.7-8.2,1.2-13.6,2
		c-2.5,7.7-3.5,11.5-6.1,19.7c19.7-4.8,37.2-8.1,57.6-10.9v-15.1c-5.2,0.3-6.1,0.6-11.3,1.1c5.6-8.1,8.4-11.9,14.2-19.2
		c5.7,7.1,8.6,10.6,14.4,17.4c-5.1,0.2-6.1,0.3-11.1,0.7v14.5c10.9-0.9,21.8-1.3,32.7-1.2c32.7,0.2,63.8,4.9,96.5,13.1
		c-2.5-8.2-3.8-12.1-6.3-19.9c-7-1.1-10.6-1.7-17.8-2.7v-58c7.2-1,10.8-1.5,17.8-2.7c2.5-7.6,3.8-11.5,6.3-19.7L195,195.9z
		 M144.2,221.3v52.1c-2.7-0.2-5.4-0.5-8.1-0.7h-0.7v-50.9c3.3-0.2,5.5-0.3,8.8-0.7V221.3z M108.8,223.2v48.3c-1.5,0-2.1,0-3.6-0.1
		C96.1,261,91.5,256,82.4,245.6c8.4-9,12.6-13.3,21.1-22.4C105.6,223.2,106.6,223.2,108.8,223.2L108.8,223.2z"/>
</g>
<g>
	<path class="st0" d="M1058,394.2c-0.2-0.2-40.4-14.6-98.1-14.6l0,0c-57.8,0-97.9,14.4-98.1,14.6c-9.5,21.4-26.7,145.9,96.5,245.9
		l1.6,1.2l0,0l1.6-1.2C1084.8,540.2,1067.5,415.6,1058,394.2"/>
	<path class="st2" d="M960,373.5c-60.7,0-102.9,15.3-103.1,15.5c-10,22.8-28.1,153.8,101.4,260.2l1.6,1.3l0,0l1.7-1.3
		c129.4-106.4,111.4-237.4,101.4-260.2C1063,388.9,1020.8,373.4,960,373.5L960,373.5L960,373.5z M959.8,379.8L959.8,379.8
		c57.7,0,97.7,14.4,97.9,14.5c6.1,13.7,15.3,69.8-11.4,134.7l-3.9-7.1c-0.4-0.7-0.7-1.4-1.1-2.1v-0.2c-9.3-17-63.8-117.5-72.6-132.9
		c-0.6,0-2.3,0-5.2,0h-7c-2.9,0-4.7,0-5.2,0l-74.4,136.4c0.6,1.4,3.8,9.6,8.1,18.3c1.1-2.1,5.1-9.2,9.7-17.9
		c5.4-10,12.6-23.1,20.2-37.3c29.7-16.3,61.1-1.6,77.8,20.7c-0.2,0-0.2,0,0,0c-2.3-1.6-4.7-2.9-7.1-4c-8.2-4.1-17.3-6.2-26.5-6.2
		c-33.3,0-60.4,27.6-60.4,61.5s1.9,17.5,5.3,25c-62.5-85.3-49.6-171.4-41.9-188.9C862.2,394.3,902.2,379.8,959.8,379.8L959.8,379.8
		L959.8,379.8z M940.5,386.7c-17.3,0.9-43.3,3.8-70.1,11.7l-0.6,0.2l0,0l-3.2,0.9c-8.9,30.7-6.2,73.2,6.9,114.2
		c1.6-2.8,6.9-12.6,10.7-19.9c-6.3-24.3-6.5-45.6-6.5-45.7v-0.3h0.2c0.2-0.2,14.1-4.1,32.8-6.6c1.4-2.8,7.5-14,14.7-27
		C930.7,404.9,935.6,395.8,940.5,386.7L940.5,386.7L940.5,386.7z M979.5,386.7c17.7,31.8,38.3,69.8,52,95.2
		c7.9,14.5,13.8,25.5,15.4,28.4c8.8-28.8,10.2-46.9,10.8-54.7c0.2-1.3,0.2-2.4,0.2-3.2c-5.1-1.6-10.2-3.2-15.3-4.5v0.2
		c0,1.4-0.2,5.2-1.6,16.2l-0.2,1.2l-0.6-1.1c-3.9-7.1-7.2-13.2-11.1-20.4c-4.8-9-10.7-20.3-20.5-37.7l-0.4-0.7l0.8,0.2
		c9.6,1.5,18.5,2.9,31.7,6.2h0.2v0.3c1.2,6,1.7,13.4,1.7,18.2c5.5,1.6,13.4,3.9,15.5,4.5c-0.5-20.6-4.7-34.4-5.1-35.9
		C1041,395.5,1015.6,388.8,979.5,386.7L979.5,386.7L979.5,386.7z M960,403.8l10,18.5c0,0-6.2-0.3-10-0.3c-3.8,0-10,0.3-10,0.3
		L960,403.8z M911.9,405.8l-0.4,0.7c-3.9,6.9-5.4,9.8-7.7,14c-0.9,1.6-1.8,3.4-3.1,5.8v0.2h-0.2c-0.2,0-14.6,2.8-22,4.8l-0.6,0.2
		V431c0.7-9.7,1.1-13.4,2.1-18.6v-0.2h0.3c14-3.4,21.7-4.8,30.9-6.1L911.9,405.8L911.9,405.8z M960,438c2.5,0,12.2,0.2,18.8,0.6h0.2
		l0.2,0.2l2.5,4.7c7.6,13.8,15.6,28.6,23.5,43.1c-10.6-8-33.6-24.9-45.2-34.5c-1,1.1-35.8,27-44.9,34.1
		c8.5-15.8,17.8-32.6,25.8-47.3l0.2-0.2h0.2C947.3,438.4,953.6,438.3,960,438L960,438L960,438z M965.6,462.1
		c10.7,9.3,23.6,18.2,39.5,24.3c3.4,6.2,7,12.8,10,18.4C981.2,486.6,963.9,459.6,965.6,462.1L965.6,462.1L965.6,462.1z M973.1,519.2
		c15.4,0,29,7.5,29,7.5v15.7l-37.4,38h40c0,0-5.6,7.2-9.4,11.5h-49v-11.5l42.9-41.8v-3.4c0,0-3.6-4.4-16.1-4.4s-14.7,3.8-14.7,3.8
		v8.5h-12.1v-16.2C946.3,526.7,957.7,519.2,973.1,519.2L973.1,519.2L973.1,519.2z M935.6,520.9v71H924v-65.2
		C929.8,521.7,935.6,520.9,935.6,520.9L935.6,520.9z M925.2,609.1c10.3,7,22.4,10.7,34.8,10.7s24-3.4,34.1-10.7
		c-10.2,11-21.1,21.3-32.7,30.7l-1.6,1.2l0,0l-1.6-1.2C946.4,630.5,935.4,620.1,925.2,609.1L925.2,609.1L925.2,609.1z"/>
</g>
<g>
	<polygon class="st2" points="1341.7,583.2 1365.3,565.3 1794.6,565.3 1789,583.2 	"/>
	<path class="st2" d="M1526,440.8l-141.7,109.6h41.9l22.5-17.4l70.4-17.4l-9.8,34.8h32.5l30.6-109.6L1526,440.8L1526,440.8z
		 M1521.2,508.9h-41.5l53.1-40.6L1521.2,508.9L1521.2,508.9z"/>
	<path class="st2" d="M1713.8,440.8l-38.5,25.2h-49.9c0,0-10.7-0.2-13.1,8.1l-12.6,36.8c0,0-5.7,12.4,11.5,14.3h69.7l-8.2,25.3
		h-79.4c0,0-34-1.5-25.2-32l17.8-55.6c0,0,5.6-21.9,43.7-21.9S1713.7,440.9,1713.8,440.8L1713.8,440.8z"/>
	<path class="st2" d="M1840,440.8l-38.5,25.2h-49.9c0,0-10.7-0.2-13.1,8.1l-12.6,36.8c0,0-5.7,12.4,11.5,14.3h69.7l-8.2,25.3h-79.4
		c0,0-34-1.5-25.2-32l17.8-55.6c0,0,5.6-21.9,43.7-21.9S1839.9,440.9,1840,440.8L1840,440.8z"/>
</g>
<g>
	<g>
		<defs>
			<rect id="SVGID_1_" x="1327.8" y="108" width="510.5" height="39.8"/>
		</defs>
		<clipPath id="SVGID_00000087381102719020570170000002931985779149998480_">
			<use xlink:href="#SVGID_1_"  style="overflow:visible;"/>
		</clipPath>
		<g style="clip-path:url(#SVGID_00000087381102719020570170000002931985779149998480_);">
			<g>
				
					<rect x="1837" y="86.3" transform="matrix(0.7071 -0.7071 0.7071 0.7071 448.1617 1337.822)" class="st4" width="4" height="83.3"/>
				
					<rect x="1806.9" y="86.3" transform="matrix(0.7071 -0.7071 0.7071 0.7071 439.3617 1316.5448)" class="st4" width="4" height="83.3"/>
				
					<rect x="1776.8" y="86.2" transform="matrix(0.7071 -0.7071 0.7071 0.7071 430.5617 1295.2676)" class="st4" width="4" height="83.3"/>
				
					<rect x="1746.7" y="86.2" transform="matrix(0.7071 -0.7071 0.7071 0.7071 421.7617 1273.9904)" class="st4" width="4" height="83.3"/>
				
					<rect x="1716.5" y="86.2" transform="matrix(0.7071 -0.7071 0.7071 0.7071 412.9324 1252.6423)" class="st4" width="4" height="83.3"/>
				
					<rect x="1686.5" y="86.3" transform="matrix(0.7071 -0.7071 0.7071 0.7071 404.0617 1231.3944)" class="st4" width="4" height="83.3"/>
				
					<rect x="1656.4" y="86.3" transform="matrix(0.7071 -0.7071 0.7071 0.7071 395.2616 1210.1172)" class="st4" width="4" height="83.3"/>
				
					<rect x="1626.3" y="86.3" transform="matrix(0.7071 -0.7071 0.7071 0.7071 386.4617 1188.8398)" class="st4" width="4" height="83.3"/>
				
					<rect x="1597" y="87.3" transform="matrix(0.7071 -0.7071 0.7071 0.7071 377.1036 1168.4272)" class="st4" width="4" height="83.4"/>
				
					<rect x="1566.9" y="87.3" transform="matrix(0.7071 -0.7071 0.7071 0.7071 368.3035 1147.15)" class="st4" width="4" height="83.4"/>
				
					<rect x="1535.9" y="86.3" transform="matrix(0.7071 -0.7071 0.7071 0.7071 359.9617 1124.9081)" class="st4" width="4" height="83.3"/>
				
					<rect x="1505.8" y="86.3" transform="matrix(0.7071 -0.7071 0.7071 0.7071 351.1617 1103.6309)" class="st4" width="4" height="83.3"/>
				
					<rect x="1475.7" y="86.3" transform="matrix(0.7071 -0.7071 0.7071 0.7071 342.3617 1082.3536)" class="st4" width="4" height="83.3"/>
				
					<rect x="1445.6" y="86.2" transform="matrix(0.7071 -0.7071 0.7071 0.7071 333.5618 1061.0764)" class="st4" width="4" height="83.3"/>
				
					<rect x="1415.5" y="86.2" transform="matrix(0.7071 -0.7071 0.7071 0.7071 324.7616 1039.7991)" class="st4" width="4" height="83.3"/>
				
					<rect x="1385.3" y="86.3" transform="matrix(0.7071 -0.7071 0.7071 0.7071 315.8617 1018.4804)" class="st4" width="4" height="83.3"/>
				
					<rect x="1355.3" y="86.3" transform="matrix(0.7071 -0.7071 0.7071 0.7071 307.0617 997.2032)" class="st4" width="4" height="83.3"/>
				
					<rect x="1325.2" y="86.3" transform="matrix(0.7071 -0.7071 0.7071 0.7071 298.2617 975.926)" class="st4" width="4" height="83.3"/>
			</g>
		</g>
	</g>
	<rect x="1329.5" y="80" class="st4" width="510.5" height="8"/>
	<rect x="1329.5" y="167.8" class="st4" width="510.5" height="8"/>
</g>
<g>
	<g>
		<defs>
			<rect id="SVGID_00000026136359600834715760000005859871897757441727_" x="80" y="876.2" width="510.5" height="39.8"/>
		</defs>
		<clipPath id="SVGID_00000111190417187065987760000013790538204034836920_">
			<use xlink:href="#SVGID_00000026136359600834715760000005859871897757441727_"  style="overflow:visible;"/>
		</clipPath>
		<g style="clip-path:url(#SVGID_00000111190417187065987760000013790538204034836920_);">
			<g>
				
					<rect x="589.2" y="854.5" transform="matrix(0.7071 -0.7071 0.7071 0.7071 -460.51 680.4948)" class="st4" width="4" height="83.3"/>
				
					<rect x="559.1" y="854.5" transform="matrix(0.7071 -0.7071 0.7071 0.7071 -469.3099 659.2175)" class="st4" width="4" height="83.3"/>
				
					<rect x="529" y="854.4" transform="matrix(0.7071 -0.7071 0.7071 0.7071 -478.11 637.9403)" class="st4" width="4" height="83.3"/>
				
					<rect x="498.9" y="854.4" transform="matrix(0.7071 -0.7071 0.7071 0.7071 -486.9099 616.663)" class="st4" width="4" height="83.3"/>
				
					<rect x="468.7" y="854.4" transform="matrix(0.7071 -0.7071 0.7071 0.7071 -495.7392 595.3151)" class="st4" width="4" height="83.3"/>
				
					<rect x="438.7" y="854.5" transform="matrix(0.7071 -0.7071 0.7071 0.7071 -504.61 574.0671)" class="st4" width="4" height="83.3"/>
				
					<rect x="408.6" y="854.5" transform="matrix(0.7071 -0.7071 0.7071 0.7071 -513.41 552.7899)" class="st4" width="4" height="83.3"/>
				
					<rect x="378.5" y="854.5" transform="matrix(0.7071 -0.7071 0.7071 0.7071 -522.2099 531.5126)" class="st4" width="4" height="83.3"/>
				
					<rect x="349.2" y="855.5" transform="matrix(0.7071 -0.7071 0.7071 0.7071 -531.568 511.1)" class="st4" width="4" height="83.4"/>
				
					<rect x="319.1" y="855.5" transform="matrix(0.7071 -0.7071 0.7071 0.7071 -540.3681 489.8227)" class="st4" width="4" height="83.4"/>
				
					<rect x="288.1" y="854.5" transform="matrix(0.7071 -0.7071 0.7071 0.7071 -548.7099 467.5808)" class="st4" width="4" height="83.3"/>
				
					<rect x="258" y="854.5" transform="matrix(0.7071 -0.7071 0.7071 0.7071 -557.5099 446.3036)" class="st4" width="4" height="83.3"/>
				
					<rect x="227.9" y="854.5" transform="matrix(0.7071 -0.7071 0.7071 0.7071 -566.3099 425.0263)" class="st4" width="4" height="83.3"/>
				
					<rect x="197.8" y="854.4" transform="matrix(0.7071 -0.7071 0.7071 0.7071 -575.1099 403.7491)" class="st4" width="4" height="83.3"/>
				
					<rect x="167.7" y="854.4" transform="matrix(0.7071 -0.7071 0.7071 0.7071 -583.91 382.4718)" class="st4" width="4" height="83.3"/>
				
					<rect x="137.5" y="854.5" transform="matrix(0.7071 -0.7071 0.7071 0.7071 -592.8099 361.1531)" class="st4" width="4" height="83.3"/>
				
					<rect x="107.5" y="854.5" transform="matrix(0.7071 -0.7071 0.7071 0.7071 -601.6099 339.8759)" class="st4" width="4" height="83.3"/>
				
					<rect x="77.4" y="854.5" transform="matrix(0.7071 -0.7071 0.7071 0.7071 -610.4099 318.5987)" class="st4" width="4" height="83.3"/>
			</g>
		</g>
	</g>
	<rect x="81.7" y="848.2" class="st4" width="510.5" height="8"/>
	<rect x="81.7" y="936" class="st4" width="510.5" height="8"/>
</g>
<g>
	<g>
		<line class="st6" x1="120.5" y1="107.6" x2="80" y2="148.2"/>
		<line class="st6" x1="140.8" y1="107.6" x2="100.3" y2="148.2"/>
		<line class="st6" x1="161.1" y1="107.6" x2="120.5" y2="148.2"/>
		<line class="st6" x1="181.3" y1="107.6" x2="140.8" y2="148.2"/>
		<line class="st6" x1="201.6" y1="107.6" x2="161.1" y2="148.2"/>
		<line class="st6" x1="221.9" y1="107.6" x2="181.3" y2="148.2"/>
		<line class="st6" x1="242.2" y1="107.6" x2="201.6" y2="148.2"/>
		<line class="st6" x1="262.4" y1="107.6" x2="221.9" y2="148.2"/>
	</g>
	<rect x="310.4" y="125.4" class="st2" width="649.6" height="5"/>
</g>
<g>
	<g>
		<line class="st6" x1="1799.5" y1="916.4" x2="1840" y2="875.8"/>
		<line class="st6" x1="1779.2" y1="916.4" x2="1819.7" y2="875.8"/>
		<line class="st6" x1="1758.9" y1="916.4" x2="1799.5" y2="875.8"/>
		<line class="st6" x1="1738.7" y1="916.4" x2="1779.2" y2="875.8"/>
		<line class="st6" x1="1718.4" y1="916.4" x2="1758.9" y2="875.8"/>
		<line class="st6" x1="1698.1" y1="916.4" x2="1738.7" y2="875.8"/>
		<line class="st6" x1="1677.8" y1="916.4" x2="1718.4" y2="875.8"/>
		<line class="st6" x1="1657.6" y1="916.4" x2="1698.1" y2="875.8"/>
	</g>
	
		<rect x="960" y="893.6" transform="matrix(-1 -1.224647e-16 1.224647e-16 -1 2569.5752 1792.2)" class="st2" width="649.6" height="5"/>
</g>
<g id="Layer_2-2">
	<line class="st6" x1="1167.5" y1="550.3" x2="1244.2" y2="473.7"/>
	<line class="st6" x1="1244.2" y1="550.3" x2="1167.5" y2="473.7"/>
</g>
<g id="Layer_2-2_00000172413784720848974030000010197530270339301510_">
	<line class="st6" x1="623.2" y1="550.3" x2="699.9" y2="473.7"/>
	<line class="st6" x1="699.9" y1="550.3" x2="623.2" y2="473.7"/>
</g>
</svg>
