<?xml version="1.0" encoding="UTF-8"?>
<svg id="Layer_1" data-name="Layer 1" xmlns="http://www.w3.org/2000/svg" version="1.1" viewBox="0 0 1920 1024">
  <defs>
    <style>
      .cls-1 {
        fill: none;
        stroke: #af0;
        stroke-miterlimit: 10;
        stroke-width: 2px;
      }

      .cls-2 {
        fill: #212121;
      }

      .cls-2, .cls-3, .cls-4 {
        stroke-width: 0px;
      }

      .cls-3 {
        fill: #cfd4d8;
      }

      .cls-4 {
        fill: #fff;
      }
    </style>
  </defs>
  <g>
    <path class="cls-3" d="M2.6,383.3l2.5,7.8c3.8,12.2,7.8,24.7,11.6,36.9,3.6,12,7.6,24,11.6,35.8,1.3,3.8,2.5,7.8,3.8,11.4l.7,2.4,2.5.4c1.6.4,3.3.5,5.1.9,2.4.4,4.7.7,7.1,1.3,5.8,1.1,10.4,1.8,15.4,2.7,6.9,10.7,12.4,18.7,18.9,27.4-7.3,10-12.9,18.9-20.9,31.6-4.4.7-8.4,1.5-14.4,2.5-2,.4-4.5.7-6.7,1.3-2,.4-4,.5-5.8.9l-2.5.4-.7,2.4c-1.3,3.8-2.5,7.8-3.8,11.6-4,12-7.8,24.2-11.6,36.2-3.6,12.2-7.6,24.3-11.4,36.5l-2,6.7,6.9-1.3c8.4-1.5,18.4-3.6,30-6.4,40.5-9.4,101.9-23.4,175.7-23.4h.5c73.6.2,168.8,20.7,206.4,29.6l7.3,1.6-2.2-7.1c-3.6-11.6-7.6-23.8-11.4-36.5-4.5-14.5-6.9-22-11.6-36.2-1.3-3.8-2.5-7.8-3.8-11.6l-.7-2.4-2.5-.4c-1.8-.4-3.6-.5-5.5-.9-2.2-.4-4.5-.7-6.7-1.3-2.5-.4-4.7-.9-6.7-1.3-1.6-.4-3.1-.5-4.7-.9v-60.1c1.5-.4,2.9-.5,4.5-.9,2-.4,4.2-.7,6.9-1.3,2.2-.4,4.5-.7,6.9-1.3,1.8-.4,3.6-.5,5.3-.9l2.5-.4.7-2.4.7-2.2c1.1-3.1,2-6.2,3.1-9.4,4-12,7.8-23.8,11.6-35.8,1.6-5.5,3.5-11.1,5.1-16.7,2-6.5,4-13.6,6.2-20.2l2-6.7-6.9,1.3c-1.8.4-4.9,1.1-9.8,2.2-28.9,6.9-116.1,27.4-196.2,27.4s-203.9-29.1-205-29.6l-8-1.8h0v.2Z"/>
    <path class="cls-2" d="M411.6,597.4c-3.6-12-7.6-24.2-11.6-36-1.3-3.8-2.5-7.8-3.8-11.6-3.8-.7-8.4-1.3-12.2-2-6.2-1.1-10.2-2-14.9-2.7v-66.9c4.7-.7,8.5-1.6,14.9-2.7,3.8-.7,8.2-1.3,12.2-2,1.3-3.8,2.5-7.8,3.8-11.4,4-12,7.8-23.8,11.6-35.8,3.8-12.4,7.3-24.7,11.1-36.9-12,2.4-113.4,29.8-206.6,29.8s-200.6-27.8-206.4-29.8c3.8,12.2,7.8,24.5,11.6,36.9,3.6,12,7.6,24,11.6,35.8,1.3,3.8,2.5,7.8,3.8,11.4,3.8.7,8.2,1.3,12.2,2,6.9,1.3,11.8,2,17.1,2.9,8.4,12.5,14,21.3,21.6,31.3-8.4,11.3-14.5,21.1-23.4,35.4-5.1.9-9.4,1.6-16.2,2.9-3.8.7-8.5,1.3-12.7,2-1.3,3.8-2.5,7.8-3.8,11.6-4,12-7.8,24-11.6,36-3.6,12.2-7.6,24.3-11.4,36.5,38-6.9,112.1-29.8,207.1-29.6,80.9.2,186.8,24.9,207.1,29.6-3.5-12.4-7.3-24.7-11.1-36.7"/>
    <path class="cls-4" d="M390.2,418.4c-78.5,19.6-152.8,28.3-235.7,21.6v26.2c9.1.4,10.5.7,19.6,1.1-9.8,11.4-14.5,17.3-24.2,29.3-8.7-12.4-13.3-18.7-22-32.3,7.8.9,8.7,1.3,16.9,1.8v-26.2c-37.1-5.3-75.2-12-104.7-20,4.5,14.7,6.4,20.7,11.1,34.5,10.2,1.6,15.3,2.4,25.3,3.8,14.5,22.7,21.8,32.5,36.5,51.4-15.4,20.4-23.3,31.3-38.5,56-10,1.3-14.9,2.2-24.7,3.6-4.5,14-6.4,20.9-11.1,35.8,35.8-8.7,67.6-14.7,104.7-19.8v-27.4c-9.4.5-11.1,1.1-20.5,2,10.2-14.7,15.3-21.6,25.8-34.9,10.4,12.9,15.6,19.3,26.2,31.6-9.3.4-11.1.5-20.2,1.3v26.3c19.8-1.6,39.6-2.4,59.4-2.2,59.4.4,115.9,8.9,175.3,23.8-4.5-14.9-6.9-22-11.4-36.2-12.7-2-19.3-3.1-32.3-4.9v-105.4c13.1-1.8,19.6-2.7,32.3-4.9,4.5-13.8,6.9-20.9,11.4-35.8l.7-.2h0ZM297.9,464.6v94.7c-4.9-.4-9.8-.9-14.7-1.3h-1.3v-92.5c6-.4,10-.5,16-1.3v.4ZM233.6,468v87.8c-2.7,0-3.8,0-6.5-.2-16.5-18.9-24.9-28-41.4-46.9,15.3-16.4,22.9-24.2,38.3-40.7h9.6,0Z"/>
  </g>
  <g>
    <path class="cls-2" d="M1066.9,383.5c-.2-.2-44.1-15.9-107-15.9h0c-63.1,0-106.8,15.7-107,15.9-10.4,23.3-29.1,159.2,105.3,268.3l1.7,1.3h0l1.7-1.3c134.5-109,115.6-244.9,105.3-268.3"/>
    <path class="cls-4" d="M960,360.9c-66.2,0-112.3,16.7-112.5,16.9-10.9,24.9-30.7,167.8,110.6,283.9l1.7,1.4h0l1.9-1.4c141.2-116.1,121.5-259,110.6-283.9,0-.1-46-17-112.4-16.9h0ZM959.8,367.8h0c62.9,0,106.6,15.7,106.8,15.8,6.7,14.9,16.7,76.1-12.4,146.9l-4.3-7.7c-.4-.8-.8-1.5-1.2-2.3v-.2c-10.1-18.5-69.6-128.2-79.2-145h-19l-81.2,148.8c.7,1.5,4.1,10.5,8.8,20,1.2-2.3,5.6-10,10.6-19.5,5.9-10.9,13.7-25.2,22-40.7,32.4-17.8,66.7-1.7,84.9,22.6q-.1,0,0,0c-2.5-1.7-5.1-3.2-7.7-4.4-8.9-4.5-18.9-6.8-28.9-6.8-36.3,0-65.9,30.1-65.9,67.1s2.1,19.1,5.8,27.3c-68.2-93.1-54.1-187-45.7-206.1,0,0,43.7-15.8,106.6-15.8h0ZM938.7,375.3c-18.9,1-47.2,4.1-76.5,12.8l-.7.2h0l-3.5,1c-9.7,33.5-6.8,79.9,7.5,124.6,1.7-3.1,7.5-13.7,11.7-21.7-6.9-26.5-7.1-49.7-7.1-49.9v-.3h.2c.2-.2,15.4-4.5,35.8-7.2,1.5-3.1,8.2-15.3,16-29.5,5.8-10.1,11.1-20.1,16.5-30h0ZM981.3,375.3c19.3,34.7,41.8,76.1,56.7,103.9,8.6,15.8,15.1,27.8,16.8,31,9.6-31.4,11.1-51.2,11.8-59.7.2-1.4.2-2.6.2-3.5-5.6-1.7-11.1-3.5-16.7-4.9v.2c0,1.5-.2,5.7-1.7,17.7l-.2,1.3-.7-1.2c-4.3-7.7-7.9-14.4-12.1-22.3-5.2-9.8-11.7-22.1-22.4-41.1l-.4-.8.9.2c10.5,1.6,20.2,3.2,34.6,6.8h.2v.3c1.3,6.5,1.9,14.6,1.9,19.9,6,1.7,14.6,4.3,16.9,4.9-.5-22.5-5.1-37.5-5.6-39.2-13.1-3.9-40.8-11.2-80.2-13.5h0ZM960,394l10.9,20.2s-6.8-.3-10.9-.3-10.9.3-10.9.3l10.9-20.2ZM907.5,396.1l-.4.8c-4.3,7.5-5.9,10.7-8.4,15.3-1,1.7-2,3.7-3.4,6.3v.2h-.2c-.2,0-15.9,3.1-24,5.2l-.7.2v-.5c.8-10.6,1.2-14.6,2.3-20.3v-.2h.3c15.3-3.7,23.7-5.2,33.7-6.7l.8-.3h0ZM960,431.3c2.7,0,13.3.2,20.5.7h.2l.2.2,2.7,5.1c8.3,15.1,17,31.2,25.6,47-11.6-8.7-36.7-27.2-49.3-37.6-1.1,1.2-39.1,29.5-49,37.2,9.3-17.2,19.4-35.6,28.1-51.6l.2-.2h.2c6.5-.3,13.4-.4,20.4-.8h.2ZM966.1,457.6c11.7,10.1,25.7,19.9,43.1,26.5,3.7,6.8,7.6,14,10.9,20.1-37-19.9-55.9-49.3-54-46.6h0ZM974.3,519.9c16.8,0,31.6,8.2,31.6,8.2v17.1l-40.8,41.5h43.6s-6.1,7.9-10.3,12.5h-53.5v-12.5l46.8-45.6v-3.7s-3.9-4.8-17.6-4.8-16,4.1-16,4.1v9.3h-13.2v-17.7c0-.2,12.4-8.4,29.2-8.4h.2ZM933.4,521.7v77.5h-12.7v-71.1c6.3-5.5,12.7-6.3,12.7-6.3h0ZM922,617.9c11.2,7.6,24.4,11.7,38,11.7s26.2-3.7,37.2-11.7c-11.1,12-23,23.2-35.7,33.5l-1.7,1.3h0l-1.7-1.3c-12.9-10.1-24.9-21.5-36-33.5h0Z"/>
  </g>
  <g>
    <polygon class="cls-4" points="1376.4 589.7 1402.1 570.1 1870.5 570.1 1864.4 589.7 1376.4 589.7"/>
    <path class="cls-4" d="M1577.5,434.3l-154.6,119.6h45.7l24.5-19,76.8-19-10.7,38h35.5l33.4-119.6h-50.6ZM1572.2,508.6h-45.3l57.9-44.3-12.7,44.3h0Z"/>
    <path class="cls-4" d="M1782.3,434.3l-42,27.5h-54.4s-11.7-.2-14.3,8.8l-13.7,40.1s-6.2,13.5,12.5,15.6h76l-8.9,27.6h-86.6s-37.1-1.6-27.5-34.9l19.4-60.7s6.1-23.9,47.7-23.9,91.7-.1,91.9-.2h0Z"/>
    <path class="cls-4" d="M1920,434.3l-42,27.5h-54.4s-11.7-.2-14.3,8.8l-13.7,40.1s-6.2,13.5,12.5,15.6h76l-8.9,27.6h-86.6s-37.1-1.6-27.5-34.9l19.4-60.7s6.1-23.9,47.7-23.9,91.7-.1,91.9-.2h0Z"/>
  </g>
  <g id="Layer_2-2" data-name="Layer 2-2">
    <line class="cls-1" x1="1186.4" y1="553.8" x2="1270" y2="470.2"/>
    <line class="cls-1" x1="1270" y1="553.8" x2="1186.4" y2="470.2"/>
  </g>
  <g id="Layer_2-2-2" data-name="Layer 2-2-2">
    <line class="cls-1" x1="592.6" y1="553.8" x2="676.3" y2="470.2"/>
    <line class="cls-1" x1="676.3" y1="553.8" x2="592.6" y2="470.2"/>
  </g>
</svg>