<?xml version="1.0" encoding="utf-8"?>
<!-- Generator: Adobe Illustrator 28.5.0, SVG Export Plug-In . SVG Version: 9.03 Build 54727)  -->
<svg version="1.0" id="katman_1" xmlns="http://www.w3.org/2000/svg" xmlns:xlink="http://www.w3.org/1999/xlink" x="0px" y="0px"
	 viewBox="0 0 500 500" style="enable-background:new 0 0 500 500;" xml:space="preserve">
<style type="text/css">
	.st0{fill:#FFFFFF;}
	.st1{fill:#0A254E;}
	.st2{fill:#C6C7C9;}
	.st3{fill:#990000;}
</style>
<g transform="matrix(1.36091 0 0 -1.36091 -602.739 348.982)">
	<path class="st0" d="M796.6,147.3c-5.2,12.4-14,21.5-20.6,27c-9.7,8.5-24.2,12-31.7,13.5c-0.2,0.4-0.3,0.7-0.5,1.1
		c-0.9,1.7-2,3.5-3.1,5.2c-2.2,3.3-4.7,6.2-7.4,8.7c-12,11.2-28.2,19-48.1,23c-5,1-10.3,1.8-15.8,2.5c-4.5,0.5-9.9,1.1-15.3,1.4
		c-3.7,0.2-7.5,0.4-11.3,0.4c-39.9,0.4-79.2-9.5-127.6-32.1c-14.2-6.7-28.4-13.6-43.1-19.2c-2.9-1.1-5.8-2.2-8.8-3.2l-10-45.3
		l20.8-2.1c3.9-0.8,5.7-2.1,6.2-2.7c0,0,0,0,0,0c0.5-0.8,0.3-2.7,0-4.4l-0.3-1.5l-1.7-8l-4.9-23.1l-2.3-11l-1.6-7.5l-17.5-82.4
		h106.1c-0.5-9.4,0.6-18.2,3.2-26.2c0.5-1.7,1.1-3.3,1.8-5c7.4-17.4,22.8-30.4,42.3-35.9c11.4-3.2,23.4-4.9,33.9-4.9
		c29.8,0,51,7.7,66.6,24.1C717.9-48,726.1-31,731-8.6l23.5,108.5c2.8,1.1,5.2,2.2,7.2,3.3c2.1,1.1,5,2.9,7.6,4.9c0,0,0.1,0,0.1-0.1
		c0.5-0.4,1-0.7,1.4-1.1c2.7-2.2,4.6-5.2,6-7.9c3-5,6.1-12.5,7.9-22.9c0,0,14.1,21.3,16.2,42.5c0,0,0,0.1,0,0.1
		c0.1,0.6,0.1,1.3,0.1,1.9C801.6,130,800.1,139,796.6,147.3"/>
	<g transform="matrix(.8 0 0 -.8 548.789 199.506)">
		<path class="st1" d="M114.5-28.8c-53.6,0-102.5,16-152.3,39.3C-58.1,20-75.6,28-93.7,35H26.5l-8.1,38.2c1.5-0.1,3.1-0.3,4.7-0.4
			C34.9,72,46.7,72,56.1,73.7c8.9,1.6,15.7,5.1,20.5,9.5c8.1,8.9,7.6,37.4-25,24.7c-4-1.5-8-2.9-12-4.2c-9.1-2.8-18.1-5-26.3-6.6
			l-4.2,19.8h151.8c6.5-4.3,11.9-8.2,16-11.6c9.3,4.7,14.9,6.8,22.5,9.4c2.5,0.9,5.1,1.6,7.6,2.2c4.2,1,8.4,1.7,12.7,2.3
			c11.9,2.1,22.5,0.5,31.2-2.4c14.3-4.7,23.2-13.1,23.8-14.4c3.5,2,6.5,4,8.9,6c9.9,8.3,13.5,22.3,13.5,22.3
			c11.1-23.3,11.6-44.1,4.2-61.9c-6.1-14.6-16.8-24.9-23.2-30.3c-13-11.5-36.1-14.9-40.1-15.7c-0.4-0.5-1.1-2.3-1.5-3.3
			c-0.3-0.8-0.6-1.5-0.8-1.9c-1-1.9-2.2-3.8-3.4-5.7c-2.3-3.5-5-6.6-7.8-9.3C210.7-10.1,192-19,168.9-23.7c-6-1.2-12.4-2.2-18.9-2.9
			c-5.5-0.6-12-1.3-18.7-1.7C125.6-28.7,120-28.9,114.5-28.8L114.5-28.8z M-99.1,45.5l-2.8,12.4l-3.8,16.7l-0.6,2.6l14.7,1.5
			c5,0.9,11.6,3.1,14.9,8c0.4,0.6,1.1,1.6,1.6,3.4c0.5,1.6,0.8,3.9,0.4,6.9c-0.1,1-0.3,2-0.5,3.2l-1.8,8.3l-6.6,31.3l-3.1,14.7
			l-2,9.4l-19.3,90.5H23.4l-0.5,4.3c-0.1,0.7-0.2,1.4-0.2,2.2c-1.2,12.3-0.2,23.6,3.2,33.7c0.6,1.9,1.2,3.6,1.9,5.3
			c7.9,18.7,24.7,32.8,46,38.8c13.3,3.7,27.4,5.8,39.5,5.8c34.2,0,58.2-8.5,75.6-26.8c13.5-14.2,22.8-33.7,28.5-59.8l28.2-130
			l0.1-0.5H212h-50.4H143h-8.1l-1.1,4.7l-2.6,11.5l-3.5,15.6l10,0.8c3.1,0.3,13.8,1.6,18.8,7.6c1,1.2,4.1,5,2.4,13.7l-13.7,64
			c-3.4,14.8-6.5,20.4-10.5,24.6c-3.6,3.8-9,5.8-15.3,5.8c-17.9,0-20.5-10.1-20.9-17.7c-0.2-3.5,0.2-8.1,1.2-13.2l21-96.8l2.4-11.1
			l2.1-9.5H11.7l-7.1,31.8l10.1,0.8c0.8,0.1,2,0.2,3.5,0.4c4.5,0.7,11.4,2.6,15.2,7.1c0.3,0.3,0.5,0.7,0.7,1c2.1,3.1,2.7,7,1.9,12.1
			l-1.4,7h-51.4l3.6-17.1l2-9.3l5-23.4l4.4-20.7l4.7-22.2l4.4-20.7l6.1-28.8h-37.3h-16.6h-13.2L-99.1,45.5z M127,169.8l-16.7,77.4
			c-1.1,5.5-1.1,8.8-1,10.4c0.2,4.5,0.4,7.7,10.4,7.7c3.3,0,6.1-0.9,7.6-2.6c2.2-2.3,4.8-5.9,7.9-19.7l13.6-63.8
			c0.2-1,0.6-3.9-0.2-4.9c-1.4-1.7-6.5-3.4-11.6-3.8L127,169.8z M9.7,170.2c-4,0.2-8.1,0.3-12.1,0.3l-1.4,6.5h29.6
			c0.1-1.1,0-2.2-0.5-2.7c-1.5-1.8-6.4-3.4-11.5-3.8L9.7,170.2z M73.6,245.9c-0.1,1.2-0.2,2.5-0.3,3.9
			C73.3,248.4,73.5,247.1,73.6,245.9z"/>
		<path class="st2" d="M164.8-9.4c21.8,9.1,28,19.4,27.1,28.8c2,0.9,4.2,1.8,6.6,2.6c1.2,0.3,2.3,0.4,3.3,0.4
			c6.3,0.2,7.5-4.2,7.7-6.1c1.3-10.6-16.3-17.3-17-17.5c-1.7-0.6-3.5-1.3-5.5-2C178.9-6,171.4-8,164.8-9.4z M110.2,5.8
			c-11.9,0.3-21,3.9-21,3.9c17.3-3.4,31.2-0.7,40.3,5c7.8,4.9,11.9,11.9,11.3,19c-1.4,15-23.5,16.7-23.9,16.7
			c5.8,0.8,10.9,0.8,15.3,0.3c13.6-1.6,20.2-8.8,20-17.2c0-0.6-0.1-1.1-0.1-1.7c0-0.2-0.1-0.5-0.1-0.7c0-0.2,0-0.3-0.1-0.5
			c-0.7-3.2-2.3-6.5-4.9-9.7c-1.8-2.2-4.1-4.4-6.8-6.4C130.3,7.4,119.4,5.6,110.2,5.8L110.2,5.8z M116.8,50.4
			C116.8,50.4,116.8,50.4,116.8,50.4L116.8,50.4L116.8,50.4z M227.4,34.8c-3.2,0-6.4,0.1-10,0.3c-0.9,0-1.7,0.1-2.6,0.1
			c4.4-0.1,48.7,0.2,61.9,32.6c7.5,18.3-12.2,8.7-40,5.2c0.6,0.1,1.2,0.2,1.7,0.3v0c0.1,0,0.1,0,0.2,0c0.2,0,0.5,0.1,0.7,0.1
			c6.9,1.2,11.9,2.7,16,4.3c6.7,2.2,12.3,4.7,17,7.3c3.5,1.9,6.5,3.8,9.1,5.7c8.6,6.2,11.9,11.3,11.9,11.3s0.4-12.2-3.6-24.9
			c-0.7-3-2.1-6.4-4.3-10.1c-0.7-1.2-1.3-2.3-2.1-3.4v0c-0.6-0.9-1.2-1.8-1.8-2.7c-14.1-19.7-29.7-21.9-37.7-24
			C237.7,35.3,232.7,34.8,227.4,34.8L227.4,34.8z M36.2,72.3c-4.3,0-8.7,0.2-13.2,0.6c0.2,0,38.1-0.4,34.4,19.8
			c-1.5,8-8.5,11.5-17.9,11c4,1.3,8.1,2.6,12,4.2c32.6,12.7,33.2-15.8,25-24.7c-4.8-4.4-11.6-7.9-20.5-9.5
			C50.2,72.6,43.4,72.2,36.2,72.3z M250.2,92.2c0.2,1.8-0.5,3.7-1.4,5.2c-3.7,6-11.7,7.9-18.2,8.3c-2.4,0.2-4.9,0.1-7.7-0.4
			c2.3,0.5,5.1,1,8.2,1.4c6.3,0.8,11.4,0.2,18.6-0.8c4.5-0.6,9.6-2.5,13.5-4.4c1.5-0.8,2.9-1.6,4.2-2.6c-1-0.5-2-0.9-2.9-1.3
			c-1.5-0.6-2.8-1.2-4-1.7v0C257.4,94.6,253.9,93.3,250.2,92.2L250.2,92.2z"/>
		<path class="st3" d="M-86.9,60.7l-0.7,3.4c2,0.4,4,0.9,6.1,1.7c3.6,1.2,7.3,2.9,10.6,5.4c2.6,1.9,5,4.2,6.9,7.1
			c1.8,2.6,3,5.5,3.8,8.6c0.6,2.4,0.9,4.9,0.9,7.5c0,2.9-0.3,5.9-1,9l-0.9,4l-7.1,33.5l-3.4,16l-2,9.3L-87.8,233l-1.4,6.4H74.5
			l17.6-81.3l2.2-10.4l1.1-5h-7.8H26.4h-2.5l-0.8,3.4c5.3,1.1,11.4,3.1,16.6,7c1.9,1.4,3.6,2.9,5.2,4.8c0.1,0.1,0.1,0.2,0.2,0.3
			c2.2,2.6,3.8,5.6,4.8,8.8c1.6,4.9,2,10.5,0.9,16.5l0,0.2L47,202.8H35.9h-71.4h-11.1l1.4-6.4l5.7-26.9l2-9.2l4.1-19.2l0.1-0.6
			l6.7-31.6l0.1-0.6l3.4-16l2.9-13.7l3.8-17.9h-7.8h-44h-16.2L-86.9,60.7z M147,142.6l-0.8,3.4c5.3,1.1,11.5,3.2,16.7,7.1
			c1.9,1.4,3.7,3,5.3,5c5.7,6.9,7.6,16,5.6,26.3l-13.7,64.3c-3.6,16-7.5,24.6-14.3,31.7c-6.5,6.8-15.8,10.6-26.3,10.6
			c-2.1,0-4-0.1-5.9-0.4c-1.7,0.2-3.4,0.4-5.2,0.4c-13.5,0-23.8-4.7-29.9-13.1c-1.7-2.3-3-4.9-4-7.8c0,0,0,0.1,0,0.1
			c0,0-1.4-0.3-4-0.4l-7.4-0.3c-0.3,0-0.7,0-1.3,0c-0.4,0-1,0-1.6,0c-1,0-2.1,0.1-3.3,0.2c-6,0.8-13.1,3.4-15.8,7
			c-3.8,5-1.2,13,0.6,17.3c1.9,4.4,4.4,8.5,7.5,12.2c7,8.4,16.9,14.7,28.6,17.9c10.3,2.9,21,4.6,30.7,5.1c26.3-0.9,45-8,58.3-22
			c11.5-12.1,19.6-29.3,24.6-52.5l24.3-112.1H208h-58.4L147,142.6z"/>
		<path class="st0" d="M106.5-14.3c-5,0-16.8,0.4-32,2.7c-2.1,0.3-4.3,0.7-6.5,1.1c-1,0.2-2.1,0.4-3.1,0.6c-3.1,0.6-6.4,1.3-9.7,2.1
			C49.6-6.7,43.8-5.1,38-3.3c-7,2.2-14.2,4.9-21.3,8.2c-1.6,0.7-3.2,1.5-4.7,2.2c-3.9,1.9-7.8,4-11.6,6.3l0,0
			C3.1,12.8,44.2,1,78.7,0.3C67.6,4,53.6,11.3,40.9,27.1C104.7,4.2,122.7,29.7,127,38c0,0-29.7-21.2-55.6-6.3
			c-1.2,0.7-4.9,3.5-5.7,4.9c-8.4,13.1,2.3,27.9,17.8,32c15.5,4.1,55.6-2,55.6-2c8-1,15.8-2.8,23-5.2c4.6-1.5,8.9-3.2,12.8-5.1
			c2-1,4-2,5.8-3.1c0.5-0.3,0.9-0.5,1.4-0.8c0.5-0.3,1-0.7,1.5-1c2.2-1.4,4.2-2.9,5.9-4.4c0.7-0.7,1.4-1.3,2.1-2c0.9-1,1.8-2,2.5-3
			c-1.1,0.1-2.2,0.2-3.5,0.3l-0.5,0c-0.6,0-1.1,0.1-1.8,0.1c-1.8-0.1-3.5-0.2-5.2-0.4c-1.2-0.2-2.5-0.4-3.7-0.7
			c-4,2.8-7.6,5.5-11.5,7.8c-0.1,0-0.2,0.1-0.2,0.1c-4.2,2.4-8.7,4.3-14.6,5.6c-49.7,10.7-70.4-18.3-70.4-18.3
			c11,8.7,23.3,13,34,13.8c0.3,0,22.5-1.7,23.9-16.7c0.6-7-3.4-14.1-11.3-19c-9-5.6-22.9-8.4-40.3-5c-3.9,0.9-7,1.9-8.6,2.5
			c-0.4,0.1-0.7,0.2-0.9,0.3c-0.2,0.1-0.4,0.2-0.4,0.2C87.6,5.9,101.1-1.5,121-1.5c0.5,0,0.9,0,1.4,0c1.4,0,2.7,0,4,0
			c32.9,1.8,45,9.1,55.7,15.5c3.2,1.9,6.3,3.8,9.8,5.4c0.9-9.4-5.3-19.7-27.1-28.8c-15.6-3.2-25.8-3.6-26-3.6h-0.1l-0.1,0
			c-10.1-1-20.1-1.5-29.7-1.4C109-14.3,108.1-14.4,106.5-14.3z M175.2,16.7c-0.2,0-0.5,0.2-0.8,0.4c-0.2,0.2-0.5,0.4-0.7,0.6
			c-0.1,0.1-0.1,0.1-0.2,0.2c-0.1,0.1-0.1,0.1-0.2,0.2c-0.1,0.1-0.1,0.1-0.1,0.2c-0.5,0.6-0.8,1.3-1.1,2.1c0,0.1-0.1,0.1-0.1,0.2
			c0,0.1-0.1,0.2-0.1,0.2c0,0,0,0.1,0,0.1c-0.1,0.3-0.1,0.6-0.2,0.9v0.1c0,0.3-0.1,0.6-0.1,0.9v0c0,1.6,0.4,3.1,1.1,4.4l0.1,0.2
			c0.9,1.8,2.5,3.6,4.9,5.3c0.3,0.2,0.5,0.4,0.8,0.5c1.1,0.7,2.2,1.2,3.2,1.5c2.5,0.7,4.4,0.1,5.8-1.1c-6-0.3-10.6-7.8-6.3-13.1
			c-2.1-1.1-4.2-2.3-5.8-3.7C175.3,16.7,175.3,16.7,175.2,16.7L175.2,16.7z M214.7,35.2c-0.3,0-0.4,0-0.4,0
			c-2.6,3.5-12.5,14.2-27.5,23.3c-6.8,4.2-14.7,8-23.4,10.7c-6.1,1.9-12.6,3.3-19.5,3.8c-1.6,0.3-3.2,0.6-4.8,0.8
			c-4.1,0.7-7.8,1.3-11,2.1c-8.9,2.3-14,6.1-12,17c2.1,11.3,10.3,13,19.7,11.1c5.9-1.2,12.3-3.9,17.9-6.7c0.9-0.4,1.9-0.9,2.9-1.4
			c3.6-2,7.5-4.6,10.4-6.3c16.1-9.9,40.9-20.6,68.8-16.7c0.2,0,0.7,0.1,0.7,0.1c27.8,3.5,47.5,13.1,40-5.2
			C263.4,35.4,219.1,35,214.7,35.2L214.7,35.2z M236.3,41.2c9.2-0.2,3,3.9,3,3.9s-12.7,8.8-13,4.8C226,46,227.1,41.4,236.3,41.2z
			 M-16.4,60.7l-3.8,17.9l-2.9,13.7l-3.4,16l-0.1,0.6l-6.7,31.6l-0.1,0.6l-4.1,19.2l-2,9.2l-5.7,26.9l-1.4,6.4h11.1l1.3-6.4
			l5.6-26.3l2-9.2l4.4-20.5l0.8-3.7L-17,116l1.2-5.6l3.7-17.4l3.5-16.4l3.4-15.9H-13H-16.4z M218.2,87.3c-5.6,0-11.3,0.4-16.8,1.3
			c-2,0.3-3.9,0.7-5.9,1.1c-2.7,0.8-6,2-9.6,4.2c3.4,0.9,7.9,2.4,13.1,4.3c2.8,1,5.7,2,8.7,3c3,1,6,2,9.1,2.9
			c1.1,0.3,3.2,0.9,6.1,1.5c2.8,0.4,5.3,0.5,7.7,0.4c6.5-0.5,14.4-2.3,18.2-8.3c0.9-1.5,1.6-3.4,1.4-5.2c-1.2-0.4-2.5-0.8-3.7-1.1
			C237.1,88.5,227.6,87.3,218.2,87.3z M95.4,142.6l-1.1,5l-2.2,10.4l-17.6,81.3c0,0-0.4,2-0.8,5.1c-0.1,0.4-0.1,0.9-0.1,1.4
			c0.1-0.5,0.1-0.9,0.1-1.4c0.3-2.7,0.7-4.7,0.8-5.1l-0.5,2.4c-1.3,6.5-1.8,12.2-1.5,17c0.2,4,0.9,7.6,2.1,11c0,0.1,0,0.2,0.1,0.3
			c1,2.8,2.4,5.5,4,7.8c6.1,8.4,16.4,13.1,29.9,13.1c1.8,0,3.5-0.1,5.2-0.4c-10.6-1.2-18.8-5.6-23.9-12.8c-3.6-5-5.8-11.4-6.2-18.9
			c-0.3-4.8,0.2-10.6,1.5-17l18.9-87.6l2.3-10.6l0.2-1.1h-7.8H95.4z M215.8,142.8l-24.3,111.6c-5.1,23.2-13.1,40.3-24.6,52.3
			c-13.3,13.9-31.9,21-58.3,21.9c1.6,0.1,3.2,0.1,4.8,0.1c29.7,0,50.3-7,64.7-22c11.5-12.1,19.6-29.2,24.6-52.3l24.3-111.6h-7.8
			L215.8,142.8z M73.2,249.9c-0.1,2.1-0.2,4.3-0.2,6.7C73,254.2,73.1,252,73.2,249.9z"/>
	</g>
</g>
</svg>
