<?xml version="1.0" encoding="utf-8"?>
<!-- Generator: Adobe Illustrator 28.5.0, SVG Export Plug-In . SVG Version: 9.03 Build 54727)  -->
<svg version="1.0" id="Layer_1" xmlns="http://www.w3.org/2000/svg" xmlns:xlink="http://www.w3.org/1999/xlink" x="0px" y="0px"
	 viewBox="0 0 1400 950" style="enable-background:new 0 0 1400 950;" xml:space="preserve">
<style type="text/css">
	.st0{fill-rule:evenodd;clip-rule:evenodd;fill:#FFFFFF;}
	.st1{fill:#FFFFFF;}
	.st2{fill:none;stroke:#AAFF00;stroke-width:5;stroke-miterlimit:10;}
	.st3{fill:none;}
</style>
<g>
	<g>
		<g>
			<path class="st0" d="M602.3,518.2c0-8.4,6.3-14.7,14.5-14.7c8,0,14.4,6.3,14.4,14.7c0,8.6-6.3,14.8-14.4,14.8
				C608.7,533,602.3,526.7,602.3,518.2L602.3,518.2z M616.8,536c9.7,0,17.9-7.5,17.9-17.8c0-10.2-8.3-17.7-17.9-17.7
				c-9.8,0-18,7.5-18,17.7S607,536,616.8,536L616.8,536z M613,519.6h3.6l5.4,8.9h3.5l-5.8-9c3-0.4,5.3-2,5.3-5.6
				c0-4-2.4-5.8-7.2-5.8H610v20.5h3.1L613,519.6L613,519.6z M613,516.9v-6.3h4.2c2.2,0,4.5,0.5,4.5,3c0,3.2-2.3,3.3-5,3.3H613
				L613,516.9z"/>
			<path class="st0" d="M396.1,480.8l29.6-44.9l1.6,44.9H396.1L396.1,480.8z M514.6,480.2l29.5-44.7l1.5,44.7H514.6L514.6,480.2z
				 M590.8,534.3l-9.6-139.9h-76.6l-9,32c0,0,11.7,0,11.9,0l-37.8,60l-5.3-91.9h-77.7l-8.8,31.8l11.9,0.1l-50.8,77l-41.8-0.2
				c-4.4,0-21.3-4-21.3-25c0-20.9,19.9-51.3,40.2-51.3l8.5,0.2c-1.4,5.2-4.4,15.9-4.4,15.9h37.2l13.4-48.6l-57.5-0.2
				c-33.6-0.3-64.3,25.7-73.4,52l15-51.7h-51.1l-9,32l13.2-0.1l-13.3,46.8l-33.4-78.5h-47.8l-9,31.8h13.1L87.9,534.2h38.2
				c0,0,14.7-53.4,18.5-67.2c5.4,13,27.8,67.2,27.8,67.2h42.5l19.5-68.5c-1.7,10.2-1.8,20.9,0,31.4c3.7,22.4,25.6,37.1,49.4,37.1
				H361l13.2-20.1h54.4l1.1,19.8H478l12.3-19.8H546l2.2,20.1L590.8,534.3L590.8,534.3z"/>
		</g>
		<g>
			<path class="st1" d="M92.4,586.1c3-5.9,7.4-10.4,13-13.7s12.3-4.9,20-4.9c6.6,0,12.5,1.2,17.6,3.7c5.2,2.5,9.4,6,12.7,10.5
				s5.4,9.8,6.5,15.8h-25.1c-1.1-2.5-2.8-4.5-4.9-5.8c-2.1-1.4-4.5-2.1-7.2-2.1c-4,0-7.2,1.5-9.5,4.5s-3.5,7-3.5,12.1
				s1.2,9.1,3.5,12.1s5.5,4.5,9.5,4.5c2.7,0,5.1-0.7,7.2-2.1c2.1-1.4,3.7-3.3,4.9-5.8h25.1c-1.1,6-3.2,11.3-6.5,15.8
				s-7.5,8-12.7,10.5s-11.1,3.7-17.6,3.7c-7.7,0-14.3-1.6-20-4.9c-5.6-3.3-10-7.8-13-13.7s-4.6-12.6-4.6-20.1
				C87.9,598.7,89.4,592,92.4,586.1z"/>
			<path class="st1" d="M194.1,568.3v42.8c0,3.5,0.8,6.3,2.3,8.3s4,3.1,7.5,3.1c3.4,0,6-1,7.6-3.1c1.6-2,2.5-4.8,2.5-8.3v-42.8h23.7
				v42.8c0,7.2-1.5,13.4-4.5,18.5s-7.1,9-12.3,11.5c-5.2,2.6-11,3.9-17.5,3.9c-6.4,0-12.1-1.3-17.1-3.9c-5-2.6-8.8-6.4-11.6-11.5
				s-4.2-11.3-4.2-18.6v-42.8L194.1,568.3L194.1,568.3z"/>
			<path class="st1" d="M286.1,644.3L271.9,617h-0.1v27.2H248v-75.9h35.4c6.1,0,11.4,1.1,15.8,3.3s7.6,5.1,9.8,8.9
				c2.2,3.8,3.3,8,3.3,12.7c0,5.1-1.4,9.6-4.2,13.5c-2.8,3.9-6.9,6.8-12.2,8.5l16.5,29.1H286.1z M271.7,601.1h9.4
				c2.3,0,4-0.5,5.1-1.6c1.1-1,1.7-2.7,1.7-4.9c0-2-0.6-3.6-1.8-4.7c-1.2-1.1-2.9-1.7-5.1-1.7h-9.4L271.7,601.1L271.7,601.1z"/>
			<path class="st1" d="M358,644.3L343.7,617h-0.1v27.2h-23.8v-75.9h35.4c6.1,0,11.4,1.1,15.8,3.3s7.6,5.1,9.8,8.9
				c2.2,3.8,3.3,8,3.3,12.7c0,5.1-1.4,9.6-4.2,13.5c-2.8,3.9-6.9,6.8-12.2,8.5l16.5,29.1H358z M343.6,601.1h9.4c2.3,0,4-0.5,5.1-1.6
				c1.1-1,1.7-2.7,1.7-4.9c0-2-0.6-3.6-1.8-4.7c-1.2-1.1-2.9-1.7-5.1-1.7h-9.4L343.6,601.1L343.6,601.1z"/>
			<path class="st1" d="M415.5,587.3v9.3h23.6v17.9h-23.6v10.7h26.8v19h-50.6v-75.9h50.6v19H415.5z"/>
			<path class="st1" d="M524.1,644.3h-23.8l-25.2-38.2v38.2h-23.8v-75.9h23.8l25.2,38.8v-38.8h23.8V644.3z"/>
			<path class="st1" d="M594.5,568.3v18.9h-20.2v57.1h-23.8v-57.1h-20v-18.9H594.5z"/>
			<path class="st1" d="M643,568.3v75.9h-23.8v-75.9H643z"/>
			<path class="st1" d="M661,638.6c-5.9-4.3-9.1-10.5-9.6-18.7h25.3c0.4,4.4,2.3,6.5,5.8,6.5c1.3,0,2.4-0.3,3.3-0.9
				c0.9-0.6,1.3-1.6,1.3-2.8c0-1.8-1-3.2-2.9-4.3s-4.9-2.4-9-3.8c-4.9-1.7-8.9-3.4-12.1-5c-3.2-1.6-5.9-4-8.2-7.2
				c-2.3-3.1-3.4-7.2-3.3-12.1c0-4.9,1.3-9.1,3.8-12.6s6-6.1,10.4-7.9c4.4-1.8,9.3-2.7,14.9-2.7c9.3,0,16.7,2.1,22.2,6.4
				c5.5,4.3,8.3,10.3,8.6,18.1h-25.6c-0.1-2.1-0.6-3.7-1.6-4.6c-1-0.9-2.2-1.4-3.6-1.4c-1,0-1.8,0.3-2.5,1c-0.6,0.7-1,1.6-1,2.8
				c0,1.7,0.9,3.1,2.8,4.2c1.9,1.1,4.9,2.5,9.1,4c4.8,1.8,8.7,3.5,11.9,5.1c3.1,1.6,5.8,3.9,8.1,6.9c2.3,2.9,3.4,6.6,3.4,11
				c0,4.6-1.1,8.8-3.4,12.5c-2.3,3.7-5.6,6.6-10,8.6c-4.4,2.1-9.5,3.1-15.6,3.1C674.4,645,666.9,642.9,661,638.6z"/>
			<path class="st1" d="M728,638.6c-5.9-4.3-9.1-10.5-9.6-18.7h25.3c0.4,4.4,2.3,6.5,5.8,6.5c1.3,0,2.4-0.3,3.3-0.9
				c0.9-0.6,1.3-1.6,1.3-2.8c0-1.8-1-3.2-2.9-4.3s-4.9-2.4-9-3.8c-4.9-1.7-8.9-3.4-12.1-5c-3.2-1.6-5.9-4-8.2-7.2
				c-2.3-3.1-3.4-7.2-3.3-12.1c0-4.9,1.3-9.1,3.8-12.6s6-6.1,10.4-7.9c4.4-1.8,9.3-2.7,14.9-2.7c9.3,0,16.7,2.1,22.2,6.4
				c5.5,4.3,8.3,10.3,8.6,18.1h-25.6c-0.1-2.1-0.6-3.7-1.6-4.6c-1-0.9-2.2-1.4-3.6-1.4c-1,0-1.8,0.3-2.5,1c-0.6,0.7-1,1.6-1,2.8
				c0,1.7,0.9,3.1,2.8,4.2c1.9,1.1,4.9,2.5,9.1,4c4.8,1.8,8.7,3.5,11.9,5.1c3.1,1.6,5.8,3.9,8.1,6.9c2.3,2.9,3.4,6.6,3.4,11
				c0,4.6-1.1,8.8-3.4,12.5c-2.3,3.7-5.6,6.6-10,8.6c-4.4,2.1-9.5,3.1-15.6,3.1C741.4,645,733.9,642.9,728,638.6z"/>
			<path class="st1" d="M811.1,568.3v42.8c0,3.5,0.8,6.3,2.3,8.3s4,3.1,7.5,3.1s6-1,7.6-3.1c1.6-2,2.5-4.8,2.5-8.3v-42.8h23.7v42.8
				c0,7.2-1.5,13.4-4.5,18.5s-7.1,9-12.3,11.5c-5.2,2.6-11,3.9-17.5,3.9s-12.1-1.3-17.1-3.9c-5-2.6-8.8-6.4-11.6-11.5
				s-4.2-11.3-4.2-18.6v-42.8L811.1,568.3L811.1,568.3z"/>
			<path class="st1" d="M888.8,587.3v9.3h23.6v17.9h-23.6v10.7h26.8v19H865v-75.9h50.6v19H888.8z"/>
			<path class="st1" d="M931.8,638.6c-5.9-4.3-9.1-10.5-9.6-18.7h25.3c0.4,4.4,2.3,6.5,5.8,6.5c1.3,0,2.4-0.3,3.3-0.9
				c0.9-0.6,1.3-1.6,1.3-2.8c0-1.8-1-3.2-2.9-4.3s-4.9-2.4-9-3.8c-4.9-1.7-8.9-3.4-12.1-5c-3.2-1.6-5.9-4-8.2-7.2
				c-2.3-3.1-3.4-7.2-3.3-12.1c0-4.9,1.3-9.1,3.8-12.6s6-6.1,10.4-7.9c4.4-1.8,9.3-2.7,14.9-2.7c9.3,0,16.7,2.1,22.2,6.4
				c5.5,4.3,8.3,10.3,8.6,18.1h-25.6c-0.1-2.1-0.6-3.7-1.6-4.6c-1-0.9-2.2-1.4-3.6-1.4c-1,0-1.8,0.3-2.5,1c-0.6,0.7-1,1.6-1,2.8
				c0,1.7,0.9,3.1,2.8,4.2c1.9,1.1,4.9,2.5,9.1,4c4.8,1.8,8.7,3.5,11.9,5.1c3.1,1.6,5.8,3.9,8.1,6.9c2.3,2.9,3.4,6.6,3.4,11
				c0,4.6-1.1,8.8-3.4,12.5c-2.3,3.7-5.6,6.6-10,8.6c-4.4,2.1-9.5,3.1-15.6,3.1C945.2,645,937.7,642.9,931.8,638.6z"/>
		</g>
	</g>
	<g>
		<polyline class="st2" points="519,134.2 782,502.3 922.3,237.3 1093.8,611.5 1187.4,471.2 1312.1,705 		"/>
	</g>
</g>
<rect class="st3" width="1400" height="950"/>
</svg>
