<?xml version="1.0" encoding="utf-8"?>
<!-- Generator: Adobe Illustrator 28.5.0, SVG Export Plug-In . SVG Version: 9.03 Build 54727)  -->
<svg version="1.0" id="Layer_1" xmlns="http://www.w3.org/2000/svg" xmlns:xlink="http://www.w3.org/1999/xlink" x="0px" y="0px"
	 viewBox="0 0 1400 950" style="enable-background:new 0 0 1400 950;" xml:space="preserve">
<style type="text/css">
	.st0{fill:none;}
	.st1{fill:none;stroke:#AAFF00;stroke-width:5;stroke-miterlimit:10;}
	.st2{fill-rule:evenodd;clip-rule:evenodd;fill:#FFFFFF;}
	.st3{fill:#FFFFFF;}
</style>
<rect class="st0" width="1400" height="950"/>
<g>
	<g>
		<polyline class="st1" points="88.4,705 213.1,471.2 306.7,611.5 478.2,237.3 618.5,502.3 881.5,134.2 		"/>
	</g>
	<g>
		<g>
			<g>
				<path class="st2" d="M1279.2,518.2c0-8.4,6.3-14.7,14.5-14.7c8,0,14.4,6.3,14.4,14.7c0,8.6-6.3,14.8-14.4,14.8
					S1279.2,526.7,1279.2,518.2L1279.2,518.2z M1293.7,536c9.7,0,17.9-7.5,17.9-17.8c0-10.2-8.3-17.7-17.9-17.7
					c-9.8,0-18,7.5-18,17.7S1283.9,536,1293.7,536L1293.7,536z M1289.9,519.6h3.6l5.4,8.9h3.5l-5.8-9c3-0.4,5.3-2,5.3-5.6
					c0-4-2.4-5.8-7.2-5.8h-7.8v20.5h3.1L1289.9,519.6L1289.9,519.6z M1289.9,516.9v-6.3h4.2c2.2,0,4.5,0.5,4.5,3
					c0,3.2-2.3,3.3-5,3.3H1289.9L1289.9,516.9z"/>
				<path class="st2" d="M1073,480.8l29.6-44.9l1.6,44.9H1073L1073,480.8z M1191.5,480.2l29.5-44.7l1.5,44.7H1191.5L1191.5,480.2z
					 M1267.7,534.3l-9.6-139.9h-76.6l-9,32c0,0,11.7,0,11.9,0l-37.8,60l-5.3-91.9h-77.7l-8.8,31.8l11.9,0.1l-50.8,77l-41.8-0.2
					c-4.4,0-21.3-4-21.3-25c0-20.9,19.9-51.3,40.2-51.3l8.5,0.2c-1.4,5.2-4.4,15.9-4.4,15.9h37.2l13.4-48.6l-57.5-0.2
					c-33.6-0.3-64.3,25.7-73.4,52l15-51.7h-51.1l-9,32l13.2-0.1l-13.3,46.8l-33.4-78.5h-47.8l-9,31.8h13.1l-29.7,107.7H803
					c0,0,14.7-53.4,18.5-67.2c5.4,13,27.8,67.2,27.8,67.2h42.5l19.5-68.5c-1.7,10.2-1.8,20.9,0,31.4c3.7,22.4,25.6,37.1,49.4,37.1
					h77.2l13.2-20.1h54.4l1.1,19.8h48.3l12.3-19.8h55.7l2.2,20.1L1267.7,534.3L1267.7,534.3z"/>
			</g>
		</g>
		<g>
			<path class="st3" d="M593.8,644.8h-24l-25.4-38.5v38.5h-24v-76.5h24l25.4,39.1v-39.1h24V644.8z"/>
			<path class="st3" d="M628.6,587.5v9.4h23.8v18h-23.8v10.8h27v19.1h-51v-76.5h51v19.1h-27V587.5z"/>
			<path class="st3" d="M774.9,568.3l-17.5,76.5h-29.8l-8.9-43.4l-8.9,43.4H680l-17.5-76.5h25.8l6.9,48.2l10.4-48.2h26.1l10.4,48.2
				l6.9-48.2H774.9z"/>
			<path class="st3" d="M855.9,568.3v19h-30v10.6h21.6v18h-21.6v28.8h-24v-76.5h54V568.3z"/>
			<path class="st3" d="M881.4,640.5c-6-3.4-10.8-8.1-14.3-14c-3.5-6-5.3-12.7-5.3-20.2s1.8-14.2,5.3-20.2s8.3-10.6,14.3-14
				s12.6-5,19.8-5s13.8,1.7,19.8,5s10.7,8,14.2,14s5.2,12.7,5.2,20.2s-1.7,14.2-5.2,20.2s-8.2,10.7-14.3,14
				c-6,3.4-12.6,5.1-19.7,5.1C894,645.6,887.4,643.9,881.4,640.5z M912.3,618.6c2.6-3.1,3.9-7.2,3.9-12.4c0-5.3-1.3-9.4-3.9-12.5
				c-2.6-3.1-6.3-4.6-11-4.6c-4.8,0-8.5,1.5-11.1,4.6s-3.9,7.2-3.9,12.5c0,5.2,1.3,9.3,3.9,12.4c2.6,3.1,6.3,4.6,11.1,4.6
				C906,623.2,909.7,621.7,912.3,618.6z"/>
			<path class="st3" d="M987.6,644.8l-14.4-27.4h-0.1v27.4h-24v-76.5h35.6c6.2,0,11.5,1.1,15.9,3.3s7.7,5.2,9.9,9s3.3,8,3.3,12.8
				c0,5.1-1.4,9.7-4.3,13.6c-2.8,4-6.9,6.8-12.3,8.5l16.6,29.3L987.6,644.8L987.6,644.8z M973.1,601.4h9.5c2.3,0,4-0.5,5.2-1.6
				c1.2-1,1.7-2.7,1.7-4.9c0-2-0.6-3.6-1.8-4.8s-2.9-1.7-5.1-1.7h-9.5L973.1,601.4L973.1,601.4z"/>
			<path class="st3" d="M1113.4,568.3v76.5h-23.9v-38.1l-11.8,38.1h-20.5l-11.8-38.1v38.1h-24v-76.5h29.4l16.9,45.9l16.4-45.9
				H1113.4z"/>
			<path class="st3" d="M1173.2,633.2h-25.5l-3.8,11.6h-25.2l28-76.5h27.7l27.9,76.5H1177L1173.2,633.2z M1167.4,615.2l-6.9-21.3
				l-6.9,21.3H1167.4z"/>
			<path class="st3" d="M1267.7,568.3v19h-20.3v57.5h-24v-57.5h-20.1v-19H1267.7z"/>
		</g>
	</g>
</g>
</svg>
