<?xml version="1.0" encoding="UTF-8"?>
<svg xmlns="http://www.w3.org/2000/svg" version="1.1" xmlns:xlink="http://www.w3.org/1999/xlink" viewBox="0 0 1920 1024">
  <defs>
    <style>
      .cls-1, .cls-2, .cls-3, .cls-4, .cls-5, .cls-6, .cls-7 {
        stroke-width: 0px;
      }

      .cls-1, .cls-5, .cls-7 {
        fill-rule: evenodd;
      }

      .cls-1, .cls-6 {
        fill: #fff;
      }

      .cls-8 {
        stroke: #fff;
        stroke-miterlimit: 10;
        stroke-width: 4px;
      }

      .cls-8, .cls-2 {
        fill: none;
      }

      .cls-3 {
        fill: #af0;
      }

      .cls-9 {
        clip-path: url(#clippath-1);
      }

      .cls-4 {
        fill: #212121;
      }

      .cls-10 {
        clip-path: url(#clippath);
      }

      .cls-5 {
        fill: #939393;
      }

      .cls-7 {
        fill: #545454;
      }
    </style>
    <clipPath id="clippath">
      <rect class="cls-2" x="80" y="849.9" width="510.5" height="39.8"/>
    </clipPath>
    <clipPath id="clippath-1">
      <rect class="cls-2" x="1329.5" y="129.3" width="510.5" height="39.8"/>
    </clipPath>
  </defs>
  <g id="Layer_2" data-name="Layer 2">
    <rect class="cls-4" width="1920" height="1024"/>
  </g>
  <g id="Layer_1" data-name="Layer 1">
    <g id="Layer_1-2" data-name="Layer 1">
      <rect class="cls-2" width="1920" height="1024"/>
    </g>
    <g id="Layer_2-2" data-name="Layer 2">
      <line class="cls-8" x1="901.2" y1="570.8" x2="1018.8" y2="453.2"/>
      <line class="cls-8" x1="1018.8" y1="570.8" x2="901.2" y2="453.2"/>
    </g>
    <g id="wireframe">
      <g class="cls-10">
        <g>
          <rect class="cls-3" x="77.3" y="828.1" width="4" height="83.3" transform="translate(-591.8 310.8) rotate(-45)"/>
          <rect class="cls-3" x="107.5" y="828" width="4" height="83.3" transform="translate(-582.9 332.2) rotate(-45)"/>
          <rect class="cls-3" x="137.6" y="828" width="4" height="83.3" transform="translate(-574.1 353.4) rotate(-45)"/>
          <rect class="cls-3" x="167.7" y="828.1" width="4" height="83.3" transform="translate(-565.3 374.7) rotate(-45)"/>
          <rect class="cls-3" x="197.8" y="828.1" width="4" height="83.3" transform="translate(-556.5 396) rotate(-45)"/>
          <rect class="cls-3" x="227.9" y="828" width="4" height="83.3" transform="translate(-547.6 417.3) rotate(-45)"/>
          <rect class="cls-3" x="258" y="828" width="4" height="83.3" transform="translate(-538.8 438.6) rotate(-45)"/>
          <rect class="cls-3" x="288.1" y="828.1" width="4" height="83.3" transform="translate(-530 459.9) rotate(-45)"/>
          <rect class="cls-3" x="318.2" y="828.1" width="4" height="83.3" transform="translate(-521.2 481.1) rotate(-45)"/>
          <rect class="cls-3" x="348.3" y="828.1" width="4" height="83.3" transform="translate(-512.4 502.4) rotate(-45)"/>
          <rect class="cls-3" x="378.4" y="828.1" width="4" height="83.3" transform="translate(-503.6 523.7) rotate(-45)"/>
          <rect class="cls-3" x="408.5" y="828.1" width="4" height="83.3" transform="translate(-494.8 545) rotate(-45)"/>
          <rect class="cls-3" x="438.6" y="828.1" width="4" height="83.3" transform="translate(-485.9 566.3) rotate(-45)"/>
          <rect class="cls-3" x="468.7" y="828.1" width="4" height="83.3" transform="translate(-477.1 587.6) rotate(-45)"/>
          <rect class="cls-3" x="498.8" y="828.1" width="4" height="83.3" transform="translate(-468.3 608.9) rotate(-45)"/>
          <rect class="cls-3" x="528.9" y="828.1" width="4" height="83.3" transform="translate(-459.5 630.2) rotate(-45)"/>
          <rect class="cls-3" x="559" y="828.1" width="4" height="83.3" transform="translate(-450.7 651.4) rotate(-45)"/>
          <rect class="cls-3" x="589.1" y="828.1" width="4" height="83.3" transform="translate(-441.9 672.7) rotate(-45)"/>
        </g>
      </g>
      <g class="cls-9">
        <g>
          <rect class="cls-3" x="1838.7" y="107.6" width="4" height="83.3" transform="translate(433.6 1345.2) rotate(-45)"/>
          <rect class="cls-3" x="1808.6" y="107.6" width="4" height="83.3" transform="translate(424.8 1324) rotate(-45)"/>
          <rect class="cls-3" x="1778.5" y="107.6" width="4" height="83.3" transform="translate(415.9 1302.7) rotate(-45)"/>
          <rect class="cls-3" x="1748.4" y="107.6" width="4" height="83.3" transform="translate(407.1 1281.4) rotate(-45)"/>
          <rect class="cls-3" x="1718.3" y="107.6" width="4" height="83.3" transform="translate(398.3 1260.1) rotate(-45)"/>
          <rect class="cls-3" x="1688.2" y="107.6" width="4" height="83.3" transform="translate(389.5 1238.8) rotate(-45)"/>
          <rect class="cls-3" x="1658.1" y="107.6" width="4" height="83.3" transform="translate(380.7 1217.5) rotate(-45)"/>
          <rect class="cls-3" x="1628" y="107.6" width="4" height="83.3" transform="translate(371.9 1196.3) rotate(-45)"/>
          <rect class="cls-3" x="1597.8" y="107.6" width="4" height="83.4" transform="translate(363.9 1176) rotate(-45)"/>
          <rect class="cls-3" x="1567.7" y="107.6" width="4" height="83.4" transform="translate(355.1 1154.7) rotate(-45)"/>
          <rect class="cls-3" x="1537.6" y="107.6" width="4" height="83.3" transform="translate(345.4 1132.3) rotate(-45)"/>
          <rect class="cls-3" x="1507.5" y="107.6" width="4" height="83.3" transform="translate(336.6 1111.1) rotate(-45)"/>
          <rect class="cls-3" x="1477.4" y="107.6" width="4" height="83.3" transform="translate(327.7 1089.8) rotate(-45)"/>
          <rect class="cls-3" x="1447.3" y="107.6" width="4" height="83.3" transform="translate(318.9 1068.5) rotate(-45)"/>
          <rect class="cls-3" x="1417.2" y="107.6" width="4" height="83.3" transform="translate(310.1 1047.2) rotate(-45)"/>
          <rect class="cls-3" x="1387.1" y="107.6" width="4" height="83.3" transform="translate(301.3 1025.9) rotate(-45)"/>
          <rect class="cls-3" x="1357" y="107.6" width="4" height="83.3" transform="translate(292.5 1004.6) rotate(-45)"/>
          <rect class="cls-3" x="1326.9" y="107.6" width="4" height="83.3" transform="translate(283.7 983.3) rotate(-45)"/>
        </g>
      </g>
    </g>
    <rect class="cls-6" x="80" y="146.7" width="510.5" height="5"/>
    <rect class="cls-3" x="80" y="141.7" width="510.5" height="5"/>
    <rect class="cls-6" x="1329.5" y="867.3" width="510.5" height="5"/>
    <rect class="cls-3" x="1329.5" y="872.3" width="510.5" height="5"/>
    <g>
      <path class="cls-1" d="M1634.8,703.6s19.6-8.3,30.4-40.8c9.5,19.8,7,40.1,7,40.1-8.7,2-37.4.7-37.4.7ZM1740.2,518s12,65.2-30.4,67.5c-40.9,2.1-60.2-59.4-60.2-59.4,0,0,9.9,120.2,67.1,112.3,64.7-8.9,23.4-120.4,23.4-120.4h0ZM1428.9,688.1h0c47.8-10.9,84.4-66.7,95.2-89.1l6.9-14.2,4.1,15.2c.2.8,4.7,17.6,4.7,39.7s0,5-.2,7.5c16.5.7,28.3-2.7,35.6-10.3,10.5-10.9,13.6-31.4,9.7-62.9-1.9-15-7.4-39-12.4-60.1-2.5-10.8-4.9-21-6.4-28.3-9.2-46.2,2.2-74.9,13.4-90.8,1.8-2.5,3.7-4.9,5.7-7.1-33.1,11.2-60.8,28.5-89.4,57l20.2,23.4,8.3-7.7c7.8,29,2.2,55.7,2.2,55.7-10.5-16.2-23.1-29.2-23.1-29.2l5.5-9.1-18.1-21.1-2.1-2.4c-22.3,30.6-29.5,55.7-29.5,55.7l15.8,14.5,9.2,8.3,3.1-8.9c17,31.9,1.5,61.6,1.5,61.6-2.8-10.9-14-26.9-14-26.9l4.4-14.6-23.5-21.3c-24.5,76.5-57.3,101.4-57.3,101.4,0,0,35.5-6.4,55.1-13-.2,0-.7,40.4-24.7,77.1Z"/>
      <path class="cls-1" d="M1786.2,412.1l-56.5,2.4c0,6.7-.8,13.4-3,19.8,5.3,23.1,1.6,35.6,1.6,35.6-9.5-22-16.7-28.1-16.7-28.1-52-23.1-81.1,29.1-78,62.7,2.5,27.7,12.6,64.4,20.4,122,6.6,48.4-17.9,69.4-46.2,74.3-.7,0-1.2.2-1.9.3-.2,0-.3,0-.4,0-4.8.6-9.7.8-14.6.7h-.5c-.6,0-1.1,0-1.7,0-2.2-.2-4.3-.3-6.5-.7-22-3-71.1-11.9-122-13.2,29.9-17.5,53.3-47.6,66.2-69,.7,6,1.4,13.2,1.4,21.2s-.2,8.2-.5,12.4l-.5,5.8,5.8.5c23.4,2,39.9-2.5,50.7-13.6,13.2-13.8,17.4-36.8,12.9-72.5-2-15.7-7.6-39.9-12.6-61.3-2.5-10.7-4.8-20.8-6.3-27.9-8.4-42.1,1.6-67.7,11.5-81.8,7.8-11,18.5-19,30.1-23,.2,0,.4,0,.7,0l19.3-59.2h6l-12.9,56.8c3-.5,6-1,9.1-1.5l16.7-52.5h6l-10.9,50.9c17.2-2.2,35.9-3.9,56.7-5.5,3.3,1.4,7,5.2,10.2,10.7l54.4-16.7,2,5.9-52,20.2c.4,1.1.8,2.2,1.1,3.3l56.9-7.1,1,6.1-55.2,11c.2,1,.4,2,.5,3.1l57.4,1.8v6.2h0ZM1622.4,437.5c11.4-8,30.8-14.1,49-12.7,4.7.3,8.5-.8,3.6-3.5-13.6-7.2-45.3-4.7-56.6,2.9-18,12.3-14.9,34.1-14.5,34.6,3.6-6.3,9.6-15.1,18.5-21.3h0Z"/>
    </g>
    <g>
      <path class="cls-1" d="M353,458.6c11.3-2.7,10.8,13.4,2,13.6-8.1.2-9.9-11.8-2-13.6Z"/>
      <path class="cls-1" d="M368.7,466.8c5.6,4.9-4.1,8.6-4.5,3.3-.2-2.1,1.4-3.6,4.5-3.3Z"/>
      <path class="cls-1" d="M512.9,548.6c-9.6,16-21.5,34.3-33,50-4,5.4-7.8,11.3-12.4,15.3-2.4,2.1-4.8,3.8-9.5,3.3.4-1.7,1.3-2.8,1.6-4.5-4.4,3.7-9.5,10.3-20.7,8.7,14-8.2,18.4-28.7,24.3-46.3,1.7-5,2.7-11.7,4.9-14.9,3.8-5.2,17.1-8.7,27.2-8.3.5,2.9,1.1,5.8,1.3,9.1,4.9-4.5,6.5-12.5,16.1-12.4Z"/>
      <path class="cls-5" d="M377.8,610.6c26.7-.5,47.6-6.7,62.4-19,.5,0,.8,0,.9.4-2.4,12.5-9.3,20.5-18.6,26.1-17.1-.2-32.7-1.9-44.6-7.4Z"/>
      <path class="cls-5" d="M379,405.3c61.1,15.2,116,40.3,162.4,71.5-10.1,5.8-27,2.3-38.1-.4-.9,17.2,22.1,15.4,24.8,29.4,1.4,7.9-3.7,16.1-8.3,19-4.9,3.2-12.7,4.2-19,6.6-18.8,7-33.7,14.8-50,26.5-9.5,6.8-18.5,15.6-27.2,23.6-9.3,8.3-22.9,18.5-40.5,16.9-13.2-1.3-21.2-11.5-25.2-21.9,37.9,0,69.2-6.6,84.3-29.4-35.1,22-97.3,23.7-152.9,19.8-1.4.2-7.8-.3-2.9-.4,23.4-.8,47.5-1.1,67.4-4.5.9-4.2,0-10.1,1.3-14,35.8,0,65.4-6,81.8-25.2-46.6,26.8-133,15.7-190.7,6.6,29.7.6,66.9,3.1,100.4,1.6,5.5-.2,11.9,0,15.3-1.3,2.1-.8,4.4-4.3,6.6-6.2,4.2-3.7,7.8-5.6,14.9-6.6-18.8-6.3-41.8-9.4-66.5-6.6-7.4.9-14.9,3.5-21.5,3.3-10.4-.3-21.2-6.9-27.7-11.6-7.9-5.8-13.6-12.4-18.6-20.3,22.1,13.2,64.9,15.9,100.1,11.2,0-7.9-7.1-12.5-12.8-16.1,12.2-3.4,19.5,6.2,27.7,9.5,10,4.1,24.2,1.3,32.6-2.9.2,3.6-3.7,6.8-6.2,9.1,17.5,6.4,43.8,2.3,61.1-1.3-2.2-2.4-6.9-2.5-8.3-5.8,16.6-1,31-4.2,41.7-11.2-8.9-4.2-31.5-11.6-36.8.9-10.7,1.4-20.4-1.9-28.5-4.5.2,3.4,3.3,6.1,3.3,8.3-14.7-1-26.4-2.5-36.4-10.7-9.1-7.4-13.5-17.2-26.5-18.6-13.8-1.5-24.3,5.3-26.5,17.4-7.6-22.2,19.4-31.5,37.2-23.2-6-13.5-32.8-10.8-49.6-7.1-14.5,3.3-26.9,8.7-37.6,12.4-.3,7.1-1.8,13-3.3,19-4.9-9.6-9-18.8-16.1-26.1-9.7-9.7-22.9-15.5-39.3-18.6-4,14.5,3,30.4,7.1,39.7-3.2-.9-7.9,1.1-11.6,0-3.3-1-8.1-8.4-11.2-11.2-11.7-10.8-23.2-21.2-39.7-26.5,27.7-14.7,73.9-16.5,114.9-12.8.2-3.8-4.3-8.6-4.9-11.6,40.5.6,76,6.1,106.2,16.9-1-5-3.6-9-6.7-12.5ZM473.7,495.8c0-3.4,7.1-4.3,6.2-5.8-7.1,1.6-13.2,4.2-16.9,9.1,3.4.9,10.3,1.6,13.6,0-2.2-.8-3-1.7-2.9-3.3ZM493.9,512.3c3.4,2.1,8.3,1.4,13.2,1.3-6.2-3.9,1.7-8.1,3.8-9.5-7.1,1.4-12.7,4.2-17,8.2ZM465.4,527.2c5.2,1.5,13.2.8,16.9-1.6-8.9-2.5-.2-9.8,4.2-11.2-9.3,1.7-17.7,6.6-21.1,12.8Z"/>
      <g>
        <path class="cls-7" d="M476.6,499.1c-3.3,1.6-10.2.9-13.6,0,3.7-5,9.9-7.4,16.9-9.1.9,1.4-6.2,2.4-6.2,5.8,0,1.5.7,2.5,2.9,3.3Z"/>
        <path class="cls-7" d="M486.4,514.3c-4.3,1.4-12.9,8.7-4.2,11.2-3.8,2.4-11.7,3.2-16.9,1.6,3.4-6.3,11.8-11.1,21.1-12.8Z"/>
        <path class="cls-7" d="M510.9,504c-2,1.4-9.9,5.7-3.8,9.5-4.8.2-9.9.9-13.2-1.3,4.3-4,9.9-6.8,17-8.2Z"/>
        <path class="cls-7" d="M564.6,480.4c-22.3,43.3-44.3,85.6-72.7,124-7.1,9.6-20.5,29.7-33,33.5-7.4,2.1-17.2,1.5-26.1,2-64,3.8-124.4-7.1-162-31.4,9.4-.4,21.1.3,31-2-43.7-9.4-75.8-30.3-99.6-59.5,8,1.9,18.9,1.2,28.1.9-25.6-13.9-47.4-31.7-60.7-57.9,10.2,1.4,23.3,3.4,36.8,2.9-22.8-32.7-56.6-58-100.4-71.1,47.8-21.2,100.4-35.5,165.6-38.5,64.2-3,122.6,10.1,168.6,26.8,49,17.8,90.2,42.1,124.4,70.2ZM386,418c-30.2-10.8-65.8-16.3-106.2-16.9.6,3,5.1,7.8,4.9,11.6-41-3.7-87.1-1.8-114.9,12.8,16.5,5.2,28,15.6,39.7,26.5,3,2.8,7.9,10.1,11.2,11.2,3.7,1.1,8.4-.9,11.6,0-4-9.3-11-25.2-7.1-39.7,16.3,3.1,29.6,8.9,39.3,18.6,7.1,7.1,11.2,16.5,16.1,26.1,1.4-6,3-11.9,3.3-19,10.7-3.7,23.1-9.1,37.6-12.4,16.7-3.9,43.7-6.5,49.6,7.1-17.9-8.3-44.9.9-37.2,23.2,2.1-12.1,12.7-18.9,26.5-17.4,12.9,1.4,17.3,11.1,26.5,18.6,10,8.2,21.7,9.8,36.4,10.7,0-2.1-3.2-4.8-3.3-8.3,8.1,2.6,17.8,5.9,28.5,4.5,5.2-12.5,27.9-5.1,36.8-.9-10.7,7-25.1,10.1-41.7,11.2,1.4,3.3,6,3.4,8.3,5.8-17.4,3.6-43.7,7.6-61.1,1.3,2.5-2.3,6.4-5.5,6.2-9.1-8.4,4.2-22.6,7-32.6,2.9-8.2-3.3-15.5-12.8-27.7-9.5,5.8,3.6,12.7,8.2,12.8,16.1-35.2,4.8-77.9,2-100.1-11.2,5,7.9,10.7,14.5,18.6,20.3,6.6,4.7,17.3,11.3,27.7,11.6,6.6.2,14-2.5,21.5-3.3,24.7-2.7,47.7.3,66.5,6.6-7.1,1-10.7,3-14.9,6.6-2.1,1.8-4.4,5.4-6.6,6.2-3.4,1.3-9.9,1-15.3,1.3-33.5,1.4-70.8-1.1-100.4-1.6,57.7,9.1,144.1,20.3,190.6-6.6-16.4,19.2-46.1,25.3-81.8,25.2-1.2,4-.4,9.9-1.3,14-19.8,3.5-44,3.8-67.4,4.5-4.9.2,1.4.6,2.9.4,55.7,3.9,117.8,2.2,152.9-19.8-15.2,22.7-46.5,29.4-84.3,29.4,4,10.3,12,20.7,25.2,21.9,17.6,1.6,31.2-8.6,40.5-16.9,8.8-7.9,17.8-16.8,27.2-23.6,16.2-11.7,31.1-19.5,50-26.5,6.4-2.3,14.1-3.5,19-6.6,4.5-2.9,9.8-11.1,8.3-19-2.6-14-25.7-12.2-24.8-29.4,11,2.7,27.8,6.3,38.1.4-46.5-31.3-101.2-56.3-162.4-71.5,2.9,3.2,5.5,7.1,6.8,12.5ZM355,472.2c8.8-.2,9.2-16.3-2-13.6-7.8,1.8-6.1,13.8,2,13.6ZM364.2,470.1c.5,5.3,10.1,1.6,4.5-3.3-3.2-.3-4.7,1.2-4.5,3.3ZM496.8,561.1c-.2-3.3-.7-6.2-1.3-9.1-10.1-.5-23.6,3-27.2,8.3-2.3,3.2-3.3,9.9-4.9,14.9-6.1,17.7-10.4,38.1-24.3,46.3,11.2,1.6,16.2-4.9,20.7-8.7-.4,1.7-1.3,2.8-1.6,4.5,4.6.5,7.1-1.2,9.5-3.3,4.5-4,8.5-9.9,12.4-15.3,11.5-15.7,23.5-33.9,33-50-9.7-.2-11.2,7.7-16.1,12.4ZM422.4,618.1c9.3-5.6,16.2-13.5,18.6-26.1,0-.3-.4-.5-.9-.4-14.8,12.4-35.7,18.5-62.4,19,11.9,5.5,27.5,7.2,44.6,7.4Z"/>
      </g>
    </g>
  </g>
</svg>