<?xml version="1.0" encoding="UTF-8"?>
<svg id="Layer_1" data-name="Layer 1" xmlns="http://www.w3.org/2000/svg" version="1.1" viewBox="0 0 1920 1024">
  <defs>
    <style>
      .cls-1 {
        fill: #fff;
      }

      .cls-1, .cls-2, .cls-3, .cls-4 {
        stroke-width: 0px;
      }

      .cls-1, .cls-2, .cls-4 {
        fill-rule: evenodd;
      }

      .cls-2 {
        fill: #545454;
      }

      .cls-5 {
        fill: none;
        stroke: #fff;
        stroke-miterlimit: 10;
        stroke-width: 4px;
      }

      .cls-3 {
        fill: #af0;
      }

      .cls-4 {
        fill: #939393;
      }
    </style>
  </defs>
  <g id="Layer_1-2" data-name="Layer 1-2">
    <g id="Layer_2-2" data-name="Layer 2-2">
      <line class="cls-5" x1="895.9" y1="576.4" x2="1024.1" y2="448.1"/>
      <line class="cls-5" x1="1024.1" y1="576.4" x2="895.9" y2="448.1"/>
    </g>
    <rect class="cls-3" y="108.3" width="556.9" height="5.5"/>
    <rect class="cls-3" x="1363.1" y="905.3" width="556.9" height="5.5"/>
    <g>
      <path class="cls-1" d="M1696.1,721.2s21.4-9.1,33.2-44.5c10.4,21.6,7.6,43.7,7.6,43.7-9.5,2.2-40.8.8-40.8.8h0ZM1811.1,518.8s13.1,71.1-33.2,73.6c-44.6,2.3-65.7-64.8-65.7-64.8,0,0,10.8,131.1,73.2,122.5,70.6-9.7,25.5-131.3,25.5-131.3h.2ZM1471.5,704.3h0c52.1-11.9,92.1-72.8,103.9-97.2l7.5-15.5,4.5,16.6c.2.9,5.1,19.2,5.1,43.3s0,5.5-.2,8.2c18,.8,30.9-2.9,38.8-11.2,11.5-11.9,14.8-34.3,10.6-68.6-2.1-16.4-8.1-42.5-13.5-65.6-2.7-11.8-5.3-22.9-7-30.9-10-50.4,2.4-81.7,14.6-99.1,2-2.7,4-5.3,6.2-7.7-36.1,12.2-66.3,31.1-97.5,62.2l22,25.5,9.1-8.4c8.5,31.6,2.4,60.8,2.4,60.8-11.5-17.7-25.2-31.9-25.2-31.9l6-9.9-19.7-23-2.3-2.6c-24.3,33.4-32.2,60.8-32.2,60.8l17.2,15.8,10,9.1,3.4-9.7c18.5,34.8,1.6,67.2,1.6,67.2-3.1-11.9-15.3-29.3-15.3-29.3l4.8-15.9-25.6-23.2c-26.7,83.5-62.5,110.6-62.5,110.6,0,0,38.7-7,60.1-14.2-.2,0-.8,44.1-26.9,84.1h0v-.3Z"/>
      <path class="cls-1" d="M1861.3,403.2l-61.6,2.6c0,7.3-.9,14.6-3.3,21.6,5.8,25.2,1.7,38.8,1.7,38.8-10.4-24-18.2-30.7-18.2-30.7-56.7-25.2-88.5,31.7-85.1,68.4,2.7,30.2,13.7,70.3,22.3,133.1,7.2,52.8-19.5,75.7-50.4,81.1-.8,0-1.3.2-2.1.3h-.4c-5.2.7-10.6.9-15.9.8h-2.4c-2.4-.2-4.7-.3-7.1-.8-24-3.3-77.6-13-133.1-14.4,32.6-19.1,58.1-51.9,72.2-75.3.8,6.5,1.5,14.4,1.5,23.1s-.2,8.9-.5,13.5l-.5,6.3,6.3.5c25.5,2.2,43.5-2.7,55.3-14.8,14.4-15.1,19-40.1,14.1-79.1-2.2-17.1-8.3-43.5-13.7-66.9-2.7-11.7-5.2-22.7-6.9-30.4-9.2-45.9,1.7-73.9,12.5-89.2,8.5-12,20.2-20.7,32.8-25.1h.8l21.1-64.6h6.5l-14.1,62c3.3-.5,6.5-1.1,9.9-1.6l18.2-57.3h6.5l-11.9,55.5c18.8-2.4,39.2-4.3,61.9-6,3.6,1.5,7.6,5.7,11.1,11.7l59.3-18.2,2.2,6.4-56.7,22c.4,1.2.9,2.4,1.2,3.6l62.1-7.7,1.1,6.7-60.2,12c.2,1.1.4,2.2.5,3.4l62.6,2v6.8h.4ZM1682.6,431c12.4-8.7,33.6-15.4,53.5-13.9,5.1.3,9.3-.9,3.9-3.8-14.8-7.9-49.4-5.1-61.7,3.2-19.6,13.4-16.3,37.2-15.8,37.7,3.9-6.9,10.5-16.5,20.2-23.2h0Z"/>
    </g>
    <g>
      <path class="cls-1" d="M297.8,454c12.3-2.9,11.8,14.6,2.2,14.8-8.8.2-10.8-12.9-2.2-14.8Z"/>
      <path class="cls-1" d="M314.9,462.9c6.1,5.3-4.5,9.4-4.9,3.6-.2-2.3,1.5-3.9,4.9-3.6Z"/>
      <path class="cls-1" d="M472.3,552.2c-10.5,17.5-23.5,37.4-36,54.5-4.4,5.9-8.5,12.3-13.5,16.7-2.6,2.3-5.2,4.1-10.4,3.6.4-1.9,1.4-3.1,1.7-4.9-4.8,4-10.4,11.2-22.6,9.5,15.3-8.9,20.1-31.3,26.5-50.5,1.9-5.5,2.9-12.8,5.3-16.3,4.1-5.7,18.7-9.5,29.7-9.1.5,3.2,1.2,6.3,1.4,9.9,5.3-4.9,7.1-13.6,17.6-13.5h.3Z"/>
      <path class="cls-4" d="M324.9,619.8c29.1-.5,51.9-7.3,68.1-20.7.5,0,.9,0,1,.4-2.6,13.6-10.1,22.4-20.3,28.5-18.7-.2-35.7-2.1-48.7-8.1h-.1Z"/>
      <path class="cls-4" d="M326.2,395.8c66.7,16.6,126.5,44,177.2,78-11,6.3-29.5,2.5-41.6-.4-1,18.8,24.1,16.8,27.1,32.1,1.5,8.6-4,17.6-9.1,20.7-5.3,3.5-13.9,4.6-20.7,7.2-20.5,7.6-36.8,16.1-54.5,28.9-10.4,7.4-20.2,17-29.7,25.7-10.1,9.1-25,20.2-44.2,18.4-14.4-1.4-23.1-12.5-27.5-23.9,41.3,0,75.5-7.2,92-32.1-38.3,24-106.1,25.9-166.8,21.6-1.5.2-8.5-.3-3.2-.4,25.5-.9,51.8-1.2,73.5-4.9,1-4.6,0-11,1.4-15.3,39.1,0,71.3-6.5,89.2-27.5-50.8,29.2-145.1,17.1-208,7.2,32.4.7,73,3.4,109.5,1.7,6-.2,13,0,16.7-1.4,2.3-.9,4.8-4.7,7.2-6.8,4.6-4,8.5-6.1,16.3-7.2-20.5-6.9-45.6-10.3-72.5-7.2-8.1,1-16.3,3.8-23.5,3.6-11.3-.3-23.1-7.5-30.2-12.7-8.6-6.3-14.8-13.5-20.3-22.1,24.1,14.4,70.8,17.3,109.2,12.2,0-8.6-7.7-13.6-14-17.6,13.3-3.7,21.3,6.8,30.2,10.4,10.9,4.5,26.4,1.4,35.6-3.2.2,3.9-4,7.4-6.8,9.9,19.1,7,47.8,2.5,66.7-1.4-2.4-2.6-7.5-2.7-9.1-6.3,18.1-1.1,33.8-4.6,45.5-12.2-9.7-4.6-34.4-12.7-40.1,1-11.7,1.5-22.3-2.1-31.1-4.9.2,3.7,3.6,6.7,3.6,9.1-16-1.1-28.8-2.7-39.7-11.7-9.9-8.1-14.7-18.8-28.9-20.3-15.1-1.6-26.5,5.8-28.9,19-8.3-24.2,21.2-34.4,40.6-25.3-6.5-14.7-35.8-11.8-54.1-7.7-15.8,3.6-29.3,9.5-41,13.5-.3,7.7-2,14.2-3.6,20.7-5.3-10.5-9.8-20.5-17.6-28.5-10.6-10.6-25-16.9-42.9-20.3-4.4,15.8,3.3,33.2,7.7,43.3-3.5-1-8.6,1.2-12.7,0-3.6-1.1-8.8-9.2-12.2-12.2-12.8-11.8-25.3-23.1-43.3-28.9,30.2-16,80.6-18,125.3-14,.2-4.1-4.7-9.4-5.3-12.7,44.2.7,82.9,6.7,115.9,18.4-1.1-5.5-3.9-9.8-7.3-13.6h0ZM429.5,494.6c0-3.7,7.7-4.7,6.8-6.3-7.7,1.7-14.4,4.6-18.4,9.9,3.7,1,11.2,1.7,14.8,0-2.4-.9-3.3-1.9-3.2-3.6h0ZM451.5,512.6c3.7,2.3,9.1,1.5,14.4,1.4-6.8-4.3,1.9-8.8,4.1-10.4-7.7,1.5-13.9,4.6-18.5,8.9h0ZM420.4,528.8c5.7,1.6,14.4.9,18.4-1.7-9.7-2.7-.2-10.7,4.6-12.2-10.1,1.9-19.3,7.2-23,14h0Z"/>
      <g>
        <path class="cls-2" d="M432.7,498.2c-3.6,1.7-11.1,1-14.8,0,4-5.5,10.8-8.1,18.4-9.9,1,1.5-6.8,2.6-6.8,6.3s.8,2.7,3.2,3.6h0Z"/>
        <path class="cls-2" d="M443.3,514.7c-4.7,1.5-14.1,9.5-4.6,12.2-4.1,2.6-12.8,3.5-18.4,1.7,3.7-6.9,12.9-12.1,23-14h0Z"/>
        <path class="cls-2" d="M470.1,503.5c-2.2,1.5-10.8,6.2-4.1,10.4-5.2.2-10.8,1-14.4-1.4,4.7-4.4,10.8-7.4,18.5-8.9h0Z"/>
        <path class="cls-2" d="M528.7,477.8c-24.3,47.2-48.3,93.4-79.3,135.3-7.7,10.5-22.4,32.4-36,36.5-8.1,2.3-18.8,1.6-28.5,2.2-69.8,4.1-135.7-7.7-176.7-34.3,10.3-.4,23,.3,33.8-2.2-47.7-10.3-82.7-33.1-108.7-64.9,8.7,2.1,20.6,1.3,30.7,1-27.9-15.2-51.7-34.6-66.2-63.2,11.1,1.5,25.4,3.7,40.1,3.2-24.9-35.7-61.7-63.3-109.5-77.6,52.1-23.1,109.5-38.7,180.7-42,70-3.3,133.7,11,183.9,29.2,53.5,19.4,98.4,45.9,135.7,76.6h0v.2ZM333.8,409.7c-32.9-11.8-71.8-17.8-115.9-18.4.7,3.3,5.6,8.5,5.3,12.7-44.7-4-95-2-125.3,14,18,5.7,30.5,17,43.3,28.9,3.3,3.1,8.6,11,12.2,12.2,4,1.2,9.2-1,12.7,0-4.4-10.1-12-27.5-7.7-43.3,17.8,3.4,32.3,9.7,42.9,20.3,7.7,7.7,12.2,18,17.6,28.5,1.5-6.5,3.3-13,3.6-20.7,11.7-4,25.2-9.9,41-13.5,18.2-4.3,47.7-7.1,54.1,7.7-19.5-9.1-49,1-40.6,25.3,2.3-13.2,13.9-20.6,28.9-19,14.1,1.5,18.9,12.1,28.9,20.3,10.9,8.9,23.7,10.7,39.7,11.7,0-2.3-3.5-5.2-3.6-9.1,8.8,2.8,19.4,6.4,31.1,4.9,5.7-13.6,30.4-5.6,40.1-1-11.7,7.6-27.4,11-45.5,12.2,1.5,3.6,6.5,3.7,9.1,6.3-19,3.9-47.7,8.3-66.7,1.4,2.7-2.5,7-6,6.8-9.9-9.2,4.6-24.7,7.6-35.6,3.2-8.9-3.6-16.9-14-30.2-10.4,6.3,3.9,13.9,8.9,14,17.6-38.4,5.2-85,2.2-109.2-12.2,5.5,8.6,11.7,15.8,20.3,22.1,7.2,5.1,18.9,12.3,30.2,12.7,7.2.2,15.3-2.7,23.5-3.6,26.9-2.9,52,.3,72.5,7.2-7.7,1.1-11.7,3.3-16.3,7.2-2.3,2-4.8,5.9-7.2,6.8-3.7,1.4-10.8,1.1-16.7,1.4-36.5,1.5-77.2-1.2-109.5-1.7,62.9,9.9,157.2,22.1,207.9-7.2-17.9,20.9-50.3,27.6-89.2,27.5-1.3,4.4-.4,10.8-1.4,15.3-21.6,3.8-48,4.1-73.5,4.9-5.3.2,1.5.7,3.2.4,60.8,4.3,128.5,2.4,166.8-21.6-16.6,24.8-50.7,32.1-92,32.1,4.4,11.2,13.1,22.6,27.5,23.9,19.2,1.7,34-9.4,44.2-18.4,9.6-8.6,19.4-18.3,29.7-25.7,17.7-12.8,33.9-21.3,54.5-28.9,7-2.5,15.4-3.8,20.7-7.2,4.9-3.2,10.7-12.1,9.1-20.7-2.8-15.3-28-13.3-27.1-32.1,12,2.9,30.3,6.9,41.6.4-50.7-34.1-110.4-61.4-177.2-78,3.2,3.5,6,7.7,7.4,13.6h0ZM300,468.8c9.6-.2,10-17.8-2.2-14.8-8.5,2-6.7,15.1,2.2,14.8ZM310,466.5c.5,5.8,11,1.7,4.9-3.6-3.5-.3-5.1,1.3-4.9,3.6ZM454.7,565.8c-.2-3.6-.8-6.8-1.4-9.9-11-.5-25.7,3.3-29.7,9.1-2.5,3.5-3.6,10.8-5.3,16.3-6.7,19.3-11.3,41.6-26.5,50.5,12.2,1.7,17.7-5.3,22.6-9.5-.4,1.9-1.4,3.1-1.7,4.9,5,.5,7.7-1.3,10.4-3.6,4.9-4.4,9.3-10.8,13.5-16.7,12.5-17.1,25.6-37,36-54.5-10.6-.2-12.2,8.4-17.6,13.5h-.3ZM373.5,628c10.1-6.1,17.7-14.7,20.3-28.5,0-.3-.4-.5-1-.4-16.1,13.5-38.9,20.2-68.1,20.7,13,6,30,7.9,48.7,8.1h.1Z"/>
      </g>
    </g>
  </g>
</svg>