<?xml version="1.0" encoding="UTF-8"?>
<svg xmlns="http://www.w3.org/2000/svg" version="1.1" xmlns:xlink="http://www.w3.org/1999/xlink" viewBox="0 0 1920 1024">
  <defs>
    <style>
      .cls-1 {
        stroke: #fff;
        stroke-miterlimit: 10;
        stroke-width: 4px;
      }

      .cls-1, .cls-2 {
        fill: none;
      }

      .cls-2, .cls-3, .cls-4, .cls-5, .cls-6 {
        stroke-width: 0px;
      }

      .cls-3 {
        fill: #af0;
      }

      .cls-7 {
        clip-path: url(#clippath-1);
      }

      .cls-4 {
        fill: #212121;
      }

      .cls-8 {
        font-family: Poppins-Black, Poppins;
        font-size: 60px;
        font-weight: 800;
      }

      .cls-8, .cls-6 {
        fill: #fff;
      }

      .cls-9 {
        clip-path: url(#clippath);
      }

      .cls-5 {
        fill: #0e0e14;
        fill-rule: evenodd;
      }
    </style>
    <clipPath id="clippath">
      <rect class="cls-2" x="80" y="849.9" width="510.5" height="39.8"/>
    </clipPath>
    <clipPath id="clippath-1">
      <rect class="cls-2" x="1329.5" y="849.9" width="510.5" height="39.8"/>
    </clipPath>
  </defs>
  <g id="Layer_2" data-name="Layer 2">
    <rect class="cls-4" width="1920" height="1024"/>
  </g>
  <g id="Layer_1" data-name="Layer 1">
    <g id="Layer_1-2" data-name="Layer 1">
      <rect class="cls-2" width="1920" height="1024"/>
    </g>
    <g id="Layer_2-2" data-name="Layer 2">
      <line class="cls-1" x1="901.2" y1="570.8" x2="1018.8" y2="453.2"/>
      <line class="cls-1" x1="1018.8" y1="570.8" x2="901.2" y2="453.2"/>
    </g>
    <g id="Layer_2-3" data-name="Layer 2">
      <line class="cls-1" x1="901.2" y1="570.8" x2="1018.8" y2="453.2"/>
      <line class="cls-1" x1="1018.8" y1="570.8" x2="901.2" y2="453.2"/>
    </g>
    <g id="wireframe">
      <g class="cls-9">
        <g>
          <rect class="cls-3" x="77.3" y="828.1" width="4" height="83.3" transform="translate(-591.8 310.8) rotate(-45)"/>
          <rect class="cls-3" x="107.5" y="828" width="4" height="83.3" transform="translate(-582.9 332.2) rotate(-45)"/>
          <rect class="cls-3" x="137.6" y="828" width="4" height="83.3" transform="translate(-574.1 353.4) rotate(-45)"/>
          <rect class="cls-3" x="167.7" y="828.1" width="4" height="83.3" transform="translate(-565.3 374.7) rotate(-45)"/>
          <rect class="cls-3" x="197.8" y="828.1" width="4" height="83.3" transform="translate(-556.5 396) rotate(-45)"/>
          <rect class="cls-3" x="227.9" y="828" width="4" height="83.3" transform="translate(-547.6 417.3) rotate(-45)"/>
          <rect class="cls-3" x="258" y="828" width="4" height="83.3" transform="translate(-538.8 438.6) rotate(-45)"/>
          <rect class="cls-3" x="288.1" y="828.1" width="4" height="83.3" transform="translate(-530 459.9) rotate(-45)"/>
          <rect class="cls-3" x="318.2" y="828.1" width="4" height="83.3" transform="translate(-521.2 481.1) rotate(-45)"/>
          <rect class="cls-3" x="348.3" y="828.1" width="4" height="83.3" transform="translate(-512.4 502.4) rotate(-45)"/>
          <rect class="cls-3" x="378.4" y="828.1" width="4" height="83.3" transform="translate(-503.6 523.7) rotate(-45)"/>
          <rect class="cls-3" x="408.5" y="828.1" width="4" height="83.3" transform="translate(-494.8 545) rotate(-45)"/>
          <rect class="cls-3" x="438.6" y="828.1" width="4" height="83.3" transform="translate(-485.9 566.3) rotate(-45)"/>
          <rect class="cls-3" x="468.7" y="828.1" width="4" height="83.3" transform="translate(-477.1 587.6) rotate(-45)"/>
          <rect class="cls-3" x="498.8" y="828.1" width="4" height="83.3" transform="translate(-468.3 608.9) rotate(-45)"/>
          <rect class="cls-3" x="528.9" y="828.1" width="4" height="83.3" transform="translate(-459.5 630.2) rotate(-45)"/>
          <rect class="cls-3" x="559" y="828.1" width="4" height="83.3" transform="translate(-450.7 651.4) rotate(-45)"/>
          <rect class="cls-3" x="589.1" y="828.1" width="4" height="83.3" transform="translate(-441.9 672.7) rotate(-45)"/>
        </g>
      </g>
      <g class="cls-7">
        <g>
          <rect class="cls-3" x="1838.7" y="828.2" width="4" height="83.3" transform="translate(-76 1556.3) rotate(-45)"/>
          <rect class="cls-3" x="1808.6" y="828.2" width="4" height="83.3" transform="translate(-84.8 1535) rotate(-45)"/>
          <rect class="cls-3" x="1778.5" y="828.2" width="4" height="83.3" transform="translate(-93.6 1513.7) rotate(-45)"/>
          <rect class="cls-3" x="1748.4" y="828.2" width="4" height="83.3" transform="translate(-102.4 1492.4) rotate(-45)"/>
          <rect class="cls-3" x="1718.3" y="828.2" width="4" height="83.3" transform="translate(-111.2 1471.2) rotate(-45)"/>
          <rect class="cls-3" x="1688.2" y="828.2" width="4" height="83.3" transform="translate(-120 1449.9) rotate(-45)"/>
          <rect class="cls-3" x="1658.1" y="828.2" width="4" height="83.3" transform="translate(-128.9 1428.6) rotate(-45)"/>
          <rect class="cls-3" x="1628" y="828.2" width="4" height="83.3" transform="translate(-137.7 1407.3) rotate(-45)"/>
          <rect class="cls-3" x="1597.8" y="828.2" width="4" height="83.4" transform="translate(-146.1 1387.5) rotate(-45)"/>
          <rect class="cls-3" x="1567.7" y="828.2" width="4" height="83.4" transform="translate(-154.9 1366.2) rotate(-45)"/>
          <rect class="cls-3" x="1537.6" y="828.2" width="4" height="83.3" transform="translate(-164.2 1343.4) rotate(-45)"/>
          <rect class="cls-3" x="1507.5" y="828.2" width="4" height="83.3" transform="translate(-173 1322.1) rotate(-45)"/>
          <rect class="cls-3" x="1477.4" y="828.2" width="4" height="83.3" transform="translate(-181.8 1300.8) rotate(-45)"/>
          <rect class="cls-3" x="1447.3" y="828.2" width="4" height="83.3" transform="translate(-190.6 1279.5) rotate(-45)"/>
          <rect class="cls-3" x="1417.2" y="828.2" width="4" height="83.3" transform="translate(-199.4 1258.3) rotate(-45)"/>
          <rect class="cls-3" x="1387.1" y="828.2" width="4" height="83.3" transform="translate(-208.2 1237) rotate(-45)"/>
          <rect class="cls-3" x="1357" y="828.2" width="4" height="83.3" transform="translate(-217 1215.7) rotate(-45)"/>
          <rect class="cls-3" x="1326.9" y="828.2" width="4" height="83.3" transform="translate(-225.9 1194.4) rotate(-45)"/>
        </g>
      </g>
    </g>
    <rect class="cls-3" x="1329.5" y="129.2" width="510.5" height="40"/>
    <g>
      <g>
        <polygon class="cls-5" points="1807.3 135.6 1807.3 146.7 1816.9 141.2 1807.3 135.6"/>
        <polygon class="cls-5" points="1816.9 157.2 1807.3 151.7 1807.3 162.8 1816.9 157.2"/>
        <polygon class="cls-5" points="1831.1 149.2 1821.5 143.7 1821.5 154.7 1831.1 149.2"/>
      </g>
      <g>
        <polygon class="cls-5" points="1362.2 162.8 1362.2 151.7 1352.6 157.2 1362.2 162.8"/>
        <polygon class="cls-5" points="1352.6 141.2 1362.2 146.7 1362.2 135.6 1352.6 141.2"/>
        <polygon class="cls-5" points="1338.4 149.2 1348 154.7 1348 143.7 1338.4 149.2"/>
      </g>
    </g>
    <rect class="cls-3" x="80" y="129.2" width="510.5" height="40"/>
    <rect class="cls-3" x="80" y="905.7" width="510.5" height="8"/>
    <rect class="cls-3" x="1331.2" y="905.7" width="510.5" height="8"/>
    <g>
      <g>
        <polygon class="cls-5" points="557.8 135.6 557.8 146.7 567.4 141.2 557.8 135.6"/>
        <polygon class="cls-5" points="567.4 157.2 557.8 151.7 557.8 162.8 567.4 157.2"/>
        <polygon class="cls-5" points="581.6 149.2 572 143.7 572 154.7 581.6 149.2"/>
      </g>
      <g>
        <polygon class="cls-5" points="112.7 162.8 112.7 151.7 103.1 157.2 112.7 162.8"/>
        <polygon class="cls-5" points="103.1 141.2 112.7 146.7 112.7 135.6 103.1 141.2"/>
        <polygon class="cls-5" points="88.9 149.2 98.5 154.7 98.5 143.7 88.9 149.2"/>
      </g>
    </g>
    <g>
      <path class="cls-6" d="M176.4,304.9c-3.3-1.9-6-4.5-7.9-7.8-2-3.3-2.9-7.1-2.9-11.2s1-7.9,2.9-11.2c2-3.3,4.6-5.9,7.9-7.8,3.3-1.9,7-2.8,11-2.8s7.7.9,11,2.8c3.3,1.9,5.9,4.5,7.9,7.8,1.9,3.3,2.9,7.1,2.9,11.2s-1,7.9-2.9,11.2c-1.9,3.3-4.6,5.9-7.9,7.8-3.3,1.9-7,2.8-10.9,2.8s-7.7-.9-11-2.8ZM193.5,292.7c1.4-1.7,2.2-4,2.2-6.9s-.7-5.2-2.2-6.9c-1.4-1.7-3.5-2.5-6.1-2.5s-4.7.9-6.2,2.5c-1.4,1.7-2.2,4-2.2,6.9s.7,5.2,2.2,6.9c1.4,1.7,3.5,2.5,6.2,2.5s4.7-.8,6.1-2.5Z"/>
      <path class="cls-6" d="M246.9,286.7c-1.2,2.2-3.1,3.9-5.5,5.2-2.4,1.3-5.4,1.9-8.8,1.9h-5.3v13.5h-13.3v-42.5h18.6c5.2,0,9.2,1.3,12,4,2.8,2.6,4.2,6.2,4.2,10.6s-.6,5.1-1.9,7.3ZM235.2,279.4c0-2.6-1.4-3.9-4.1-3.9h-3.8v7.8h3.8c2.8,0,4.1-1.3,4.1-3.9Z"/>
      <path class="cls-6" d="M286.3,264.8v10.6h-11.3v31.9h-13.3v-31.9h-11.2v-10.6h35.8Z"/>
      <path class="cls-6" d="M316,281.3v11h-28v-11h28Z"/>
      <path class="cls-6" d="M334.1,304.9c-3.3-1.9-6-4.5-7.9-7.8-2-3.3-2.9-7.1-2.9-11.2s1-7.9,2.9-11.2c2-3.3,4.6-5.9,7.9-7.8,3.3-1.9,7-2.8,11-2.8s7.7.9,11,2.8c3.3,1.9,5.9,4.5,7.9,7.8,1.9,3.3,2.9,7.1,2.9,11.2s-1,7.9-2.9,11.2c-1.9,3.3-4.6,5.9-7.9,7.8-3.3,1.9-7,2.8-10.9,2.8s-7.7-.9-11-2.8ZM351.3,292.7c1.4-1.7,2.2-4,2.2-6.9s-.7-5.2-2.2-6.9c-1.4-1.7-3.5-2.5-6.1-2.5s-4.7.9-6.2,2.5c-1.4,1.7-2.2,4-2.2,6.9s.7,5.2,2.2,6.9c1.4,1.7,3.5,2.5,6.2,2.5s4.7-.8,6.1-2.5Z"/>
      <path class="cls-6" d="M384.7,264.8v23.9c0,2,.4,3.5,1.3,4.6.9,1.1,2.2,1.7,4.2,1.7s3.3-.6,4.3-1.7c.9-1.1,1.4-2.7,1.4-4.6v-23.9h13.3v23.9c0,4-.8,7.5-2.5,10.4-1.7,2.9-4,5-6.9,6.4-2.9,1.4-6.2,2.2-9.8,2.2s-6.8-.7-9.6-2.2c-2.8-1.4-4.9-3.6-6.5-6.4-1.6-2.8-2.3-6.3-2.3-10.4v-23.9h13.3Z"/>
      <path class="cls-6" d="M448.2,264.8v10.6h-11.3v31.9h-13.3v-31.9h-11.2v-10.6h35.8Z"/>
      <path class="cls-6" d="M455.9,304.1c-3.3-2.4-5.1-5.9-5.4-10.5h14.2c.2,2.4,1.3,3.7,3.2,3.7s1.3-.2,1.8-.5c.5-.3.8-.9.8-1.6s-.5-1.8-1.6-2.4c-1.1-.6-2.8-1.3-5-2.1-2.7-1-5-1.9-6.8-2.8-1.8-.9-3.3-2.3-4.6-4-1.3-1.8-1.9-4-1.9-6.8,0-2.8.7-5.1,2.1-7,1.4-1.9,3.4-3.4,5.8-4.4,2.5-1,5.2-1.5,8.3-1.5,5.2,0,9.3,1.2,12.4,3.6,3.1,2.4,4.7,5.8,4.8,10.1h-14.3c0-1.2-.3-2.1-.9-2.6-.6-.5-1.2-.8-2-.8s-1,.2-1.4.6c-.4.4-.5.9-.5,1.6s.5,1.8,1.6,2.4c1.1.6,2.8,1.4,5.1,2.2,2.7,1,4.9,2,6.6,2.9,1.7.9,3.2,2.2,4.5,3.8,1.3,1.6,1.9,3.7,1.9,6.2s-.6,4.9-1.9,7c-1.3,2.1-3.1,3.7-5.6,4.8-2.4,1.2-5.3,1.7-8.7,1.7-5.1,0-9.3-1.2-12.6-3.6Z"/>
    </g>
    <text class="cls-8" transform="translate(1331.2 307.3)"><tspan x="0" y="0">TEAMS EFFECTED</tspan></text>
    <g>
      <path class="cls-6" d="M311.9,477.1h-62.4v18.1c2.7-2.4,6.3-4.4,10.6-5.8,4.4-1.4,9.3-2.1,14.7-2.1,9.7,0,18,2.3,24.7,6.9,6.7,4.6,11.8,10.7,15,18.4,3.3,7.7,4.9,16.2,4.9,25.5,0,17.2-4.8,30.6-14.5,40.1-9.7,9.5-23,14.3-39.9,14.3s-23-2.2-31.9-6.5c-9-4.3-15.8-10.2-20.4-17.8-4.7-7.6-6.8-16.3-6.6-26h46.4c0,2.3.8,4.4,2.4,6.4,1.6,2,4.2,3,7.7,3s6.2-1.3,8-3.9c1.7-2.6,2.6-6.1,2.6-10.5s-1-7.3-2.9-9.5-4.7-3.2-8.3-3.2-5.3.7-6.9,2.1c-1.6,1.4-2.4,3.1-2.4,4.9h-46.4v-96.3h105.4v41.9Z"/>
      <path class="cls-6" d="M351,453c10.5-14.2,26.8-21.3,48.7-21.3s38,7.1,48.6,21.4c10.6,14.3,15.9,33.7,15.9,58.4s-5.3,44.3-15.9,58.6c-10.6,14.3-26.8,21.4-48.6,21.4s-38.2-7.1-48.7-21.4c-10.5-14.3-15.8-33.8-15.8-58.6s5.3-44.3,15.8-58.5ZM413.6,485.6c-2.3-5.8-7-8.7-14-8.7s-11.9,2.9-14.2,8.7c-2.3,5.8-3.4,14.4-3.4,25.9s1.1,20.3,3.4,26.1c2.3,5.8,7,8.7,14.2,8.7s11.7-2.9,14-8.7c2.3-5.8,3.4-14.5,3.4-26.1s-1.1-20.1-3.4-25.9Z"/>
    </g>
    <g>
      <path class="cls-6" d="M1472.6,446.2c9.5-9,23-13.5,40.5-13.5s21,1.9,29,5.8c8,3.9,14.1,9.1,18.2,15.7,4.1,6.6,6.1,14,6.1,22.4s-2.4,17.9-7.1,23.5c-4.7,5.7-10,9.5-15.9,11.5v.9c17.2,6.5,25.8,18.4,25.8,35.9s-2.2,17.3-6.5,24.3c-4.3,7-10.4,12.5-18.4,16.3-8,3.9-17.4,5.8-28.3,5.8-18.6,0-33.3-4.4-43.9-13.3-10.6-8.9-16.1-22.8-16.3-41.7h46.4c-.3,5.2.5,9.1,2.3,11.7,1.8,2.7,4.9,4,9.4,4s4.7-1,6.5-2.9c1.7-1.9,2.6-4.5,2.6-7.6s-1.3-7.1-4-9.1c-2.7-2.1-7.1-3.1-13.4-3.1h-8v-38.5h7.7c9.7.6,14.6-3.3,14.6-11.6s-.8-6.2-2.3-8c-1.5-1.7-3.4-2.6-5.7-2.6-5.3,0-8,4.4-8,13.3h-46.4c.4-17.1,5.4-30.1,14.9-39.1Z"/>
      <path class="cls-6" d="M1705.8,478h-62.3v18.1c2.7-2.4,6.3-4.4,10.6-5.8,4.4-1.4,9.3-2.1,14.7-2.1,9.7,0,18,2.3,24.7,6.9,6.7,4.6,11.8,10.7,15,18.4,3.3,7.7,4.9,16.2,4.9,25.5,0,17.2-4.8,30.6-14.5,40.1-9.7,9.5-23,14.3-39.9,14.3s-23-2.2-31.9-6.5c-9-4.3-15.8-10.2-20.4-17.8-4.7-7.6-6.8-16.3-6.6-26h46.4c0,2.3.8,4.4,2.4,6.4,1.6,2,4.2,3,7.7,3s6.2-1.3,8-3.9c1.7-2.6,2.6-6.1,2.6-10.5s-1-7.3-2.9-9.5c-1.9-2.2-4.7-3.2-8.3-3.2s-5.3.7-6.9,2.1c-1.6,1.4-2.4,3.1-2.4,4.9h-46.4v-96.3h105.3v41.9Z"/>
    </g>
  </g>
</svg>