<?xml version="1.0" encoding="utf-8"?>
<!-- Generator: Adobe Illustrator 28.5.0, SVG Export Plug-In . SVG Version: 9.03 Build 54727)  -->
<svg version="1.0" id="katman_1" xmlns="http://www.w3.org/2000/svg" xmlns:xlink="http://www.w3.org/1999/xlink" x="0px" y="0px"
	 viewBox="0 0 500 500" style="enable-background:new 0 0 500 500;" xml:space="preserve">
<style type="text/css">
	.st0{fill-rule:evenodd;clip-rule:evenodd;fill:#1C7553;}
</style>
<path class="st0" d="M471.6,150.3C442.3,93.1,379.1,73,320.9,61c-20.1-4.5-59-6.4-59-6.4c-4,0-8,0.1-11.9,0.2v0.1
	c-4-0.1-7.9-0.1-11.9-0.2c0,0-38.8,1.9-59,6.4c-58.2,12-121.4,32.1-150.7,89.3C9.7,198.7,9.7,261.7,17.1,310.8l0.6,4.1
	c6,49.8,50.5,90.4,99.9,107.3c40,17.2,86.6,23.8,132.8,23.1v-0.1c45.9,0.7,92.2-6,131.8-23.1c49.4-17,94-57.5,100-107.3l0.6-4.1
	C490.3,261.6,490.3,198.7,471.6,150.3L471.6,150.3z M369.6,305.6c-1.2,21.8-3.2,44.5-14.8,62.5c-25.4,33.6-65,47.9-104.8,48.3v0.1
	c-39.8-0.4-79.4-14.7-104.8-48.3c-11.6-18-13.6-40.7-14.8-62.5c-2.7-50.1,2.1-137,4.6-146.1c12.6-45.5,56.5-69.2,102-73.4
	c0,0,7.3-0.6,13.5-0.7v0c5.9,0.2,12.5,0.7,12.5,0.7c45.5,4.2,89.4,27.9,102,73.4C367.6,168.6,372.3,255.6,369.6,305.6L369.6,305.6z"
	/>
</svg>
