<?xml version="1.0" encoding="utf-8"?>
<!-- Generator: Adobe Illustrator 28.5.0, SVG Export Plug-In . SVG Version: 9.03 Build 54727)  -->
<svg version="1.0" id="katman_1" xmlns="http://www.w3.org/2000/svg" xmlns:xlink="http://www.w3.org/1999/xlink" x="0px" y="0px"
	 viewBox="0 0 500 500" style="enable-background:new 0 0 500 500;" xml:space="preserve">
<style type="text/css">
	.st0{fill-rule:evenodd;clip-rule:evenodd;fill:#FFFFFF;}
	.st1{fill-rule:evenodd;clip-rule:evenodd;fill:#FF7314;}
	.st2{fill-rule:evenodd;clip-rule:evenodd;}
</style>
<g>
	<path class="st0" d="M268.4,194.9c11.7-2.8,11.2,13.9,2.1,14.1C262.1,209.2,260.3,196.8,268.4,194.9z"/>
	<path class="st0" d="M284.7,203.4c5.8,5.1-4.2,8.9-4.7,3.4C279.8,204.6,281.4,203.1,284.7,203.4z"/>
	<path class="st0" d="M434,288.1c-9.9,16.6-22.3,35.5-34.2,51.8c-4.1,5.6-8.1,11.7-12.8,15.8c-2.5,2.2-5,3.9-9.8,3.4
		c0.4-1.8,1.3-2.9,1.7-4.7c-4.6,3.8-9.8,10.7-21.4,9c14.5-8.5,19-29.7,25.2-47.9c1.8-5.2,2.8-12.1,5.1-15.4c3.9-5.4,17.7-9,28.2-8.6
		c0.5,3,1.1,6,1.3,9.4C422.4,296.2,424,288,434,288.1z"/>
	<path class="st1" d="M294.1,352.3c27.6-0.5,49.3-6.9,64.6-19.7c0.5-0.1,0.8,0.1,0.9,0.4c-2.5,12.9-9.6,21.2-19.3,27
		C322.6,359.8,306.4,358,294.1,352.3z"/>
	<path class="st1" d="M295.4,139.7c63.3,15.7,120.1,41.7,168.2,74c-10.5,6-28,2.4-39.4-0.4c-0.9,17.8,22.9,15.9,25.7,30.4
		c1.5,8.2-3.8,16.7-8.6,19.7c-5.1,3.3-13.1,4.4-19.7,6.8c-19.5,7.2-34.9,15.3-51.8,27.4c-9.8,7-19.2,16.2-28.2,24.4
		c-9.6,8.6-23.7,19.2-41.9,17.5c-13.7-1.3-22-11.9-26.1-22.7c39.2,0,71.6-6.8,87.3-30.4c-36.3,22.8-100.7,24.5-158.3,20.5
		c-1.5,0.2-8.1-0.3-3-0.4c24.2-0.8,49.2-1.1,69.8-4.7c0.9-4.4,0.1-10.5,1.3-14.5c37.1,0.1,67.7-6.2,84.7-26.1
		C307.2,289,217.7,277.5,158,268c30.7,0.6,69.3,3.2,104,1.7c5.7-0.2,12.3,0,15.8-1.3c2.2-0.8,4.6-4.5,6.8-6.4
		c4.3-3.8,8.1-5.8,15.4-6.8c-19.5-6.5-43.3-9.7-68.9-6.8c-7.7,0.9-15.4,3.6-22.3,3.4c-10.8-0.3-21.9-7.1-28.7-12
		c-8.2-6-14.1-12.8-19.3-21c22.9,13.7,67.2,16.5,103.6,11.6c-0.1-8.2-7.3-12.9-13.3-16.7c12.6-3.5,20.2,6.4,28.7,9.8
		c10.4,4.2,25.1,1.3,33.8-3c0.2,3.7-3.8,7-6.4,9.4c18.1,6.6,45.3,2.4,63.3-1.3c-2.3-2.5-7.1-2.6-8.6-6c17.2-1,32.1-4.4,43.2-11.6
		c-9.2-4.4-32.6-12-38.1,0.9c-11.1,1.4-21.1-2-29.5-4.7c0.2,3.5,3.4,6.3,3.4,8.6c-15.2-1-27.3-2.6-37.7-11.1
		c-9.4-7.7-14-17.8-27.4-19.3c-14.3-1.6-25.2,5.5-27.4,18c-7.9-23,20.1-32.6,38.5-24c-6.2-14-34-11.2-51.4-7.3
		c-15,3.4-27.9,9-38.9,12.8c-0.3,7.4-1.9,13.5-3.4,19.7c-5.1-9.9-9.3-19.5-16.7-27c-10-10-23.7-16-40.7-19.3
		c-4.1,15,3.1,31.5,7.3,41.1c-3.3-0.9-8.2,1.1-12,0c-3.4-1-8.4-8.7-11.6-11.6c-12.1-11.2-24-22-41.1-27.4
		c28.7-15.2,76.5-17.1,119-13.3c0.2-3.9-4.5-8.9-5.1-12c41.9,0.6,78.7,6.3,110,17.5C301.3,147.4,298.6,143.3,295.4,139.7z
		 M393.4,233.4c0-3.5,7.3-4.5,6.4-6c-7.3,1.7-13.7,4.3-17.5,9.4c3.5,0.9,10.7,1.7,14.1,0C394.1,236,393.3,235,393.4,233.4z
		 M414.3,250.5c3.5,2.2,8.6,1.5,13.7,1.3c-6.4-4,1.8-8.4,3.9-9.8C424.6,243.4,418.8,246.3,414.3,250.5z M384.8,265.9
		c5.4,1.6,13.7,0.8,17.5-1.7c-9.2-2.6-0.2-10.1,4.3-11.6C397,254.4,388.3,259.4,384.8,265.9z"/>
	<g>
		<path class="st2" d="M396.4,236.8c-3.4,1.7-10.6,0.9-14.1,0c3.8-5.2,10.3-7.7,17.5-9.4c0.9,1.5-6.4,2.5-6.4,6
			C393.3,235,394.1,236,396.4,236.8z"/>
		<path class="st2" d="M406.6,252.6c-4.5,1.5-13.4,9-4.3,11.6c-3.9,2.5-12.1,3.3-17.5,1.7C388.3,259.4,397,254.4,406.6,252.6z"/>
		<path class="st2" d="M431.9,241.9c-2.1,1.5-10.3,5.9-3.9,9.8c-5,0.2-10.2,0.9-13.7-1.3C418.8,246.3,424.6,243.4,431.9,241.9z"/>
		<path class="st2" d="M487.5,217.5c-23.1,44.8-45.9,88.6-75.3,128.4c-7.3,9.9-21.2,30.8-34.2,34.7c-7.7,2.2-17.8,1.6-27,2.1
			c-66.3,3.9-128.8-7.4-167.7-32.5c9.7-0.4,21.8,0.3,32.1-2.1c-45.2-9.7-78.5-31.4-103.1-61.6c8.3,2,19.6,1.2,29.1,0.9
			c-26.5-14.4-49.1-32.8-62.9-59.9c10.6,1.4,24.1,3.5,38.1,3c-23.6-33.9-58.6-60.1-104-73.6C62.1,135,116.6,120.1,184.1,117
			c66.5-3.1,126.9,10.5,174.6,27.8C409.4,163.2,452.1,188.4,487.5,217.5z M302.6,152.9c-31.3-11.2-68.1-16.9-110-17.5
			c0.6,3.1,5.3,8.1,5.1,12c-42.4-3.8-90.2-1.9-119,13.3c17.1,5.4,29,16.2,41.1,27.4c3.1,2.9,8.2,10.5,11.6,11.6
			c3.8,1.1,8.7-0.9,12,0c-4.1-9.6-11.4-26.1-7.3-41.1c16.9,3.2,30.6,9.2,40.7,19.3c7.4,7.4,11.6,17.1,16.7,27
			c1.5-6.2,3.1-12.3,3.4-19.7c11.1-3.8,23.9-9.4,38.9-12.8c17.3-4,45.2-6.7,51.4,7.3c-18.5-8.6-46.5,0.9-38.5,24
			c2.2-12.5,13.1-19.6,27.4-18c13.4,1.5,17.9,11.5,27.4,19.3c10.4,8.5,22.5,10.1,37.7,11.1c-0.1-2.2-3.3-5-3.4-8.6
			c8.4,2.7,18.4,6.1,29.5,4.7c5.4-12.9,28.9-5.3,38.1-0.9c-11.1,7.2-26,10.5-43.2,11.6c1.4,3.4,6.2,3.5,8.6,6
			c-18,3.7-45.2,7.9-63.3,1.3c2.6-2.4,6.6-5.7,6.4-9.4c-8.7,4.3-23.4,7.2-33.8,3c-8.5-3.4-16.1-13.3-28.7-9.8
			c6,3.7,13.1,8.5,13.3,16.7c-36.4,5-80.7,2.1-103.6-11.6c5.2,8.2,11.1,15,19.3,21c6.8,4.9,17.9,11.7,28.7,12
			c6.8,0.2,14.5-2.6,22.3-3.4c25.6-2.8,49.4,0.3,68.9,6.8c-7.3,1-11.1,3.1-15.4,6.8c-2.2,1.9-4.6,5.6-6.8,6.4
			c-3.5,1.3-10.2,1-15.8,1.3c-34.7,1.5-73.3-1.1-104-1.7c59.7,9.4,149.2,21,197.3-6.8c-17,19.9-47.7,26.2-84.7,26.1
			c-1.2,4.1-0.4,10.2-1.3,14.5c-20.5,3.6-45.6,3.9-69.8,4.7c-5.1,0.2,1.5,0.6,3,0.4c57.7,4,122,2.3,158.3-20.5
			c-15.7,23.5-48.1,30.4-87.3,30.4c4.1,10.7,12.4,21.4,26.1,22.7c18.2,1.7,32.3-8.9,41.9-17.5c9.1-8.2,18.4-17.4,28.2-24.4
			c16.8-12.1,32.2-20.2,51.8-27.4c6.6-2.4,14.6-3.6,19.7-6.8c4.7-3,10.1-11.5,8.6-19.7c-2.7-14.5-26.6-12.6-25.7-30.4
			c11.4,2.8,28.8,6.5,39.4,0.4c-48.1-32.4-104.8-58.3-168.2-74C298.6,143.3,301.3,147.4,302.6,152.9z M270.5,209
			c9.1-0.2,9.5-16.9-2.1-14.1C260.3,196.8,262.1,209.2,270.5,209z M280,206.8c0.5,5.5,10.5,1.7,4.7-3.4
			C281.4,203.1,279.8,204.6,280,206.8z M417.3,301c-0.2-3.4-0.7-6.4-1.3-9.4c-10.5-0.5-24.4,3.1-28.2,8.6
			c-2.4,3.3-3.4,10.2-5.1,15.4c-6.3,18.3-10.8,39.4-25.2,47.9c11.6,1.7,16.8-5.1,21.4-9c-0.4,1.8-1.3,2.9-1.7,4.7
			c4.8,0.5,7.3-1.2,9.8-3.4c4.7-4.1,8.8-10.3,12.8-15.8c11.9-16.3,24.3-35.1,34.2-51.8C424,288,422.4,296.2,417.3,301z M340.3,360
			c9.6-5.8,16.8-14,19.3-27c-0.1-0.3-0.4-0.5-0.9-0.4c-15.3,12.8-37,19.2-64.6,19.7C306.4,358,322.6,359.8,340.3,360z"/>
	</g>
</g>
</svg>
