<?xml version="1.0" encoding="utf-8"?>
<!-- Generator: Adobe Illustrator 28.5.0, SVG Export Plug-In . SVG Version: 9.03 Build 54727)  -->
<svg version="1.0" id="Layer_1" xmlns="http://www.w3.org/2000/svg" xmlns:xlink="http://www.w3.org/1999/xlink" x="0px" y="0px"
	 viewBox="0 0 500 500" style="enable-background:new 0 0 500 500;" xml:space="preserve">
<style type="text/css">
	.st0{fill:#002951;}
	.st1{fill:#FFFFFF;}
</style>
<g>
	<path d="M412.6,57.8c-0.3-0.2-66.6-24.1-162-24.1h0c-95.4,0-161.7,23.8-162,24.1C72.9,93.1,44.6,302.1,248,467.3l2.6,2v0h0l2.6-2
		C456.6,302.2,428.3,93.1,412.6,57.8"/>
	<path class="st0" d="M396.2,74.3c-0.3-0.2-59.9-21.7-145.6-21.7h0c-85.8,0-145.3,21.4-145.6,21.7c-14.1,31.8-39.6,216.6,143.3,365
		l2.3,1.8l0,0v0l2.4-1.8C435.8,290.9,410.3,106,396.2,74.3"/>
	<path class="st1" d="M250.6,43.6c-90.1,0-152.8,22.8-153,23C82.7,100.5,56,294.9,248.1,452.9l2.4,2h0l2.5-2
		c192.1-158,165.4-352.4,150.6-386.2C403.4,66.5,340.7,43.6,250.6,43.6L250.6,43.6z M250.4,52.8L250.4,52.8
		c85.6,0,145,21.4,145.3,21.6c9,20.4,22.7,103.7-16.9,200l-5.7-10.5c-0.6-1.1-1.1-2.1-1.7-3.2l-0.1-0.3
		C357.6,235.2,276.7,86,263.6,63.2c-0.8,0-3.4-0.1-7.7-0.1h-10.4c-4.3,0-6.9,0-7.7,0.1L127.3,265.6c0.8,2.1,5.6,14.3,12,27.2
		c1.7-3.1,7.5-13.6,14.4-26.5c8.1-14.9,18.7-34.4,30-55.3c44.1-24.2,90.8-2.3,115.5,30.7c-0.3-0.1-0.2-0.1-0.1,0
		c-3.4-2.3-6.9-4.3-10.6-6c-12.2-6.1-25.7-9.3-39.4-9.3c-49.5,0-89.6,40.9-89.6,91.3c0,13.3,2.8,25.9,7.8,37.2
		C74.5,228.3,93.6,100.4,105.1,74.5C105.4,74.3,164.8,52.8,250.4,52.8L250.4,52.8z M221.8,63.1c-25.7,1.4-64.3,5.6-104,17.3
		l-0.9,0.3l0,0l-4.8,1.4c-13.1,45.6-9.1,108.6,10.2,169.5c2.3-4.1,10.2-18.6,16-29.5c-9.4-36-9.6-67.7-9.6-67.9v-0.5l0.4-0.1
		c0.2-0.1,21-6,48.7-9.8c2.1-4.1,11.2-20.8,21.8-40.1C207.1,90.1,214.5,76.6,221.8,63.1L221.8,63.1z M279.6,63.1
		c26.3,47.1,56.9,103.7,77.2,141.3c11.7,21.6,20.5,37.9,22.9,42.1c13-42.7,15.1-69.7,16-81.3c0.2-2,0.3-3.5,0.4-4.7
		c-7.5-2.4-15.1-4.7-22.8-6.7l0,0.4c-0.1,2.1-0.3,7.7-2.3,24.1l-0.2,1.8l-0.9-1.6c-5.9-10.5-10.7-19.6-16.4-30.2
		c-7.1-13.4-16-30.1-30.4-56l-0.6-1.1l1.2,0.2c14.2,2.2,27.5,4.3,47,9.3l0.4,0.1l0.1,0.4c1.8,8.9,2.5,19.9,2.5,27.1
		c8.2,2.3,19.8,5.8,23,6.7c-0.7-30.6-6.9-51-7.6-53.4C371.1,76.2,333.3,66.3,279.6,63.1L279.6,63.1z M250.7,88.5l14.9,27.4
		c0,0-9.2-0.5-14.9-0.5c-5.7,0-14.9,0.5-14.9,0.5L250.7,88.5z M179.3,91.4l-0.6,1.1c-5.7,10.2-8.1,14.6-11.4,20.8
		c-1.3,2.4-2.7,5.1-4.6,8.6l-0.1,0.3l-0.3,0.1c-0.2,0-21.7,4.1-32.7,7.2l-0.8,0.2l0.1-0.9c0.9-14.4,1.6-19.9,3-27.6l0.1-0.4l0.4-0.1
		c20.7-5.1,32.1-7.1,45.8-9L179.3,91.4z M250.7,139.3c3.7,0.1,18.2,0.3,27.9,0.8l0.3,0l0.2,0.3l3.8,6.9
		c11.3,20.5,23.2,42.5,34.8,63.9c-15.7-11.9-49.8-37-67.1-51.1c-1.5,1.7-53.1,40.1-66.6,50.5c12.7-23.4,26.4-48.4,38.3-70.2l0.2-0.3
		l0.3,0C232.1,139.7,241.4,139.5,250.7,139.3L250.7,139.3z M259.1,175.1c16,13.8,35.1,27,58.6,36.1c5,9.2,10.4,19,14.9,27.3
		C282.3,211.4,256.6,171.4,259.1,175.1L259.1,175.1z M270.1,259.8c22.9,0,43.1,11.2,43.1,11.2v23.3l-55.5,56.4h59.3
		c0,0-8.3,10.7-13.9,17h-72.7v-17l63.7-62v-5.1c0,0-5.3-6.6-23.9-6.6c-18.6,0-21.8,5.6-21.8,5.6v12.5h-18V271
		C230.3,271,247.2,259.8,270.1,259.8L270.1,259.8z M214.5,262.3v105.4h-17.2V271C205.8,263.6,214.5,262.3,214.5,262.3L214.5,262.3z
		 M199,393.3c15.3,10.3,33.3,15.9,51.7,15.9c19.6,0,35.7-5,50.7-15.8c-15.1,16.3-31.3,31.6-48.6,45.5l-2.3,1.8h0l-2.3-1.8
		C230.7,424.9,214.3,409.6,199,393.3L199,393.3z"/>
</g>
</svg>
