<?xml version="1.0" encoding="UTF-8"?>
<svg id="Layer_1" data-name="Layer 1" xmlns="http://www.w3.org/2000/svg" version="1.1" viewBox="0 0 1920 1024">
  <defs>
    <style>
      .cls-1 {
        fill: #af0;
      }

      .cls-1, .cls-2 {
        stroke-width: 0px;
      }

      .cls-3 {
        fill: none;
        stroke: #af0;
        stroke-miterlimit: 10;
        stroke-width: 5px;
      }

      .cls-2 {
        fill: #fff;
      }
    </style>
  </defs>
  <g id="Layer_2" data-name="Layer 2">
    <g>
      <g>
        <path class="cls-2" d="M11.3,84h280.5c5.9,0,10.5,4.7,10.5,10.5v21.1c0,5.9-4.7,10.5-10.5,10.5H11.3c-5.9,0-10.5-4.7-10.5-10.5v-21.1c0-5.9,4.7-10.5,10.5-10.5h0Z"/>
        <path class="cls-2" d="M11.3,178.8h280.5c5.9,0,10.5,4.7,10.5,10.5v21.1c0,5.9-4.7,10.5-10.5,10.5H11.3c-5.9,0-10.5-4.7-10.5-10.5v-21.1c0-5.8,4.7-10.5,10.5-10.5h0Z"/>
      </g>
      <g>
        <path class="cls-2" d="M11.3,815.4h280.5c5.9,0,10.5,4.7,10.5,10.5v21.1c0,5.9-4.7,10.5-10.5,10.5H11.3c-5.9,0-10.5-4.7-10.5-10.5v-21.1c0-5.9,4.7-10.5,10.5-10.5h0Z"/>
        <path class="cls-2" d="M11.3,910.2h280.5c5.9,0,10.5,4.7,10.5,10.5v21.1c0,5.9-4.7,10.5-10.5,10.5H11.3c-5.9,0-10.5-4.7-10.5-10.5v-21.1c0-5.9,4.7-10.5,10.5-10.5h0Z"/>
      </g>
    </g>
    <rect class="cls-1" x="323.5" y="84" width="5.4" height="266.1"/>
    <rect class="cls-1" x="323.5" y="686.4" width="5.4" height="266.1"/>
    <path class="cls-2" d="M392,326.3h280.5c5.9,0,10.5,4.7,10.5,10.5v21.1c0,5.9-4.7,10.5-10.5,10.5h-280.5c-5.9,0-10.5-4.7-10.5-10.5v-21.1c0-5.8,4.7-10.5,10.5-10.5Z"/>
    <path class="cls-2" d="M392,667.8h280.5c5.9,0,10.5,4.7,10.5,10.5v21.1c0,5.9-4.7,10.5-10.5,10.5h-280.5c-5.9,0-10.5-4.7-10.5-10.5v-21.1c0-5.9,4.7-10.5,10.5-10.5Z"/>
    <path class="cls-2" d="M819.7,573h280.5c5.9,0,10.5,4.7,10.5,10.5v21.1c0,5.9-4.7,10.5-10.5,10.5h-280.5c-5.9,0-10.5-4.7-10.5-10.5v-21.1c0-5.9,4.7-10.5,10.5-10.5Z"/>
    <path class="cls-2" d="M819.7,421.2h280.5c5.9,0,10.5,4.7,10.5,10.5v21.1c0,5.9-4.7,10.5-10.5,10.5h-280.5c-5.9,0-10.5-4.7-10.5-10.5v-21.1c0-5.8,4.7-10.5,10.5-10.5Z"/>
    <path class="cls-1" d="M819.7,111.7h280.5c5.9,0,10.5,4.7,10.5,10.5v21.1c0,5.9-4.7,10.5-10.5,10.5h-280.5c-5.9,0-10.5-4.7-10.5-10.5v-21.1c0-5.9,4.7-10.5,10.5-10.5Z"/>
    <rect class="cls-1" x="328.8" y="344.7" width="21" height="5.4"/>
    <rect class="cls-1" x="328.8" y="686.4" width="21" height="5.4"/>
    <rect class="cls-1" x="704.2" y="591.3" width="5.4" height="118.5"/>
    <rect class="cls-1" x="709.3" y="591.3" width="21" height="5.4"/>
    <rect class="cls-1" x="704.2" y="326.3" width="5.4" height="266.5"/>
    <rect class="cls-1" x="957.4" y="196.7" width="5.4" height="182.2"/>
    <g>
      <g>
        <path class="cls-2" d="M1908.7,952.4h-280.5c-5.9,0-10.5-4.7-10.5-10.5v-21.1c0-5.9,4.7-10.5,10.5-10.5h280.5c5.9,0,10.5,4.7,10.5,10.5v21.1c0,5.9-4.7,10.5-10.5,10.5Z"/>
        <path class="cls-2" d="M1908.7,857.5h-280.5c-5.9,0-10.5-4.7-10.5-10.5v-21.1c0-5.9,4.7-10.5,10.5-10.5h280.5c5.9,0,10.5,4.7,10.5,10.5v21.1c0,5.9-4.7,10.5-10.5,10.5Z"/>
      </g>
      <g>
        <path class="cls-2" d="M1908.7,221h-280.5c-5.9,0-10.5-4.7-10.5-10.5v-21.1c0-5.9,4.7-10.5,10.5-10.5h280.5c5.9,0,10.5,4.7,10.5,10.5v21.1c0,5.8-4.7,10.5-10.5,10.5Z"/>
        <path class="cls-2" d="M1908.7,126.1h-280.5c-5.9,0-10.5-4.7-10.5-10.5v-21.1c0-5.9,4.7-10.5,10.5-10.5h280.5c5.9,0,10.5,4.7,10.5,10.5v21.1c0,5.9-4.7,10.5-10.5,10.5Z"/>
      </g>
    </g>
    <rect class="cls-1" x="1591.2" y="686.4" width="5.4" height="266.1"/>
    <rect class="cls-1" x="1591.2" y="84" width="5.4" height="266.1"/>
    <path class="cls-2" d="M1528,710h-280.5c-5.9,0-10.5-4.7-10.5-10.5v-21.1c0-5.9,4.7-10.5,10.5-10.5h280.5c5.9,0,10.5,4.7,10.5,10.5v21.1c0,5.9-4.7,10.5-10.5,10.5Z"/>
    <path class="cls-2" d="M1528,368.5h-280.5c-5.9,0-10.5-4.7-10.5-10.5v-21.1c0-5.9,4.7-10.5,10.5-10.5h280.5c5.9,0,10.5,4.7,10.5,10.5v21.1c0,5.8-4.7,10.5-10.5,10.5Z"/>
    <rect class="cls-1" x="1570.2" y="686.4" width="21" height="5.4"/>
    <rect class="cls-1" x="1570.2" y="344.7" width="21" height="5.4"/>
    <rect class="cls-1" x="1210.8" y="326.3" width="5.4" height="118.5"/>
    <rect class="cls-1" x="1189.7" y="439.7" width="21" height="5.4"/>
    <rect class="cls-1" x="1210.8" y="443.5" width="5.4" height="266.5"/>
    <path class="cls-3" d="M1131.1,106.2v53.4c0,7.6-6.2,13.9-13.9,13.9h-314.4c-7.6,0-13.9-6.2-13.9-13.9v-53.4c0-7.6,6.2-13.9,13.9-13.9h314.2c7.9,0,14,6.2,14,13.9Z"/>
  </g>
</svg>