<?xml version="1.0" encoding="utf-8"?>
<!-- Generator: Adobe Illustrator 28.5.0, SVG Export Plug-In . SVG Version: 9.03 Build 54727)  -->
<svg version="1.0" id="Layer_1" xmlns="http://www.w3.org/2000/svg" xmlns:xlink="http://www.w3.org/1999/xlink" x="0px" y="0px"
	 viewBox="0 0 1920 1024" style="enable-background:new 0 0 1920 1024;" xml:space="preserve">
<style type="text/css">
	.st0{fill:#FFFFFF;}
	.st1{fill:#4827EC;}
	.st2{fill:none;stroke:#4827EC;stroke-width:5;stroke-miterlimit:10;}
</style>
<g>
	<g>
		<g>
			<path class="st0" d="M59.9,100h266.2c5.5,0,9.9,4.4,9.9,9.9v20.1c0,5.5-4.4,9.9-9.9,9.9H59.9c-5.5,0-9.9-4.4-9.9-9.9v-20.1
				C50,104.4,54.4,100,59.9,100z"/>
		</g>
		<g>
			<path class="st0" d="M59.9,190h266.2c5.5,0,9.9,4.4,9.9,9.9v20.1c0,5.5-4.4,9.9-9.9,9.9H59.9c-5.5,0-9.9-4.4-9.9-9.9v-20.1
				C50,194.4,54.4,190,59.9,190z"/>
		</g>
	</g>
	<g>
		<g>
			<path class="st0" d="M59.9,794h266.2c5.5,0,9.9,4.4,9.9,9.9v20.1c0,5.5-4.4,9.9-9.9,9.9H59.9c-5.5,0-9.9-4.4-9.9-9.9v-20.1
				C50,798.4,54.4,794,59.9,794z"/>
		</g>
		<g>
			<path class="st0" d="M59.9,884h266.2c5.5,0,9.9,4.4,9.9,9.9v20.1c0,5.5-4.4,9.9-9.9,9.9H59.9c-5.5,0-9.9-4.4-9.9-9.9v-20.1
				C50,888.4,54.4,884,59.9,884z"/>
		</g>
	</g>
</g>
<rect x="356.1" y="100" class="st0" width="5" height="252.5"/>
<rect x="356.1" y="671.5" class="st0" width="5" height="252.5"/>
<g>
	<path class="st0" d="M421,330h266.2c5.5,0,9.9,4.4,9.9,9.9v20.1c0,5.5-4.4,9.9-9.9,9.9H421c-5.5,0-9.9-4.4-9.9-9.9v-20.1
		C411.1,334.4,415.5,330,421,330z"/>
</g>
<g>
	<path class="st0" d="M421,654h266.2c5.5,0,9.9,4.4,9.9,9.9v20.1c0,5.5-4.4,9.9-9.9,9.9H421c-5.5,0-9.9-4.4-9.9-9.9v-20.1
		C411.1,658.4,415.5,654,421,654z"/>
</g>
<g>
	<path class="st0" d="M826.9,564h266.2c5.5,0,9.9,4.4,9.9,9.9v20.1c0,5.5-4.4,9.9-9.9,9.9H826.9c-5.5,0-9.9-4.4-9.9-9.9v-20.1
		C817,568.4,821.4,564,826.9,564z"/>
</g>
<g>
	<path class="st0" d="M826.9,420h266.2c5.5,0,9.9,4.4,9.9,9.9v20.1c0,5.5-4.4,9.9-9.9,9.9H826.9c-5.5,0-9.9-4.4-9.9-9.9v-20.1
		C817,424.4,821.4,420,826.9,420z"/>
</g>
<g>
	<path class="st1" d="M826.9,126.3h266.2c5.5,0,9.9,4.4,9.9,9.9v20.1c0,5.5-4.4,9.9-9.9,9.9H826.9c-5.5,0-9.9-4.4-9.9-9.9v-20.1
		C817,130.7,821.4,126.3,826.9,126.3z"/>
</g>
<rect x="361.1" y="347.5" class="st0" width="20" height="5"/>
<rect x="361.1" y="671.5" class="st0" width="20" height="5"/>
<rect x="717.2" y="581.5" class="st0" width="5" height="112.5"/>
<rect x="722.2" y="581.5" class="st0" width="20" height="5"/>
<rect x="717.2" y="330" class="st0" width="5" height="252.9"/>
<rect x="957.5" y="207.1" class="st0" width="5" height="172.9"/>
<g>
	<g>
		<g>
			<path class="st0" d="M1860.1,924h-266.2c-5.5,0-9.9-4.4-9.9-9.9v-20.1c0-5.5,4.4-9.9,9.9-9.9h266.2c5.5,0,9.9,4.4,9.9,9.9v20.1
				C1870,919.6,1865.6,924,1860.1,924z"/>
		</g>
		<g>
			<path class="st0" d="M1860.1,834h-266.2c-5.5,0-9.9-4.4-9.9-9.9v-20.1c0-5.5,4.4-9.9,9.9-9.9h266.2c5.5,0,9.9,4.4,9.9,9.9v20.1
				C1870,829.6,1865.6,834,1860.1,834z"/>
		</g>
	</g>
	<g>
		<g>
			<path class="st0" d="M1860.1,230h-266.2c-5.5,0-9.9-4.4-9.9-9.9v-20.1c0-5.5,4.4-9.9,9.9-9.9h266.2c5.5,0,9.9,4.4,9.9,9.9v20.1
				C1870,225.6,1865.6,230,1860.1,230z"/>
		</g>
		<g>
			<path class="st0" d="M1860.1,140h-266.2c-5.5,0-9.9-4.4-9.9-9.9v-20.1c0-5.5,4.4-9.9,9.9-9.9h266.2c5.5,0,9.9,4.4,9.9,9.9v20.1
				C1870,135.6,1865.6,140,1860.1,140z"/>
		</g>
	</g>
</g>
<rect x="1558.9" y="671.5" transform="matrix(-1 -4.511115e-11 4.511115e-11 -1 3122.8323 1595.5)" class="st0" width="5" height="252.5"/>
<rect x="1558.9" y="100" transform="matrix(-1 -4.492907e-11 4.492907e-11 -1 3122.8323 452.5)" class="st0" width="5" height="252.5"/>
<g>
	<path class="st0" d="M1499,694h-266.2c-5.5,0-9.9-4.4-9.9-9.9v-20.1c0-5.5,4.4-9.9,9.9-9.9H1499c5.5,0,9.9,4.4,9.9,9.9v20.1
		C1508.9,689.6,1504.5,694,1499,694z"/>
</g>
<g>
	<path class="st0" d="M1499,370h-266.2c-5.5,0-9.9-4.4-9.9-9.9v-20.1c0-5.5,4.4-9.9,9.9-9.9H1499c5.5,0,9.9,4.4,9.9,9.9v20.1
		C1508.9,365.6,1504.5,370,1499,370z"/>
</g>
<rect x="1538.9" y="671.5" transform="matrix(-1 -4.492907e-11 4.492907e-11 -1 3097.8323 1348)" class="st0" width="20" height="5"/>
<rect x="1538.9" y="347.5" transform="matrix(-1 -4.488377e-11 4.488377e-11 -1 3097.8323 700)" class="st0" width="20" height="5"/>
<rect x="1197.8" y="330" transform="matrix(-1 -4.474744e-11 4.474744e-11 -1 2400.6646 772.5)" class="st0" width="5" height="112.5"/>
<rect x="1177.8" y="437.5" transform="matrix(-1 -4.492907e-11 4.492907e-11 -1 2375.6646 880)" class="st0" width="20" height="5"/>
<rect x="1197.8" y="441.1" transform="matrix(-1 -4.511115e-11 4.511115e-11 -1 2400.6646 1135.0835)" class="st0" width="5" height="252.9"/>
<path class="st2" d="M1122.3,121v50.6c0,7.3-5.9,13.2-13.2,13.2H810.9c-7.3,0-13.2-5.9-13.2-13.2V121c0-7.3,5.9-13.2,13.2-13.2
	h298.1C1116.4,107.8,1122.3,113.7,1122.3,121z"/>
</svg>
