<?xml version="1.0" encoding="utf-8"?>
<!-- Generator: Adobe Illustrator 27.9.4, SVG Export Plug-In . SVG Version: 9.03 Build 54784)  -->
<svg version="1.1" id="Layer_1" xmlns="http://www.w3.org/2000/svg" xmlns:xlink="http://www.w3.org/1999/xlink" x="0px" y="0px"
	 viewBox="0 0 1920 1024" style="enable-background:new 0 0 1920 1024;" xml:space="preserve">
<style type="text/css">
	.st0{fill:#212121;}
	.st1{fill:#AAFF00;}
	.st2{fill:#FFFFFF;}
	.st3{fill:none;stroke:#AAFF00;stroke-miterlimit:10;}
	.st4{fill:none;stroke:#FFFFFF;stroke-width:2;stroke-miterlimit:10;}
</style>
<g id="Layer_3">
	<rect class="st0" width="1920" height="1024"/>
</g>
<g id="Layer_2_00000096754168660083395110000009414115689843973530_">
	<rect x="1264.9" y="901.6" class="st1" width="450" height="5"/>
	<rect x="204.8" y="901.6" class="st2" width="450" height="5"/>
	<rect x="1264.9" y="117.4" class="st2" width="450" height="5"/>
	<rect x="204.8" y="117.4" class="st1" width="450" height="5"/>
	<g>
		<g>
			<path class="st2" d="M390.8,251.5h168.3c3.5,0,6.3,2.8,6.3,6.3v12.7c0,3.5-2.8,6.3-6.3,6.3H390.8c-3.5,0-6.3-2.8-6.3-6.3v-12.7
				C384.5,254.3,387.3,251.5,390.8,251.5L390.8,251.5z"/>
			<path class="st2" d="M390.8,308.4h168.3c3.5,0,6.3,2.8,6.3,6.3v12.7c0,3.5-2.8,6.3-6.3,6.3H390.8c-3.5,0-6.3-2.8-6.3-6.3v-12.7
				C384.5,311.2,387.3,308.4,390.8,308.4z"/>
		</g>
		<g>
			<path class="st2" d="M390.8,690.3h168.3c3.5,0,6.3,2.8,6.3,6.3v12.7c0,3.5-2.8,6.3-6.3,6.3H390.8c-3.5,0-6.3-2.8-6.3-6.3v-12.7
				C384.5,693.1,387.3,690.3,390.8,690.3z"/>
			<path class="st2" d="M390.8,747.2h168.3c3.5,0,6.3,2.8,6.3,6.3v12.7c0,3.5-2.8,6.3-6.3,6.3H390.8c-3.5,0-6.3-2.8-6.3-6.3v-12.7
				C384.5,750,387.3,747.2,390.8,747.2z"/>
		</g>
	</g>
	<rect x="578.1" y="251.5" class="st1" width="3.2" height="159.7"/>
	<rect x="578.1" y="612.9" class="st1" width="3.2" height="159.7"/>
	<path class="st2" d="M619.2,396.9h168.3c3.5,0,6.3,2.8,6.3,6.3v12.7c0,3.5-2.8,6.3-6.3,6.3H619.2c-3.5,0-6.3-2.8-6.3-6.3v-12.7
		C612.9,399.7,615.7,396.9,619.2,396.9z"/>
	<path class="st2" d="M619.2,601.8h168.3c3.5,0,6.3,2.8,6.3,6.3v12.7c0,3.5-2.8,6.3-6.3,6.3H619.2c-3.5,0-6.3-2.8-6.3-6.3v-12.7
		C612.9,604.6,615.7,601.8,619.2,601.8z"/>
	<path class="st2" d="M875.8,544.9h168.3c3.5,0,6.3,2.8,6.3,6.3v12.7c0,3.5-2.8,6.3-6.3,6.3H875.8c-3.5,0-6.3-2.8-6.3-6.3v-12.7
		C869.5,547.7,872.3,544.9,875.8,544.9z"/>
	<path class="st2" d="M875.8,453.8h168.3c3.5,0,6.3,2.8,6.3,6.3v12.7c0,3.5-2.8,6.3-6.3,6.3H875.8c-3.5,0-6.3-2.8-6.3-6.3v-12.7
		C869.5,456.6,872.3,453.8,875.8,453.8z"/>
	<path class="st1" d="M875.8,268.1h168.3c3.5,0,6.3,2.8,6.3,6.3v12.7c0,3.5-2.8,6.3-6.3,6.3H875.8c-3.5,0-6.3-2.8-6.3-6.3v-12.7
		C869.5,270.9,872.3,268.1,875.8,268.1z"/>
	<rect x="581.3" y="408" class="st1" width="12.6" height="3.2"/>
	<rect x="581.3" y="612.9" class="st1" width="12.6" height="3.2"/>
	<rect x="806.5" y="555.9" class="st1" width="3.2" height="71.1"/>
	<rect x="809.6" y="555.9" class="st1" width="12.6" height="3.2"/>
	<rect x="806.5" y="396.9" class="st1" width="3.2" height="159.9"/>
	<rect x="958.4" y="319.2" class="st1" width="3.2" height="109.3"/>
	<g>
		<g>
			<path class="st2" d="M1529.2,772.5h-168.3c-3.5,0-6.3-2.8-6.3-6.3v-12.7c0-3.5,2.8-6.3,6.3-6.3h168.3c3.5,0,6.3,2.8,6.3,6.3v12.7
				C1535.5,769.7,1532.7,772.5,1529.2,772.5z"/>
			<path class="st2" d="M1529.2,715.6h-168.3c-3.5,0-6.3-2.8-6.3-6.3v-12.7c0-3.5,2.8-6.3,6.3-6.3h168.3c3.5,0,6.3,2.8,6.3,6.3v12.7
				C1535.5,712.8,1532.7,715.6,1529.2,715.6z"/>
		</g>
		<g>
			<path class="st2" d="M1529.2,333.7h-168.3c-3.5,0-6.3-2.8-6.3-6.3v-12.7c0-3.5,2.8-6.3,6.3-6.3h168.3c3.5,0,6.3,2.8,6.3,6.3v12.7
				C1535.5,330.9,1532.7,333.7,1529.2,333.7z"/>
			<path class="st2" d="M1529.2,276.8h-168.3c-3.5,0-6.3-2.8-6.3-6.3v-12.7c0-3.5,2.8-6.3,6.3-6.3h168.3c3.5,0,6.3,2.8,6.3,6.3v12.7
				C1535.5,274,1532.7,276.8,1529.2,276.8z"/>
		</g>
	</g>
	<rect x="1338.7" y="612.9" class="st1" width="3.2" height="159.7"/>
	<rect x="1338.7" y="251.5" class="st1" width="3.2" height="159.7"/>
	<path class="st2" d="M1300.8,627.1h-168.3c-3.5,0-6.3-2.8-6.3-6.3v-12.7c0-3.5,2.8-6.3,6.3-6.3h168.3c3.5,0,6.3,2.8,6.3,6.3v12.7
		C1307.1,624.3,1304.3,627.1,1300.8,627.1z"/>
	<path class="st2" d="M1300.8,422.2h-168.3c-3.5,0-6.3-2.8-6.3-6.3v-12.7c0-3.5,2.8-6.3,6.3-6.3h168.3c3.5,0,6.3,2.8,6.3,6.3v12.7
		C1307.1,419.4,1304.3,422.2,1300.8,422.2z"/>
	<rect x="1326.1" y="612.9" class="st1" width="12.6" height="3.2"/>
	<rect x="1326.1" y="408" class="st1" width="12.6" height="3.2"/>
	<rect x="1110.4" y="396.9" class="st1" width="3.2" height="71.1"/>
	<rect x="1097.8" y="464.9" class="st1" width="12.6" height="3.2"/>
	<rect x="1110.4" y="467.2" class="st1" width="3.2" height="159.9"/>
	<path class="st3" d="M1062.6,264.8v32c0,4.6-3.7,8.3-8.3,8.3H865.7c-4.6,0-8.3-3.7-8.3-8.3v-32c0-4.6,3.7-8.3,8.3-8.3h188.5
		C1058.9,256.5,1062.6,260.2,1062.6,264.8z"/>
	<g>
		<line class="st4" x1="929.6" y1="881.6" x2="905.2" y2="905.9"/>
		<line class="st4" x1="941.7" y1="881.6" x2="917.4" y2="905.9"/>
		<line class="st4" x1="953.9" y1="881.6" x2="929.6" y2="905.9"/>
		<line class="st4" x1="966.1" y1="881.6" x2="941.7" y2="905.9"/>
		<line class="st4" x1="978.3" y1="881.6" x2="953.9" y2="905.9"/>
		<line class="st4" x1="990.4" y1="881.6" x2="966.1" y2="905.9"/>
		<line class="st4" x1="1002.6" y1="881.6" x2="978.3" y2="905.9"/>
		<line class="st4" x1="1014.8" y1="881.6" x2="990.4" y2="905.9"/>
	</g>
	<g>
		<line class="st4" x1="929.6" y1="107.7" x2="905.2" y2="132.1"/>
		<line class="st4" x1="941.7" y1="107.7" x2="917.4" y2="132.1"/>
		<line class="st4" x1="953.9" y1="107.7" x2="929.6" y2="132.1"/>
		<line class="st4" x1="966.1" y1="107.7" x2="941.7" y2="132.1"/>
		<line class="st4" x1="978.3" y1="107.7" x2="953.9" y2="132.1"/>
		<line class="st4" x1="990.4" y1="107.7" x2="966.1" y2="132.1"/>
		<line class="st4" x1="1002.6" y1="107.7" x2="978.3" y2="132.1"/>
		<line class="st4" x1="1014.8" y1="107.7" x2="990.4" y2="132.1"/>
	</g>
</g>
</svg>
