<?xml version="1.0" encoding="utf-8"?>
<!-- Generator: Adobe Illustrator 28.5.0, SVG Export Plug-In . SVG Version: 9.03 Build 54727)  -->
<svg version="1.0" id="Layer_1" xmlns="http://www.w3.org/2000/svg" xmlns:xlink="http://www.w3.org/1999/xlink" x="0px" y="0px"
	 viewBox="0 0 1280 1280" style="enable-background:new 0 0 1280 1280;" xml:space="preserve">
<style type="text/css">
	.st0{fill:#FFFFFF;}
	.st1{fill:#4827EC;}
</style>
<g>
	<g>
		<path class="st0" d="M431.4,87.4c-2.7,4.7-6.7,8.5-11.9,11.2c-5.2,2.8-11.6,4.2-19.1,4.2H389v29.3h-28.9V40h40.3
			c11.3,0,19.9,2.9,25.9,8.6s9,13.4,9,23C435.4,77.4,434.1,82.7,431.4,87.4z M406.2,71.6c0-5.6-3-8.5-9-8.5H389V80h8.2
			C403.2,80.1,406.2,77.2,406.2,71.6z"/>
		<path class="st0" d="M490.8,132.1l-17.3-33h-0.1v33h-28.9V40h42.9c7.5,0,13.8,1.3,19.1,4c5.3,2.6,9.3,6.2,11.9,10.8
			c2.6,4.6,4,9.7,4,15.4c0,6.2-1.7,11.6-5.1,16.4c-3.4,4.8-8.3,8.2-14.8,10.3l20,35.2H490.8z M473.4,79.8h11.4
			c2.8,0,4.9-0.6,6.2-1.9c1.4-1.3,2.1-3.2,2.1-5.9c0-2.4-0.7-4.3-2.1-5.7c-1.4-1.4-3.5-2.1-6.2-2.1h-11.4V79.8z"/>
		<path class="st0" d="M560.5,63v11.3h28.6V96h-28.6v13H593v23h-61.4V40H593v23H560.5z"/>
		<path class="st0" d="M714.6,40v92.1h-28.7V86.2l-14.2,45.9H647l-14.2-45.9v45.9H604V40h35.4l20.3,55.3L679.4,40H714.6z"/>
		<path class="st0" d="M756.5,40v92.1h-28.9V40H756.5z"/>
		<path class="st0" d="M798.4,63v11.3H827V96h-28.6v13h32.5v23h-61.4V40h61.4v23H798.4z"/>
		<path class="st0" d="M888.1,132.1l-17.3-33h-0.1v33h-28.9V40h42.9c7.5,0,13.8,1.3,19.1,4c5.3,2.6,9.3,6.2,11.9,10.8
			c2.6,4.6,4,9.7,4,15.4c0,6.2-1.7,11.6-5.1,16.4c-3.4,4.8-8.3,8.2-14.8,10.3l20,35.2H888.1z M870.7,79.8h11.4
			c2.8,0,4.9-0.6,6.2-1.9c1.4-1.3,2.1-3.2,2.1-5.9c0-2.4-0.7-4.3-2.1-5.7c-1.4-1.4-3.5-2.1-6.2-2.1h-11.4V79.8z"/>
	</g>
	<g>
		<g>
			<path class="st0" d="M584.9,293.3H204.2c-7.9,0-14.2-6.3-14.2-14.2v-28.8c0-7.9,6.3-14.2,14.2-14.2h380.7
				c7.9,0,14.2,6.3,14.2,14.2v28.8C599.1,286.9,592.8,293.3,584.9,293.3z"/>
			<path class="st0" d="M584.9,386.9H204.2c-7.9,0-14.2-6.3-14.2-14.2v-28.8c0-7.9,6.3-14.2,14.2-14.2h380.7
				c7.9,0,14.2,6.3,14.2,14.2v28.8C599.1,380.6,592.8,386.9,584.9,386.9z"/>
			<path class="st0" d="M584.9,480.5H204.2c-7.9,0-14.2-6.3-14.2-14.2v-28.8c0-7.9,6.3-14.2,14.2-14.2h380.7
				c7.9,0,14.2,6.3,14.2,14.2v28.8C599.1,474.2,592.8,480.5,584.9,480.5z"/>
			<path class="st0" d="M584.9,574.2H204.2c-7.9,0-14.2-6.3-14.2-14.2v-28.8c0-7.9,6.3-14.2,14.2-14.2h380.7
				c7.9,0,14.2,6.3,14.2,14.2V560C599.1,567.8,592.8,574.2,584.9,574.2z"/>
			<path class="st0" d="M584.9,667.9H204.2c-7.9,0-14.2-6.3-14.2-14.2v-28.8c0-7.9,6.3-14.2,14.2-14.2h380.7
				c7.9,0,14.2,6.3,14.2,14.2v28.8C599.1,661.5,592.8,667.9,584.9,667.9z"/>
			<path class="st0" d="M584.9,761.5H204.2c-7.9,0-14.2-6.3-14.2-14.2v-28.8c0-7.9,6.3-14.2,14.2-14.2h380.7
				c7.9,0,14.2,6.3,14.2,14.2v28.8C599.1,755.1,592.8,761.5,584.9,761.5z"/>
			<path class="st0" d="M584.9,855.2H204.2c-7.9,0-14.2-6.3-14.2-14.2v-28.8c0-7.9,6.3-14.2,14.2-14.2h380.7
				c7.9,0,14.2,6.3,14.2,14.2V841C599.1,848.7,592.8,855.2,584.9,855.2z"/>
			<path class="st0" d="M584.9,948.8H204.2c-7.9,0-14.2-6.3-14.2-14.2v-28.8c0-7.9,6.3-14.2,14.2-14.2h380.7
				c7.9,0,14.2,6.3,14.2,14.2v28.8C599.1,942.4,592.8,948.8,584.9,948.8z"/>
			<path class="st0" d="M584.9,1042.4H204.2c-7.9,0-14.2-6.3-14.2-14.2v-28.8c0-7.9,6.3-14.2,14.2-14.2h380.7
				c7.9,0,14.2,6.3,14.2,14.2v28.8C599.1,1036.1,592.8,1042.4,584.9,1042.4z"/>
			<path class="st0" d="M584.9,1136.1H204.2c-7.9,0-14.2-6.3-14.2-14.2v-28.8c0-7.9,6.3-14.2,14.2-14.2h380.7
				c7.9,0,14.2,6.3,14.2,14.2v28.8C599.1,1129.7,592.8,1136.1,584.9,1136.1z"/>
			<path class="st0" d="M1075.8,293.3H695.1c-7.9,0-14.2-6.3-14.2-14.2v-28.8c0-7.9,6.3-14.2,14.2-14.2h380.7
				c7.9,0,14.2,6.3,14.2,14.2v28.8C1090,286.9,1083.7,293.3,1075.8,293.3z"/>
			<path class="st0" d="M1075.8,386.9H695.1c-7.9,0-14.2-6.3-14.2-14.2v-28.8c0-7.9,6.3-14.2,14.2-14.2h380.7
				c7.9,0,14.2,6.3,14.2,14.2v28.8C1090,380.6,1083.7,386.9,1075.8,386.9z"/>
			<path class="st0" d="M1075.8,480.5H695.1c-7.9,0-14.2-6.3-14.2-14.2v-28.8c0-7.9,6.3-14.2,14.2-14.2h380.7
				c7.9,0,14.2,6.3,14.2,14.2v28.8C1090,474.2,1083.7,480.5,1075.8,480.5z"/>
			<path class="st0" d="M1075.8,574.2H695.1c-7.9,0-14.2-6.3-14.2-14.2v-28.8c0-7.9,6.3-14.2,14.2-14.2h380.7
				c7.9,0,14.2,6.3,14.2,14.2V560C1090,567.8,1083.7,574.2,1075.8,574.2z"/>
			<path class="st0" d="M1075.8,667.9H695.1c-7.9,0-14.2-6.3-14.2-14.2v-28.8c0-7.9,6.3-14.2,14.2-14.2h380.7
				c7.9,0,14.2,6.3,14.2,14.2v28.8C1090,661.5,1083.7,667.9,1075.8,667.9z"/>
			<path class="st0" d="M1075.8,761.5H695.1c-7.9,0-14.2-6.3-14.2-14.2v-28.8c0-7.9,6.3-14.2,14.2-14.2h380.7
				c7.9,0,14.2,6.3,14.2,14.2v28.8C1090,755.1,1083.7,761.5,1075.8,761.5z"/>
			<path class="st1" d="M1075.8,855.2H695.1c-7.9,0-14.2-6.3-14.2-14.2v-28.8c0-7.9,6.3-14.2,14.2-14.2h380.7
				c7.9,0,14.2,6.3,14.2,14.2V841C1090,848.7,1083.7,855.2,1075.8,855.2z"/>
			<path class="st1" d="M1075.8,948.8H695.1c-7.9,0-14.2-6.3-14.2-14.2v-28.8c0-7.9,6.3-14.2,14.2-14.2h380.7
				c7.9,0,14.2,6.3,14.2,14.2v28.8C1090,942.4,1083.7,948.8,1075.8,948.8z"/>
			<path class="st1" d="M1075.8,1042.4H695.1c-7.9,0-14.2-6.3-14.2-14.2v-28.8c0-7.9,6.3-14.2,14.2-14.2h380.7
				c7.9,0,14.2,6.3,14.2,14.2v28.8C1090,1036.1,1083.7,1042.4,1075.8,1042.4z"/>
			<path class="st1" d="M1075.8,1136.1H695.1c-7.9,0-14.2-6.3-14.2-14.2v-28.8c0-7.9,6.3-14.2,14.2-14.2h380.7
				c7.9,0,14.2,6.3,14.2,14.2v28.8C1090,1129.7,1083.7,1136.1,1075.8,1136.1z"/>
		</g>
		<g>
			<path class="st1" d="M1131.2,992.5l48,48c2.7,2.7,7,2.7,9.7,0l48-48c2.6-2.7,2.6-7.1-0.2-9.7c-2.7-2.6-6.9-2.6-9.5,0l-36.3,36.3
				V898.4c0-3.8-3.1-6.9-6.9-6.9s-6.9,3.1-6.9,6.9v120.6l-36.3-36.3c-2.7-2.6-7.1-2.6-9.7,0.2
				C1128.6,985.6,1128.6,989.8,1131.2,992.5z"/>
		</g>
	</g>
</g>
</svg>
