<?xml version="1.0" encoding="UTF-8"?>
<svg id="Layer_1" data-name="Layer 1" xmlns="http://www.w3.org/2000/svg" version="1.1" viewBox="0 0 1280 1280">
  <defs>
    <style>
      .cls-1 {
        fill: #af0;
      }

      .cls-1, .cls-2 {
        stroke-width: 0px;
      }

      .cls-2 {
        fill: #fff;
      }
    </style>
  </defs>
  <g>
    <g>
      <path class="cls-2" d="M584.9,293.3H204.2c-7.9,0-14.2-6.3-14.2-14.2v-28.8c0-7.9,6.3-14.2,14.2-14.2h380.7c7.9,0,14.2,6.3,14.2,14.2v28.8c0,7.8-6.3,14.2-14.2,14.2Z"/>
      <path class="cls-2" d="M584.9,386.9H204.2c-7.9,0-14.2-6.3-14.2-14.2v-28.8c0-7.9,6.3-14.2,14.2-14.2h380.7c7.9,0,14.2,6.3,14.2,14.2v28.8c0,7.9-6.3,14.2-14.2,14.2Z"/>
      <path class="cls-2" d="M584.9,480.5H204.2c-7.9,0-14.2-6.3-14.2-14.2v-28.8c0-7.9,6.3-14.2,14.2-14.2h380.7c7.9,0,14.2,6.3,14.2,14.2v28.8c0,7.9-6.3,14.2-14.2,14.2Z"/>
      <path class="cls-2" d="M584.9,574.2H204.2c-7.9,0-14.2-6.3-14.2-14.2v-28.8c0-7.9,6.3-14.2,14.2-14.2h380.7c7.9,0,14.2,6.3,14.2,14.2v28.8c0,7.8-6.3,14.2-14.2,14.2Z"/>
      <path class="cls-2" d="M584.9,667.9H204.2c-7.9,0-14.2-6.3-14.2-14.2v-28.8c0-7.9,6.3-14.2,14.2-14.2h380.7c7.9,0,14.2,6.3,14.2,14.2v28.8c0,7.8-6.3,14.2-14.2,14.2Z"/>
      <path class="cls-2" d="M584.9,761.5H204.2c-7.9,0-14.2-6.3-14.2-14.2v-28.8c0-7.9,6.3-14.2,14.2-14.2h380.7c7.9,0,14.2,6.3,14.2,14.2v28.8c0,7.8-6.3,14.2-14.2,14.2Z"/>
      <path class="cls-2" d="M584.9,855.2H204.2c-7.9,0-14.2-6.3-14.2-14.2v-28.8c0-7.9,6.3-14.2,14.2-14.2h380.7c7.9,0,14.2,6.3,14.2,14.2v28.8c0,7.7-6.3,14.2-14.2,14.2Z"/>
      <path class="cls-2" d="M584.9,948.8H204.2c-7.9,0-14.2-6.3-14.2-14.2v-28.8c0-7.9,6.3-14.2,14.2-14.2h380.7c7.9,0,14.2,6.3,14.2,14.2v28.8c0,7.8-6.3,14.2-14.2,14.2Z"/>
      <path class="cls-2" d="M584.9,1042.4H204.2c-7.9,0-14.2-6.3-14.2-14.2v-28.8c0-7.9,6.3-14.2,14.2-14.2h380.7c7.9,0,14.2,6.3,14.2,14.2v28.8c0,7.9-6.3,14.2-14.2,14.2Z"/>
      <path class="cls-2" d="M584.9,1136.1H204.2c-7.9,0-14.2-6.3-14.2-14.2v-28.8c0-7.9,6.3-14.2,14.2-14.2h380.7c7.9,0,14.2,6.3,14.2,14.2v28.8c0,7.8-6.3,14.2-14.2,14.2Z"/>
      <path class="cls-2" d="M1075.8,293.3h-380.7c-7.9,0-14.2-6.3-14.2-14.2v-28.8c0-7.9,6.3-14.2,14.2-14.2h380.7c7.9,0,14.2,6.3,14.2,14.2v28.8c0,7.8-6.3,14.2-14.2,14.2Z"/>
      <path class="cls-2" d="M1075.8,386.9h-380.7c-7.9,0-14.2-6.3-14.2-14.2v-28.8c0-7.9,6.3-14.2,14.2-14.2h380.7c7.9,0,14.2,6.3,14.2,14.2v28.8c0,7.9-6.3,14.2-14.2,14.2Z"/>
      <path class="cls-2" d="M1075.8,480.5h-380.7c-7.9,0-14.2-6.3-14.2-14.2v-28.8c0-7.9,6.3-14.2,14.2-14.2h380.7c7.9,0,14.2,6.3,14.2,14.2v28.8c0,7.9-6.3,14.2-14.2,14.2Z"/>
      <path class="cls-2" d="M1075.8,574.2h-380.7c-7.9,0-14.2-6.3-14.2-14.2v-28.8c0-7.9,6.3-14.2,14.2-14.2h380.7c7.9,0,14.2,6.3,14.2,14.2v28.8c0,7.8-6.3,14.2-14.2,14.2Z"/>
      <path class="cls-2" d="M1075.8,667.9h-380.7c-7.9,0-14.2-6.3-14.2-14.2v-28.8c0-7.9,6.3-14.2,14.2-14.2h380.7c7.9,0,14.2,6.3,14.2,14.2v28.8c0,7.8-6.3,14.2-14.2,14.2Z"/>
      <path class="cls-2" d="M1075.8,761.5h-380.7c-7.9,0-14.2-6.3-14.2-14.2v-28.8c0-7.9,6.3-14.2,14.2-14.2h380.7c7.9,0,14.2,6.3,14.2,14.2v28.8c0,7.8-6.3,14.2-14.2,14.2Z"/>
      <path class="cls-1" d="M1075.8,855.2h-380.7c-7.9,0-14.2-6.3-14.2-14.2v-28.8c0-7.9,6.3-14.2,14.2-14.2h380.7c7.9,0,14.2,6.3,14.2,14.2v28.8c0,7.7-6.3,14.2-14.2,14.2Z"/>
      <path class="cls-1" d="M1075.8,948.8h-380.7c-7.9,0-14.2-6.3-14.2-14.2v-28.8c0-7.9,6.3-14.2,14.2-14.2h380.7c7.9,0,14.2,6.3,14.2,14.2v28.8c0,7.8-6.3,14.2-14.2,14.2Z"/>
      <path class="cls-1" d="M1075.8,1042.4h-380.7c-7.9,0-14.2-6.3-14.2-14.2v-28.8c0-7.9,6.3-14.2,14.2-14.2h380.7c7.9,0,14.2,6.3,14.2,14.2v28.8c0,7.9-6.3,14.2-14.2,14.2Z"/>
      <path class="cls-1" d="M1075.8,1136.1h-380.7c-7.9,0-14.2-6.3-14.2-14.2v-28.8c0-7.9,6.3-14.2,14.2-14.2h380.7c7.9,0,14.2,6.3,14.2,14.2v28.8c0,7.8-6.3,14.2-14.2,14.2Z"/>
    </g>
    <path class="cls-1" d="M1131.2,992.5l48,48c2.7,2.7,7,2.7,9.7,0l48-48c2.6-2.7,2.6-7.1-.2-9.7-2.7-2.6-6.9-2.6-9.5,0l-36.3,36.3v-120.7c0-3.8-3.1-6.9-6.9-6.9s-6.9,3.1-6.9,6.9v120.6l-36.3-36.3c-2.7-2.6-7.1-2.6-9.7.2-2.5,2.7-2.5,6.9.1,9.6h0Z"/>
  </g>
  <g>
    <path class="cls-2" d="M348,61.6c3.7-7.1,9-12.7,15.9-16.7,6.9-4,15-5.9,24.3-5.9s15.2,1.5,21.5,4.5c6.3,3,11.5,7.3,15.4,12.7,4,5.5,6.6,11.9,7.9,19.2h-30.6c-1.4-3-3.4-5.4-5.9-7.1-2.6-1.7-5.5-2.5-8.8-2.5-4.9,0-8.7,1.8-11.6,5.5-2.8,3.7-4.2,8.6-4.2,14.8s1.4,11.1,4.2,14.8c2.8,3.7,6.7,5.5,11.6,5.5s6.2-.8,8.8-2.5c2.6-1.7,4.6-4.1,5.9-7.1h30.6c-1.3,7.3-3.9,13.7-7.9,19.2-4,5.5-9.1,9.7-15.4,12.7-6.3,3-13.5,4.5-21.5,4.5s-17.4-2-24.3-5.9c-6.9-4-12.2-9.5-15.9-16.7-3.7-7.1-5.6-15.3-5.6-24.4s1.9-17.3,5.6-24.4Z"/>
    <path class="cls-2" d="M464.6,127.2c-7.3-4.1-13-9.8-17.3-17-4.3-7.2-6.4-15.4-6.4-24.4s2.1-17.2,6.4-24.4c4.3-7.2,10-12.9,17.3-16.9,7.3-4.1,15.3-6.1,24-6.1s16.7,2,23.9,6.1c7.2,4.1,13,9.7,17.2,16.9,4.2,7.2,6.3,15.4,6.3,24.4s-2.1,17.2-6.3,24.4c-4.2,7.2-10,12.9-17.2,17-7.3,4.1-15.2,6.1-23.8,6.1s-16.7-2-24-6.1ZM501.9,100.7c3.1-3.7,4.7-8.7,4.7-15s-1.6-11.4-4.7-15.1c-3.1-3.7-7.6-5.6-13.3-5.6s-10.3,1.9-13.5,5.6c-3.1,3.7-4.7,8.7-4.7,15.1s1.6,11.3,4.7,15c3.1,3.7,7.6,5.6,13.5,5.6s10.2-1.8,13.3-5.6Z"/>
    <path class="cls-2" d="M635.2,132.4h-29l-30.7-46.5v46.5h-29V39.9h29l30.7,47.3v-47.3h29v92.5Z"/>
    <path class="cls-2" d="M713.6,39.9v23h-36.3v12.8h26.1v21.8h-26.1v34.9h-29V39.9h65.3Z"/>
    <path class="cls-2" d="M802.6,75.8v23.9h-60.9v-23.9h60.9Z"/>
    <path class="cls-2" d="M902.4,118.4h-30.8l-4.6,14h-30.4l33.8-92.5h33.5l33.7,92.5h-30.6l-4.6-14ZM895.3,96.6l-8.4-25.7-8.4,25.7h16.7Z"/>
  </g>
</svg>