<?xml version="1.0" encoding="utf-8"?>
<!-- Generator: Adobe Illustrator 27.9.4, SVG Export Plug-In . SVG Version: 9.03 Build 54784)  -->
<svg version="1.1" id="Layer_1" xmlns="http://www.w3.org/2000/svg" xmlns:xlink="http://www.w3.org/1999/xlink" x="0px" y="0px"
	 viewBox="0 0 1280 1280" style="enable-background:new 0 0 1280 1280;" xml:space="preserve">
<style type="text/css">
	.st0{fill:#FFFFFF;}
	.st1{fill:#AAFF00;}
</style>
<g>
	<g>
		<path class="st0" d="M584.9,293.3H204.2c-7.9,0-14.2-6.3-14.2-14.2v-28.8c0-7.9,6.3-14.2,14.2-14.2h380.7
			c7.9,0,14.2,6.3,14.2,14.2v28.8C599.1,286.9,592.8,293.3,584.9,293.3z"/>
		<path class="st0" d="M584.9,386.9H204.2c-7.9,0-14.2-6.3-14.2-14.2v-28.8c0-7.9,6.3-14.2,14.2-14.2h380.7
			c7.9,0,14.2,6.3,14.2,14.2v28.8C599.1,380.6,592.8,386.9,584.9,386.9z"/>
		<path class="st0" d="M584.9,480.5H204.2c-7.9,0-14.2-6.3-14.2-14.2v-28.8c0-7.9,6.3-14.2,14.2-14.2h380.7
			c7.9,0,14.2,6.3,14.2,14.2v28.8C599.1,474.2,592.8,480.5,584.9,480.5z"/>
		<path class="st0" d="M584.9,574.2H204.2c-7.9,0-14.2-6.3-14.2-14.2v-28.8c0-7.9,6.3-14.2,14.2-14.2h380.7
			c7.9,0,14.2,6.3,14.2,14.2V560C599.1,567.8,592.8,574.2,584.9,574.2z"/>
		<path class="st0" d="M584.9,667.9H204.2c-7.9,0-14.2-6.3-14.2-14.2v-28.8c0-7.9,6.3-14.2,14.2-14.2h380.7
			c7.9,0,14.2,6.3,14.2,14.2v28.8C599.1,661.5,592.8,667.9,584.9,667.9z"/>
		<path class="st0" d="M584.9,761.5H204.2c-7.9,0-14.2-6.3-14.2-14.2v-28.8c0-7.9,6.3-14.2,14.2-14.2h380.7
			c7.9,0,14.2,6.3,14.2,14.2v28.8C599.1,755.1,592.8,761.5,584.9,761.5z"/>
		<path class="st0" d="M584.9,855.2H204.2c-7.9,0-14.2-6.3-14.2-14.2v-28.8c0-7.9,6.3-14.2,14.2-14.2h380.7
			c7.9,0,14.2,6.3,14.2,14.2V841C599.1,848.7,592.8,855.2,584.9,855.2z"/>
		<path class="st0" d="M584.9,948.8H204.2c-7.9,0-14.2-6.3-14.2-14.2v-28.8c0-7.9,6.3-14.2,14.2-14.2h380.7
			c7.9,0,14.2,6.3,14.2,14.2v28.8C599.1,942.4,592.8,948.8,584.9,948.8z"/>
		<path class="st0" d="M584.9,1042.4H204.2c-7.9,0-14.2-6.3-14.2-14.2v-28.8c0-7.9,6.3-14.2,14.2-14.2h380.7
			c7.9,0,14.2,6.3,14.2,14.2v28.8C599.1,1036.1,592.8,1042.4,584.9,1042.4z"/>
		<path class="st0" d="M584.9,1136.1H204.2c-7.9,0-14.2-6.3-14.2-14.2v-28.8c0-7.9,6.3-14.2,14.2-14.2h380.7
			c7.9,0,14.2,6.3,14.2,14.2v28.8C599.1,1129.7,592.8,1136.1,584.9,1136.1z"/>
		<path class="st0" d="M1075.8,293.3H695.1c-7.9,0-14.2-6.3-14.2-14.2v-28.8c0-7.9,6.3-14.2,14.2-14.2h380.7
			c7.9,0,14.2,6.3,14.2,14.2v28.8C1090,286.9,1083.7,293.3,1075.8,293.3z"/>
		<path class="st0" d="M1075.8,386.9H695.1c-7.9,0-14.2-6.3-14.2-14.2v-28.8c0-7.9,6.3-14.2,14.2-14.2h380.7
			c7.9,0,14.2,6.3,14.2,14.2v28.8C1090,380.6,1083.7,386.9,1075.8,386.9z"/>
		<path class="st0" d="M1075.8,480.5H695.1c-7.9,0-14.2-6.3-14.2-14.2v-28.8c0-7.9,6.3-14.2,14.2-14.2h380.7
			c7.9,0,14.2,6.3,14.2,14.2v28.8C1090,474.2,1083.7,480.5,1075.8,480.5z"/>
		<path class="st0" d="M1075.8,574.2H695.1c-7.9,0-14.2-6.3-14.2-14.2v-28.8c0-7.9,6.3-14.2,14.2-14.2h380.7
			c7.9,0,14.2,6.3,14.2,14.2V560C1090,567.8,1083.7,574.2,1075.8,574.2z"/>
		<path class="st0" d="M1075.8,667.9H695.1c-7.9,0-14.2-6.3-14.2-14.2v-28.8c0-7.9,6.3-14.2,14.2-14.2h380.7
			c7.9,0,14.2,6.3,14.2,14.2v28.8C1090,661.5,1083.7,667.9,1075.8,667.9z"/>
		<path class="st0" d="M1075.8,761.5H695.1c-7.9,0-14.2-6.3-14.2-14.2v-28.8c0-7.9,6.3-14.2,14.2-14.2h380.7
			c7.9,0,14.2,6.3,14.2,14.2v28.8C1090,755.1,1083.7,761.5,1075.8,761.5z"/>
		<path class="st1" d="M1075.8,855.2H695.1c-7.9,0-14.2-6.3-14.2-14.2v-28.8c0-7.9,6.3-14.2,14.2-14.2h380.7
			c7.9,0,14.2,6.3,14.2,14.2V841C1090,848.7,1083.7,855.2,1075.8,855.2z"/>
		<path class="st1" d="M1075.8,948.8H695.1c-7.9,0-14.2-6.3-14.2-14.2v-28.8c0-7.9,6.3-14.2,14.2-14.2h380.7
			c7.9,0,14.2,6.3,14.2,14.2v28.8C1090,942.4,1083.7,948.8,1075.8,948.8z"/>
		<path class="st1" d="M1075.8,1042.4H695.1c-7.9,0-14.2-6.3-14.2-14.2v-28.8c0-7.9,6.3-14.2,14.2-14.2h380.7
			c7.9,0,14.2,6.3,14.2,14.2v28.8C1090,1036.1,1083.7,1042.4,1075.8,1042.4z"/>
		<path class="st1" d="M1075.8,1136.1H695.1c-7.9,0-14.2-6.3-14.2-14.2v-28.8c0-7.9,6.3-14.2,14.2-14.2h380.7
			c7.9,0,14.2,6.3,14.2,14.2v28.8C1090,1129.7,1083.7,1136.1,1075.8,1136.1z"/>
	</g>
	<path class="st1" d="M1131.2,992.5l48,48c2.7,2.7,7,2.7,9.7,0l48-48c2.6-2.7,2.6-7.1-0.2-9.7c-2.7-2.6-6.9-2.6-9.5,0l-36.3,36.3
		V898.4c0-3.8-3.1-6.9-6.9-6.9s-6.9,3.1-6.9,6.9V1019l-36.3-36.3c-2.7-2.6-7.1-2.6-9.7,0.2C1128.6,985.6,1128.6,989.8,1131.2,992.5
		L1131.2,992.5z"/>
</g>
<g>
	<path class="st0" d="M253.9,87.2c-2.7,4.7-6.7,8.5-11.9,11.3c-5.3,2.8-11.6,4.2-19.1,4.2h-11.5V132h-29V39.6h40.4
		c11.3,0,20,2.9,26,8.6c6,5.7,9.1,13.4,9.1,23.1C257.9,77.2,256.6,82.5,253.9,87.2z M228.6,71.3c0-5.7-3-8.5-9-8.5h-8.2v17h8.2
		C225.6,79.8,228.6,77,228.6,71.3z"/>
	<path class="st0" d="M313.5,132l-17.3-33.1H296V132h-29V39.6h43c7.5,0,13.9,1.3,19.2,4c5.3,2.7,9.3,6.3,11.9,10.8
		c2.7,4.6,4,9.7,4,15.5c0,6.2-1.7,11.7-5.2,16.4c-3.4,4.8-8.4,8.2-14.8,10.3l20.1,35.4H313.5z M296,79.6h11.5c2.8,0,4.9-0.6,6.3-1.9
		c1.4-1.3,2.1-3.2,2.1-5.9c0-2.4-0.7-4.3-2.2-5.7c-1.4-1.4-3.5-2.1-6.2-2.1H296V79.6z"/>
	<path class="st0" d="M383.4,62.7v11.3h28.7v21.8h-28.7v13H416V132h-61.6V39.6H416v23.1H383.4z"/>
	<path class="st0" d="M538,39.6V132h-28.8V86l-14.2,46h-24.8l-14.2-46v46h-29V39.6h35.5l20.3,55.4l19.8-55.4H538z"/>
	<path class="st0" d="M580,39.6V132h-29V39.6H580z"/>
	<path class="st0" d="M622,62.7v11.3h28.7v21.8H622v13h32.6V132H593V39.6h61.6v23.1H622z"/>
	<path class="st0" d="M712,132l-17.3-33.1h-0.1V132h-29V39.6h43c7.5,0,13.9,1.3,19.2,4c5.3,2.7,9.3,6.3,11.9,10.8
		c2.7,4.6,4,9.7,4,15.5c0,6.2-1.7,11.7-5.2,16.4c-3.4,4.8-8.4,8.2-14.8,10.3l20.1,35.4H712z M694.5,79.6H706c2.8,0,4.9-0.6,6.3-1.9
		c1.4-1.3,2.1-3.2,2.1-5.9c0-2.4-0.7-4.3-2.2-5.7c-1.4-1.4-3.5-2.1-6.2-2.1h-11.5V79.6z"/>
	<path class="st0" d="M804.1,62.7v11.3h28.7v21.8h-28.7v13h32.6V132h-61.6V39.6h61.6v23.1H804.1z"/>
	<path class="st0" d="M876.6,110.1h27.9V132h-56.9V39.6h29V110.1z"/>
	<path class="st0" d="M942.6,39.6V132h-29V39.6H942.6z"/>
	<path class="st0" d="M1028.2,39.6v23h-24.5V132h-29V62.6h-24.3v-23H1028.2z"/>
	<path class="st0" d="M1065,62.7v11.3h28.7v21.8H1065v13h32.6V132H1036V39.6h61.6v23.1H1065z"/>
</g>
</svg>
