<?xml version="1.0" encoding="UTF-8"?>
<svg id="Layer_1" data-name="Layer 1" xmlns="http://www.w3.org/2000/svg" version="1.1" viewBox="0 0 175 30">
  <defs>
    <style>
      .cls-1 {
        fill: #000;
        stroke-width: 0px;
      }
    </style>
  </defs>
  <path class="cls-1" d="M120.2,9.8c.9,0,1.6.3,2.3.7.6.5,1.1,1.1,1.5,1.9h8c-.4-1.9-1.1-3.6-2.1-5-1-1.4-2.4-2.5-4-3.3-1.6-.8-3.5-1.2-5.6-1.2s-4.5.5-6.3,1.5-3.1,2.4-4.1,4.3c-1,1.8-1.4,3.8-1.4,6.2s.4,4.5,1.4,6.4c.9,1.8,2.3,3.3,4.1,4.3s3.9,1.5,6.3,1.5,4-.4,5.6-1.2c1.6-.8,3-1.9,4-3.3,1.1-1.4,1.8-3.1,2.1-5h-8c-.3.8-.8,1.5-1.5,1.9-.7.5-1.4.7-2.3.7-1.3,0-2.3-.4-3-1.4-.7-.9-1.1-2.2-1.1-3.8s.4-2.8,1.1-3.8c.7-.9,1.7-1.4,3-1.4Z"/>
  <polygon class="cls-1" points="134.5 27.1 142.1 27.1 142.1 18 149 18 149 12.2 142.1 12.2 142.1 8.9 151.7 8.9 151.7 2.9 134.5 2.9 134.5 27.1"/>
  <g>
    <path class="cls-1" d="M29.2,25.9h-11.8c-.3,0-.6.3-.6.6s.3.6.6.6h11.8c.3,0,.6-.3.6-.6s-.3-.6-.6-.6Z"/>
    <path class="cls-1" d="M29.2,14.4h-11.8c-.3,0-.6.3-.6.6s.3.6.6.6h11.8c.3,0,.6-.3.6-.6s-.3-.6-.6-.6Z"/>
    <path class="cls-1" d="M29.2,2.9h-11.8c-.3,0-.6.3-.6.6s.3.6.6.6h11.8c.3,0,.6-.3.6-.6s-.3-.6-.6-.6Z"/>
  </g>
  <path class="cls-1" d="M13.4,8.6c-.2-3.3-3.1-5.7-6.4-5.7H.6c-.3,0-.6.2-.6.6s.3.6.6.6h6.4c2.7,0,5.2,2.1,5.3,4.8.2,3-2.2,5.5-5.2,5.5h-3.9c-.3,0-.6.3-.6.6s.3.6.6.6h2.9l5.7,11.2c.2.3.5.4.8.3.3,0,.5-.5.3-.8l-5.5-10.7c3.6-.2,6.4-3.3,6-7Z"/>
  <path class="cls-1" d="M95.1,2.9h-6.5c-.3,0-.6.3-.6.6s.3.6.6.6h6.5c2.7,0,5.2,2.1,5.3,4.8.2,3-2.2,5.5-5.2,5.5h-6.6c-.3,0-.6.3-.6.6v11.5h0s0,0,0,0c0,.3.3.6.6.6s.6-.3.6-.6,0,0,0,0h0v-10.9h6c3.7,0,6.7-3.2,6.3-7-.2-3.3-3.1-5.7-6.4-5.7Z"/>
  <path class="cls-1" d="M173.8,16.8c.8,1.1,1.2,2.3,1.2,3.7,0,2.1-.7,3.8-2.1,4.9s-3.4,1.7-6,1.7h-12.7V2.9h12.3c2.5,0,4.4.5,5.8,1.6,1.4,1.1,2.1,2.6,2.1,4.7s-.4,2.6-1.1,3.6c-.7,1-1.7,1.6-3,1.9,1.5.3,2.6,1,3.4,2.1ZM161.8,12.3h2.9c.7,0,1.2-.1,1.5-.4.3-.3.5-.7.5-1.3s-.2-1-.5-1.3-.8-.4-1.5-.4h-2.9v3.4ZM166.7,20.6c.3-.3.5-.7.5-1.3,0-1.2-.7-1.7-2-1.7h-3.5v3.4h3.5c.7,0,1.2-.1,1.5-.4Z"/>
  <g>
    <rect class="cls-1" x="35.1" y="2.4" width="1.2" height="25.2" rx=".6" ry=".6" transform="translate(-2.8 11.1) rotate(-17)"/>
    <rect class="cls-1" x="42.1" y="2.4" width="1.2" height="25.2" rx=".6" ry=".6" transform="translate(79.2 41.8) rotate(-163)"/>
  </g>
  <g>
    <rect class="cls-1" x="58" y="2.4" width="1.2" height="25.2" rx=".6" ry=".6" transform="translate(119 12.2) rotate(163)"/>
    <rect class="cls-1" x="51" y="2.4" width="1.2" height="25.2" rx=".6" ry=".6" transform="translate(6.6 -14.4) rotate(17)"/>
  </g>
  <g>
    <rect class="cls-1" x="67.2" y="2.9" width="1.2" height="24.2" rx=".6" ry=".6"/>
    <path class="cls-1" d="M75.3,18.2h0c-.3.2-.7,0-.8-.3l-7.2-14.2c-.2-.3,0-.7.3-.8h0c.3-.2.7,0,.8.3l7.2,14.2c.2.3,0,.7-.3.8Z"/>
  </g>
  <g>
    <rect class="cls-1" x="81.6" y="2.9" width="1.2" height="24.2" rx=".6" ry=".6" transform="translate(164.4 30) rotate(180)"/>
    <path class="cls-1" d="M74.7,18.2h0c.3.2.7,0,.8-.3l7.2-14.2c.2-.3,0-.7-.3-.8h0c-.3-.2-.7,0-.8.3l-7.2,14.2c-.2.3,0,.7.3.8Z"/>
  </g>
</svg>