<svg xmlns="http://www.w3.org/2000/svg" style="enable-background:new 0 0 310 185" viewBox="0 0 310 185">
<style>
.main {
  fill: #212121;
}

@media (prefers-color-scheme: dark) {
.main {
  fill: white;
}
}
</style>
<path class="main" d="M206 43.5C204.5 18.3 182.3 0 157.2 0h-48.9c-2.3 0-4.6 1.5-4.6 4.6 0 2.3 2.3 4.6 4.6 4.6h48.9c20.6 0 39.7 16 40.5 36.6 1.5 22.9-16.8 42-39.7 42h-29.8c-2.3 0-4.6 2.3-4.6 4.6s2.3 4.6 4.6 4.6h22.1l43.5 85.5c1.5 2.3 3.8 3.1 6.1 2.3 2.3-.8 3.8-3.8 2.3-6.1l-41.6-81.8c27-1.6 48.4-25.3 45.4-53.4z"/></svg>
