<?xml version="1.0" encoding="UTF-8"?>
<svg id="Layer_1" data-name="Layer 1" xmlns="http://www.w3.org/2000/svg" version="1.1" viewBox="0 0 1280 1280">
  <defs>
    <style>
      .cls-1 {
        fill: #af0;
      }

      .cls-1, .cls-2 {
        stroke-width: 0px;
      }

      .cls-2 {
        fill: #fff;
      }
    </style>
  </defs>
  <g>
    <path class="cls-2" d="M695.7,1078.8h379.5c8.2,0,14.8,6.6,14.8,14.8v27.7c0,8.2-6.6,14.8-14.8,14.8h-379.5c-8.2,0-14.8-6.6-14.8-14.8v-27.7c0-8.2,6.6-14.8,14.8-14.8h0Z"/>
    <path class="cls-2" d="M695.7,985.1h379.5c8.2,0,14.8,6.6,14.8,14.8v27.7c0,8.2-6.6,14.8-14.8,14.8h-379.5c-8.2,0-14.8-6.6-14.8-14.8v-27.7c0-8.1,6.6-14.8,14.8-14.8h0Z"/>
    <path class="cls-2" d="M695.7,891.5h379.5c8.2,0,14.8,6.6,14.8,14.8v27.7c0,8.2-6.6,14.8-14.8,14.8h-379.5c-8.2,0-14.8-6.6-14.8-14.8v-27.7c0-8.2,6.6-14.8,14.8-14.8h0Z"/>
    <path class="cls-2" d="M695.7,797.9h379.5c8.2,0,14.8,6.6,14.8,14.8v27.7c0,8.2-6.6,14.8-14.8,14.8h-379.5c-8.2,0-14.8-6.6-14.8-14.8v-27.7c0-8.2,6.6-14.8,14.8-14.8h0Z"/>
    <path class="cls-2" d="M695.7,704.2h379.5c8.2,0,14.8,6.6,14.8,14.8v27.7c0,8.2-6.6,14.8-14.8,14.8h-379.5c-8.2,0-14.8-6.6-14.8-14.8v-27.7c0-8.2,6.6-14.8,14.8-14.8h0Z"/>
    <path class="cls-2" d="M695.7,610.6h379.5c8.2,0,14.8,6.6,14.8,14.8v27.6c0,8.2-6.6,14.8-14.8,14.8h-379.5c-8.2,0-14.8-6.6-14.8-14.8v-27.7c0-8.1,6.6-14.7,14.8-14.7h0Z"/>
    <path class="cls-2" d="M695.7,516.9h379.5c8.2,0,14.8,6.6,14.8,14.8v27.7c0,8.2-6.6,14.8-14.8,14.8h-379.5c-8.2,0-14.8-6.6-14.8-14.8v-27.7c0-8.1,6.6-14.8,14.8-14.8h0Z"/>
    <path class="cls-2" d="M695.7,423.3h379.5c8.2,0,14.8,6.6,14.8,14.8v27.7c0,8.2-6.6,14.8-14.8,14.8h-379.5c-8.2,0-14.8-6.6-14.8-14.8v-27.7c0-8.2,6.6-14.8,14.8-14.8h0Z"/>
    <path class="cls-2" d="M695.7,329.7h379.5c8.2,0,14.8,6.6,14.8,14.8v27.7c0,8.2-6.6,14.8-14.8,14.8h-379.5c-8.2,0-14.8-6.6-14.8-14.8v-27.7c0-8.2,6.6-14.8,14.8-14.8h0Z"/>
    <path class="cls-2" d="M695.7,236h379.5c8.2,0,14.8,6.6,14.8,14.8v27.7c0,8.2-6.6,14.8-14.8,14.8h-379.5c-8.2,0-14.8-6.6-14.8-14.8v-27.7c0-8.1,6.6-14.8,14.8-14.8h0Z"/>
    <path class="cls-2" d="M204.8,1078.8h379.5c8.2,0,14.8,6.6,14.8,14.8v27.7c0,8.2-6.6,14.8-14.8,14.8H204.8c-8.2,0-14.8-6.6-14.8-14.8v-27.7c0-8.2,6.6-14.8,14.8-14.8Z"/>
    <path class="cls-2" d="M204.8,985.1h379.5c8.2,0,14.8,6.6,14.8,14.8v27.7c0,8.2-6.6,14.8-14.8,14.8H204.8c-8.2,0-14.8-6.6-14.8-14.8v-27.7c0-8.1,6.6-14.8,14.8-14.8Z"/>
    <path class="cls-2" d="M204.8,891.5h379.5c8.2,0,14.8,6.6,14.8,14.8v27.7c0,8.2-6.6,14.8-14.8,14.8H204.8c-8.2,0-14.8-6.6-14.8-14.8v-27.7c0-8.2,6.6-14.8,14.8-14.8Z"/>
    <path class="cls-2" d="M204.8,797.9h379.5c8.2,0,14.8,6.6,14.8,14.8v27.7c0,8.2-6.6,14.8-14.8,14.8H204.8c-8.2,0-14.8-6.6-14.8-14.8v-27.7c0-8.2,6.6-14.8,14.8-14.8Z"/>
    <path class="cls-2" d="M204.8,704.2h379.5c8.2,0,14.8,6.6,14.8,14.8v27.7c0,8.2-6.6,14.8-14.8,14.8H204.8c-8.2,0-14.8-6.6-14.8-14.8v-27.7c0-8.2,6.6-14.8,14.8-14.8Z"/>
    <path class="cls-2" d="M204.8,610.6h379.5c8.2,0,14.8,6.6,14.8,14.8v27.6c0,8.2-6.6,14.8-14.8,14.8H204.8c-8.2,0-14.8-6.6-14.8-14.8v-27.7c0-8.1,6.6-14.7,14.8-14.7h0Z"/>
    <path class="cls-1" d="M204.8,516.9h379.5c8.2,0,14.8,6.6,14.8,14.8v27.7c0,8.2-6.6,14.8-14.8,14.8H204.8c-8.2,0-14.8-6.6-14.8-14.8v-27.7c0-8.1,6.6-14.8,14.8-14.8Z"/>
    <path class="cls-1" d="M204.8,423.3h379.5c8.2,0,14.8,6.6,14.8,14.8v27.7c0,8.2-6.6,14.8-14.8,14.8H204.8c-8.2,0-14.8-6.6-14.8-14.8v-27.7c0-8.2,6.6-14.8,14.8-14.8Z"/>
    <path class="cls-1" d="M204.8,329.7h379.5c8.2,0,14.8,6.6,14.8,14.8v27.7c0,8.2-6.6,14.8-14.8,14.8H204.8c-8.2,0-14.8-6.6-14.8-14.8v-27.7c0-8.2,6.6-14.8,14.8-14.8Z"/>
    <path class="cls-1" d="M204.8,236h379.5c8.2,0,14.8,6.6,14.8,14.8v27.7c0,8.2-6.6,14.8-14.8,14.8H204.8c-8.2,0-14.8-6.6-14.8-14.8v-27.7c0-8.1,6.6-14.8,14.8-14.8Z"/>
  </g>
  <path class="cls-1" d="M154.7,379.7l-48-48c-2.7-2.7-7-2.7-9.7,0l-48,48c-2.6,2.7-2.6,7.1.2,9.7,2.7,2.6,6.9,2.6,9.5,0l36.3-36.3v120.6c0,3.8,3.1,6.9,6.9,6.9s6.9-3.1,6.9-6.9v-120.6l36.3,36.3c2.7,2.6,7.1,2.6,9.7-.2,2.5-2.6,2.5-6.8-.1-9.5Z"/>
  <g>
    <path class="cls-2" d="M362.6,61c3.7-7.1,9-12.7,15.9-16.7,6.9-4,15-5.9,24.3-5.9s15.2,1.5,21.5,4.5c6.3,3,11.5,7.3,15.4,12.7,4,5.5,6.6,11.9,7.9,19.2h-30.6c-1.4-3-3.4-5.4-5.9-7.1-2.6-1.7-5.5-2.5-8.8-2.5-4.9,0-8.7,1.8-11.6,5.5-2.8,3.7-4.2,8.6-4.2,14.8s1.4,11.1,4.2,14.8c2.8,3.7,6.7,5.5,11.6,5.5s6.2-.8,8.8-2.5c2.6-1.7,4.6-4.1,5.9-7.1h30.6c-1.3,7.3-3.9,13.7-7.9,19.2-4,5.5-9.1,9.7-15.4,12.7-6.3,3-13.5,4.5-21.5,4.5s-17.4-2-24.3-5.9c-6.9-4-12.2-9.5-15.9-16.7-3.7-7.1-5.6-15.3-5.6-24.4s1.8-17.3,5.6-24.4Z"/>
    <path class="cls-2" d="M479.1,126.6c-7.3-4.1-13-9.8-17.3-17-4.3-7.2-6.4-15.4-6.4-24.4s2.1-17.2,6.4-24.4c4.3-7.2,10-12.9,17.3-16.9,7.3-4.1,15.3-6.1,24-6.1s16.7,2,23.9,6.1c7.2,4.1,13,9.7,17.2,16.9,4.2,7.2,6.3,15.4,6.3,24.4s-2.1,17.2-6.3,24.4c-4.2,7.2-10,12.9-17.2,17-7.3,4.1-15.2,6.1-23.8,6.1s-16.7-2-24-6.1ZM516.4,100.1c3.1-3.7,4.7-8.7,4.7-15s-1.6-11.4-4.7-15.1c-3.1-3.7-7.6-5.6-13.3-5.6s-10.3,1.9-13.5,5.6c-3.1,3.7-4.7,8.7-4.7,15.1s1.6,11.3,4.7,15c3.1,3.7,7.6,5.6,13.5,5.6s10.2-1.8,13.3-5.6Z"/>
    <path class="cls-2" d="M649.7,131.8h-29l-30.7-46.5v46.5h-29V39.3h29l30.7,47.3v-47.3h29v92.5Z"/>
    <path class="cls-2" d="M728.1,39.3v23h-36.3v12.8h26.1v21.8h-26.1v34.9h-29V39.3h65.3Z"/>
    <path class="cls-2" d="M817.1,75.3v23.9h-60.9v-23.9h60.9Z"/>
    <path class="cls-2" d="M923,39.3v23h-36.3v12.8h26.1v21.8h-26.1v34.9h-29V39.3h65.3Z"/>
  </g>
</svg>