<?xml version="1.0" encoding="utf-8"?>
<!-- Generator: Adobe Illustrator 28.5.0, SVG Export Plug-In . SVG Version: 9.03 Build 54727)  -->
<svg version="1.0" id="Layer_1" xmlns="http://www.w3.org/2000/svg" xmlns:xlink="http://www.w3.org/1999/xlink" x="0px" y="0px"
	 viewBox="0 0 1280 1280" style="enable-background:new 0 0 1280 1280;" xml:space="preserve">
<style type="text/css">
	.st0{fill:#FFFFFF;}
	.st1{fill:#4827EC;}
</style>
<g>
	<path class="st0" d="M439.6,131.2l-17.3-33h-0.1v33h-28.9v-92h42.9c7.5,0,13.8,1.3,19.1,4c5.3,2.6,9.3,6.2,11.9,10.8
		c2.6,4.6,4,9.7,4,15.4c0,6.2-1.7,11.6-5.1,16.4c-3.4,4.8-8.3,8.2-14.8,10.3l20,35.2H439.6z M422.2,78.9h11.4c2.8,0,4.9-0.6,6.2-1.9
		c1.4-1.3,2.1-3.2,2.1-5.9c0-2.4-0.7-4.3-2.1-5.7c-1.4-1.4-3.5-2.1-6.2-2.1h-11.4V78.9z"/>
	<path class="st0" d="M501.4,126c-7.2-4.1-13-9.7-17.2-16.9c-4.2-7.2-6.4-15.3-6.4-24.3c0-9,2.1-17.1,6.4-24.3
		c4.2-7.2,10-12.8,17.2-16.8c7.2-4,15.2-6,23.9-6c8.7,0,16.6,2,23.8,6c7.2,4,12.9,9.6,17.1,16.8c4.2,7.2,6.3,15.3,6.3,24.3
		c0,9-2.1,17.1-6.3,24.3c-4.2,7.2-9.9,12.8-17.2,16.9c-7.2,4.1-15.1,6.1-23.7,6.1C516.6,132.1,508.7,130,501.4,126z M538.5,99.6
		c3.1-3.7,4.7-8.6,4.7-14.9c0-6.3-1.6-11.3-4.7-15c-3.1-3.7-7.5-5.5-13.3-5.5c-5.8,0-10.3,1.8-13.4,5.5c-3.1,3.7-4.7,8.7-4.7,15
		c0,6.2,1.6,11.2,4.7,14.9c3.1,3.7,7.6,5.5,13.4,5.5C531,105.2,535.4,103.3,538.5,99.6z"/>
	<path class="st0" d="M603.9,126c-7.2-4.1-13-9.7-17.2-16.9c-4.2-7.2-6.4-15.3-6.4-24.3c0-9,2.1-17.1,6.4-24.3
		c4.2-7.2,10-12.8,17.2-16.8c7.2-4,15.2-6,23.9-6c8.7,0,16.6,2,23.8,6c7.2,4,12.9,9.6,17.1,16.8c4.2,7.2,6.3,15.3,6.3,24.3
		c0,9-2.1,17.1-6.3,24.3c-4.2,7.2-9.9,12.8-17.2,16.9c-7.2,4.1-15.1,6.1-23.7,6.1C619,132.1,611.1,130,603.9,126z M641,99.6
		c3.1-3.7,4.7-8.6,4.7-14.9c0-6.3-1.6-11.3-4.7-15c-3.1-3.7-7.5-5.5-13.3-5.5c-5.8,0-10.3,1.8-13.4,5.5c-3.1,3.7-4.7,8.7-4.7,15
		c0,6.2,1.6,11.2,4.7,14.9c3.1,3.7,7.6,5.5,13.4,5.5C633.4,105.2,637.9,103.3,641,99.6z"/>
	<path class="st0" d="M740.9,131.2l-26.8-39.9v39.9h-28.9v-92h28.9v38.7l26.4-38.7h32.6l-31.7,44.1l33.8,48H740.9z"/>
	<path class="st0" d="M812.3,39.1v92h-28.9v-92H812.3z"/>
	<path class="st0" d="M854.2,62.1v11.3h28.6v21.7h-28.6v13h32.5v23h-61.4v-92h61.4v23H854.2z"/>
</g>
<g>
	<g>
		<g>
			<path class="st0" d="M695.7,1078.8h379.5c8.2,0,14.8,6.6,14.8,14.8v27.7c0,8.2-6.6,14.8-14.8,14.8H695.7
				c-8.2,0-14.8-6.6-14.8-14.8v-27.7C680.9,1085.4,687.5,1078.8,695.7,1078.8z"/>
			<path class="st0" d="M695.7,985.1h379.5c8.2,0,14.8,6.6,14.8,14.8v27.7c0,8.2-6.6,14.8-14.8,14.8H695.7
				c-8.2,0-14.8-6.6-14.8-14.8v-27.7C680.9,991.8,687.5,985.1,695.7,985.1z"/>
			<path class="st0" d="M695.7,891.5h379.5c8.2,0,14.8,6.6,14.8,14.8V934c0,8.2-6.6,14.8-14.8,14.8H695.7c-8.2,0-14.8-6.6-14.8-14.8
				v-27.7C680.9,898.1,687.5,891.5,695.7,891.5z"/>
			<path class="st0" d="M695.7,797.9h379.5c8.2,0,14.8,6.6,14.8,14.8v27.7c0,8.2-6.6,14.8-14.8,14.8H695.7
				c-8.2,0-14.8-6.6-14.8-14.8v-27.7C680.9,804.5,687.5,797.9,695.7,797.9z"/>
			<path class="st0" d="M695.7,704.2h379.5c8.2,0,14.8,6.6,14.8,14.8v27.7c0,8.2-6.6,14.8-14.8,14.8H695.7
				c-8.2,0-14.8-6.6-14.8-14.8V719C680.9,710.8,687.5,704.2,695.7,704.2z"/>
			<path class="st0" d="M695.7,610.6h379.5c8.2,0,14.8,6.6,14.8,14.8V653c0,8.2-6.6,14.8-14.8,14.8H695.7c-8.2,0-14.8-6.6-14.8-14.8
				v-27.7C680.9,617.2,687.5,610.6,695.7,610.6z"/>
			<path class="st0" d="M695.7,516.9h379.5c8.2,0,14.8,6.6,14.8,14.8v27.7c0,8.2-6.6,14.8-14.8,14.8H695.7
				c-8.2,0-14.8-6.6-14.8-14.8v-27.7C680.9,523.6,687.5,516.9,695.7,516.9z"/>
			<path class="st0" d="M695.7,423.3h379.5c8.2,0,14.8,6.6,14.8,14.8v27.7c0,8.2-6.6,14.8-14.8,14.8H695.7
				c-8.2,0-14.8-6.6-14.8-14.8v-27.7C680.9,429.9,687.5,423.3,695.7,423.3z"/>
			<path class="st0" d="M695.7,329.7h379.5c8.2,0,14.8,6.6,14.8,14.8v27.7c0,8.2-6.6,14.8-14.8,14.8H695.7
				c-8.2,0-14.8-6.6-14.8-14.8v-27.7C680.9,336.3,687.5,329.7,695.7,329.7z"/>
			<path class="st0" d="M695.7,236h379.5c8.2,0,14.8,6.6,14.8,14.8v27.7c0,8.2-6.6,14.8-14.8,14.8H695.7c-8.2,0-14.8-6.6-14.8-14.8
				v-27.7C680.9,242.7,687.5,236,695.7,236z"/>
			<path class="st0" d="M204.8,1078.8h379.5c8.2,0,14.8,6.6,14.8,14.8v27.7c0,8.2-6.6,14.8-14.8,14.8H204.8
				c-8.2,0-14.8-6.6-14.8-14.8v-27.7C190,1085.4,196.6,1078.8,204.8,1078.8z"/>
			<path class="st0" d="M204.8,985.1h379.5c8.2,0,14.8,6.6,14.8,14.8v27.7c0,8.2-6.6,14.8-14.8,14.8H204.8
				c-8.2,0-14.8-6.6-14.8-14.8v-27.7C190,991.8,196.6,985.1,204.8,985.1z"/>
			<path class="st0" d="M204.8,891.5h379.5c8.2,0,14.8,6.6,14.8,14.8V934c0,8.2-6.6,14.8-14.8,14.8H204.8c-8.2,0-14.8-6.6-14.8-14.8
				v-27.7C190,898.1,196.6,891.5,204.8,891.5z"/>
			<path class="st0" d="M204.8,797.9h379.5c8.2,0,14.8,6.6,14.8,14.8v27.7c0,8.2-6.6,14.8-14.8,14.8H204.8
				c-8.2,0-14.8-6.6-14.8-14.8v-27.7C190,804.5,196.6,797.9,204.8,797.9z"/>
			<path class="st0" d="M204.8,704.2h379.5c8.2,0,14.8,6.6,14.8,14.8v27.7c0,8.2-6.6,14.8-14.8,14.8H204.8
				c-8.2,0-14.8-6.6-14.8-14.8V719C190,710.8,196.6,704.2,204.8,704.2z"/>
			<path class="st0" d="M204.8,610.6h379.5c8.2,0,14.8,6.6,14.8,14.8V653c0,8.2-6.6,14.8-14.8,14.8H204.8c-8.2,0-14.8-6.6-14.8-14.8
				v-27.7C190,617.2,196.6,610.6,204.8,610.6z"/>
			<path class="st1" d="M204.8,516.9h379.5c8.2,0,14.8,6.6,14.8,14.8v27.7c0,8.2-6.6,14.8-14.8,14.8H204.8
				c-8.2,0-14.8-6.6-14.8-14.8v-27.7C190,523.6,196.6,516.9,204.8,516.9z"/>
			<path class="st1" d="M204.8,423.3h379.5c8.2,0,14.8,6.6,14.8,14.8v27.7c0,8.2-6.6,14.8-14.8,14.8H204.8
				c-8.2,0-14.8-6.6-14.8-14.8v-27.7C190,429.9,196.6,423.3,204.8,423.3z"/>
			<path class="st1" d="M204.8,329.7h379.5c8.2,0,14.8,6.6,14.8,14.8v27.7c0,8.2-6.6,14.8-14.8,14.8H204.8
				c-8.2,0-14.8-6.6-14.8-14.8v-27.7C190,336.3,196.6,329.7,204.8,329.7z"/>
			<path class="st1" d="M204.8,236h379.5c8.2,0,14.8,6.6,14.8,14.8v27.7c0,8.2-6.6,14.8-14.8,14.8H204.8c-8.2,0-14.8-6.6-14.8-14.8
				v-27.7C190,242.7,196.6,236,204.8,236z"/>
		</g>
	</g>
</g>
<g>
	<path class="st1" d="M154.7,379.7l-48-48c-2.7-2.7-7-2.7-9.7,0l-48,48c-2.6,2.7-2.6,7.1,0.2,9.7c2.7,2.6,6.9,2.6,9.5,0L95,353.1
		v120.6c0,3.8,3.1,6.9,6.9,6.9s6.9-3.1,6.9-6.9V353.1l36.3,36.3c2.7,2.6,7.1,2.6,9.7-0.2C157.3,386.6,157.3,382.4,154.7,379.7z"/>
</g>
</svg>
