<?xml version="1.0" encoding="UTF-8"?>
<svg id="Layer_1" data-name="Layer 1" xmlns="http://www.w3.org/2000/svg" version="1.1" viewBox="0 0 1280 1280">
  <defs>
    <style>
      .cls-1 {
        fill: #af0;
      }

      .cls-1, .cls-2 {
        stroke-width: 0px;
      }

      .cls-2 {
        fill: #fff;
      }
    </style>
  </defs>
  <g>
    <path class="cls-2" d="M439.6,131.2l-17.3-33h-.1v33h-28.9V39.2h42.9c7.5,0,13.8,1.3,19.1,4,5.3,2.6,9.3,6.2,11.9,10.8s4,9.7,4,15.4-1.7,11.6-5.1,16.4-8.3,8.2-14.8,10.3l20,35.2h-31.7ZM422.2,78.9h11.4c2.8,0,4.9-.6,6.2-1.9,1.4-1.3,2.1-3.2,2.1-5.9s-.7-4.3-2.1-5.7c-1.4-1.4-3.5-2.1-6.2-2.1h-11.4v15.6Z"/>
    <path class="cls-2" d="M501.4,126c-7.2-4.1-13-9.7-17.2-16.9-4.2-7.2-6.4-15.3-6.4-24.3s2.1-17.1,6.4-24.3c4.2-7.2,10-12.8,17.2-16.8s15.2-6,23.9-6,16.6,2,23.8,6,12.9,9.6,17.1,16.8c4.2,7.2,6.3,15.3,6.3,24.3s-2.1,17.1-6.3,24.3c-4.2,7.2-9.9,12.8-17.2,16.9-7.2,4.1-15.1,6.1-23.7,6.1s-16.6-2.1-23.9-6.1ZM538.5,99.6c3.1-3.7,4.7-8.6,4.7-14.9s-1.6-11.3-4.7-15c-3.1-3.7-7.5-5.5-13.3-5.5s-10.3,1.8-13.4,5.5-4.7,8.7-4.7,15,1.6,11.2,4.7,14.9c3.1,3.7,7.6,5.5,13.4,5.5,5.8,0,10.2-1.8,13.3-5.5Z"/>
    <path class="cls-2" d="M603.9,126c-7.2-4.1-13-9.7-17.2-16.9-4.2-7.2-6.4-15.3-6.4-24.3s2.1-17.1,6.4-24.3c4.2-7.2,10-12.8,17.2-16.8s15.2-6,23.9-6,16.6,2,23.8,6,12.9,9.6,17.1,16.8c4.2,7.2,6.3,15.3,6.3,24.3s-2.1,17.1-6.3,24.3c-4.2,7.2-9.9,12.8-17.2,16.9-7.2,4.1-15.1,6.1-23.7,6.1s-16.7-2.1-23.9-6.1ZM641,99.6c3.1-3.7,4.7-8.6,4.7-14.9s-1.6-11.3-4.7-15c-3.1-3.7-7.5-5.5-13.3-5.5s-10.3,1.8-13.4,5.5c-3.1,3.7-4.7,8.7-4.7,15s1.6,11.2,4.7,14.9c3.1,3.7,7.6,5.5,13.4,5.5,5.7,0,10.2-1.8,13.3-5.5Z"/>
    <path class="cls-2" d="M740.9,131.2l-26.8-39.9v39.9h-28.9V39.2h28.9v38.7l26.4-38.7h32.6l-31.7,44.1,33.8,48h-34.3Z"/>
    <path class="cls-2" d="M812.3,39.1v92h-28.9V39.1s28.9,0,28.9,0Z"/>
    <path class="cls-2" d="M854.2,62.1v11.3h28.6v21.7h-28.6v13h32.5v23h-61.4V39.1h61.4v23s-32.5,0-32.5,0Z"/>
  </g>
  <g>
    <path class="cls-2" d="M695.7,1078.8h379.5c8.2,0,14.8,6.6,14.8,14.8v27.7c0,8.2-6.6,14.8-14.8,14.8h-379.5c-8.2,0-14.8-6.6-14.8-14.8v-27.7c0-8.2,6.6-14.8,14.8-14.8Z"/>
    <path class="cls-2" d="M695.7,985.1h379.5c8.2,0,14.8,6.6,14.8,14.8v27.7c0,8.2-6.6,14.8-14.8,14.8h-379.5c-8.2,0-14.8-6.6-14.8-14.8v-27.7c0-8.1,6.6-14.8,14.8-14.8Z"/>
    <path class="cls-2" d="M695.7,891.5h379.5c8.2,0,14.8,6.6,14.8,14.8v27.7c0,8.2-6.6,14.8-14.8,14.8h-379.5c-8.2,0-14.8-6.6-14.8-14.8v-27.7c0-8.2,6.6-14.8,14.8-14.8Z"/>
    <path class="cls-2" d="M695.7,797.9h379.5c8.2,0,14.8,6.6,14.8,14.8v27.7c0,8.2-6.6,14.8-14.8,14.8h-379.5c-8.2,0-14.8-6.6-14.8-14.8v-27.7c0-8.2,6.6-14.8,14.8-14.8Z"/>
    <path class="cls-2" d="M695.7,704.2h379.5c8.2,0,14.8,6.6,14.8,14.8v27.7c0,8.2-6.6,14.8-14.8,14.8h-379.5c-8.2,0-14.8-6.6-14.8-14.8v-27.7c0-8.2,6.6-14.8,14.8-14.8Z"/>
    <path class="cls-2" d="M695.7,610.6h379.5c8.2,0,14.8,6.6,14.8,14.8v27.6c0,8.2-6.6,14.8-14.8,14.8h-379.5c-8.2,0-14.8-6.6-14.8-14.8v-27.7c0-8.1,6.6-14.7,14.8-14.7Z"/>
    <path class="cls-2" d="M695.7,516.9h379.5c8.2,0,14.8,6.6,14.8,14.8v27.7c0,8.2-6.6,14.8-14.8,14.8h-379.5c-8.2,0-14.8-6.6-14.8-14.8v-27.7c0-8.1,6.6-14.8,14.8-14.8Z"/>
    <path class="cls-2" d="M695.7,423.3h379.5c8.2,0,14.8,6.6,14.8,14.8v27.7c0,8.2-6.6,14.8-14.8,14.8h-379.5c-8.2,0-14.8-6.6-14.8-14.8v-27.7c0-8.2,6.6-14.8,14.8-14.8Z"/>
    <path class="cls-2" d="M695.7,329.7h379.5c8.2,0,14.8,6.6,14.8,14.8v27.7c0,8.2-6.6,14.8-14.8,14.8h-379.5c-8.2,0-14.8-6.6-14.8-14.8v-27.7c0-8.2,6.6-14.8,14.8-14.8Z"/>
    <path class="cls-2" d="M695.7,236h379.5c8.2,0,14.8,6.6,14.8,14.8v27.7c0,8.2-6.6,14.8-14.8,14.8h-379.5c-8.2,0-14.8-6.6-14.8-14.8v-27.7c0-8.1,6.6-14.8,14.8-14.8Z"/>
    <path class="cls-2" d="M204.8,1078.8h379.5c8.2,0,14.8,6.6,14.8,14.8v27.7c0,8.2-6.6,14.8-14.8,14.8H204.8c-8.2,0-14.8-6.6-14.8-14.8v-27.7c0-8.2,6.6-14.8,14.8-14.8Z"/>
    <path class="cls-2" d="M204.8,985.1h379.5c8.2,0,14.8,6.6,14.8,14.8v27.7c0,8.2-6.6,14.8-14.8,14.8H204.8c-8.2,0-14.8-6.6-14.8-14.8v-27.7c0-8.1,6.6-14.8,14.8-14.8Z"/>
    <path class="cls-2" d="M204.8,891.5h379.5c8.2,0,14.8,6.6,14.8,14.8v27.7c0,8.2-6.6,14.8-14.8,14.8H204.8c-8.2,0-14.8-6.6-14.8-14.8v-27.7c0-8.2,6.6-14.8,14.8-14.8Z"/>
    <path class="cls-2" d="M204.8,797.9h379.5c8.2,0,14.8,6.6,14.8,14.8v27.7c0,8.2-6.6,14.8-14.8,14.8H204.8c-8.2,0-14.8-6.6-14.8-14.8v-27.7c0-8.2,6.6-14.8,14.8-14.8Z"/>
    <path class="cls-2" d="M204.8,704.2h379.5c8.2,0,14.8,6.6,14.8,14.8v27.7c0,8.2-6.6,14.8-14.8,14.8H204.8c-8.2,0-14.8-6.6-14.8-14.8v-27.7c0-8.2,6.6-14.8,14.8-14.8Z"/>
    <path class="cls-2" d="M204.8,610.6h379.5c8.2,0,14.8,6.6,14.8,14.8v27.6c0,8.2-6.6,14.8-14.8,14.8H204.8c-8.2,0-14.8-6.6-14.8-14.8v-27.7c0-8.1,6.6-14.7,14.8-14.7Z"/>
    <path class="cls-1" d="M204.8,516.9h379.5c8.2,0,14.8,6.6,14.8,14.8v27.7c0,8.2-6.6,14.8-14.8,14.8H204.8c-8.2,0-14.8-6.6-14.8-14.8v-27.7c0-8.1,6.6-14.8,14.8-14.8Z"/>
    <path class="cls-1" d="M204.8,423.3h379.5c8.2,0,14.8,6.6,14.8,14.8v27.7c0,8.2-6.6,14.8-14.8,14.8H204.8c-8.2,0-14.8-6.6-14.8-14.8v-27.7c0-8.2,6.6-14.8,14.8-14.8Z"/>
    <path class="cls-1" d="M204.8,329.7h379.5c8.2,0,14.8,6.6,14.8,14.8v27.7c0,8.2-6.6,14.8-14.8,14.8H204.8c-8.2,0-14.8-6.6-14.8-14.8v-27.7c0-8.2,6.6-14.8,14.8-14.8Z"/>
    <path class="cls-1" d="M204.8,236h379.5c8.2,0,14.8,6.6,14.8,14.8v27.7c0,8.2-6.6,14.8-14.8,14.8H204.8c-8.2,0-14.8-6.6-14.8-14.8v-27.7c0-8.1,6.6-14.8,14.8-14.8Z"/>
  </g>
  <path class="cls-1" d="M154.7,379.7l-48-48c-2.7-2.7-7-2.7-9.7,0l-48,48c-2.6,2.7-2.6,7.1.2,9.7,2.7,2.6,6.9,2.6,9.5,0l36.3-36.3v120.6c0,3.8,3.1,6.9,6.9,6.9s6.9-3.1,6.9-6.9v-120.6l36.3,36.3c2.7,2.6,7.1,2.6,9.7-.2,2.5-2.6,2.5-6.8-.1-9.5Z"/>
</svg>