<?xml version="1.0" encoding="UTF-8"?>
<svg id="Layer_2" data-name="Layer 2" xmlns="http://www.w3.org/2000/svg" version="1.1" viewBox="0 0 1920 1024">
  <defs>
    <style>
      .cls-1 {
        fill: #af0;
      }

      .cls-1, .cls-2 {
        stroke-width: 0px;
      }

      .cls-2 {
        fill: #fff;
      }

      .cls-3 {
        fill: none;
        stroke: #fff;
        stroke-miterlimit: 10;
        stroke-width: 2px;
      }
    </style>
  </defs>
  <g>
    <path class="cls-1" d="M207,425.7v-21.1h56.9v240.1h-23.8v-219h-33.2.1Z"/>
    <g>
      <path class="cls-2" d="M314,363.1v19.1h-15v-39h63.2v19.9h-48.2Z"/>
      <path class="cls-2" d="M346.4,408.3h-7.8v19.6h-15v-19.6h-8.9v22.3h-15.9v-42.2h63.2v42.2h-15.9v-22.3h.3Z"/>
      <path class="cls-2" d="M308.5,478.7v-21.1l-9.6-3.1v-20.8l63.2,23.1v22.9l-63.2,23v-20.9l9.6-3.1h0ZM323.5,473.8l17.6-5.7-17.6-5.7v11.4h0Z"/>
      <path class="cls-2" d="M340.6,545.9c1.2-.8,2.2-1.9,2.9-3.3s1-3.1,1-5.1c0-3.8-1.2-6.8-3.7-8.8-2.5-2.1-5.8-3.1-10.2-3.1s-8.6,1.1-11.1,3.5c-2.5,2.3-3.7,5.9-3.7,10.7s1.9,8.3,5.6,11.1v-15.9h14.1v32.3h-19.9c-4.7-2.8-8.7-6.5-12.1-11.4-3.3-4.8-5-10.9-5-18.3s1.3-12.3,4-17.1,6.5-8.6,11.4-11.2,10.5-3.9,16.7-3.9,11.8,1.3,16.7,3.9,8.7,6.3,11.4,11.2c2.7,4.8,4,10.5,4,17s-2,15.1-6,20.2c-4,5.2-9.4,8.3-16.3,9.3v-20.9h0l.2-.2Z"/>
      <path class="cls-2" d="M362.2,593.7h-35.6c-2.9,0-5.2.7-6.9,1.9-1.7,1.2-2.6,3.3-2.6,6.3s.9,5,2.6,6.4,4,2,6.9,2h35.6v19.8h-35.6c-6,0-11.2-1.2-15.4-3.8-4.2-2.5-7.5-5.9-9.6-10.3s-3.2-9.2-3.2-14.5,1.1-10.2,3.2-14.3,5.4-7.4,9.6-9.7,9.4-3.5,15.4-3.5h35.6v19.8h0Z"/>
      <path class="cls-2" d="M346.4,658.3h-7.8v19.6h-15v-19.6h-8.9v22.3h-15.9v-42.2h63.2v42.2h-15.9v-22.3h.3Z"/>
    </g>
  </g>
  <g>
    <path class="cls-1" d="M914.6,419.7c-21.9,0-38.3,8.5-49.2,25.5s-16,44.8-15.1,83.4c4.5-13.4,12.9-23.9,25.6-31.7,12.6-7.7,27-11.5,43.4-11.5,23.4,0,42.1,7.1,55.8,21.5,13.7,14.4,20.7,34.3,20.7,59.4s-2.8,28.1-8.6,40.1c-5.7,11.9-14.4,21.5-26.1,28.6-11.7,7.1-26.3,10.7-43.8,10.7-33.3,0-56.3-10.6-68.9-31.8-12.6-21.2-18.9-51.2-18.9-90.1,0-82.6,28.4-123.9,85.1-123.9s68.4,23.9,72.3,63.3h-21.8c-4.9-29-21.8-43.5-50.6-43.5h0ZM885.1,511.8c-9.4,4.2-17.1,10.7-22.9,19.2-5.9,8.6-8.9,19.2-8.9,31.7,0,18.1,5.4,33.2,16.1,45.2,10.7,12.1,26.3,18.1,46.9,18.1s30.9-5.2,41.2-15.7,15.4-24.8,15.4-42.9-5-34.6-15.1-45.5-24.3-16.4-42.9-16.4-20.4,2.1-29.8,6.4h0Z"/>
    <g>
      <path class="cls-2" d="M1074.5,188.4c4.9,2.6,8.7,6.1,11.4,10.8,2.7,4.7,4,10.3,4,16.6s-1,10.4-3.1,14.7c-2,4.4-4.9,7.8-8.7,10.5s-8.1,4.5-13.2,5.4v-20.9c2.1-1,3.7-2.3,4.9-4,1.1-1.8,1.8-3.8,1.8-6,0-3.3-1.2-5.9-3.8-7.9-2.5-1.9-5.9-2.9-10-2.9s-7.6,1-10,2.9c-2.5,1.9-3.8,4.6-3.8,7.9s.6,4.2,1.8,6c1.1,1.8,2.8,3.1,4.9,4v20.9c-5-.9-9.4-2.7-13.2-5.4s-6.7-6.3-8.7-10.5c-2-4.4-3.1-9.3-3.1-14.7s1.3-11.9,4-16.6c2.7-4.7,6.5-8.4,11.4-10.8,4.9-2.6,10.5-3.8,16.7-3.8s11.8,1.2,16.7,3.8h0Z"/>
      <path class="cls-2" d="M1029.8,268.1c2.8-5,6.7-8.9,11.6-11.8s10.5-4.4,16.7-4.4,11.7,1.5,16.7,4.4c4.9,2.9,8.8,6.8,11.6,11.8s4.1,10.4,4.1,16.4-1.3,11.4-4.1,16.3-6.6,8.8-11.6,11.7c-4.9,2.9-10.5,4.4-16.7,4.4s-11.7-1.5-16.7-4.4c-4.9-2.9-8.8-6.8-11.6-11.8s-4.2-10.4-4.2-16.3,1.5-11.4,4.2-16.4h0ZM1047.9,293.5c2.6,2.1,5.9,3.2,10.3,3.2s7.8-1.1,10.3-3.2c2.6-2.1,3.8-5.1,3.8-9.2s-1.2-7-3.8-9.2c-2.6-2.1-5.9-3.2-10.3-3.2s-7.7,1.1-10.3,3.2c-2.6,2.1-3.8,5.2-3.8,9.2s1.2,6.9,3.8,9.2Z"/>
      <path class="cls-2" d="M1026.2,384.6v-19.9l31.8-21h-31.8v-19.9h63.2v19.9l-32.4,21h32.4v19.9h-63.2Z"/>
      <path class="cls-2" d="M1089.4,438.2h-15.7v-24.8h-8.7v17.9h-15v-17.9h-23.9v-19.9h63.2v44.7h0Z"/>
      <path class="cls-2" d="M1073.5,464.8h-7.8v19.6h-15v-19.6h-8.9v22.3h-15.9v-42.2h63.2v42.2h-15.9v-22.3h.3Z"/>
      <path class="cls-2" d="M1026.2,526.4l22.7-11.8h-22.7v-19.9h63.2v29.5c0,5.1-.9,9.5-2.7,13.2s-4.2,6.4-7.4,8.1c-3.1,1.8-6.7,2.7-10.6,2.7s-7.9-1.2-11.3-3.6c-3.2-2.3-5.6-5.7-7-10.2l-24.2,13.7v-21.8h0ZM1062,514.5v7.8c0,1.9.4,3.3,1.3,4.2.9,1,2.2,1.5,4,1.5s3-.4,3.9-1.5,1.5-2.3,1.5-4.2v-7.8h-10.7Z"/>
      <path class="cls-2" d="M1073.5,574.3h-7.8v19.6h-15v-19.6h-8.9v22.3h-15.9v-42.2h63.2v42.2h-15.9v-22.3h.3Z"/>
      <path class="cls-2" d="M1026.2,664.7v-19.9l31.8-21h-31.8v-19.9h63.2v19.9l-32.4,21h32.4v19.9h-63.2Z"/>
      <path class="cls-2" d="M1074.5,675.6c4.9,2.6,8.7,6.1,11.4,10.8,2.7,4.7,4,10.3,4,16.6s-1,10.4-3.1,14.7c-2,4.4-4.9,7.8-8.7,10.5s-8.1,4.5-13.2,5.4v-20.9c2.1-1,3.7-2.3,4.9-4s1.8-3.8,1.8-6c0-3.3-1.2-5.9-3.8-7.9-2.5-1.9-5.9-2.9-10-2.9s-7.6,1-10,2.9c-2.5,1.9-3.8,4.6-3.8,7.9s.6,4.2,1.8,6c1.1,1.8,2.8,3.1,4.9,4v20.9c-5-.9-9.4-2.7-13.2-5.4-3.8-2.7-6.7-6.3-8.7-10.5-2-4.4-3.1-9.3-3.1-14.7s1.3-11.9,4-16.6c2.7-4.7,6.5-8.4,11.4-10.8,4.9-2.6,10.5-3.8,16.7-3.8s11.8,1.2,16.7,3.8h0Z"/>
      <path class="cls-2" d="M1073.5,760.7h-7.8v19.6h-15v-19.6h-8.9v22.3h-15.9v-42.2h63.2v42.2h-15.9v-22.3h.3Z"/>
      <path class="cls-2" d="M1030.9,796.5c3.6-4.9,8.7-7.6,15.6-8v21.1c-3.7.3-5.5,1.9-5.5,4.8s.2,2,.8,2.7c.6.8,1.3,1.1,2.3,1.1s2.7-.8,3.6-2.5c.9-1.6,2-4.1,3.1-7.5,1.5-4,2.8-7.4,4.2-10,1.3-2.7,3.3-4.9,6-6.8,2.6-1.9,6-2.8,10-2.8s7.6,1,10.5,3.1,5,5,6.6,8.7c1.5,3.7,2.2,7.8,2.2,12.4,0,7.7-1.8,13.8-5.4,18.4-3.6,4.6-8.6,6.9-15.1,7.1v-21.3c1.8,0,3-.6,3.8-1.3.8-.8,1.1-1.9,1.1-3s-.3-1.6-.9-2c-.6-.6-1.3-.8-2.3-.8s-2.6.8-3.6,2.3c-.9,1.6-2,4.1-3.3,7.6-1.5,4-2.9,7.3-4.2,9.8-1.3,2.6-3.2,4.8-5.7,6.7s-5.5,2.9-9.2,2.9-7.4-1-10.4-2.9-5.5-4.7-7.1-8.3c-1.7-3.7-2.6-7.9-2.6-12.9,0-7.6,1.8-13.8,5.4-18.8h0l.2.2Z"/>
    </g>
  </g>
  <g>
    <path class="cls-1" d="M1600.6,543.5c22.4-24.4,33.6-48.4,33.6-71.9s-3.8-27.7-11.5-36.9c-7.7-9.3-20.3-14-37.7-14s-30.1,5.4-39.3,15.9c-9.3,10.6-14.5,24.8-15.6,42.4h-22.8c1.3-24.8,8.9-44.1,22.9-57.8s32.1-20.7,54.7-20.7,39.2,6.1,52.6,18.3,20.1,29.5,20.1,51.8-11.2,53.2-33.6,78.6c-22.4,25.3-50.1,50-82.8,74.1h123.9v19.8h-159.7v-16.7c41.1-30.8,72.8-58.5,95.3-82.8h0Z"/>
    <g>
      <path class="cls-2" d="M1759.7,323c-2.7,5-6.4,8.8-11.2,11.5s-10.2,4-16.3,4-11.4-1.3-16.3-4-8.6-6.5-11.4-11.5-4.1-10.7-4.1-17.4v-26.3h63.2v26.3c0,6.6-1.3,12.4-4,17.4h.1ZM1721.7,314.5c2.5,2.6,5.9,3.9,10.5,3.9s8-1.3,10.5-3.9,3.7-6.1,3.7-10.6v-4.7h-28.2v4.7c0,4.5,1.2,8,3.7,10.6h-.2Z"/>
      <path class="cls-2" d="M1763.7,365.5h-63.2v-19.9h63.2v19.9Z"/>
      <path class="cls-2" d="M1763.7,438.1l-63.2-21.2v-25.7l63.2-21.2v21.1l-43.5,13.1,43.5,12.9v21.1h0Z"/>
      <path class="cls-2" d="M1763.7,462.4h-63.2v-19.9h63.2v19.9Z"/>
      <path class="cls-2" d="M1705.1,477.4c3.6-4.9,8.7-7.6,15.6-8v21.1c-3.7.3-5.5,1.9-5.5,4.8s.2,2,.8,2.7c.6.8,1.3,1.1,2.3,1.1s2.7-.8,3.6-2.5c.9-1.6,2-4.1,3.1-7.5,1.5-4,2.8-7.4,4.2-10,1.3-2.7,3.3-4.9,6-6.8,2.6-1.9,6-2.8,10-2.8s7.6,1,10.5,3.1,5,5,6.6,8.7c1.5,3.7,2.2,7.8,2.2,12.4,0,7.7-1.8,13.8-5.4,18.4-3.6,4.6-8.6,6.9-15.1,7.1v-21.3c1.8,0,3-.6,3.8-1.3.8-.8,1.1-1.9,1.1-3s-.3-1.6-.9-2c-.6-.6-1.3-.8-2.3-.8s-2.6.8-3.6,2.3c-.9,1.6-2,4.1-3.3,7.6-1.5,4-2.9,7.3-4.2,9.8-1.3,2.6-3.2,4.8-5.7,6.7s-5.5,2.9-9.2,2.9-7.4-1-10.4-2.9-5.5-4.7-7.1-8.3c-1.7-3.7-2.6-7.9-2.6-12.9,0-7.6,1.8-13.8,5.4-18.8h0l.2.2Z"/>
      <path class="cls-2" d="M1763.7,546.9h-63.2v-19.9h63.2v19.9Z"/>
      <path class="cls-2" d="M1704,570.3c2.8-5,6.7-8.9,11.6-11.8s10.5-4.4,16.7-4.4,11.7,1.5,16.7,4.4c4.9,2.9,8.8,6.8,11.6,11.8s4.1,10.4,4.1,16.4-1.3,11.4-4.1,16.3c-2.8,4.9-6.6,8.8-11.6,11.7-4.9,2.9-10.5,4.4-16.7,4.4s-11.7-1.5-16.7-4.4c-4.9-2.9-8.8-6.8-11.6-11.8s-4.2-10.4-4.2-16.3,1.5-11.4,4.2-16.4h0ZM1722.1,595.8c2.6,2.1,5.9,3.2,10.3,3.2s7.8-1.1,10.3-3.2,3.8-5.1,3.8-9.2-1.2-7-3.8-9.2-5.9-3.2-10.3-3.2-7.7,1.1-10.3,3.2c-2.6,2.1-3.8,5.2-3.8,9.2s1.2,6.9,3.8,9.2Z"/>
      <path class="cls-2" d="M1700.4,686.9v-19.9l31.8-21h-31.8v-19.9h63.2v19.9l-32.4,21h32.4v19.9h-63.2Z"/>
      <path class="cls-2" d="M1705.1,701.9c3.6-4.9,8.7-7.6,15.6-8v21.1c-3.7.3-5.5,1.9-5.5,4.8s.2,2,.8,2.7c.6.8,1.3,1.1,2.3,1.1s2.7-.8,3.6-2.5c.9-1.6,2-4.1,3.1-7.5,1.5-4,2.8-7.4,4.2-10,1.3-2.7,3.3-4.9,6-6.8,2.6-1.9,6-2.8,10-2.8s7.6,1,10.5,3.1,5,5,6.6,8.7c1.5,3.7,2.2,7.8,2.2,12.4,0,7.7-1.8,13.8-5.4,18.4s-8.6,6.9-15.1,7.1v-21.3c1.8,0,3-.6,3.8-1.3.8-.8,1.1-1.9,1.1-3s-.3-1.6-.9-2c-.6-.6-1.3-.8-2.3-.8s-2.6.8-3.6,2.3c-.9,1.6-2,4.1-3.3,7.6-1.5,4-2.9,7.3-4.2,9.8-1.3,2.6-3.2,4.8-5.7,6.7s-5.5,2.9-9.2,2.9-7.4-1-10.4-2.9-5.5-4.7-7.1-8.3-2.6-7.9-2.6-12.9c0-7.6,1.8-13.8,5.4-18.8h0l.2.2Z"/>
    </g>
  </g>
  <g id="Layer_2-2-2" data-name="Layer 2-2-2">
    <line class="cls-3" x1="554.2" y1="553.8" x2="637.9" y2="470.2"/>
    <line class="cls-3" x1="637.9" y1="553.8" x2="554.2" y2="470.2"/>
  </g>
  <g id="Layer_2-2-2-2" data-name="Layer 2-2-2">
    <line class="cls-3" x1="1256.1" y1="553.8" x2="1339.8" y2="470.2"/>
    <line class="cls-3" x1="1339.8" y1="553.8" x2="1256.1" y2="470.2"/>
  </g>
</svg>