<?xml version="1.0" encoding="UTF-8"?>
<svg id="Layer_2" data-name="Layer 2" xmlns="http://www.w3.org/2000/svg" version="1.1" xmlns:xlink="http://www.w3.org/1999/xlink" viewBox="0 0 1920 1024">
  <defs>
    <style>
      .cls-1 {
        fill: none;
      }

      .cls-1, .cls-2, .cls-3 {
        stroke-width: 0px;
      }

      .cls-2 {
        fill: #af0;
      }

      .cls-4 {
        clip-path: url(#clippath-1);
      }

      .cls-5 {
        clip-path: url(#clippath);
      }

      .cls-3 {
        fill: #fff;
      }
    </style>
    <clipPath id="clippath">
      <rect class="cls-1" x="100" y="100" width="510.5" height="39.8"/>
    </clipPath>
    <clipPath id="clippath-1">
      <rect class="cls-1" x="1309.5" y="884.2" width="510.5" height="39.8"/>
    </clipPath>
  </defs>
  <g class="cls-5">
    <g>
      <rect class="cls-2" x="609.1" y="78.2" width="4" height="83.3" transform="translate(94.2 467.3) rotate(-45)"/>
      <rect class="cls-2" x="579.1" y="78.3" width="4" height="83.3" transform="translate(85.4 446) rotate(-45)"/>
      <rect class="cls-2" x="549" y="78.3" width="4" height="83.3" transform="translate(76.6 424.7) rotate(-45)"/>
      <rect class="cls-2" x="518.9" y="78.3" width="4" height="83.3" transform="translate(67.8 403.4) rotate(-45)"/>
      <rect class="cls-2" x="488.8" y="78.2" width="4" height="83.3" transform="translate(59 382.2) rotate(-45)"/>
      <rect class="cls-2" x="458.7" y="78.2" width="4" height="83.3" transform="translate(50.2 360.9) rotate(-45)"/>
      <rect class="cls-2" x="428.5" y="78.2" width="4" height="83.3" transform="translate(41.3 339.5) rotate(-45)"/>
      <rect class="cls-2" x="398.5" y="78.3" width="4" height="83.3" transform="translate(32.5 318.3) rotate(-45)"/>
      <rect class="cls-2" x="368.4" y="78.5" width="4" height="83.4" transform="translate(23.5 297.2) rotate(-45)"/>
      <rect class="cls-2" x="338.4" y="78.5" width="4" height="83.4" transform="translate(14.7 275.9) rotate(-45)"/>
      <rect class="cls-2" x="308.1" y="78.2" width="4" height="83.3" transform="translate(6.1 254.4) rotate(-45)"/>
      <rect class="cls-2" x="278" y="78.3" width="4" height="83.3" transform="translate(-2.8 233.1) rotate(-45)"/>
      <rect class="cls-2" x="247.9" y="78.3" width="4" height="83.3" transform="translate(-11.6 211.8) rotate(-45)"/>
      <rect class="cls-2" x="217.8" y="78.3" width="4" height="83.3" transform="translate(-20.4 190.5) rotate(-45)"/>
      <rect class="cls-2" x="187.7" y="78.3" width="4" height="83.3" transform="translate(-29.2 169.3) rotate(-45)"/>
      <rect class="cls-2" x="157.6" y="78.2" width="4" height="83.3" transform="translate(-38 148) rotate(-45)"/>
      <rect class="cls-2" x="127.5" y="78.2" width="4" height="83.3" transform="translate(-46.8 126.7) rotate(-45)"/>
      <rect class="cls-2" x="97.3" y="78.3" width="4" height="83.3" transform="translate(-55.7 105.4) rotate(-45)"/>
    </g>
  </g>
  <g class="cls-4">
    <g>
      <rect class="cls-2" x="1818.6" y="862.4" width="4" height="83.3" transform="translate(-106 1552.2) rotate(-45)"/>
      <rect class="cls-2" x="1788.6" y="862.5" width="4" height="83.3" transform="translate(-114.9 1530.9) rotate(-45)"/>
      <rect class="cls-2" x="1758.5" y="862.5" width="4" height="83.3" transform="translate(-123.7 1509.7) rotate(-45)"/>
      <rect class="cls-2" x="1728.4" y="862.5" width="4" height="83.3" transform="translate(-132.5 1488.4) rotate(-45)"/>
      <rect class="cls-2" x="1698.3" y="862.4" width="4" height="83.3" transform="translate(-141.3 1467.1) rotate(-45)"/>
      <rect class="cls-2" x="1668.2" y="862.4" width="4" height="83.3" transform="translate(-150.1 1445.8) rotate(-45)"/>
      <rect class="cls-2" x="1638" y="862.4" width="4" height="83.3" transform="translate(-158.9 1424.5) rotate(-45)"/>
      <rect class="cls-2" x="1608" y="862.5" width="4" height="83.3" transform="translate(-167.8 1403.2) rotate(-45)"/>
      <rect class="cls-2" x="1577.9" y="862.7" width="4" height="83.4" transform="translate(-176.8 1382.1) rotate(-45)"/>
      <rect class="cls-2" x="1547.9" y="862.7" width="4" height="83.4" transform="translate(-185.6 1360.8) rotate(-45)"/>
      <rect class="cls-2" x="1517.6" y="862.4" width="4" height="83.3" transform="translate(-194.2 1339.3) rotate(-45)"/>
      <rect class="cls-2" x="1487.5" y="862.5" width="4" height="83.3" transform="translate(-203.1 1318) rotate(-45)"/>
      <rect class="cls-2" x="1457.4" y="862.5" width="4" height="83.3" transform="translate(-211.9 1296.7) rotate(-45)"/>
      <rect class="cls-2" x="1427.3" y="862.5" width="4" height="83.3" transform="translate(-220.7 1275.5) rotate(-45)"/>
      <rect class="cls-2" x="1397.2" y="862.5" width="4" height="83.3" transform="translate(-229.5 1254.2) rotate(-45)"/>
      <rect class="cls-2" x="1367.1" y="862.4" width="4" height="83.3" transform="translate(-238.3 1232.9) rotate(-45)"/>
      <rect class="cls-2" x="1337" y="862.4" width="4" height="83.3" transform="translate(-247.1 1211.6) rotate(-45)"/>
      <rect class="cls-2" x="1306.8" y="862.5" width="4" height="83.3" transform="translate(-256 1190.3) rotate(-45)"/>
    </g>
  </g>
  <rect class="cls-3" x="1309.5" y="112.4" width="510.5" height="15"/>
  <rect class="cls-3" x="1170" y="142.4" width="650" height="5"/>
  <rect class="cls-3" x="100" y="904.2" width="510.5" height="15" transform="translate(710.5 1823.4) rotate(180)"/>
  <rect class="cls-3" x="100" y="884.2" width="650" height="5" transform="translate(850 1773.4) rotate(180)"/>
  <g>
    <path class="cls-2" d="M285.4,434.7v-18.9h51v215.1h-21.3v-196.2h-29.7Z"/>
    <g>
      <path class="cls-3" d="M381.3,378.6v17.1h-13.4v-34.9h56.6v17.8h-43.2Z"/>
      <path class="cls-3" d="M410.3,419.1h-7v17.6h-13.4v-17.6h-8v20h-14.2v-37.8h56.6v37.8h-14.2v-20Z"/>
      <path class="cls-3" d="M376.4,482.2v-18.9l-8.6-2.8v-18.6l56.6,20.7v20.5l-56.6,20.6v-18.7l8.6-2.8ZM389.8,477.8l15.8-5.1-15.8-5.1v10.2Z"/>
      <path class="cls-3" d="M405.1,542.4c1.1-.7,2-1.7,2.6-3,.6-1.3.9-2.8.9-4.6,0-3.4-1.1-6.1-3.3-7.9-2.2-1.9-5.2-2.8-9.1-2.8s-7.7,1-9.9,3.1c-2.2,2.1-3.3,5.3-3.3,9.6s1.7,7.4,5,9.9v-14.2h12.6v28.9h-17.8c-4.2-2.5-7.8-5.8-10.8-10.2-3-4.3-4.5-9.8-4.5-16.4s1.2-11,3.6-15.3c2.4-4.3,5.8-7.7,10.2-10,4.4-2.3,9.4-3.5,15-3.5s10.6,1.2,15,3.5c4.4,2.3,7.8,5.6,10.2,10,2.4,4.3,3.6,9.4,3.6,15.2s-1.8,13.5-5.4,18.1c-3.6,4.7-8.4,7.4-14.6,8.3v-18.7Z"/>
      <path class="cls-3" d="M424.5,585.2h-31.9c-2.6,0-4.7.6-6.2,1.7-1.5,1.1-2.3,3-2.3,5.6s.8,4.5,2.3,5.7c1.5,1.2,3.6,1.8,6.2,1.8h31.9v17.7h-31.9c-5.4,0-10-1.1-13.8-3.4-3.8-2.2-6.7-5.3-8.6-9.2-1.9-3.9-2.9-8.2-2.9-13s1-9.1,2.9-12.8c1.9-3.7,4.8-6.6,8.6-8.7,3.8-2.1,8.4-3.1,13.8-3.1h31.9v17.7Z"/>
      <path class="cls-3" d="M410.3,643.1h-7v17.6h-13.4v-17.6h-8v20h-14.2v-37.8h56.6v37.8h-14.2v-20Z"/>
    </g>
  </g>
  <g>
    <path class="cls-2" d="M919.3,429.3c-19.6,0-34.3,7.6-44.1,22.8-9.8,15.2-14.3,40.1-13.5,74.7,4-12,11.6-21.4,22.9-28.4,11.3-6.9,24.2-10.3,38.9-10.3,21,0,37.7,6.4,50,19.3s18.5,30.7,18.5,53.2-2.5,25.2-7.7,35.9c-5.1,10.7-12.9,19.3-23.4,25.6-10.5,6.4-23.6,9.6-39.2,9.6-29.8,0-50.4-9.5-61.7-28.5-11.3-19-16.9-45.9-16.9-80.7,0-74,25.4-111,76.2-111s61.3,21.4,64.8,56.7h-19.5c-4.4-26-19.5-39-45.3-39ZM892.9,511.8c-8.4,3.8-15.3,9.6-20.5,17.2-5.3,7.7-8,17.2-8,28.4,0,16.2,4.8,29.7,14.4,40.5,9.6,10.8,23.6,16.2,42,16.2s27.7-4.7,36.9-14.1c9.2-9.4,13.8-22.2,13.8-38.4s-4.5-31-13.5-40.8c-9-9.8-21.8-14.7-38.4-14.7s-18.3,1.9-26.7,5.7Z"/>
    <g>
      <path class="cls-3" d="M1062.6,222.1c4.4,2.3,7.8,5.5,10.2,9.7,2.4,4.2,3.6,9.2,3.6,14.9s-.9,9.3-2.8,13.2c-1.8,3.9-4.4,7-7.8,9.4-3.4,2.4-7.3,4-11.8,4.8v-18.7c1.9-.9,3.3-2.1,4.4-3.6,1-1.6,1.6-3.4,1.6-5.4,0-3-1.1-5.3-3.4-7.1-2.2-1.7-5.3-2.6-9-2.6s-6.8.9-9,2.6c-2.2,1.7-3.4,4.1-3.4,7.1s.5,3.8,1.6,5.4c1,1.6,2.5,2.8,4.4,3.6v18.7c-4.5-.8-8.4-2.4-11.8-4.8-3.4-2.4-6-5.6-7.8-9.4-1.8-3.9-2.8-8.3-2.8-13.2s1.2-10.7,3.6-14.9c2.4-4.2,5.8-7.5,10.2-9.7,4.4-2.3,9.4-3.4,15-3.4s10.6,1.1,15,3.4Z"/>
      <path class="cls-3" d="M1022.5,293.5c2.5-4.5,6-8,10.4-10.6,4.4-2.6,9.4-3.9,15-3.9s10.5,1.3,15,3.9c4.4,2.6,7.9,6.1,10.4,10.6,2.5,4.5,3.7,9.3,3.7,14.7s-1.2,10.2-3.7,14.6c-2.5,4.4-5.9,7.9-10.4,10.5-4.4,2.6-9.4,3.9-15,3.9s-10.5-1.3-15-3.9c-4.4-2.6-7.9-6.1-10.4-10.6-2.5-4.5-3.8-9.3-3.8-14.6s1.3-10.2,3.8-14.7ZM1038.7,316.3c2.3,1.9,5.3,2.9,9.2,2.9s7-1,9.2-2.9c2.3-1.9,3.4-4.6,3.4-8.2s-1.1-6.3-3.4-8.2c-2.3-1.9-5.3-2.9-9.2-2.9s-6.9,1-9.2,2.9c-2.3,1.9-3.4,4.7-3.4,8.2s1.1,6.2,3.4,8.2Z"/>
      <path class="cls-3" d="M1019.3,397.9v-17.8l28.5-18.8h-28.5v-17.8h56.6v17.8l-29,18.8h29v17.8h-56.6Z"/>
      <path class="cls-3" d="M1075.9,445.9h-14.1v-22.2h-7.8v16h-13.4v-16h-21.4v-17.8h56.6v40Z"/>
      <path class="cls-3" d="M1061.7,469.7h-7v17.6h-13.4v-17.6h-8v20h-14.2v-37.8h56.6v37.8h-14.2v-20Z"/>
      <path class="cls-3" d="M1019.3,524.9l20.3-10.6h0c0,0-20.3,0-20.3,0v-17.8h56.6v26.4c0,4.6-.8,8.5-2.4,11.8-1.6,3.3-3.8,5.7-6.6,7.3-2.8,1.6-6,2.4-9.5,2.4s-7.1-1.1-10.1-3.2c-2.9-2.1-5-5.1-6.3-9.1l-21.7,12.3v-19.5ZM1051.4,514.2v7c0,1.7.4,3,1.2,3.8.8.9,2,1.3,3.6,1.3s2.7-.4,3.5-1.3,1.3-2.1,1.3-3.8v-7h-9.6Z"/>
      <path class="cls-3" d="M1061.7,567.8h-7v17.6h-13.4v-17.6h-8v20h-14.2v-37.8h56.6v37.8h-14.2v-20Z"/>
      <path class="cls-3" d="M1019.3,648.8v-17.8l28.5-18.8h-28.5v-17.8h56.6v17.8l-29,18.8h29v17.8h-56.6Z"/>
      <path class="cls-3" d="M1062.6,658.6c4.4,2.3,7.8,5.5,10.2,9.7,2.4,4.2,3.6,9.2,3.6,14.9s-.9,9.3-2.8,13.2c-1.8,3.9-4.4,7-7.8,9.4-3.4,2.4-7.3,4-11.8,4.8v-18.7c1.9-.9,3.3-2.1,4.4-3.6s1.6-3.4,1.6-5.4c0-3-1.1-5.3-3.4-7.1-2.2-1.7-5.3-2.6-9-2.6s-6.8.9-9,2.6c-2.2,1.7-3.4,4.1-3.4,7.1s.5,3.8,1.6,5.4c1,1.6,2.5,2.8,4.4,3.6v18.7c-4.5-.8-8.4-2.4-11.8-4.8-3.4-2.4-6-5.6-7.8-9.4-1.8-3.9-2.8-8.3-2.8-13.2s1.2-10.7,3.6-14.9c2.4-4.2,5.8-7.5,10.2-9.7,4.4-2.3,9.4-3.4,15-3.4s10.6,1.1,15,3.4Z"/>
      <path class="cls-3" d="M1061.7,734.8h-7v17.6h-13.4v-17.6h-8v20h-14.2v-37.8h56.6v37.8h-14.2v-20Z"/>
      <path class="cls-3" d="M1023.5,766.9c3.2-4.4,7.8-6.8,14-7.2v18.9c-3.3.3-4.9,1.7-4.9,4.3s.2,1.8.7,2.4c.5.7,1.2,1,2.1,1s2.4-.7,3.2-2.2c.8-1.4,1.8-3.7,2.8-6.7,1.3-3.6,2.5-6.6,3.8-9,1.2-2.4,3-4.4,5.4-6.1,2.3-1.7,5.4-2.5,9-2.5,3.7,0,6.8.9,9.4,2.8,2.6,1.9,4.5,4.5,5.9,7.8,1.3,3.3,2,7,2,11.1,0,6.9-1.6,12.4-4.8,16.5-3.2,4.1-7.7,6.2-13.5,6.4v-19.1c1.6,0,2.7-.5,3.4-1.2.7-.7,1-1.7,1-2.7s-.3-1.4-.8-1.8c-.5-.5-1.2-.7-2.1-.7s-2.3.7-3.2,2.1c-.8,1.4-1.8,3.7-3,6.8-1.3,3.6-2.6,6.5-3.8,8.8-1.2,2.3-2.9,4.3-5.1,6-2.2,1.7-4.9,2.6-8.2,2.6s-6.6-.9-9.3-2.6c-2.7-1.7-4.9-4.2-6.4-7.4-1.5-3.3-2.3-7.1-2.3-11.6,0-6.8,1.6-12.4,4.8-16.8Z"/>
    </g>
  </g>
  <g>
    <path class="cls-2" d="M1533.9,540.2c20.1-21.9,30.1-43.4,30.1-64.4s-3.4-24.8-10.3-33.1c-6.9-8.3-18.2-12.5-33.8-12.5s-27,4.8-35.2,14.2c-8.3,9.5-13,22.2-14,38h-20.4c1.2-22.2,8-39.5,20.5-51.8,12.5-12.3,28.8-18.5,49-18.5s35.1,5.5,47.1,16.4c12,10.9,18,26.4,18,46.4s-10,47.7-30.1,70.4c-20.1,22.7-44.9,44.8-74.2,66.4h111v17.7h-143.1v-15c36.8-27.6,65.2-52.4,85.4-74.2Z"/>
    <g>
      <path class="cls-3" d="M1676.4,342.7c-2.4,4.5-5.7,7.9-10,10.3-4.3,2.4-9.1,3.6-14.6,3.6s-10.2-1.2-14.6-3.6-7.7-5.8-10.2-10.3c-2.5-4.5-3.7-9.6-3.7-15.6v-23.6h56.6v23.6c0,5.9-1.2,11.1-3.6,15.6ZM1642.4,335.1c2.2,2.3,5.3,3.5,9.4,3.5s7.2-1.2,9.4-3.5c2.2-2.3,3.3-5.5,3.3-9.5v-4.2h-25.3v4.2c0,4,1.1,7.2,3.3,9.5Z"/>
      <path class="cls-3" d="M1680,380.8h-56.6v-17.8h56.6v17.8Z"/>
      <path class="cls-3" d="M1680,445.8l-56.6-19v-23l56.6-19v18.9l-39,11.7,39,11.6v18.9Z"/>
      <path class="cls-3" d="M1680,467.6h-56.6v-17.8h56.6v17.8Z"/>
      <path class="cls-3" d="M1627.5,481c3.2-4.4,7.8-6.8,14-7.2v18.9c-3.3.3-4.9,1.7-4.9,4.3s.2,1.8.7,2.4c.5.7,1.2,1,2.1,1s2.4-.7,3.2-2.2c.8-1.4,1.8-3.7,2.8-6.7,1.3-3.6,2.5-6.6,3.8-9,1.2-2.4,3-4.4,5.4-6.1,2.3-1.7,5.4-2.5,9-2.5,3.7,0,6.8.9,9.4,2.8,2.6,1.9,4.5,4.5,5.9,7.8,1.3,3.3,2,7,2,11.1,0,6.9-1.6,12.4-4.8,16.5s-7.7,6.2-13.5,6.4v-19.1c1.6,0,2.7-.5,3.4-1.2.7-.7,1-1.7,1-2.7s-.3-1.4-.8-1.8c-.5-.5-1.2-.7-2.1-.7s-2.3.7-3.2,2.1c-.8,1.4-1.8,3.7-3,6.8-1.3,3.6-2.6,6.5-3.8,8.8-1.2,2.3-2.9,4.3-5.1,6-2.2,1.7-4.9,2.6-8.2,2.6s-6.6-.9-9.3-2.6c-2.7-1.7-4.9-4.2-6.4-7.4-1.5-3.3-2.3-7.1-2.3-11.6,0-6.8,1.6-12.4,4.8-16.8Z"/>
      <path class="cls-3" d="M1680,543.3h-56.6v-17.8h56.6v17.8Z"/>
      <path class="cls-3" d="M1626.5,564.2c2.5-4.5,6-8,10.4-10.6,4.4-2.6,9.4-3.9,15-3.9s10.5,1.3,15,3.9c4.4,2.6,7.9,6.1,10.4,10.6,2.5,4.5,3.7,9.3,3.7,14.7s-1.2,10.2-3.7,14.6c-2.5,4.4-5.9,7.9-10.4,10.5-4.4,2.6-9.4,3.9-15,3.9s-10.5-1.3-15-3.9c-4.4-2.6-7.9-6.1-10.4-10.6-2.5-4.5-3.8-9.3-3.8-14.6s1.3-10.2,3.8-14.7ZM1642.7,587.1c2.3,1.9,5.3,2.9,9.2,2.9s7-1,9.2-2.9,3.4-4.6,3.4-8.2-1.1-6.3-3.4-8.2-5.3-2.9-9.2-2.9-6.9,1-9.2,2.9c-2.3,1.9-3.4,4.7-3.4,8.2s1.1,6.2,3.4,8.2Z"/>
      <path class="cls-3" d="M1623.3,668.7v-17.8l28.5-18.8h-28.5v-17.8h56.6v17.8l-29,18.8h29v17.8h-56.6Z"/>
      <path class="cls-3" d="M1627.5,682.1c3.2-4.4,7.8-6.8,14-7.2v18.9c-3.3.3-4.9,1.7-4.9,4.3s.2,1.8.7,2.4c.5.7,1.2,1,2.1,1s2.4-.7,3.2-2.2c.8-1.4,1.8-3.7,2.8-6.7,1.3-3.6,2.5-6.6,3.8-9,1.2-2.4,3-4.4,5.4-6.1,2.3-1.7,5.4-2.5,9-2.5,3.7,0,6.8.9,9.4,2.8,2.6,1.9,4.5,4.5,5.9,7.8,1.3,3.3,2,7,2,11.1,0,6.9-1.6,12.4-4.8,16.5s-7.7,6.2-13.5,6.4v-19.1c1.6,0,2.7-.5,3.4-1.2.7-.7,1-1.7,1-2.7s-.3-1.4-.8-1.8c-.5-.5-1.2-.7-2.1-.7s-2.3.7-3.2,2.1c-.8,1.4-1.8,3.7-3,6.8-1.3,3.6-2.6,6.5-3.8,8.8-1.2,2.3-2.9,4.3-5.1,6-2.2,1.7-4.9,2.6-8.2,2.6s-6.6-.9-9.3-2.6c-2.7-1.7-4.9-4.2-6.4-7.4s-2.3-7.1-2.3-11.6c0-6.8,1.6-12.4,4.8-16.8Z"/>
    </g>
  </g>
</svg>