<?xml version="1.0" encoding="UTF-8"?>
<svg id="Layer_1" data-name="Layer 1" xmlns="http://www.w3.org/2000/svg" version="1.1" viewBox="0 0 128 72">
  <defs>
    <style>
      .cls-1 {
        fill: #af0;
        isolation: isolate;
        stroke-width: 0px;
      }
    </style>
  </defs>
  <path class="cls-1" d="M122.1,9.9c0,0,.4-.5.1-.6-.1,0-.2.4-.3.4,0,0-.2,0-.2,0,0,0,0-.2,0-.2,0,0,0-.2,0-.3,0,0-.2,0-.2-.1-.2,0,0-.4-.2-.5-.1,0-.2,0-.3-.1,0,0,0-.2-.1-.2-.1,0-.4,0-.6,0-.2,0-.3-.2-.3-.4,0,0,0-.2,0-.2,0,0,0,0-.1,0,0,0,0,0-.1,0,0-.2,0-.4,0-.5,0-.1,0-.3,0-.4-.1-.3-.2-.7-.3-1-.1-.3-.2-.6-.3-.9,0-.3-.2-.6-.4-.8-.1-.1-.3-.2-.5-.3-.1,0-.3-.3-.4-.2,0,0-.1.1-.2.2,0,0-.1.1-.2.2,0,0,0,.1-.2.2,0,0-.2,0-.3,0,0,0-.1,0-.2,0-.2,0-.3-.2-.4-.4,0-.1,0-.4-.3-.4-.2,0-.3.2-.3.4,0,.2-.2.5-.2.7,0,.3,0,.5-.1.8-.1.5-.3.9-.4,1.4,0,.1,0,.3,0,.4,0,.1,0,.2,0,.4,0,.1,0,.2.1.3,0,.1,0,.2,0,.3,0,0,.1.1.1.2,0,.1,0,.3,0,.4,0,.1,0,.2-.1.3-.1,0-.2,0-.2.2s0,.3,0,.2c0,.2.3.7,0,.8,0,0-.1,0-.1,0s0,.1,0,.2c0,.1,0,.2,0,.4,0,.1,0,.3-.2.2,0,0-.1-.2-.2-.2,0,0,0,0,0,0,0,0-.1.1-.2.1,0,0,0,0-.1,0,0,0,0,.1,0,.1-.1,0-.2,0-.2.1,0,.2,0,.3,0,.5,0,.1-.2.2-.3.3,0,0,0,0,0,0-.3.1-.6.1-.8.2-.5.1-1,.2-1.6.3-.2,0-.3,0-.5.1-.4,0-.8.2-1.2.3-.5.1-.9.2-1.4.3-.2,0-.4,0-.6.1,0,0-.1,0-.2.1,0,0-.1.2-.2.2-.2.2-.5.5-.7.7-.1.1-.2.3-.4.5-.1.1-.2.2-.3.4,0,0,0,.2,0,.2,0,.2-.1.4-.3.5-.2.1-.3.2-.4.3,0,0-.5.3-.4.4s.3,0,.4,0c.1-.1.2-.3.4-.2,0,0,0,.1,0,.2,0,.3-.3.4-.2.6,0,.3.2.5,0,.6-.2.1-.4.2-.6.5-.1.2-.2.5-.5.4-.1,0-.2,0-.4,0s-.2.1-.3.2c-.2.1-.5.2-.8.2-.3,0-.4-.2-.7,0-.1,0-.2,0-.3,0s-.2,0-.4,0c-.2,0-.5.1-.7.2-.2,0-.4.2-.6.4.1,0,.1.2.2.3,0,.1.2.1.3.2.1.2.1.5,0,.7,0,.3-.1.4-.3.6-.1.1-.2.3-.4.4-.1.1-.3.2-.4.4,0,.1,0,.3-.3.4,0,0-.1,0-.1,0,0,0-.2,0-.3.1-.1,0-.2.2-.3.3-.1.1-.2.3-.3.4-.1,0-.2,0-.4,0,0,0-.1,0-.2.1-.1.1-.2.2-.4.4-.1.1-.3.2-.4.3-.1.1-.2.3-.3.4-.2.1-.3.1-.5.3-.1.2-.1.4-.3.6-.1.1-.3.2-.5.1-.2,0-.4,0-.5,0s-.2.3-.4.4c-.1,0-.3,0-.5,0s-.3,0-.5,0c0,0-.5.1-.5,0,0-.1.3-.3.4-.3-.2,0-.6,0-.7-.1-.2,0-.3,0-.5,0-.1,0-.3,0-.4-.1,0,0,0,0,0,0,0-.3.4-.5.4-.8,0-.2,0-.3,0-.5,0-.1,0-.2.1-.3.2-.2.4-.4.6-.6.1-.2.2-.4.3-.6,0,0,0-.2,0-.3s0-.2,0-.2c0,0,.1-.1.2-.2,0-.1,0-.3,0-.5,0-.2,0-.3-.1-.5,0-.2-.2-.2-.2-.4,0-.2,0-.4,0-.5,0-.2-.2-.3-.3-.4,0-.2,0-.4-.1-.5,0-.1-.2-.2-.3-.3-.2,0-.3,0-.4.2-.1,0-.3,0-.5,0,0,.1,0,.2,0,.3,0,0,0,0-.1,0,0,0,0,0,0,.1,0,.2-.1.6-.3.7-.2.1-.4-.2-.5-.4-.2-.2,0-.4.1-.6.2-.2.2-.4.3-.6,0-.2.3-.3.3-.5.1-.3,0-.6-.1-.9,0-.2,0-.5,0-.7,0,0-.4-.5-.4-.6,0,0,.3.2.4,0,.1-.1-.4-.5-.4-.6-.2-.2-.4-.4-.7-.4-.2,0-.5,0-.7-.1-.2-.1-.4-.2-.6-.1s-.3,0-.5-.2c-.2-.2-.4-.3-.6,0-.1.1-.3.4-.2.6,0,.1.4.4.3.5,0,.1-.5.1-.6.2-.2.1-.1.4,0,.6,0,.2,0,.4,0,.6,0,.2,0,.4,0,.5,0,0,0-.2-.1-.2,0,0-.1-.2-.2-.1,0,0,0,.4-.2.5,0,0,0-.3,0-.4,0-.1.1-.2.1-.4,0-.1,0-.8-.1-.7-.1,0-.2.2-.2.3,0,.1,0,.3,0,.4,0,.1-.2.1-.3.2-.1,0-.1.2-.2.3,0,.3-.3.5-.3.8,0,.3,0,.6,0,.9,0,.2-.3.5-.3.7,0,.1.1.3.1.4,0,.1,0,.2-.1.4-.1.3,0,.5.1.7,0,.2,0,.3.2.4.2.1.2.3.3.5,0,.1,0,.3.1.4,0,.2.2.2.1.4-.1.4,0,.7-.1,1.1,0,.4-.2.7-.3,1.1,0,.3-.2.6-.3.8,0,0,0,0-.1.1,0,0-.2.1-.3.2-.4.2-1,.4-1.3,0-.1-.1-.2-.3-.3-.5,0,0,0,0,0-.1,0-.2-.2-.4-.3-.6-.1-.3-.2-.6-.2-.9s0-.4,0-.7c0-.5-.4-1-.4-1.6,0-.2.1-.5.2-.7,0-.2,0-.5.1-.7,0-.5.2-1,.3-1.5,0-.3,0-.6.1-.8,0-.2.2-.4.4-.6.2-.3.2-.5.3-.9,0,0,0-.5-.1-.4-.1,0-.3.5-.3.6-.1.2-.2.4-.4.6-.3.4-.5.8-.8,1.2,0,0,0-.2,0-.2s0-.1,0-.2c0-.3.2-.5.3-.8.2-.3.2-.6.3-1,0,0,0,0,0,0,.1-.3.3-.5.3-.8,0,0,0-.2,0-.3,0,0,.2-.1.2-.2,0-.1,0-.4.2-.4,0,.2.2.1.4.1.2,0,.2-.3.3-.5,0,0,.2-.2.2,0,0,.1,0,.2-.1.3,0,0,0,.3,0,.4,0,0,.2,0,.2-.1,0,0,.2-.2.2-.2,0-.1.1-.2.2-.3.2-.2.4-.2.6-.2.1,0,.2,0,.3-.1,0,0,.1-.1.2-.2,0,0,.1-.2.2-.2.1,0,.3,0,.4,0s.2,0,.3,0c.1,0,.2,0,.4,0,.1,0,.2,0,.3.1,0,0,.1.2.2.2.4,0,0-.5.2-.5,0,0,.2,0,.2,0,.1,0,.2,0,.3,0,.3,0,.2-.3,0-.4,0,0-.2-.1-.2-.2,0,0,0-.2,0-.3-.2-.4-.9-.2-1.2-.2h0c-.1,0-.2,0-.3-.2,0-.1,0-.2,0-.4,0-.2-.3-.2-.5-.2-.2,0-.3.2-.6.2-.2,0-.4,0-.6,0-.2,0-.3.3-.5.4,0,0-.2.1-.2.2-.1,0-.2,0-.3.2,0,0-.2.1-.3.2-.1,0-.2,0-.3.1,0,0,0,.2-.2.2-.1,0-.1-.2-.2-.3-.1-.1-.5,0-.5-.2-.1,0-.2,0-.3-.1,0,0-.2-.1-.3-.2-.1,0-.2.1-.3,0,0,0,0-.1,0-.1,0,0,0,0-.1.1,0,0-.2,0-.3,0h0c.1,0,0-.1,0-.2,0,0,0-.1-.1-.2-.1-.1-.2.2-.4.1,0-.1,0-.4-.1-.4-.1,0-.2.2-.3.2,0,0,0,.2-.1.2-.1.1-.2,0-.2,0,0-.2,0-.4.1-.5,0-.1.2-.2.4-.3.1,0,.2-.2.3-.3,0-.2.2-.3.3-.4.1-.1.3-.2.4-.3.2-.2-.5-.1-.6,0-.3.1-.5.4-.7.6-.3.3-.5.6-.8.8-.2.2-.5.4-.7.6-.2.3-.5.2-.8.3s-.5.3-.7.5c-.2.1-.4.2-.6.3h0c-.2,0-.2-.1-.4-.2-.2-.1-.2.2-.4.2,0,.1-.1.2-.3.2,0,0-.1,0-.1-.1,0-.1,0,0,.2,0,.2-.1,0-.2,0-.4s.1-.2.1-.4c-.3,0-.6,0-.9.2-.2.1-.4.3-.7.4-.2,0-.6,0-.8,0h0c-.1,0-.1-.2,0-.3.4-.4.8-.8,1.2-1.2.2-.2.4-.3.6-.5.2-.2.4-.4.6-.6.5-.5,1.1-.6,1.6-1,.2-.2,0-.3-.2-.4-.1,0-.2-.2-.4-.2-.2,0-.3,0-.4,0-.2-.1-.2,0-.5,0,0,0-.1-.1-.2-.1,0,0,0,0-.1,0-.2.1-.2,0-.3,0-.2,0-.2,0-.3.1s-.3,0-.4,0c0,0,0,.2-.2.2-.1.1-.1,0-.3,0-.1,0-.3,0-.4,0-.1,0-.2-.1-.3-.2-.2-.1-.5-.4-.7-.3-.1,0-.2.1-.3,0,0,0,0-.2-.2-.3-.1-.1-.2,0-.3-.1s-.2-.1-.3-.2c-.1,0-.3,0-.4,0-.2,0-.3-.2-.5-.2-.2,0-.4.1-.5.2,0,0-.1.2-.2.1,0-.2-.1-.2-.3-.3-.2,0-.3-.3-.5-.3-.2,0-.3.1-.4,0-.1-.1-.4,0-.5,0-.2,0-.1-.2-.2-.4-.1-.2-.3-.2-.5,0-.2,0-.2.3-.3.4-.2.1-.2-.1-.2-.2,0-.2,0-.2-.3-.2h-1.3c-.7,0-1.4,0-2.1,0-4.5,0-8.8-.2-12.9-.5-8.7-.6-16.2-1.7-22.1-2.8-.8-.1-1.5-.3-2.2-.4C19,1.2,15.1,0,15.1,0c0,0,0,.1,0,.2,0,0,0,0,0,.2,0,0,0,.1,0,.2.1.1.3.2.5.2,0,0,0,0,0,.1s0,.1,0,.2c0,0,0,0,0,.1,0,0,0,.1,0,.2-.2,0-.3-.1-.5,0-.1,0-.3.1-.4.3,0,.1,0,.3,0,.4.1.1.2,0,.2-.2,0,0,0-.2.1-.2,0,0,0,0,0,0,0,0,0,.1,0,.2,0,0-.1.1-.1.2,0,.1.2.1.3.2,0,0,.1.3,0,.3-.1,0-.2-.2-.2-.2,0,0-.2-.2-.3-.2,0,0,.1.1.1.2,0,0,.1.1.2.2.1.1.2.3.1.5,0,0-.2-.1-.2-.2,0,0,0-.2-.1-.3,0,0,0,.1-.1,0,0,0,0-.1-.2-.1-.2,0,0,.4-.2.4,0,0,0-.1,0-.2,0,0,0-.1,0-.2-.1-.1-.3-.1-.5-.1-.1,0-.3,0-.4-.2-.2,0-.3-.1-.5-.2-.2,0-.3-.2-.4-.3-.1-.1-.3-.2-.4-.4-.2-.2-.3-.4-.5-.5-.1,0-.4-.2-.4,0,0,.1,0,.3,0,.4,0,.1,0,.2-.1.4,0,.2,0,.4,0,.6,0,.2,0,.3.1.5,0,.3,0,.7,0,1,0,.3,0,.6,0,.9,0,.2,0,.4,0,.6,0,.1,0,.3,0,.4,0,.1-.1.2-.2.3,0,0,0,.2-.1.3,0,.2,0,.3.2.4.1.1.2.1.4.1.2,0,.2.1.3.2,0,0,.1,0,.2.1t0,0c0,0,.1,0,.1.1-.2,0-.3,0-.5,0s-.2,0-.4-.1c-.2,0-.2.2-.2.3,0,.1-.2.2-.2.3-.1.3-.1.7-.2,1,0,.3-.2.5-.3.8-.1.3-.2.6-.3.9-.1.2-.3.5-.3.8,0,.3,0,.6-.2.8-.2.3-.3.5-.3.8,0,.3-.2.5-.4.8-.1.2-.3.4-.4.6,0,.2-.2.4-.3.6-.1.2-.2.4-.4.6-.1.2-.3.4-.4.6,0,.2,0,.5,0,.8,0,.3-.1.6,0,.9,0,.2.1.4.1.7,0,0,0,0,0,0,0,.2,0,.5,0,.7,0,.1,0,.3,0,.4,0,.1,0,.2-.1.3,0,.2,0,.5-.2.7,0,.1-.1.2-.2.4,0,.1,0,.2,0,.3,0,0-.2,0-.2.2s.2.1.1.3c0,.2-.4,0-.6.3-.1.1-.2.5-.3.6,0,.2.2.4.2.6.1.3.1.5.2.8.1.3.2.4.2.7,0,.3,0,.5,0,.8,0,.2-.2.4-.2.7,0,.2.2.5.2.7,0,.2-.1.2-.2.4,0,.1,0,.2,0,.3.1.3.3.6.4.9,0,.1.2.3.2.4.1.2.1.3.1.5s0,.3-.1.4c0,.1-.3.2,0,.3.1,0,.2,0,.4.2,0,0,0,.2.1.2,0,0,.1,0,.2,0,0,0,0,.2,0,.2,0,0,.1,0,.2,0,0,.1,0,.3-.1.4,0,0,0,.2,0,.2,0,0-.1,0-.2.1,0,.1.1.2.2.4,0,.4-.2.6,0,1,0,.1.1.3.3.4.1.1.3.2.4.3.1.1.2.2.1.4,0,.1,0,.4-.2.3,0,0,0-.2-.2-.2,0,.2,0,.4,0,.6,0,.2-.1.3-.1.5,0,.4.4.6.5,1,0,.1.2.3.2.4,0,.2-.1.3,0,.4.2.1.2.1.2.4,0,.2.2.2.2.3,0,0,0,.2,0,.2,0,0,.1,0,.2,0,.1.1.3.6.2.8,0,0,0,0,0,0,0,0,0,0,0,.1,0,0,0,.1,0,.2,0,0,.1-.2.2-.2,0,0,0,0,0,0,0,0,.2,0,.2.1.1.2,0,.4,0,.6,0,.1,0,.2,0,.3,0,0,0,.2,0,.3,0,0,0,.2,0,.3,0,0-.2.1-.2.2,0,.2.2.3.3.4.2.1.3.2.5.3.2,0,.4,0,.6.1.2.1.2.3.5.3.2,0,.4,0,.6.1.3,0,.3.2.4.4,0,0,.1.1.2.2,0,.1.1.2.2.3,0,.2.3.2.5.3.2.1.4,0,.6.1.2.1.3.3.3.5,0,.2,0,.5.2.5.2,0,.3-.2.5,0,.1.2.1.4.3.5.2.1.4.2.5.4.1.2.3.5.4.8.2.5.1,1,0,1.6.1,0,.1-.2.3-.2.1,0,.3,0,.1.2,0,.1-.2,0-.3.2,0,0,0,.2,0,.3,0,.1,0,0,.1,0,0,0,.1,0,.2,0,.2,0,.4,0,.5,0,.5,0,1,0,1.5.1.6,0,1.1.1,1.7.2.5,0,.9,0,1.3.1.2,0,.3,0,.5,0h0l-.4.7h0s8.3,4.7,8.3,4.7h0s4.5.6,4.5.6l1.9.2h0s0-1.4,0-1.4h0s4.1.4,4.1.4h.1c0,0,0,.1,0,.2,0,.1.1.2.2.2.1,0,0,.2.1.3,0,.2.4.3.4.5,0,.1,0,.2.2.2.1,0,.2.2.3.3.1.1.2.3.4.5,0,0,.1.1.2.2.1,0,.2.1.2.3,0,.1,0,.2.1.3,0,0,.2.1.3.2,0,0,0,.2.2.3,0,.1.2,0,.3,0,.2,0,.2.1.3.2s.2,0,.2.2c0,.1,0,.3,0,.4s0,.3,0,.4c0,.2.3.5.4.7,0,.3.1.6.3.9.1.2.3.4.4.7.2.2.4.4.6.6.1.1.2.2.4.3.1,0,.3.1.4.2.1,0,.3.1.4.2.1,0,.2.2.3.3.2.2.6.3.9.2.3,0,.3-.5.5-.7,0-.1.2-.2.3-.3,0-.1.2-.2.2-.4.1-.3.2-.5.5-.7.2-.2.5-.2.7-.3,0,0,0,0,0,0,0,0,0,.1.2.1,0,0,.2,0,.2,0,0,0,.1,0,.2,0,0,0,.1,0,.2,0,0,0,0,.1.2.1,0,0,.1,0,.2,0,0,0,.2,0,.3,0,0,0,.1,0,.2.1s.1,0,.2,0c0,0,.1,0,.1.1,0,.1,0,.3.3.4.2,0,.3,0,.4.2,0,.1.2.2.3.3,0,0,.1,0,.2.1,0,0,0,.1,0,.2,0,0,.1.2.2.2,0,0,.2,0,.2.1,0,0,0,.2,0,.3,0,.1.2,0,.2.2s0,0,0,.1c0,0,0,0,0,.1,0,.1,0,.2,0,.3,0,.2.2.3.3.4,0,.1,0,.2.1.3,0,.1,0,.2.1.4,0,.1.1.2.2.3,0,0,0,.1,0,.2,0,0,0,.1.1.2,0,.1.2.1.3.3,0,.1,0,.2.1.3,0,0,0,0,.1,0,0,0,0,.1,0,.1,0,.1.1.2.2.3,0,0,0,.2.1.3,0,.1,0,.2.2.2.1,0,.2.1.3.2,0,0,.1.2.2.3,0,0,.1.2.2.3,0,.1,0,.2,0,.3,0,0,0,.2,0,.2,0,0,0,.1,0,.1,0,.1-.1.2,0,.3,0,0,0,.1,0,.2,0,0,.1.1.2.2,0,0,0,.2,0,.2,0,0,0,.1.2.2.2.1.2.3.2.5,0,0,0,.1,0,.2,0,0,0,.2,0,.2,0,0,0,0,0,0,0,0,.1,0,.2,0,0,0,.1,0,.2.1s.1,0,.2.1c0,0,0,0,.1.1.1,0,.3.1.4.3,0,0,0,0,.2,0,0,0,.1,0,.2,0,0,0,.1,0,.2,0,0,0,.2,0,.2,0,0,0,.1,0,.2,0,0,0,0,0,.1.1,0,0,0,0,.1,0,0,0,0,.1,0,.1,0,0,.2,0,.3,0,0,0,.1,0,.2,0s0,0,.1,0c.2,0,.4,0,.6,0,.1.1.2.1.4.2,0,0,.1,0,.1,0,0,0,0,.1.1.1,0,0,0,0,.1,0,0,0,.1,0,.1,0,0,0,.1-.2.1-.2,0,0,0-.2,0-.2,0-.1-.1-.3-.2-.4,0-.1-.2-.2-.3-.3-.1-.2,0-.2,0-.4,0-.3,0-.6,0-1,0-.1-.4-.8,0-.7.1.5,0,1.1.2,1.6,0,.1.4,1.1.6,1,.2-.2-.3-1.2-.3-1.4-.2-1.1.2-2,.5-3-.4,0-.4.2-.5.5,0,.2-.1.4-.2.6,0,0-.2.4-.3.2,0,0,0-.1,0-.2,0-.1,0-.2,0-.3,0-.3.3-.5.2-.8,0-.1,0-.2-.2-.3,0,0-.2,0-.1-.2,0-.2.2-.4.4-.6,0-.1.1-.2.2-.3.1,0,.2,0,.2.1.1,0,.2,0,.2,0,0,0,0,0,.1-.1,0,0,.1,0,.1-.1-.1.1,0,.2,0,.3,0,.1-.2.2-.3.3,0,0-.1,0-.2,0,0,0-.1,0-.2,0,0,0,0,.2,0,.3s0,.2.1,0c0,0,0-.1.1-.2.2,0,0,.4,0,.4.4,0,.6-.4.9-.6.2-.1.9-.5.8-.7-.1,0-.2,0-.2.1,0,0-.3-.1-.3-.3s.3-.3.4-.4c.2-.2,0-.1,0-.4,0-.2.2-.3.3-.1.2,0,.2-.3.4-.3,0,.2,0,.4.2.3.2,0,.4-.4.6-.2,0,.1-.2.2-.3.3-.1,0-.4.1-.5.2-.2.3.5,0,.5,0,.1,0,.3,0,.5,0,.1,0,.2-.2.2-.3.2-.2.4-.3.6-.4.2-.1.6-.2.6-.5,0,0-.1,0-.2,0,0-.2.3-.6.6-.6,0,.1-.2.4,0,.3,0,0,.2-.2.3-.3.2-.2.3-.3,0-.6s-.2-.1-.2-.3c0-.2,0-.2,0-.4-.1-.1-.2,0-.2-.3,0-.1,0-.2.2-.2.2,0,.2.7.4.2.3,0,.4,0,.3.3-.1.3,0,.3.3.3,0,.1,0,.2,0,.3.3,0,.4-.3.7-.3.3-.1.6-.2.9-.3.2,0,.3-.1.5-.1.3,0,.6,0,1-.1.2,0,.6-.2.8-.1.1,0,.2.2.3.2.1,0,.3,0,.4,0,.2,0,.5,0,.8,0,.2,0,.3,0,.4,0s.2.1.4,0,.2-.1.3-.1c.2,0,.2,0,.3.1.2,0,.5-.1.7,0,0,0,0,.1,0,.2.3,0,.7,0,.9.3-.2.2-.5.3-.2.5.2.1.4.1.6.1.2,0,.3,0,.5.2.4.2.2,0,.4-.2.1,0,.4,0,.5,0,0,0,.3-.1.4,0,0,0,0,.1,0,.2.1.2.3-.1.4-.2.1,0,.2,0,.3-.1,0,0,0-.2,0-.3,0-.1,0-.5.2-.6.3,0,.1.3.1.5.2,0,.4-.2.6,0,.2,0,.2.4.4.4.3,0,0-.2,0-.3-.2-.1-.3-.3-.5-.4,0-.2,0-.2.2-.4.1-.2.1-.3.3-.4.1,0,.4-.2.3-.4,0-.1-.4,0-.5-.2,0,0,.1-.2.2-.3,0,0-.2-.2-.3-.2,0,0-.2,0-.2,0,0,0,0-.2,0-.2,0-.1,0-.3-.2-.4,0,0-.2-.1-.3-.2-.1,0,0-.1-.1-.2,0,.1,0,.2.1.2,0,0,.2.1.3.2.1.1.2.2.2.4,0,0,0,.2,0,.2,0,0,.1,0,.2,0,0,0,.3.1.3.2,0,0,0,0,0,0,0-.1-.2-.2-.1-.3,0-.2.4-.3.6-.4.2,0,.4,0,.7-.2,0,0,0,0,.1,0h0s0,0,0,0h0c0,0,.1.2.2.2.2,0,.2-.1.2-.3s0,0,0-.1h0c.3,0,.2.4.6.3,0,0,0-.3.2-.3.1,0,.2.1.3.1,0-.2.2-.4.3-.6,0-.1,0-.6.3-.5-.1.3,0,.3.2.5.1.2,0,.4,0,.6.1,0,.4,0,.5-.1s.1,0,.2,0,0,.1.1.2c0,0,0,0,0,0,.1,0,.3-.1.4-.2.2-.1.3-.2.6-.1-.2.4.6.1.7,0,0,0-.2,0-.3,0,0-.2.4-.5.6-.6.3,0,.6,0,.9.1,0,0-.2,0-.2.1,0,.1.2,0,.2,0,.2,0,.4,0,.6,0,.2,0,.3,0,.5.2.1,0,.4.4.5.4,0-.2-.1-.4,0-.6.1.2.5.4.5.7,0,0,0,0-.1,0,0,0,.3.3.4.3.1,0,.4,0,.4.2,0,.1,0,.4,0,.5,0,0,.2,0,.2-.2.2.1.4-.4.7-.2.2.1,0,.3.2.3.2,0,.2-.2.2-.3.3.1.3,0,.4-.2,0-.3.2-.2.5-.3,0-.1-.1,0-.1-.2,0,0,.1-.1.1-.2.1-.1.3-.1.4-.2.5.2.9.5,1.3.7.2.1.4.2.6.4.1.1.1.3.3.4,0,0,.2,0,.2.1,0,0,0,.2.1.3.2.2.4,0,.6.1.3.1.5.6.7.8.2.3.2.6.2.9,0,.4-.4.7-.2,1.1,0,.2.1.2,0,.4,0,.2,0,.3,0,.5,0,0,.2.3.3.3.2,0,.1-.2.2-.3.2,0,.2-.3.4-.2,0,.3,0,.6-.1.9-.1.3-.2.4.1.6.2.2.2.3.4.6.2.3.4,1.2,1,1-.1-.3,0-.7.1-.3,0,.2,0,.8.3.8,0,0,0-.3.2-.3.1,0,0,.3,0,.4,0,0,0,.1,0,.2,0,0,0,0,.1.1,0,.1,0,.2,0,.4.1.4.5.6.7,1,.3.3.5.3,1,.3.4,0,.5,0,.8.4.3.4.3.5.7.3.6-.2.4.3,0,.4-.2,0-.9,0-.9.3,0,.4.7.2.9.1.3-.1.7-.2,1-.3.7-.2.4-1.7.6-2.3.1.1.2.6.2.2,0-.2,0-.6,0-.8,0-.2,0-.5,0-.7,0-.2,0-.5-.1-.7-.1-.5-.3-.9-.4-1.3-.1-.4-.3-.9-.5-1.3-.1-.2-.3-.4-.5-.5-.2-.1-.4-.2-.4-.5.2.2.5.6.7.7.3.1,0-.2,0-.4,0-.2,0-.4-.2-.5-.3-.3-.4-.7-.6-1.1-.1-.3-.4-.6-.7-.9-.2-.2-.3-.2-.5-.4-.1-.2-.3-.3-.4-.5.2,0,.6.2.6-.1,0-.2-.4-.3-.5-.4-.3-.2-.7-.5-.9-.8,0-.2-.1-.4-.2-.6,0-.2-.1-.4-.2-.6-.1-.4-.2-.9-.4-1.2,0-.2-.2-.3-.3-.4,0,0,0,0,0-.1,0-.2,0-.4,0-.7,0,0-.2,0-.3,0-.1-.1,0,0,0-.2.1-.1.3-.2.3-.4,0-.2-.2-.2-.2-.4,0-.1.2-.3.3-.3,0,0,0-.2,0-.3.2,0,.3-.4.2-.5,0-.1-.2,0,0-.2,0-.2.2,0,.3,0,.2,0,.2,0,.3-.1,0,0,0-.1,0-.1,0,0,.1,0,.1,0,0,0,0,0,0,0,0,0,.1-.2.2-.3s0-.3.1-.3c0-.2-.3-.4-.1-.6,0,.1.3.4.4.2.1-.2-.2-.2-.1-.4,0-.2.3,0,.4-.2.1,0,.1-.3.2-.4,0,0,0,.1,0,.2.3,0,.6-.2.6-.4s-.1-.2,0-.3c.1,0,.2,0,.3.2.3-.1.3-.4.4-.6,0-.4.3-.3.6-.3,0-.2-.3-.7,0-.8,0,0,0,.2.1.2.3-.1.4-.6.5-.9.1-.2.2-.5.3-.8.1-.3.3-.4.5-.6h0c.2-.2.3-.3.6-.4.1,0,.2-.1.3-.3,0-.1,0-.3.2-.3,0,.2,0,.4,0,.6.1-.2.3-.4.4-.6.2-.4.3-.9.6-1.2.1-.1.3-.2.5-.4.1,0,.3-.1.4-.2h0c.2,0,.5,0,.7,0,.3,0,.5,0,.7-.4.2-.2.4-.6.4-.9,0-.3-.2-.4-.5-.4-.2,0-.5.2-.7.1-.2-.1,0-.3.1-.4,0-.1-.1-.3-.2-.4.1,0,0-.3.2-.3s.1.3.3.3c0,0,0-.2,0-.3.1,0,.1.2.1.2.4,0,.4-.6.7-.8.2-.2.2-.2.2-.5s0-.4,0-.5c-.2-.3-.7-.2-1,0-.2,0-.4.1-.6.1-.2,0-.4,0-.6,0-.1,0-.4.4-.5.1,0-.1.1-.4,0-.5,0,0,0,0,0,0,0,0,0-.2,0-.2.2,0,.1.2.2.3,0,.1.3,0,.4,0,.6,0-.1-.3,0-.6.1,0,.2,0,.4.2.1,0,.2.2.3.1,0-.1,0-.5.2-.5,0,0,.2.3.3.2,0-.2.4,0,.6,0,0-.1-.1-.2-.2-.3,0-.1,0-.4-.2-.4,0,.1,0,.2,0,.3-.2,0-.2-.3-.2-.5,0,0,0,0,0,0h0c0,0-.2,0-.3,0,0,0,0,0,0,0,0,0,0,0,0,0,0,0,0,0,0,0s0,0,0,0h0c0-.2,0-.3,0-.5,0,0-.2,0-.2-.1,0,0,0-.2,0-.3,0-.2-.2-.4-.4-.4s-.1,0-.2,0c-.1,0-.2-.1-.3-.1,0-.2-.2-.5-.4-.6-.1-.1-.5-.3-.3-.5.2-.2.4.4.5,0,0-.4-.3-.2-.5-.3-.2,0-.3-.6,0-.5,0-.3.4-.4,0-.7-.2-.1-.5-.2-.7-.3-.3-.1-.5,0-.8,0-.2,0-.5-.2-.6-.4h0c0,0,0-.1,0-.2.2.1.4,0,.6,0,.1,0,0,0,.2,0,.1,0,.2-.2.3-.1.2,0,.1.5.5.4.3,0,.2-.2.1-.4-.2-.4-.4-.8-.6-1.1-.1-.2,0-.6.3-.5.2,0,.3.4.3.5,0,.1,0,.2,0,.3,0,0,.2,0,.2.1,0,0,0,.2.1.3,0,.1,0,.2.2.3.4.2,0-.5.5-.3.1,0,.1,0,.1.2,0,0,0,.2,0,.3,0,0-.1,0-.1.2,0,0,0,0,.1,0,0,0,0,.2,0,.3,0,0,.2,0,.2.1,0,0,0,0,0,.1,0,0,0,0,0,.1h0c0,0,.1,0,.2,0,0,0,0,0,0,.1,0,0,.2,0,.3,0s-.1.1-.2.2c0,0,0,0,0,0,0,0,0,0-.1,0,0,0,0,0,0,.1,0,0,0,0,0,0-.1,0,0,0,0,.1s-.1,0-.1.1c0,0,0,.1,0,.2,0,.1,0,0,0,.1,0,0,0,0,0,.2,0,0,0,.2,0,.1,0,.1.2.3.2.4,0,.1-.1.4,0,.4.2,0,.2-.2.3-.3,0,0,0-.2,0-.2,0,0,0-.2,0-.2,0-.2,0-.3.2-.2,0-.2-.4-.3,0-.4.1,0,.3-.2.3-.3,0-.2,0-.3,0-.5.1-.1.3-.2.3-.4,0,0,0-.2-.2,0,0,0,0,.2,0,.3,0,0-.1-.1-.2-.2,0,0-.1,0-.1-.2,0,0,0-.2.2-.2,0,0,0,.1,0,.2,0,0,0,0,.1,0,0,0,0,0,.1-.1,0,0,0,0,0-.1,0,0,0-.1,0-.1,0,0,0,0,0,0,.1,0,.1,0,.1-.1,0-.1,0-.1,0-.2.2-.3-.2-.8-.3-1.1h0c0-.2-.2-.3-.3-.4-.2-.1-.4-.3-.5-.5-.1-.2,0-.5-.2-.6,0,0-.4-.3-.3-.5,0,0,.1,0,.2,0,0,0,.2.2.2.2.2.1.3,0,.5.2,0,0,0,.1.2.1s.2-.1.2-.2c.4-.3.1.7.3.8.1.2.2-.2.3-.3,0-.2.1-.3.2-.5.1-.2.2-.3.2-.5,0-.2,0-.5.1-.7.1-.2.2-.3.2-.5s0-.4,0-.6c0-.2,0-.4,0-.6.1-.3,0-.4-.2-.5-.2-.1-.3-.2-.2-.4,0-.2.2-.2.3-.2,0,0,0,0,0,0,0-.1,0-.4.2-.4,0,0,0,.3.1.2,0,0,0-.2,0-.3,0,0,.1,0,.2,0,0,0,.2,0,.2-.1s.2,0,.2,0c.1,0,.2-.2.4-.2s.2-.1.3-.2c.2-.2.5,0,.7-.2.1,0,.2-.1.3-.2.1,0,.3,0,.4-.2.1-.1.2-.3.3-.4.1-.1.3-.2.4-.4-.2,0-.3,0-.4.2-.1.1-.2.2-.4.3-.2,0-.2.1-.3.3,0,.1-.2.2-.4.2,0-.2.2-.3.3-.4.1-.1.4-.3.3-.5-.1,0-.2.1-.3.2,0,.1-.2.2-.3.2,0,0-.2.1-.3.2,0,0-.2,0-.3,0-.1,0-.2,0-.3.1,0,0-.2.1-.2.2-.2.2-.4,0-.6.1-.2.1-.2.4-.5.3,0-.1.1-.2.1-.4,0,0,0,0,0-.1,0,0,0,0,.2,0,0,0,.2,0,.3-.1,0,0,0-.2.1-.3,0,0,.2,0,.3-.1,0,0,.1-.2.2-.2.2,0,.4-.2.6-.3.2,0,.4-.1.6-.1,0,0,.1,0,.2,0,0,0,0-.1.1-.1,0,0,0,0,.1,0,0,0,0,0,.1,0,.1-.1.4-.2.6,0,0,0,0,0,.1.1,0,0,.1,0,.1,0,0,0,0,0-.1-.1,0,0,0-.1,0-.1,0,0,.1,0,.2-.1,0,0,0,0,.2-.1,0,0,.2,0,.2,0,.2,0,0-.3,0-.4s.2-.4.4-.2c0,0,0,.3.3.3.1,0,.1-.1.2-.2,0,0,0-.2,0-.2,0-.2.2-.3.3-.4.1-.2.2-.1.3,0,0,.2.2.4.4.3.1,0,.3-.2.3-.4,0-.2-.1-.2-.3-.3-.2,0-.2-.2-.3-.4-.1-.1-.3-.1-.4-.3,0-.1-.1-.4-.2-.5-.1-.1-.4,0-.5-.2-.1-.1,0-.4,0-.5,0-.2.2-.2.3-.4.2-.1,0-.2-.1-.2-.2,0-.2-.2-.2-.4,0-.1,0-.2,0-.3h0c0,0,0-.1,0-.2,0-.1,0-.3,0-.5h0c0-.1,0-.2,0-.4,0-.2.1-.2.2-.4,0-.1.1-.3.2-.4,0-.2.2-.3.3-.4.2-.2,0-.4.1-.6,0,0,.2.2.3.1,0,0,0-.2,0-.2,0,0-.1-.1,0-.2,0,0,.1,0,.2,0,0,0,0,.2,0,.3.1,0,.1-.1.1-.2s0-.2,0-.3c0,0,0-.3.1-.2.1,0,0,.2,0,.3,0,0,0,.3,0,.3s.1-.2.1-.3c0-.1,0-.3.1-.4.1,0,.1.1.2.2.1.7.6-.4.2-.5,0,0-.2,0-.2,0,0-.1,0-.1.1-.2.1,0,0-.4,0-.5,0,0,0-.2,0-.2.1,0,0,.2.1.2.1,0,.1,0,.1-.2,0,0-.1-.2,0-.3.1-.2.3,0,.4.1,0,.1,0,.1,0,.2s.1,0,.2,0c.2,0,.5.3.4,0,0-.1-.1-.4.1-.5.2,0,.2.2.2.4,0,.2.3,0,.3-.1,0,0-.1-.1-.1-.2,0,0,0-.1.1,0s0,.2.2.2c.1,0,.1,0,.1-.2,0,0,0-.5.1-.3.1.1,0,.4.2.4,0-.2,0-.4,0-.5,0-.1.1-.2.2,0,0,0,0,.2.1.2,0,0,.2,0,.2-.1.1-.1,0-.3.2-.5,0-.1.1-.2.2,0,0,.1,0,.2.2.2,0-.1,0-.2,0-.4,0-.1.1-.2.2-.3h0Z"/>
</svg>