<?xml version="1.0" encoding="UTF-8"?>
<svg id="Layer_1" data-name="Layer 1" xmlns="http://www.w3.org/2000/svg" version="1.1" viewBox="0 0 1920 1024">
  <defs>
    <style>
      .cls-1 {
        fill-rule: evenodd;
      }

      .cls-1, .cls-2, .cls-3, .cls-4, .cls-5, .cls-6, .cls-7, .cls-8, .cls-9, .cls-10 {
        stroke-width: 0px;
      }

      .cls-1, .cls-10 {
        fill: #fff;
      }

      .cls-2 {
        fill: #e0e0e0;
      }

      .cls-3 {
        fill: #b7b7b7;
      }

      .cls-4 {
        fill: #747474;
      }

      .cls-5, .cls-11 {
        fill: none;
      }

      .cls-6 {
        fill: #212121;
      }

      .cls-11 {
        stroke: #af0;
        stroke-miterlimit: 10;
      }

      .cls-7 {
        fill: #2e2e2e;
      }

      .cls-8 {
        fill: #c7c7c7;
      }

      .cls-9 {
        fill: #a9a9a9;
      }
    </style>
  </defs>
  <g id="Layer_2" data-name="Layer 2">
    <path class="cls-1" d="M522.7,403.5c-32-62.4-100.9-84.3-164.4-97.4-21.9-4.9-64.4-7-64.4-7-4.4,0-8.7.1-13,.2h0c-4.4,0-8.6,0-13-.1,0,0-42.3,2.1-64.4,7-63.5,13.1-132.4,35-164.4,97.4-20.4,52.7-20.4,121.4-12.3,175l.7,4.5c6.5,54.3,55.1,98.6,109,117.1,43.6,18.8,94.5,26,144.9,25.2h0c50.1.7,100.6-6.7,143.8-25.3,53.9-18.5,102.5-62.7,109.1-117.1l.7-4.5c8.2-53.6,8.2-122.2-12.2-175h0ZM411.4,572.9c-1.3,23.8-3.5,48.5-16.1,68.2-27.7,36.7-70.9,52.3-114.3,52.7h0c-43.4-.3-86.6-15.9-114.3-52.6-12.7-19.6-14.8-44.4-16.1-68.2-2.9-54.7,2.3-149.5,5-159.4,13.7-49.6,61.6-75.5,111.3-80.1,0,0,8-.7,14.7-.8h0c6.4.2,13.6.8,13.6.8,49.6,4.6,97.5,30.4,111.3,80.1,2.8,9.8,8,104.7,5,159.3h-.1Z"/>
    <g>
      <path class="cls-10" d="M1891.4,401.6c-7.7-18.4-20.8-31.9-30.6-40.1-14.4-12.6-35.9-17.8-47.1-20-.3-.6-.4-1-.7-1.6-1.3-2.5-3-5.2-4.6-7.7-3.3-4.9-7-9.2-11-12.9-17.8-16.6-41.9-28.2-71.4-34.1-7.4-1.5-15.3-2.7-23.5-3.7-6.7-.7-14.7-1.6-22.7-2.1-5.5-.3-11.1-.6-16.8-.6-59.2-.6-117.6,14.1-189.4,47.7-21.1,9.9-42.2,20.2-64,28.5-4.3,1.6-8.6,3.3-13.1,4.8l-14.8,67.3,30.9,3.1c5.8,1.2,8.5,3.1,9.2,4h0c.7,1.2.4,4,0,6.5l-.4,2.2-2.5,11.9-7.3,34.3-3.4,16.3-2.4,11.1-26,122.3h157.5c-.7,14,.9,27,4.8,38.9.7,2.5,1.6,4.9,2.7,7.4,11,25.8,33.8,45.1,62.8,53.3,16.9,4.8,34.7,7.3,50.3,7.3,44.2,0,75.7-11.4,98.9-35.8,17.8-18.3,30-43.5,37.3-76.8l34.9-161.1c4.2-1.6,7.7-3.3,10.7-4.9,3.1-1.6,7.4-4.3,11.3-7.3,0,0,0,0,0,.1.7.6,1.5,1,2.1,1.6,4,3.3,6.8,7.7,8.9,11.7,4.5,7.4,9.1,18.6,11.7,34,0,0,20.9-31.6,24.1-63.1h0c0-1,0-2.1,0-3,.9-14-1.3-27.3-6.5-39.6"/>
      <g>
        <path class="cls-6" d="M1659.6,290c-63.7,0-121.7,19-180.9,46.7-24.1,11.3-44.9,20.8-66.4,29.1h142.8l-9.6,45.4c1.8-.1,3.7-.4,5.6-.5,14-1,28-1,39.2,1.1,10.6,1.9,18.6,6.1,24.3,11.3,9.6,10.6,9,44.4-29.7,29.3-4.8-1.8-9.5-3.4-14.3-5-10.8-3.3-21.5-5.9-31.2-7.8l-5,23.5h180.3c7.7-5.1,14.1-9.7,19-13.8,11,5.6,17.7,8.1,26.7,11.2,3,1.1,6.1,1.9,9,2.6,5,1.2,10,2,15.1,2.7,14.1,2.5,26.7.6,37.1-2.9,17-5.6,27.6-15.6,28.3-17.1,4.2,2.4,7.7,4.8,10.6,7.1,11.8,9.9,16,26.5,16,26.5,13.2-27.7,13.8-52.4,5-73.5-7.2-17.3-20-29.6-27.6-36-15.4-13.7-42.9-17.7-47.6-18.6-.5-.6-1.3-2.7-1.8-3.9-.4-1-.7-1.8-1-2.3-1.2-2.3-2.6-4.5-4-6.8-2.7-4.2-5.9-7.8-9.3-11-16.4-15.1-38.6-25.7-66-31.2-7.1-1.4-14.7-2.6-22.4-3.4-6.5-.7-14.3-1.5-22.2-2-6.8-.5-13.4-.7-20-.6h0ZM1405.9,378.2l-3.3,14.7-4.5,19.8-.7,3.1,17.5,1.8c5.9,1.1,13.8,3.7,17.7,9.5.5.7,1.3,1.9,1.9,4,.6,1.9,1,4.6.5,8.2,0,1.2-.4,2.4-.6,3.8l-2.1,9.9-7.8,37.2-3.7,17.5-2.4,11.2-22.9,107.5h156.1l-.6,5.1c0,.8-.2,1.7-.2,2.6-1.4,14.6-.2,28,3.8,40,.7,2.3,1.4,4.3,2.3,6.3,9.4,22.2,29.3,39,54.6,46.1,15.8,4.4,32.5,6.9,46.9,6.9,40.6,0,69.1-10.1,89.8-31.8,16-16.9,27.1-40,33.8-71l33.5-154.4v-.6c0,0-39.9,0-39.9,0h-91.6l-1.3,5.6-3.1,13.7-4.2,18.5,11.9,1c3.7.4,16.4,1.9,22.3,9,1.2,1.4,4.9,5.9,2.9,16.3l-16.3,76c-4,17.6-7.7,24.2-12.5,29.2-4.3,4.5-10.7,6.9-18.2,6.9-21.3,0-24.3-12-24.8-21-.2-4.2.2-9.6,1.4-15.7l24.9-115,2.9-13.2,2.5-11.3h-134.8l-8.4,37.8,12,1c1,0,2.4.2,4.2.5,5.3.8,13.5,3.1,18.1,8.4.4.4.6.8.8,1.2,2.5,3.7,3.2,8.3,2.3,14.4l-1.7,8.3h-61l4.3-20.3,2.4-11,5.9-27.8,5.2-24.6,5.6-26.4,5.2-24.6,7.2-34.2h-133.8ZM1674.4,525.9l-19.8,91.9c-1.3,6.5-1.3,10.5-1.2,12.4.2,5.3.5,9.1,12.4,9.1s7.2-1.1,9-3.1c2.6-2.7,5.7-7,9.4-23.4l16.2-75.8c.2-1.2.7-4.6-.2-5.8-1.7-2-7.7-4-13.8-4.5l-11.9-.8h0ZM1535.1,526.3c-4.8.2-9.6.4-14.4.4l-1.7,7.7h35.2c0-1.3,0-2.6-.6-3.2-1.8-2.1-7.6-4-13.7-4.5l-4.9-.4h0ZM1611,616.3c0,1.4-.2,3-.4,4.6,0-1.7.2-3.2.4-4.6Z"/>
        <path class="cls-8" d="M1719.3,313c25.9,10.8,33.3,23,32.2,34.2,2.4,1.1,5,2.1,7.8,3.1,1.4.4,2.7.5,3.9.5,7.5.2,8.9-5,9.1-7.2,1.5-12.6-19.4-20.5-20.2-20.8-2-.7-4.2-1.5-6.5-2.4-9.6-3.3-18.5-5.7-26.4-7.4h0ZM1654.5,331.1c-14.1.4-24.9,4.6-24.9,4.6,20.5-4,37.1-.8,47.9,5.9,9.3,5.8,14.1,14.1,13.4,22.6-1.7,17.8-27.9,19.8-28.4,19.8,6.9,1,12.9,1,18.2.4,16.2-1.9,24-10.5,23.8-20.4,0-.7,0-1.3,0-2s0-.6,0-.8,0-.4,0-.6c-.8-3.8-2.7-7.7-5.8-11.5-2.1-2.6-4.9-5.2-8.1-7.6-11.8-8.4-24.7-10.6-35.6-10.3h-.2ZM1662.3,384.1h0ZM1793.7,365.5c-3.8,0-7.6.1-11.9.4-1.1,0-2,.1-3.1.1,5.2-.1,57.8.2,73.5,38.7,8.9,21.7-14.5,10.3-47.5,6.2.7.1,1.4.2,2,.4h.2c.2,0,.6.1.8.1,8.2,1.4,14.1,3.2,19,5.1,8,2.6,14.6,5.6,20.2,8.7,4.2,2.3,7.7,4.5,10.8,6.8,10.2,7.4,14.1,13.4,14.1,13.4,0,0,.5-14.5-4.3-29.6-.8-3.6-2.5-7.6-5.1-12-.8-1.4-1.5-2.7-2.5-4h0c-.7-1.1-1.4-2.1-2.1-3.2-16.7-23.4-35.3-26-44.8-28.5-7.2-1.9-13.2-2.5-19.5-2.5h.2ZM1566.6,410.1c-5.1,0-10.3.2-15.7.7.2,0,45.3-.5,40.9,23.5-1.8,9.5-10.1,13.7-21.3,13.1,4.8,1.5,9.6,3.1,14.3,5,38.7,15.1,39.4-18.8,29.7-29.3-5.7-5.2-13.8-9.4-24.3-11.3-6.9-1.3-15-1.8-23.5-1.7h0ZM1820.7,433.7c.2,2.1-.6,4.4-1.7,6.2-4.4,7.1-13.9,9.4-21.6,9.9-2.9.2-5.8.1-9.1-.5,2.7.6,6.1,1.2,9.7,1.7,7.5,1,13.5.2,22.1-1,5.3-.7,11.4-3,16-5.2,1.8-1,3.4-1.9,5-3.1-1.2-.6-2.4-1.1-3.4-1.5-1.8-.7-3.3-1.4-4.8-2h0c-3.7-1.5-7.8-3.1-12.2-4.4h0Z"/>
        <path class="cls-7" d="M1420.4,396.3l-.8,4c2.4.5,4.8,1.1,7.2,2,4.3,1.4,8.7,3.4,12.6,6.4,3.1,2.3,5.9,5,8.2,8.4,2.1,3.1,3.6,6.5,4.5,10.2.7,2.9,1.1,5.8,1.1,8.9s-.4,7-1.2,10.7l-1.1,4.8-8.4,39.8-4,19-2.4,11-16.7,79.3-1.7,7.6h194.4l20.9-96.6,2.6-12.4,1.3-5.9h-84.9l-1,4c6.3,1.3,13.5,3.7,19.7,8.3,2.3,1.7,4.3,3.4,6.2,5.7,0,.1,0,.2.2.4,2.6,3.1,4.5,6.7,5.7,10.5,1.9,5.8,2.4,12.5,1.1,19.6v.2l-4.5,22.7h-111.2l1.7-7.6,6.8-31.9,2.4-10.9,4.9-22.8v-.7c0,0,8.1-37.5,8.1-37.5v-.7c0,0,4.2-19,4.2-19l3.4-16.3,4.5-21.3h-83.8ZM1698.2,493.6l-1,4c6.3,1.3,13.7,3.8,19.8,8.4,2.3,1.7,4.4,3.6,6.3,5.9,6.8,8.2,9,19,6.7,31.2l-16.3,76.4c-4.3,19-8.9,29.2-17,37.7-7.7,8.1-18.8,12.6-31.2,12.6s-4.8,0-7-.5c-2,.2-4,.5-6.2.5-16,0-28.3-5.6-35.5-15.6-2-2.7-3.6-5.8-4.8-9.3h0c0,0-1.7-.2-4.8-.4l-8.8-.4h-3.4c-1.2,0-2.5,0-3.9.2-7.1,1-15.6,4-18.8,8.3-4.5,5.9-1.4,15.4.7,20.5,2.3,5.2,5.2,10.1,8.9,14.5,8.3,10,20.1,17.5,34,21.3,12.2,3.4,24.9,5.5,36.5,6.1,31.2-1.1,53.4-9.5,69.2-26.1,13.7-14.4,23.3-34.8,29.2-62.4l28.9-133.1h-81.6v.2Z"/>
        <path class="cls-10" d="M1650.1,307.2c-5.9,0-20,.5-38,3.2-2.5.4-5.1.8-7.7,1.3-1.2.2-2.5.5-3.7.7-3.7.7-7.6,1.5-11.5,2.5-6.7,1.3-13.5,3.2-20.4,5.3-8.3,2.6-16.9,5.8-25.3,9.7-1.9.8-3.8,1.8-5.6,2.6-4.6,2.3-9.3,4.8-13.8,7.5h0c3.2-.7,52-14.7,93-15.6-13.2,4.4-29.8,13.1-44.9,31.8,75.8-27.2,97.2,3.1,102.3,12.9,0,0-35.3-25.2-66-7.5-1.4.8-5.8,4.2-6.8,5.8-10,15.6,2.7,33.1,21.1,38s66-2.4,66-2.4c9.5-1.2,18.8-3.3,27.3-6.2,5.5-1.8,10.6-3.8,15.2-6.1,2.4-1.2,4.8-2.4,6.9-3.7.6-.4,1.1-.6,1.7-1s1.2-.8,1.8-1.2c2.6-1.7,5-3.4,7-5.2.8-.8,1.7-1.5,2.5-2.4,1.1-1.2,2.1-2.4,3-3.6-1.3.1-2.6.2-4.2.4h-.6c-.7,0-1.3.1-2.1.1-2.1-.1-4.2-.2-6.2-.5-1.4-.2-3-.5-4.4-.8-4.8,3.3-9,6.5-13.7,9.3,0,0-.2.1-.2.1-5,2.9-10.3,5.1-17.3,6.7-59,12.7-83.6-21.7-83.6-21.7,13.1,10.3,27.7,15.4,40.4,16.4.4,0,26.7-2,28.4-19.8.7-8.3-4-16.7-13.4-22.6-10.7-6.7-27.2-10-47.9-5.9-4.6,1.1-8.3,2.3-10.2,3-.5.1-.8.2-1.1.4-.2.1-.5.2-.5.2,10.1-8,26.1-16.7,49.8-16.7h6.4c39.1,2.1,53.4,10.8,66.2,18.4,3.8,2.3,7.5,4.5,11.6,6.4,1.1-11.2-6.3-23.4-32.2-34.2-18.5-3.8-30.6-4.3-30.9-4.3h-.2c-12-1.2-23.9-1.8-35.3-1.7,0,.1-1,0-2.9.1v.3ZM1731.7,344c-.2,0-.6.2-1,.5-.2.2-.6.5-.8.7l-.2.2-.2.2c0,0,0,.1,0,.2-.6.7-1,1.5-1.3,2.5,0,.1,0,.1,0,.2s0,.2,0,.2h0c0,.5,0,.8-.2,1.2h0c0,.5,0,.8,0,1.2h0c0,1.9.5,3.7,1.3,5.2v.2c1.2,2.1,3.1,4.3,5.9,6.3.4.2.6.5,1,.6,1.3.8,2.6,1.4,3.8,1.8,3,.8,5.2.1,6.9-1.3-7.1-.4-12.6-9.3-7.5-15.6-2.5-1.3-5-2.7-6.9-4.4,0,0-.1,0-.2-.1h0l-.2.2ZM1778.6,366h-.5c-3.1,4.2-14.8,16.9-32.7,27.7-8.1,5-17.5,9.5-27.8,12.7-7.2,2.3-15,3.9-23.2,4.5-1.9.4-3.8.7-5.7,1-4.9.8-9.3,1.5-13.1,2.5-10.6,2.7-16.6,7.2-14.3,20.2,2.5,13.4,12.2,15.4,23.4,13.2,7-1.4,14.6-4.6,21.3-8,1.1-.5,2.3-1.1,3.4-1.7,4.3-2.4,8.9-5.5,12.4-7.5,19.1-11.8,48.6-24.5,81.7-19.8.2,0,.8.1.8.1,33,4.2,56.4,15.6,47.5-6.2-15.6-38.5-68.2-39-73.4-38.7h.2ZM1804.2,373.1c10.9-.2,3.6,4.6,3.6,4.6,0,0-15.1,10.5-15.4,5.7-.4-4.6,1-10.1,11.9-10.3h0ZM1504.1,396.3l-4.5,21.3-3.4,16.3-4,19v.7c0,0-8.1,37.5-8.1,37.5v.7c0,0-5,22.8-5,22.8l-2.4,10.9-6.8,31.9-1.7,7.6h13.2l1.5-7.6,6.7-31.2,2.4-10.9,5.2-24.3,1-4.4,5.2-24.6,1.4-6.7,4.4-20.7,4.2-19.5,4-18.9h-13.3,0ZM1782.7,427.9c-6.7,0-13.4.5-20,1.5-2.4.4-4.6.8-7,1.3-3.2,1-7.1,2.4-11.4,5,4,1.1,9.4,2.9,15.6,5.1,3.3,1.2,6.8,2.4,10.3,3.6s7.1,2.4,10.8,3.4c1.3.4,3.8,1.1,7.2,1.8,3.3.5,6.3.6,9.1.5,7.7-.6,17.1-2.7,21.6-9.9,1.1-1.8,1.9-4,1.7-6.2-1.4-.5-3-1-4.4-1.3-11.2-3.4-22.4-4.9-33.6-4.9h.1ZM1636.9,493.6l-1.3,5.9-2.6,12.4-20.9,96.6s-.5,2.4-1,6.1c0,.5,0,1.1,0,1.7,0-.6,0-1.1,0-1.7.4-3.2.8-5.6,1-6.1l-.6,2.9c-1.5,7.7-2.1,14.5-1.8,20.2.2,4.8,1.1,9,2.5,13.1,0,0,0,.2,0,.4,1.2,3.3,2.9,6.5,4.8,9.3,7.2,10,19.5,15.6,35.5,15.6s4.2,0,6.2-.5c-12.6-1.4-22.3-6.7-28.4-15.2-4.3-5.9-6.9-13.5-7.4-22.4-.4-5.7.2-12.6,1.8-20.2l22.4-104,2.7-12.6.2-1.3h-13.3c0,0,0,.1,0,.1v-.3ZM1779.9,493.8l-28.9,132.5c-6.1,27.6-15.6,47.9-29.2,62.1-15.8,16.5-37.9,24.9-69.2,26,1.9,0,3.8,0,5.7,0,35.3,0,59.7-8.3,76.8-26.1,13.7-14.4,23.3-34.7,29.2-62.1l28.9-132.5h-13.3ZM1610.5,621c0,2.5-.2,5.1-.2,8,0-2.9,0-5.5.2-8Z"/>
      </g>
    </g>
    <g>
      <g>
        <path class="cls-10" d="M668.3,549.8v-26.7l43-61.3h34.5v60.3h10.4v27.7h-10.4v15.8h-32.3v-15.8h-45.2ZM716.1,498.3l-15.6,23.8h15.6v-23.8h0Z"/>
        <path class="cls-10" d="M846.7,488.2h-41.9v12.1c1.9-1.6,4.3-2.9,7.1-3.9,2.9-1,6.2-1.4,9.9-1.4,6.5,0,12.1,1.5,16.6,4.6s7.9,7.2,10.1,12.3c2.2,5.1,3.3,10.8,3.3,17.1,0,11.6-3.3,20.5-9.7,26.9-6.5,6.4-15.4,9.6-26.7,9.6s-15.4-1.4-21.4-4.4c-6-2.8-10.6-6.9-13.7-12-3.2-5.1-4.6-10.9-4.4-17.5h31.2c0,1.5.5,2.9,1.6,4.4,1.1,1.3,2.8,2.1,5.2,2.1s4.1-.9,5.3-2.6c1.2-1.7,1.7-4,1.7-7.1s-.7-4.9-2-6.3-3.2-2.2-5.6-2.2-3.6.4-4.6,1.4c-1.1,1-1.6,2.1-1.6,3.3h-31.2v-64.6h70.7v28.1h0,.2Z"/>
      </g>
      <g>
        <path class="cls-10" d="M1086.4,472.1c7.1-9.5,18-14.3,32.7-14.3s25.5,4.8,32.6,14.4,10.7,22.6,10.7,39.2-3.6,29.8-10.7,39.3c-7.1,9.6-18,14.4-32.6,14.4s-25.6-4.8-32.7-14.4c-7.1-9.6-10.6-22.7-10.6-39.3s3.5-29.7,10.6-39.3h0ZM1128.4,494c-1.5-3.9-4.7-5.9-9.4-5.9s-8,2-9.5,5.9-2.3,9.7-2.3,17.3.8,13.6,2.3,17.6c1.5,3.9,4.7,5.9,9.5,5.9s7.9-2,9.4-5.9,2.3-9.7,2.3-17.6c0-7.6-.7-13.5-2.3-17.3h0Z"/>
        <path class="cls-10" d="M1216.8,485.8c-1.1-1.3-2.8-2.1-5.1-2.1-3.7,0-6.1,1.9-7.3,5.6s-1.9,9.5-1.9,17.2c1.7-2.7,4.3-4.8,7.5-6.3,3.3-1.5,7-2.3,11.1-2.3,9.3,0,16.6,2.8,22.1,8.5,5.6,5.7,8.3,13.9,8.3,24.7s-1.5,13.5-4.6,18.9c-3.1,5.3-7.3,9.5-12.9,12.3s-12.2,4.4-19.7,4.4c-15.1,0-25.6-4.7-31.4-14-5.9-9.3-8.8-22.3-8.8-39.1s1.3-23.7,4-31.7,7-14.1,12.8-17.9,13.4-5.8,22.7-5.8,20.1,3.3,25.9,9.8,9.1,14.6,9.6,24.1h-29.9c-.4-2.8-1.2-5-2.4-6.3h0ZM1207.1,524.7c-1.5,1.4-2.3,3.5-2.3,6.1s.8,5,2.2,6.4c1.5,1.4,3.6,2.1,6.3,2.1s4.8-.7,6.3-2.1c1.5-1.4,2.2-3.5,2.2-6.4s-.8-4.6-2.3-6.1c-1.5-1.4-3.6-2.2-6.2-2.2s-4.7.8-6.2,2.2Z"/>
      </g>
    </g>
    <line class="cls-11" x1="800.9" y1="671.3" x2="1119.1" y2="353.2"/>
    <line class="cls-11" x1="1119.1" y1="671.3" x2="800.9" y2="353.2"/>
    <g>
      <path class="cls-5" d="M926.9,365.4c.4-.3.7-.7.8-.9,0-.2,0-.5,0-.7,0-.7-.5-1-1.1-1s-1.6.8-2.3,1.6c-.2.3-.3.7-.5.9,0,.3-.2.7-.3.9v.2c.4-.1.9-.1,1.2-.2,1-.2,1.6-.5,2.2-.9h-.1Z"/>
      <path class="cls-5" d="M963.3,389.9v-2.2c0,0-.9-1.7-.9-1.7l-1.6-.8h-1.7c0-.1-1.7.8-1.7.8l-1.7,2.7.5,2.7,1.1.8.5.4h2.6l1.9-1.1,1.1-1.6h0ZM961.1,391.8l-1.4.7s0,0-1.9-.2c-.5-.2-1.2-.9-1.2-.9l-.5-1v-2c0,0,1.6-2.1,1.6-2.1l1.7-.8h1.9l1.6,1.4.2,2.2-1,2-1.1.7h.1Z"/>
      <polygon class="cls-5" points="959.8 387.5 958.6 388.2 957.9 389.2 958.5 390.4 959.5 390.5 960.4 389.8 960.8 389 960.5 388 959.8 387.5"/>
      <path class="cls-5" d="M977.9,357.4c-.4,0-1.2-.2-1.5,1.4s-1,3.1,0,3.2,1.3.1,1.3.1c.9,0,3.7.2,3.8-2.6,0-.7-.3-2.1-3.7-2.1h0Z"/>
      <path class="cls-5" d="M953.5,369.2c1.3,0,2.1-1.3,2.6-2.9,0-.3.2-.7.3-.9,0-.3,0-.7.2-.9.2-1,.3-1.9.4-2.5-.2-.3-1.3-.7-1.9-.7-1.6,0-2.5,1.6-2.9,3.3,0,.3-.2.7-.2.9,0,.3,0,.7,0,.9v.5c0,2.3,1,2.3,1.5,2.3h.1Z"/>
      <path class="cls-5" d="M992.7,362.7c-1.1,0-1.9.8-2.4,1.9,0,.3-.2.5-.3.9s-.2.7-.2.9c-.2.8-.3,1.4-.3,2.2s-.2,2.1,1.9,2.1,2.5.1,3.2-4.3h0c0-.4,0-.7,0-1v-.9c0-1-.4-1.7-1.9-1.7h0Z"/>
      <path class="cls-5" d="M979.6,364.5c-.4-.3-1.2-.5-2.2-.4-1.6,0-2.1-.1-2.1-.1,0,.2,0,.4,0,.7s0,.7,0,.9c0,.3,0,.7,0,.9-.2,1.2-.3,2-.3,2,0,.5-.3,1.3,2,1.3s3.9-1,3.9-3.3h0c0-.3,0-.7,0-1-.2-.3-.4-.7-.9-.9h0Z"/>
      <g>
        <path class="cls-3" d="M939.2,366.4c-.4-.3-1.1-.7-1.9-.9,0,0,0-.1-.2-.1-.9-.3-1.4-.5-1.7-.9-.7-.4-.8-.9-.8-1.3,0-.8.9-1.1,1.7-1.1s2.5.5,3.3,2.5c0,0,0,.1,0,.2h.9v-.2l-.3-4.3c-.7.1-.9.1-.9.1l-.4.7h-.3c-.7-.4-1.6-.8-2.6-.8s-4.5,1.1-4.5,3.9v.2c0,.3,0,.7.2.9,0,.3.3.7.7.9.8.8,1.9,1.3,3.2,1.7.8.3,2.2,1,2.2,2.2s-.3,2.7-3.6,2.7-2.6-.4-2.6-1.7.2-1.1.7-1.1c.3.3.8,1,1.7,1s1.4-.9,1.4-1.4-.3-1.7-2.1-1.7-2.1.2-2.9,1.2c0-.1-.3-.3-.5-.5-.8.8-2.7,2.5-4.7,2.5s-1.9-1.7-1.9-2.8c3.5-.4,5.5-1.2,6.7-2.1.4-.3.8-.7,1-.9.2-.3.4-.7.5-.9,0-.4,0-.8,0-1,0-2.8-2.8-2.6-3.5-2.6-3.4,0-5.8,1.7-7.1,3.6-.2.3-.4.7-.5.9-.2.3-.3.7-.4.9-.4.9-.5,1.7-.5,2.3,0,1,0,1.7.4,2.5,0,.1,0,.3.2.4-.5.1-1.1.1-1.3-.1,0-.1-.2-.3-.2-.7s.2-2.6.4-4.5c0-.3,0-.7,0-.9,0-.3,0-.7,0-.9.2-1.4.3-2.6.3-2.6-.9,0-2.4.4-3.2.9l-1.3-4.5s-1.7.3-4,.7-1.5.2-2.4.4c-.7.1-1.4.2-2.1.3-.8.1-1.6.2-2.4.4-.7.1-1.3.2-1.9.3-2.1.4-3.5,1.4-4.4,2.5-.2.2-.3.5-.5.8s-.3.5-.4.9c-.3.8-.4,1.4-.4,2,0,1.6.7,3.1,2.5,3.1s3.2-2.2,3.2-2.9v-.2c0-.4-.2-.8-.4-.9-.4-.3-1.2-.2-1.7-.1-.2.1-.5.2-.7.2v-.4c0-.3,0-.7.2-.9.7-1.5,2.3-1.6,2.9-1.7.7-.1,1.3.2,1.1,1.3,0,0,0,.2,0,.5,0,.2,0,.5,0,.9s0,.5,0,.9c-.2,2.4-.5,5.8-.7,6.7-.2,1.4-1.2,2.2-2.3,2.2,0,0,0,.4,0,2,1.5-.2,8-1.3,8-1.3v-2.1h0c-1.2.1-1.6-.2-1.6-.9,0,0,0-.8.2-1.9,0-.8.2-1.6.2-2.5.4-.1.9-.2,1.2-.3h.2c1.1,0,1.1,1.9,1.1,2.6,0,0,1-.1,1.6-.2,0-.3,0-1.4.2-2.6,0-.5,0-1.2.2-1.7,0-.3,0-.7,0-.9,0-.3,0-.7,0-.9,0-.9.2-1.5.2-1.5,0,0-.9.1-1.6.2,0,0,0,.4-.3,1.2h0c0,.1,0,.2,0,.3,0,.2-.2.4-.3.7-.3.5-1,.7-1.3.8-.2.1-.3.1-.5.1h0c0,0-.2,0-.3.1h0c0-.4,0-.7,0-1h0c0-.4,0-.8,0-1,0-.4,0-.9,0-1.2,0-1.3.7-1.9,1.5-2.1.3-.1.8-.1,1.2-.1s.9,0,1.3.1c1.2.3,2,1.1,2.7,2.1h-.4v1.1c0,0-.2.9-.2.9h0c.5.1,1.7,0,1.7.9h0c0,.4-.2,2-.3,3.4-.2,1.4-.3,2.7-.4,3.1h0c0,.5.8,1.7,2.8,1.7s.4,0,.7-.1c1-.2,2.2-.8,3.2-1.7l1.3.7c.5.2,1.2.2,2,.2,2.4,0,4-1.1,5.2-2.2,0,1.1.7,3.2,4.7,3.2s6.5-2.8,6.5-5.1c-.3-.9-.9-1.9-1.9-2.5l-.2-.3ZM923.6,366.4c0-.3.2-.5.3-.9s.3-.7.5-.9c.7-.9,1.4-1.6,2.3-1.6s1.1.3,1.1,1,0,.4,0,.7c0,.3-.3.7-.8.9-.4.3-1.1.7-2.2.9-.3.1-.8.2-1.2.2,0-.1,0-.2,0-.2h.1Z"/>
        <path class="cls-3" d="M960.7,369c-.3,0-.9-.3-.9-.9s0-.9.2-1.7c0-.3,0-.5,0-.9s0-.7,0-.9c.4-2.4,1-5.1,1-5.1h-3.4l-.2.7c-.5-.3-1.5-.9-3.1-.9s-5,.9-6.4,5.1c0,0,0,.1,0,.2,0,.2,0,.5-.2.9,0,.3,0,.5,0,.9s0,1.2,0,1.7c-.7.7-1.4,1.2-2.1,1.2s-.9-.8-.8-1.7c0-.2,0-.7,0-1.2s0-.5,0-.9,0-.5,0-.9c0-.9.2-1.7.4-2.7h3.1l.4-2.3h-3.2c.3-2,.5-3.5.5-3.5h-2.1c-.2.9-.9,3.2-3.8,4.5,0,.9-.2,1.6-.2,1.6h1.4s0,1.1-.3,2.4c0,.3,0,.7,0,.9,0,.3,0,.7,0,.9-.2,1.5-.3,3.1-.4,3.5,0,1,.5,2.3,2.9,2.3s3.7-.9,4.8-2.1c.7.9,1.7,1.5,3.6,1.6,1.1,0,2.6-.3,3.8-1.9.2.8.8,1.7,2.8,1.7s2.7-.4,3.8-2c-.5-.8-1-1.2-1-1.2-.3.2-.8.5-1.1.5l.3.2ZM956.6,364.5c0,.3,0,.7-.2.9,0,.3-.2.7-.3.9-.5,1.6-1.4,2.9-2.6,2.9s-1.5,0-1.5-2.4v-.5c0-.2,0-.5,0-.9,0-.3,0-.7.2-.9.4-1.6,1.4-3.3,2.9-3.3s1.6.3,1.9.7c0,.7-.2,1.6-.4,2.6h-.1Z"/>
        <path class="cls-3" d="M984.8,365.4c0-.3-.3-.7-.5-.9-.7-.8-1.5-1.2-2.1-1.3,3.1-.9,3.5-2.8,3.5-3.9,0-3.1-3.3-3.5-5.1-3.6-1.9,0-8.2-.4-9.3-.4-6.2,0-6.5,4.1-6.5,4.8,0,1.6,1,2.9,2.9,2.9s2.6-1.4,2.6-2.3c0-1.6-1.1-1.6-1.4-1.6s-.7.2-.9.2-.3-.2-.3-.3c0-.9,1.4-1.4,3.2-1.4s1.7.7,1.6,1.1c0,0-.5,3.4-1,6,0,.3,0,.7,0,.9,0,.3,0,.7-.2.9,0,.3,0,.7-.2.9-.4,2-1.4,2.2-2.3,2.2,0,0,0,.7-.3,2,.5,0,7.2.2,11.2.3,4-.2,5.5-3.4,5.5-5.2h0c0-.5,0-.8-.2-1.1v-.2ZM980.5,366.4c0,2.2-1.7,3.3-3.9,3.3s-2-.8-2-1.3c0,0,0-.8.3-2,0-.3,0-.5,0-.9s0-.5,0-.9,0-.4,0-.7c0,0,.3.1,2.1.1s1.7.2,2.2.4c.4.2.7.5.8.9.2.3.2.7.2,1q0,0,0,0h0ZM977.7,362s-.2,0-1.3-.1-.3-1.5,0-3.2c.3-1.6,1.1-1.4,1.5-1.4,3.5,0,3.6,1.4,3.6,2,0,2.9-2.8,2.7-3.7,2.7Z"/>
        <path class="cls-3" d="M1017.4,366.4c0-.3,0-.7,0-.9s0-.3,0-.5h0c0-.2,0-.3,0-.4-.2-.4-.7-.9-1.1-1.1-.9-.3-1.9-.2-2.5.5,0,.2-.2.3-.3.5,0,.3,0,.7,0,.9,0,.3.2.7.3.9,0,.2.2.3.3.4,0,.2.3.3.4.7,0,.1,0,.1,0,.2,0,.2.2.5.2,1,0,2-1.4,3.7-2.7,3.8h0c-1.4,0-1.9-.9-1.7-1.1,0,0,0-.3.2-.8.2-.8.5-2.2.8-3.6,0-.2,0-.4,0-.8,0-.3,0-.7.2-.9,0-.3,0-.7.2-.9,0-.8.3-1.3.3-1.5-.4.1-2.3-.2-3.6-.4,0,0-.2.9-.4,2,0,.3,0,.5-.2.9,0,.3,0,.7-.2.9,0,.1,0,.2,0,.3-.4,2-1,4-1.1,4.6-.2.3-1,.5-1.3.5-1.3,0-2.3-.8-2.1-1.5,0-.3.4-2.1.9-3.8h0c0-.3,0-.7.2-.9,0-.3,0-.7.2-.9.2-1.1.4-2.1.5-2.5,0,0-.7-.1-1.7-.2-1.3.7-3.1.8-4.3.8l-.3.9c-1.1-2.3-3.9-2.9-5.7-2.9s-3.9.9-4.6,1.5c-.9.8-1.5,1.7-1.9,2.6,0,.3-.2.7-.3.9,0,.3,0,.7-.2.9-.3,2.1.4,4.1,1.7,5.2,2.3,2,9.7,2.4,11.2-3.7,0-.5.2-1,.2-1.5v-.9c0-.3,0-.7,0-.9,0-.1,0-.2,0-.3,0,0,.3,0,.4.1.2,0,.4.1.7.3.2.2.3.4.3.5,0,0,0,.1,0,.3,0,.2,0,.5-.2.9-.2,1.1-.5,2.7-.9,4-.5,2,.3,2.6,2.1,3.4.3.1.7.2,1,.3,1.6.3,3.4-.1,4-.5.8-.4.7,0,1.3.5,0,.1.2.2.4.3.8.4,1.6.7,2.6.7s1.5,0,2.1-.2c.2,0,.3-.1.4-.2,1.4-.8,2.4-1.7,3.2-2.7,1.4-2.1,1.6-4.3,1.5-5.7h.2ZM994.6,365.4c0,.3,0,.5,0,.9h0c-.8,4.5-2.5,4.4-3.2,4.4-2.1,0-1.9-1.9-1.9-2.1,0-.7.2-1.4.3-2.2,0-.3,0-.7.2-.9,0-.3.2-.7.3-.9.5-1.1,1.3-1.9,2.4-1.9s1.9.9,1.9,1.9v.8h0Z"/>
        <path class="cls-3" d="M1021.7,374.3c-.7,0-1.1-.4-1-1,0,0,.9-3.6,1.6-7,0-.3,0-.7.2-.9,0-.3,0-.7.2-.9.5-2.4,1.1-4.4,1.1-4.6s-.9-.2-1.3-.2h-1.5c-.9,0-1.7,0-2.5.1h-.4l-.3,1.6s0,0,.3.1c0,.1.3.2.7.3.7.3.5.8.3,1.6,0,0,0,.3-.2,1,0,.2,0,.5-.2.9,0,.3,0,.5-.2.9-.2,1.1-.5,2.4-.9,3.6-.4,2.1-.9,3.9-.9,4.4,0,1.5,2.3,2.3,3.8,2.3s2.4-.4,2.9-1.1c0,0-.5-1.2-.8-1.6,0,.2-.8.4-1,.4h.1Z"/>
        <path class="cls-3" d="M918.7,360.3c1.1-.9,1.5-2.4.9-3.3s-2.1-1-3.2,0c-1.1.9-1.5,2.4-.9,3.3.5,1,2,1,3.2,0Z"/>
      </g>
      <polygon class="cls-9" points="954 384.9 949.1 380 948.8 380.3 949.1 380.9 949.6 381.1 953.7 385.1 954 384.9"/>
      <path class="cls-9" d="M958.7,382.3h.2c-.2-2-.2-4.7-.2-4.7v-1.1c0,0-.5-.3-.5-.3v.7c0,0,0,.5,0,.5.2,1.7.3,3.7.4,4.9Z"/>
      <path class="cls-9" d="M973.2,385.9l-.7-.2-.4.4c-.7.3-3.6,1-5.6,1.3,0,.1,0,.3,0,.4.8-.2,1.6-.4,2.1-.5,1.1-.3,4.5-.9,4.5-.9v-.5h0Z"/>
      <path class="cls-9" d="M969.1,397.1c.2.2.3.2.3.2l.5-.2v-.3c0,0-.2-.4-.2-.4l-.8-.2s-.3-.2-1.3-1.2c0-.1-.3-.2-.4-.4-.3-.2-.5-.5-.9-.8-.3-.3-.7-.5-1-.9,0,.1-.2.2-.3.3.2.2.5.4.9.7.4.4,1,.8,1.4,1.2s1.2,1,1.6,1.3c0,.4,0,.7,0,.8h.1Z"/>
      <path class="cls-9" d="M951.9,398.9c.3-.2.7-.5,1.1-1,.7-.7,1.3-1.3,1.9-2,0-.1.2-.3.4-.4,0,0,0-.1,0-.1,0,0,0-.1-.2-.1h0c-.2.1-.4.3-.7.5-.7.7-1.3,1.4-1.9,2s-1,1-1,1h-.3c0,.1-.5.7-.5.7v.5h.8c0-.1.4-1.1.4-1.1Z"/>
      <path class="cls-2" d="M965.6,382.3l-.8.8,2.2-.8h2.2l1.6.3c.5-1.2.7-2.4.7-2.4-1.2,1.1-3.4,1.2-3.4,1.2l-2.5.9Z"/>
      <path class="cls-9" d="M969.2,382.4h-2.2l-2.5.9h-.2c0,.1,0,.2,0,.2.2.3.7.7,1.1,1.2.2.3.4.8.8,1.5,0,.1,0,.3.2.4l1.9-.2,2.8-1.6,1.2-1.6-1.4-.3-1.7-.4h0Z"/>
      <path class="cls-2" d="M971.1,389.9s0-.1-.8-.4c0-.1-.2-.1-.3-.2-.9-.5-2.3-1.1-2.3-1.1h-1c0-.1.9.1.9.1h0c0,.1,1.2,1.7,1.2,1.7l.3.4h0l.3,1.6c1.2-.9,2.4-2,2.4-2l-.9-.2h0Z"/>
      <path class="cls-4" d="M970.9,393.8v-1.1l-.3.4h-.8v-.5c0,0,0-.2,0-.2l-.4-1.7-.3-.4-1.2-1.6-1-.2h0v1.7l-.5,1.1-.7,1.3-.2.3h0l1.5.7h0c0,.1,1.1,1,1.1,1h.5c0,.1,1,.3,1,.3l1.2-.9h0c0-.1,0-.1,0-.1h0Z"/>
      <path class="cls-2" d="M967.6,397.7l-.2-.2-.7-1.4-.5-.5-1.2-1.3-.4-.5.2.5.3.8h0c0,.2,0,.4,0,.8,0,.5,0,1,0,1.1s0,.9.2,1.4h0c2.3.3,2.9-.2,2.9-.2l-.4-.3v-.2Z"/>
      <path class="cls-9" d="M961.9,400s1.1.5,1.6.5,1.3-.2,1.6-.3c.3-.1,1-.5,1-.5l-1.1-.5s0-.2,0-.4h0c0-.7-.2-1.4-.2-1.5s0-.7,0-1.1c0-.4,0-.9,0-.9l-.3-.8-.2-.5c-.3.3-.8.8-1.1,1,0,.1-.2.2-.3.3-.4.2-.8.3-1.1.5-.3.1-.5.3-.9.3,0,.4,0,.9,0,1.2v.4l.8,2,.2.3Z"/>
      <path class="cls-2" d="M959.7,402.4l.9-2.3v-.3c0,0,0-2.2,0-2.2v-.9c0,.2-.3.5-.4.9-.2.4-.4.9-.8,1.3h0c0,.2-.5.4-1,.8-.2.1-.3.2-.5.3.3.2.5.3,1,.5,0,.2.9,1.9.9,1.9h-.1Z"/>
      <path class="cls-4" d="M956.3,400.5s.5-.3,1.1-.7c0-.1.3-.2.4-.3.5-.3,1-.7,1.1-.8,0-.2.2-.4.3-.7h0c0-.2.3-.5.4-.8.2-.4.4-.8.5-1.1h-2.9s0,0-.3-.1c-.4-.1-1.1-.4-1.5-.8,0,.2,0,.4-.2.7-.3,1.1-.4,2.1-.5,2.4h0c0,.1-.9.5-.9.5l-.8-.5v1.3l1,.8h2.3Z"/>
      <path class="cls-2" d="M949.9,397.8l1.4-.4,1.9-.5.8-1.1.2-.3v-1.1l-1.4,1.1h-.2c0,.1-1.7.3-1.7.3h-1.9l-.2.2c0,.1,0,.3,0,.4-.2,1.4,0,2.7,0,2.7l1.3-1.3h0Z"/>
      <path class="cls-9" d="M947.5,396.7l.7-.7.7-.7h2l1.7-.2h0c0-.1,1.5-1.3,1.5-1.3h0c-.5-.8-1.1-1.5-1.4-2,0-.2-.2-.3-.2-.3v-.9c0,0,0-.2,0-.2h0c0,0-.2,0-.3.1-1,.2-2.4.4-2.4.4l-1.1.9-.7.4s0,.4-.2.9c0,.5-.2,1.2-.3,1.5s0,.7,0,1c0,.5.2,1,.2,1h-.1Z"/>
      <polygon class="cls-2" points="947.2 383.1 947.3 385.1 948.3 387 951.8 385.2 951.8 385.1 951.9 385.1 953.1 385.2 951.5 383.9 948.9 383.8 947.2 383.1"/>
      <polygon class="cls-4" points="947.9 389.8 949.5 390.2 951.2 390.3 952.4 390.3 952.4 390.3 952.4 390.3 952.3 388.7 953 386.7 953.3 385.5 953.3 385.5 951.8 385.4 948.4 387.1 947.7 387.5 946.8 386.9 946.8 388.5 946.8 388.5 947.9 389.8"/>
      <path class="cls-2" d="M953.8,382h0l.7-3.3h0l.3-.4c-.7-.2-1.5-.5-2.8-1,.3.9.4,2.2.4,4.1.5,1.1,1.1,2,1.5,2.6,0-.8,0-1.6,0-2.1h0Z"/>
      <path class="cls-9" d="M954.2,384.6h0l2.5-2.1h0c0-.1,1.3-.2,1.3-.2l-1.2-2.5-.2-3.7-1.7,2.2-.4.5-.7,3.2c0,.4.2,1.6.3,2.6h0Z"/>
      <path class="cls-2" d="M960.9,380l2.8-1.7h0l-.9-1.1-1.9-.9v1.4c0,0-.9,1.3-1.5,2.2,0,.7,0,1.4,0,2.1l1.3-2h.1Z"/>
      <path class="cls-4" d="M964.5,376.6l.5.8-1.1,1h0l-2.8,1.7-1.2,2h0s2.4.3,3.1.5h0c.5.2,1,.4,1,.4h0l2.7-3.2.8-2.1-1-1.4-2.1.2h0Z"/>
      <g>
        <path class="cls-9" d="M965.9,388.1h0v-.4c0,0-.3-.8-.3-.8h0v-.2l-.3-1.2v-.4c0,0-.4-.2-.4-.2l-.5-.4-.2-.2-.2-.2h0c0-.1,0-.2,0-.2h0c0-.1-.3-.4-.3-.4h-.5c0-.1-1.7-.5-1.7-.5h-2.3c0,.1-.2.1-.2.1h-.2l-1.4.3h0l-2.2,1.7-.2.2h0c0,.1,0,.2,0,.2h0l-.3.2h0l-.2.8-.4,1.6v2c0,0,0,.1,0,.1h0v1.5l1,1.2.4.5h0c0,.1,0,.2,0,.2l.5.7.3.4h0c0,0,0,.1,0,.1h.2c.2.1.8.2,1.6.4.2.1.4.1.8.2h.9c.3,0,.8-.1,1.1-.1s.3,0,.5-.1h.7l.2-.2,2.3-2.1h0c0-.1,0-.2,0-.2h0c0-.1,0-.2,0-.2l.2-.3v-.2c0,0,.2-.1.2-.1h0c0-.1.3-.5.3-.5l.5-.8.4-2.5h-.5ZM963.3,389.9l-1.2,1.6-1.9,1.1h-2.6l-.5-.4-1.1-.8-.5-2.7,1.7-2.7,1.7-.9h1.7c0,.1,1.6.9,1.6.9l1,1.7v2.2h0Z"/>
        <path class="cls-4" d="M959.3,385.5l-1.7.8-1.5,2.1v2c0,0,.4,1,.4,1,0,0,.7.7,1.2.9,1.7.2,1.9.2,1.9.2l1.4-.7.9-.8,1-2-.2-2.2-1.6-1.4h-1.8ZM960.4,389.8l-1,.7-1-.2-.5-1.2.7-.9,1.2-.7.8.3.3,1-.4,1h0Z"/>
      </g>
      <path class="cls-2" d="M961.6,344.7c-.2.7-.8,2-.9,2.7,0,.3.2.7.5.9,0,0,0,0,0,.1h0c0-.1-.2-.2-.2-.5,0-.8.7-2.1.9-2.7l6.8-17.3-1,.2c0,.2-1.7,4.7-1.9,4.9l-4.4,11.8h.1Z"/>
      <path class="cls-2" d="M957.9,343.1c-.2.7-.5,1.4-.7,2.3,0,1.6,1.3,3.1,4.1,3.2h0c-2.4-.1-3.7-1.3-3.6-2.7,0-.8.4-1.7.7-2.3l4-10.5c.3-1,1.4-3.3.9-4.1l-1,.2h0c.7.9-.2,2.8-.7,3.9l-3.8,10h0Z"/>
      <path class="cls-2" d="M959.2,343.7c-.2.7-.7,1.6-.8,2.4,0,1.3,1,2.3,3.1,2.4h0c-.4,0-.9-.1-1.2-.3-.9-.3-1.3-.9-1.2-1.7,0-.8.4-1.9.8-2.5l4.4-11.2c.2-.5,1.4-3.4,1.2-4.3l-.9.2h0c.4.7-.7,3.3-1,4l-4.4,11h0Z"/>
      <path class="cls-2" d="M981.3,348.4h0c3.2-.4,6.3-7,6.4-11.5,0-1-.5-2-2-2.2h0c1,.2,1.3.9,1.3,1.6,0,4.4-3.3,11.5-5.8,12h0Z"/>
      <path class="cls-2" d="M956.7,342.6c-.2.7-.5,1.3-.5,2.1-.2,2,1.6,3.8,5.3,3.9h0c-3.3-.1-4.9-1.7-4.7-3.6,0-.8.3-1.5.7-2.2l3.8-9.7c.4-1.2,1.3-3.1.7-3.9l-.9.2h0c.8.8,0,2.2-.4,3.5l-3.9,9.7h0Z"/>
      <path class="cls-2" d="M935.7,348.4l-3.2-14.6c-.4-1.9-.5-2.4-.7-3.2h-1.2c.5.7.7,1.4,1.1,3.2l3.2,14.6h.8Z"/>
      <path class="cls-2" d="M938.8,330.7h-1.6c-.4.2-1.5,1-1,3.7l1.9,9.2.4-1-1.6-8.2c-.4-2.4,0-3.4,2-3.7h-.1Z"/>
      <path class="cls-2" d="M941.3,337c1.7-4.1,2.2-5.3,2.9-6.3h-1.4c0,1.6-.4,3.2-1.5,6.3h0Z"/>
      <path class="cls-2" d="M951.3,336.9c0-1.4-1-2.5-2.7-2.5-3.7,0-5.5,2.4-6.1,5.1h0c.7-2.6,2.3-4.9,5.7-4.9s2.4,1,2.5,2.3c0,1.6-.4,2.9-1,4.5l-2.6,7h.8l2.6-6.9c.2-.4.3-.9.5-1.3.5-1.1,1.2-2.2,1.5-2.2s.3.2.3.4c0,.8-.2,2-.8,2.9h0c.7-.5,1.4-2.4,1.4-3.3s-.2-.7-.5-.7c-.5,0-1.3,1.2-1.9,2.4,0-.2,0-.4.2-.5.5-1.2,1.3-2.3,2.1-2.3s.8.3.8.8c0,1.2-1.1,3.1-2,3.6h0c1.3-.5,2.6-2.4,2.6-3.9s-.4-1.1-1-1.1c-1,0-1.9,1.1-2.4,2.4,0-.1,0-.2,0-.3.7-1.4,1.7-2.6,2.8-2.6s1.1.4,1.1,1.2c0,1.7-1.6,3.7-3.2,4.3h0c1.9-.4,3.8-2.5,3.7-4.6,0-1-.7-1.4-1.3-1.4-1.3,0-2.5,1.2-3.3,2.7v-.2c.9-1.6,2.2-2.9,3.7-2.9s1.5.5,1.5,1.6c0,2.4-2.1,4.5-4.4,4.9h0c2.6-.4,5.1-2.5,4.9-5.2,0-1.3-.9-1.9-1.7-1.9-1.6,0-3.2,1.3-4,3.2,0-.1,0-.3,0-.5h.2Z"/>
      <path class="cls-2" d="M941,348.4h.8l2.9-7.3c.4-1.1,1.3-3.2,1.3-3.8s-.2-.7-.7-.7c-.9,0-2,1.4-2.5,2.9h0c.7-1.3,1.5-2.7,2.1-2.7s.3.1.4.4c0,.5-1,2.8-1.3,3.8l-3.1,7.3h0Z"/>
      <path class="cls-2" d="M940.3,330.7h0c1.5.5,1.9,2.2.9,6.3h0c1.1-3.7,1.5-5.3.4-6.3h-1.3Z"/>
      <path class="cls-2" d="M941.3,337.1h0c2.2-3.9,3.4-5.6,6.2-6.4h-2c-1.5.9-2.4,2.4-4.3,6.4h0Z"/>
      <path class="cls-2" d="M929.6,330.7h-1.3c1.2.4,1.7,1.3,2.2,3.4l3.1,14.3h.7l-3.2-14.4c-.4-2.5-1-2.9-1.4-3.3h0Z"/>
      <path class="cls-2" d="M962.3,348.3h0c3.6-1,7.1-7.3,7.3-10.4,0-.8-.3-1.3-.9-1.3-.9-.1-2,.5-2.8,1.5h0c.7-.8,1.5-1.4,2.2-1.3.4.1.7.4.7,1,0,2.8-3.3,9.2-6.4,10.5h0Z"/>
      <path class="cls-2" d="M962.2,348.5c4.9-.5,8.6-6.7,8.9-10.5,0-1.3-.4-2-1.3-2.1-1.3-.2-2.9.7-3.9,2.2h0c1-1.2,2.3-2,3.4-1.9.8.1,1.2.7,1.1,1.7-.3,3.4-3.7,9.5-8.2,10.5h0Z"/>
      <path class="cls-2" d="M936.7,346.4l-2.6-12.3c-.4-2-.3-2.8-.2-3.4h-1c0,.8,0,1.4.4,3.1l2.9,13.6.4-1h0Z"/>
      <path class="cls-2" d="M937.5,344.4l-2.1-10.1c-.4-2-.2-3.1.4-3.6h-1.1c-.3.8-.4,1.5,0,3.4l2.4,11.3.3-1h0Z"/>
      <path class="cls-2" d="M966.2,328.3h0c0,1.1-1.1,3.8-1.4,4.5l-4.5,11.5c-.2.7-.7,1.9-.8,2.6,0,1,.8,1.4,1.9,1.6h0c-.8-.1-1.3-.5-1.3-1.3,0-.8.5-2.1.8-2.6l4.6-11.7c0-.3,1.9-4.5,1.6-4.7h-.9,0Z"/>
      <path class="cls-2" d="M962.2,348.5c5.9,0,10.1-5.9,10.6-10.6,0-1.7-.7-2.6-1.9-2.7-1.7-.2-3.8.9-5.1,2.7h0c1.2-1.6,3.1-2.6,4.6-2.4,1.1.1,1.7,1,1.6,2.4-.4,4.4-4.6,10.3-9.8,10.6h0Z"/>
      <path class="cls-2" d="M974.3,338c.2-2.2-.8-3.3-2.3-3.5-2.2-.3-4.8,1-6.3,3.3h0c1.4-2.1,3.8-3.3,5.8-2.9,1.3.2,2.2,1.2,2.1,3.2-.4,5-4.7,10.6-11.5,10.6h0c7,.3,11.8-5.2,12.2-10.6h0Z"/>
      <path class="cls-2" d="M985.7,334.6c2,.3,2.6,1.6,2.6,2.7,0,4.5-3.5,10.5-7.2,11h0c4.3-.4,7.7-6,7.9-10.6,0-1.1-.8-2.8-3.3-3.2h0Z"/>
      <path class="cls-2" d="M974.6,343.1c0,1.9,1.3,5.1,5.9,5.5h0c-4-.3-5.2-3.2-5.2-4.9,0-4.8,4.3-8.7,9.9-9.2h0c-6.3.3-10.6,3.7-10.6,8.6h0Z"/>
      <path class="cls-2" d="M976.6,344.7c0-4.6,3.8-9.6,8.5-10.1h0c-5.2.4-9.2,4.9-9.3,9.6,0,1.5,1.1,4.1,4.6,4.4h0c-2.9-.3-3.8-2.4-3.8-3.8h0Z"/>
      <path class="cls-2" d="M946.1,341.2c.4-1.2,1.3-3.1,1.2-4,0-.7-.4-1.1-1.2-1.1-1.6,0-2.8,1.7-3.4,3.5h0c.7-1.6,1.6-3.3,2.9-3.3s.9.3.9.9c0,.9-.9,2.8-1.2,3.9l-2.9,7.3h.8l2.9-7.2h0Z"/>
      <path class="cls-2" d="M947.6,341.3c.5-1.3,1.2-2.9,1.2-4.1s-.7-1.5-1.7-1.5c-2.3,0-3.7,2-4.3,4h0c.7-2,2-3.8,3.8-3.8s1.4.5,1.4,1.3c0,1.1-.7,2.8-1.2,4.1l-2.8,7.2h.8l2.8-7.2Z"/>
      <path class="cls-2" d="M980.5,348.4c-2-.2-2.6-1.6-2.6-2.7,0-4.4,3.6-10.5,7.2-11h0c-4.1.4-7.7,6.1-7.9,10.5,0,1.3.9,3.2,3.3,3.3h0Z"/>
      <path class="cls-2" d="M985.9,334.6c2.9.3,3.9,2.4,3.9,3.8,0,4.7-3.7,9.6-8.5,10.1h0c5.5-.4,9.2-4.9,9.3-9.6,0-1.6-1.2-4.1-4.7-4.4h0Z"/>
      <path class="cls-2" d="M948.9,341.4c.5-1.4,1.2-2.8,1.1-4.4,0-1.2-.9-2.1-2.3-2.1-2.9,0-4.6,2.2-5.2,4.6h0c.7-2.3,2.2-4.4,4.8-4.4s2,.8,2,1.7c0,1.4-.5,2.9-1.1,4.3l-2.7,7.1h.8l2.7-6.9h0Z"/>
      <path class="cls-2" d="M991,339.4c0,4.8-3.8,8.7-9.9,9.2h0c6.7-.4,10.6-3.8,10.6-8.7s-1.3-5.1-5.9-5.3h0c4.1.3,5.3,3.2,5.2,4.9h0Z"/>
      <path class="cls-2" d="M985.9,334.5h0Z"/>
      <path class="cls-2" d="M985.1,334.7h0c-3.1.4-6.3,7.1-6.4,11.3,0,1,.4,2.1,2,2.2h0c-1-.2-1.3-.9-1.3-1.6,0-4.1,3.3-11.5,5.8-11.9h0Z"/>
      <path class="cls-2" d="M1026.2,321.1l-60.9-35.1c-3.3-2-7.4-2-10.7,0l-60.9,35.1c-3.3,2-5.3,5.5-5.3,9.3v70.3c0,3.8,2.1,7.4,5.3,9.3l60.9,35.1c1.6,1,3.5,1.4,5.3,1.4s3.7-.4,5.3-1.4l60.9-35.1c3.3-2,5.3-5.5,5.3-9.3v-70.3c0-3.8-2.1-7.3-5.3-9.3h.1ZM1028.4,400.6c0,2.7-1.4,5.2-3.8,6.5l-60.9,35.1c-2.3,1.3-5.2,1.3-7.5,0l-60.9-35.1c-2.3-1.3-3.8-3.8-3.8-6.5v-70.3c0-2.7,1.4-5.2,3.8-6.5l60.9-35.1c1.2-.7,2.5-1,3.8-1s2.6.3,3.8,1l60.9,35.1c2.3,1.3,3.8,3.8,3.8,6.5v70.3h0Z"/>
      <polygon class="cls-3" points="959.9 323.5 959.9 323.6 959.9 323.6 959.9 323.5"/>
      <path class="cls-3" d="M959.9,323.6h0Z"/>
      <polygon class="cls-3" points="960 323.5 960 323.5 959.9 323.5 960 323.5"/>
      <polygon class="cls-3" points="960 323.5 960 323.6 960 323.6 960 323.5"/>
      <polygon class="cls-3" points="959.9 323.6 960 323.6 960 323.6 960 323.6 959.9 323.6"/>
      <polygon class="cls-3" points="959.9 323.6 960 323.6 960 323.6 959.9 323.6"/>
      <path class="cls-3" d="M960,323.6h0Z"/>
      <path class="cls-3" d="M959.9,323.6h0Z"/>
      <path class="cls-3" d="M960,323.6h0Z"/>
      <path class="cls-2" d="M996.4,315.1l-9.5-5.5-26.9,14h0l20.5-17.7-5.6-3.2-14.9,20.7h0c0-.1,9.5-24.1,9.5-24.1l-5.8-3.4-3.7,27.2-3.7-27.1-5.8,3.4,9.5,23.9h0c0,.1-14.9-20.7-14.9-20.7l-5.6,3.2,20.5,17.7h0l-26.9-14-9.5,5.5,36.4,8.5h0l36.4-8.4ZM960,323.5h0ZM959.9,323.6h0ZM960,323.6h0ZM960,323.6h0Z"/>
      <path class="cls-3" d="M898,331.4c0-1,.5-2,1.4-2.4l9.3-5.3h51.2l-36.4-8.5,9.5-5.5,26.9,14h0l-20.5-17.7,5.6-3.2,14.9,20.8h0c0-.1-9.5-24-9.5-24l5.8-3.4,3.7,27.1,3.7-27.2,5.8,3.4-9.5,24h0c0,.1,14.9-20.7,14.9-20.7l5.6,3.2-20.4,17.6h0l27.1-14,9.5,5.5-36.4,8.5h51.3l9.3,5.3c.9.5,1.4,1.4,1.4,2.4v26.2h1.4v-26.2c0-1.5-.8-2.9-2.1-3.7l-59.1-34.1c-1.3-.8-2.9-.8-4.3,0l-59.1,34.1c-1.3.8-2.1,2.2-2.1,3.7v26.2h1.4v-26.1h-.3Z"/>
      <path class="cls-2" d="M1022,399.6c0,1-.5,2-1.4,2.4l-18.1,10.5-6.7-2.5v-10.1h0c0-1,.8-1.7,1.6-1.7h1.3c.9,0,1.6-.8,1.6-1.6v-8.8c0-.9-.8-1.6-1.6-1.6s-1.6.8-1.6,1.6v8.1c0,.3-.3.7-.7.7s-.7-.3-.7-.7v-11.7c0-.9-.8-1.6-1.6-1.6s-1.6.8-1.6,1.6v16.9c-.4,0-.8-.3-.9-.8h0v-8.3c0-.9-.8-1.6-1.6-1.6s-1.6.8-1.6,1.6v9.5c0,.9.8,1.6,1.6,1.6h.8c.9,0,1.6.8,1.6,1.6v4l-6-2.3c-1.2-.4-2.6-.3-3.7.3l-10.6,6-8-4.4c-1.4-.8-3.1-.8-4.5.1l-5.6,3.5c11.2,3.3,18.3,8.8,17.8,19.7l49.2-28.5c1.3-.8,2.1-2.2,2.1-3.7v-16h-1.4v16.1h.3Z"/>
      <path class="cls-2" d="M951.3,412.1l-11.8-5.9c-1-.4-2.1-.5-3.2-.3l-8.6,2.5v-3.6c0-.9.8-1.6,1.6-1.6h.8c.9,0,1.6-.8,1.6-1.6v-9.5c0-.9-.8-1.6-1.6-1.6s-1.6.8-1.6,1.6v8.2h0c0,.5-.4.9-.9.9v-16.8c0-.9-.8-1.6-1.6-1.6s-1.6.8-1.6,1.6v11.7c0,.3-.3.7-.7.7s-.7-.3-.7-.7v-8.1c0-.9-.8-1.6-1.6-1.6s-1.6.8-1.6,1.6v8.8c0,.9.8,1.6,1.6,1.6h1.3c.9,0,1.6.8,1.6,1.6h0v9.6l-8.1,2.3-16.7-9.7c-.9-.5-1.4-1.4-1.4-2.4v-16h-1.4v16c0,1.5.8,2.9,2.1,3.7l52.3,30.2c14.2-16.6,1.3-17.6.2-21.6h0Z"/>
    </g>
    <g>
      <path class="cls-10" d="M895.2,654.5c3.9-3.4,7-6.1,9.2-8.3,2.3-2.2,4.1-4.5,5.7-6.8s2.3-4.7,2.3-7.1-.5-4.4-1.7-5.7c-1.2-1.4-2.9-2.1-5.5-2.1s-4.3.8-5.6,2.3-2,3.6-2.1,6.1h-6.7c0-4.6,1.5-8.2,4.1-10.6,2.6-2.4,6-3.7,10.1-3.7s7.9,1.2,10.4,3.6,3.7,5.7,3.7,9.7-.8,5.7-2.2,8.4c-1.5,2.7-3.3,5.1-5.2,7.2-2.1,2.1-4.7,4.6-7.9,7.4l-2.7,2.4h19.3v5.8h-29.6v-5l4.3-3.7h.1Z"/>
      <path class="cls-10" d="M930,624.7c2.4-3.9,6.4-5.9,12.2-5.9s9.9,2,12.2,5.9c2.4,3.9,3.6,9.4,3.6,16.5s-1.2,12.7-3.6,16.6c-2.4,4-6.4,6-12.2,6s-9.8-2-12.2-6-3.6-9.5-3.6-16.6,1.2-12.5,3.6-16.5ZM950.6,632.9c-.4-2.3-1.3-4.1-2.6-5.6s-3.3-2.2-5.8-2.2-4.5.8-5.8,2.2-2.2,3.3-2.6,5.6-.7,5-.7,8.3.2,6.2.7,8.6c.4,2.3,1.3,4.1,2.6,5.6s3.3,2.1,5.8,2.1,4.5-.7,5.8-2.1c1.3-1.4,2.2-3.3,2.6-5.6s.7-5.1.7-8.6-.2-6.1-.7-8.3Z"/>
      <path class="cls-10" d="M969.2,654.5c3.9-3.4,7-6.1,9.2-8.3,2.3-2.2,4.1-4.5,5.7-6.8s2.3-4.7,2.3-7.1-.5-4.4-1.7-5.7c-1.2-1.4-2.9-2.1-5.5-2.1s-4.3.8-5.6,2.3-2,3.6-2.1,6.1h-6.7c0-4.6,1.5-8.2,4.1-10.6,2.6-2.4,6-3.7,10.1-3.7s7.9,1.2,10.4,3.6,3.7,5.7,3.7,9.7-.8,5.7-2.2,8.4c-1.5,2.7-3.3,5.1-5.2,7.2-2.1,2.1-4.7,4.6-7.9,7.4l-2.7,2.4h19.3v5.8h-29.6v-5l4.3-3.7h.1Z"/>
      <path class="cls-10" d="M1004.6,621.8c2.6-2.1,6-3.2,10.1-3.2s5.2.5,7.3,1.5c2.1,1,3.6,2.4,4.7,4.1s1.5,3.7,1.5,5.9-.7,4.7-2,6.4-2.9,2.9-4.8,3.6v.2c2.4.8,4.3,2.1,5.6,3.9,1.3,2,2,4.4,2,7.4s-.5,4.5-1.6,6.3-2.7,3.4-4.9,4.4c-2.2,1.1-4.7,1.6-7.7,1.6-4.4,0-8-1.1-10.8-3.4-2.8-2.3-4.4-5.5-4.5-9.7h6.7c0,2.2,1,3.9,2.5,5.2s3.5,2.1,6.1,2.1,4.4-.7,5.7-2.1c1.3-1.3,2-3.1,2-5.2s-.9-4.8-2.7-6-4.6-1.7-8.3-1.7h-1.5v-5.7h1.6c3.3,0,5.8-.5,7.5-1.6s2.6-2.7,2.6-5-.7-3.5-1.9-4.7c-1.3-1.2-3.1-1.7-5.3-1.7s-4,.5-5.2,1.7-2,2.6-2.3,4.3h-6.5c.2-3.7,1.6-6.7,4.3-8.7h-.2Z"/>
    </g>
  </g>
</svg>