<?xml version="1.0" encoding="utf-8"?>
<!-- Generator: Adobe Illustrator 28.5.0, SVG Export Plug-In . SVG Version: 9.03 Build 54727)  -->
<svg version="1.0" xmlns="http://www.w3.org/2000/svg" xmlns:xlink="http://www.w3.org/1999/xlink" x="0px" y="0px"
	 viewBox="0 0 1920 1024" style="enable-background:new 0 0 1920 1024;" xml:space="preserve">
<style type="text/css">
	.st0{fill:none;}
	.st1{fill-rule:evenodd;clip-rule:evenodd;fill:#FFFFFF;}
	.st2{fill:#FFFFFF;}
	.st3{fill:#212121;}
	.st4{fill:#C7C7C7;}
	.st5{fill:#2E2E2E;}
	.st6{fill:none;stroke:#FFFFFF;stroke-miterlimit:10;}
	.st7{fill:#B7B7B7;}
	.st8{fill:#A9A9A9;}
	.st9{fill:#E0E0E0;}
	.st10{fill:#747474;}
	.st11{clip-path:url(#SVGID_00000085233244205628536770000014838789787920181169_);}
	.st12{fill:#AAFF00;}
	.st13{clip-path:url(#SVGID_00000104707756275932852560000012337407665891829917_);}
	.st14{fill-rule:evenodd;clip-rule:evenodd;fill:none;stroke:#AAFF00;stroke-width:4;stroke-miterlimit:10;}
</style>
<g id="Layer_1">
	<g>
		<rect class="st0" width="1920" height="1024"/>
	</g>
</g>
<g id="Layer_2">
	<path class="st1" d="M559.1,412.3c-29.3-57.2-92.5-77.3-150.7-89.3c-20.1-4.5-59-6.4-59-6.4c-4,0-8,0.1-11.9,0.2v0.1
		c-4-0.1-7.9-0.1-11.9-0.2c0,0-38.8,1.9-59,6.4c-58.2,12-121.4,32.1-150.7,89.3c-18.7,48.3-18.7,111.3-11.3,160.4l0.6,4.1
		c6,49.8,50.5,90.4,99.9,107.3c40,17.2,86.6,23.8,132.8,23.1v-0.1c45.9,0.7,92.2-6,131.8-23.1c49.4-17,94-57.5,100-107.3l0.6-4.1
		C577.8,523.6,577.8,460.7,559.1,412.3L559.1,412.3z M457.1,567.6c-1.2,21.8-3.2,44.5-14.8,62.5c-25.4,33.6-65,47.9-104.8,48.3v0.1
		c-39.8-0.4-79.4-14.7-104.8-48.3c-11.6-18-13.6-40.7-14.8-62.5c-2.7-50.1,2.1-137,4.6-146.1c12.6-45.5,56.5-69.2,102-73.4
		c0,0,7.3-0.6,13.5-0.7l0,0c5.9,0.2,12.5,0.7,12.5,0.7c45.5,4.2,89.4,27.9,102,73.4C455.1,430.6,459.8,517.6,457.1,567.6
		L457.1,567.6z"/>
	<g transform="matrix(1.36091 0 0 -1.36091 -602.739 348.982)">
		<path class="st2" d="M1775.7-45.3c-5.2,12.4-14,21.5-20.6,27c-9.7,8.5-24.2,12-31.7,13.5c-0.2,0.4-0.3,0.7-0.5,1.1
			c-0.9,1.7-2,3.5-3.1,5.2c-2.2,3.3-4.7,6.2-7.4,8.7c-12,11.2-28.2,19-48.1,23c-5,1-10.3,1.8-15.8,2.5c-4.5,0.5-9.9,1.1-15.3,1.4
			c-3.7,0.2-7.5,0.4-11.3,0.4c-39.9,0.4-79.2-9.5-127.6-32.1c-14.2-6.7-28.4-13.6-43.1-19.2c-2.9-1.1-5.8-2.2-8.8-3.2l-10-45.3
			l20.8-2.1c3.9-0.8,5.7-2.1,6.2-2.7l0,0c0.5-0.8,0.3-2.7,0-4.4l-0.3-1.5l-1.7-8l-4.9-23.1l-2.3-11l-1.6-7.5l-17.5-82.4h106.1
			c-0.5-9.4,0.6-18.2,3.2-26.2c0.5-1.7,1.1-3.3,1.8-5c7.4-17.4,22.8-30.4,42.3-35.9c11.4-3.2,23.4-4.9,33.9-4.9
			c29.8,0,51,7.7,66.6,24.1c12,12.3,20.2,29.3,25.1,51.7l23.5,108.5c2.8,1.1,5.2,2.2,7.2,3.3c2.1,1.1,5,2.9,7.6,4.9
			c0,0,0.1,0,0.1-0.1c0.5-0.4,1-0.7,1.4-1.1c2.7-2.2,4.6-5.2,6-7.9c3-5,6.1-12.5,7.9-22.9c0,0,14.1,21.3,16.2,42.5v0.1
			c0.1,0.6,0.1,1.3,0.1,1.9C1780.7-62.6,1779.2-53.6,1775.7-45.3"/>
		<g transform="matrix(.8 0 0 -.8 548.789 199.506)">
			<path class="st3" d="M1338.4,212c-53.6,0-102.5,16-152.3,39.3c-20.3,9.5-37.8,17.5-55.9,24.5h120.2l-8.1,38.2
				c1.5-0.1,3.1-0.3,4.7-0.4c11.8-0.8,23.6-0.8,33,0.9c8.9,1.6,15.7,5.1,20.5,9.5c8.1,8.9,7.6,37.4-25,24.7c-4-1.5-8-2.9-12-4.2
				c-9.1-2.8-18.1-5-26.3-6.6l-4.2,19.8h151.8c6.5-4.3,11.9-8.2,16-11.6c9.3,4.7,14.9,6.8,22.5,9.4c2.5,0.9,5.1,1.6,7.6,2.2
				c4.2,1,8.4,1.7,12.7,2.3c11.9,2.1,22.5,0.5,31.2-2.4c14.3-4.7,23.2-13.1,23.8-14.4c3.5,2,6.5,4,8.9,6
				c9.9,8.3,13.5,22.3,13.5,22.3c11.1-23.3,11.6-44.1,4.2-61.9c-6.1-14.6-16.8-24.9-23.2-30.3c-13-11.5-36.1-14.9-40.1-15.7
				c-0.4-0.5-1.1-2.3-1.5-3.3c-0.3-0.8-0.6-1.5-0.8-1.9c-1-1.9-2.2-3.8-3.4-5.7c-2.3-3.5-5-6.6-7.8-9.3
				c-13.8-12.7-32.5-21.6-55.6-26.3c-6-1.2-12.4-2.2-18.9-2.9c-5.5-0.6-12-1.3-18.7-1.7C1349.5,212.1,1343.9,211.9,1338.4,212
				L1338.4,212z M1124.8,286.3l-2.8,12.4l-3.8,16.7l-0.6,2.6l14.7,1.5c5,0.9,11.6,3.1,14.9,8c0.4,0.6,1.1,1.6,1.6,3.4
				c0.5,1.6,0.8,3.9,0.4,6.9c-0.1,1-0.3,2-0.5,3.2l-1.8,8.3l-6.6,31.3l-3.1,14.7l-2,9.4l-19.3,90.5h131.4l-0.5,4.3
				c-0.1,0.7-0.2,1.4-0.2,2.2c-1.2,12.3-0.2,23.6,3.2,33.7c0.6,1.9,1.2,3.6,1.9,5.3c7.9,18.7,24.7,32.8,46,38.8
				c13.3,3.7,27.4,5.8,39.5,5.8c34.2,0,58.2-8.5,75.6-26.8c13.5-14.2,22.8-33.7,28.5-59.8l28.2-130l0.1-0.5h-33.7h-50.4h-18.6h-8.1
				l-1.1,4.7l-2.6,11.5l-3.5,15.6l10,0.8c3.1,0.3,13.8,1.6,18.8,7.6c1,1.2,4.1,5,2.4,13.7l-13.7,64c-3.4,14.8-6.5,20.4-10.5,24.6
				c-3.6,3.8-9,5.8-15.3,5.8c-17.9,0-20.5-10.1-20.9-17.7c-0.2-3.5,0.2-8.1,1.2-13.2l21-96.8l2.4-11.1l2.1-9.5h-113.5l-7.1,31.8
				l10.1,0.8c0.8,0.1,2,0.2,3.5,0.4c4.5,0.7,11.4,2.6,15.2,7.1c0.3,0.3,0.5,0.7,0.7,1c2.1,3.1,2.7,7,1.9,12.1l-1.4,7h-51.4l3.6-17.1
				l2-9.3l5-23.4l4.4-20.7l4.7-22.2l4.4-20.7l6.1-28.8H1200h-16.6h-13.2L1124.8,286.3z M1350.9,410.6l-16.7,77.4
				c-1.1,5.5-1.1,8.8-1,10.4c0.2,4.5,0.4,7.7,10.4,7.7c3.3,0,6.1-0.9,7.6-2.6c2.2-2.3,4.8-5.9,7.9-19.7l13.6-63.8
				c0.2-1,0.6-3.9-0.2-4.9c-1.4-1.7-6.5-3.4-11.6-3.8L1350.9,410.6z M1233.6,411c-4,0.2-8.1,0.3-12.1,0.3l-1.4,6.5h29.6
				c0.1-1.1,0-2.2-0.5-2.7c-1.5-1.8-6.4-3.4-11.5-3.8L1233.6,411z M1297.5,486.7c-0.1,1.2-0.2,2.5-0.3,3.9
				C1297.2,489.2,1297.4,487.9,1297.5,486.7z"/>
			<path class="st4" d="M1388.7,231.4c21.8,9.1,28,19.4,27.1,28.8c2,0.9,4.2,1.8,6.6,2.6c1.2,0.3,2.3,0.4,3.3,0.4
				c6.3,0.2,7.5-4.2,7.7-6.1c1.3-10.6-16.3-17.3-17-17.5c-1.7-0.6-3.5-1.3-5.5-2C1402.8,234.8,1395.3,232.8,1388.7,231.4z
				 M1334.1,246.6c-11.9,0.3-21,3.9-21,3.9c17.3-3.4,31.2-0.7,40.3,5c7.8,4.9,11.9,11.9,11.3,19c-1.4,15-23.5,16.7-23.9,16.7
				c5.8,0.8,10.9,0.8,15.3,0.3c13.6-1.6,20.2-8.8,20-17.2c0-0.6-0.1-1.1-0.1-1.7c0-0.2-0.1-0.5-0.1-0.7c0-0.2,0-0.3-0.1-0.5
				c-0.7-3.2-2.3-6.5-4.9-9.7c-1.8-2.2-4.1-4.4-6.8-6.4C1354.2,248.2,1343.3,246.4,1334.1,246.6L1334.1,246.6z M1340.7,291.2
				L1340.7,291.2L1340.7,291.2L1340.7,291.2z M1451.3,275.6c-3.2,0-6.4,0.1-10,0.3c-0.9,0-1.7,0.1-2.6,0.1
				c4.4-0.1,48.7,0.2,61.9,32.6c7.5,18.3-12.2,8.7-40,5.2c0.6,0.1,1.2,0.2,1.7,0.3l0,0c0.1,0,0.1,0,0.2,0c0.2,0,0.5,0.1,0.7,0.1
				c6.9,1.2,11.9,2.7,16,4.3c6.7,2.2,12.3,4.7,17,7.3c3.5,1.9,6.5,3.8,9.1,5.7c8.6,6.2,11.9,11.3,11.9,11.3s0.4-12.2-3.6-24.9
				c-0.7-3-2.1-6.4-4.3-10.1c-0.7-1.2-1.3-2.3-2.1-3.4l0,0c-0.6-0.9-1.2-1.8-1.8-2.7c-14.1-19.7-29.7-21.9-37.7-24
				C1461.6,276.1,1456.6,275.6,1451.3,275.6L1451.3,275.6z M1260.1,313.1c-4.3,0-8.7,0.2-13.2,0.6c0.2,0,38.1-0.4,34.4,19.8
				c-1.5,8-8.5,11.5-17.9,11c4,1.3,8.1,2.6,12,4.2c32.6,12.7,33.2-15.8,25-24.7c-4.8-4.4-11.6-7.9-20.5-9.5
				C1274.1,313.4,1267.3,313,1260.1,313.1z M1474.1,333c0.2,1.8-0.5,3.7-1.4,5.2c-3.7,6-11.7,7.9-18.2,8.3c-2.4,0.2-4.9,0.1-7.7-0.4
				c2.3,0.5,5.1,1,8.2,1.4c6.3,0.8,11.4,0.2,18.6-0.8c4.5-0.6,9.6-2.5,13.5-4.4c1.5-0.8,2.9-1.6,4.2-2.6c-1-0.5-2-0.9-2.9-1.3
				c-1.5-0.6-2.8-1.2-4-1.7l0,0C1481.3,335.4,1477.8,334.1,1474.1,333L1474.1,333z"/>
			<path class="st5" d="M1137,301.5l-0.7,3.4c2,0.4,4,0.9,6.1,1.7c3.6,1.2,7.3,2.9,10.6,5.4c2.6,1.9,5,4.2,6.9,7.1
				c1.8,2.6,3,5.5,3.8,8.6c0.6,2.4,0.9,4.9,0.9,7.5c0,2.9-0.3,5.9-1,9l-0.9,4l-7.1,33.5l-3.4,16l-2,9.3l-14.1,66.8l-1.4,6.4h163.7
				l17.6-81.3l2.2-10.4l1.1-5h-7.8h-61.2h-2.5l-0.8,3.4c5.3,1.1,11.4,3.1,16.6,7c1.9,1.4,3.6,2.9,5.2,4.8c0.1,0.1,0.1,0.2,0.2,0.3
				c2.2,2.6,3.8,5.6,4.8,8.8c1.6,4.9,2,10.5,0.9,16.5v0.2l-3.8,19.1h-11.1h-71.4h-11.1l1.4-6.4l5.7-26.9l2-9.2l4.1-19.2l0.1-0.6
				l6.7-31.6l0.1-0.6l3.4-16l2.9-13.7l3.8-17.9h-7.8h-44h-16.2H1137z M1370.9,383.4l-0.8,3.4c5.3,1.1,11.5,3.2,16.7,7.1
				c1.9,1.4,3.7,3,5.3,5c5.7,6.9,7.6,16,5.6,26.3l-13.7,64.3c-3.6,16-7.5,24.6-14.3,31.7c-6.5,6.8-15.8,10.6-26.3,10.6
				c-2.1,0-4-0.1-5.9-0.4c-1.7,0.2-3.4,0.4-5.2,0.4c-13.5,0-23.8-4.7-29.9-13.1c-1.7-2.3-3-4.9-4-7.8v0.1c0,0-1.4-0.3-4-0.4
				l-7.4-0.3c-0.3,0-0.7,0-1.3,0c-0.4,0-1,0-1.6,0c-1,0-2.1,0.1-3.3,0.2c-6,0.8-13.1,3.4-15.8,7c-3.8,5-1.2,13,0.6,17.3
				c1.9,4.4,4.4,8.5,7.5,12.2c7,8.4,16.9,14.7,28.6,17.9c10.3,2.9,21,4.6,30.7,5.1c26.3-0.9,45-8,58.3-22
				c11.5-12.1,19.6-29.3,24.6-52.5l24.3-112.1h-7.7h-58.4L1370.9,383.4z"/>
			<path class="st2" d="M1330.4,226.5c-5,0-16.8,0.4-32,2.7c-2.1,0.3-4.3,0.7-6.5,1.1c-1,0.2-2.1,0.4-3.1,0.6
				c-3.1,0.6-6.4,1.3-9.7,2.1c-5.6,1.1-11.4,2.7-17.2,4.5c-7,2.2-14.2,4.9-21.3,8.2c-1.6,0.7-3.2,1.5-4.7,2.2
				c-3.9,1.9-7.8,4-11.6,6.3l0,0c2.7-0.6,43.8-12.4,78.3-13.1c-11.1,3.7-25.1,11-37.8,26.8c63.8-22.9,81.8,2.6,86.1,10.9
				c0,0-29.7-21.2-55.6-6.3c-1.2,0.7-4.9,3.5-5.7,4.9c-8.4,13.1,2.3,27.9,17.8,32s55.6-2,55.6-2c8-1,15.8-2.8,23-5.2
				c4.6-1.5,8.9-3.2,12.8-5.1c2-1,4-2,5.8-3.1c0.5-0.3,0.9-0.5,1.4-0.8c0.5-0.3,1-0.7,1.5-1c2.2-1.4,4.2-2.9,5.9-4.4
				c0.7-0.7,1.4-1.3,2.1-2c0.9-1,1.8-2,2.5-3c-1.1,0.1-2.2,0.2-3.5,0.3h-0.5c-0.6,0-1.1,0.1-1.8,0.1c-1.8-0.1-3.5-0.2-5.2-0.4
				c-1.2-0.2-2.5-0.4-3.7-0.7c-4,2.8-7.6,5.5-11.5,7.8c-0.1,0-0.2,0.1-0.2,0.1c-4.2,2.4-8.7,4.3-14.6,5.6
				c-49.7,10.7-70.4-18.3-70.4-18.3c11,8.7,23.3,13,34,13.8c0.3,0,22.5-1.7,23.9-16.7c0.6-7-3.4-14.1-11.3-19
				c-9-5.6-22.9-8.4-40.3-5c-3.9,0.9-7,1.9-8.6,2.5c-0.4,0.1-0.7,0.2-0.9,0.3c-0.2,0.1-0.4,0.2-0.4,0.2c8.5-6.7,22-14.1,41.9-14.1
				c0.5,0,0.9,0,1.4,0c1.4,0,2.7,0,4,0c32.9,1.8,45,9.1,55.7,15.5c3.2,1.9,6.3,3.8,9.8,5.4c0.9-9.4-5.3-19.7-27.1-28.8
				c-15.6-3.2-25.8-3.6-26-3.6h-0.1h-0.1c-10.1-1-20.1-1.5-29.7-1.4C1332.9,226.5,1332,226.4,1330.4,226.5z M1399.1,257.5
				c-0.2,0-0.5,0.2-0.8,0.4c-0.2,0.2-0.5,0.4-0.7,0.6c-0.1,0.1-0.1,0.1-0.2,0.2c-0.1,0.1-0.1,0.1-0.2,0.2s-0.1,0.1-0.1,0.2
				c-0.5,0.6-0.8,1.3-1.1,2.1c0,0.1-0.1,0.1-0.1,0.2s-0.1,0.2-0.1,0.2v0.1c-0.1,0.3-0.1,0.6-0.2,0.9v0.1c0,0.3-0.1,0.6-0.1,0.9l0,0
				c0,1.6,0.4,3.1,1.1,4.4l0.1,0.2c0.9,1.8,2.5,3.6,4.9,5.3c0.3,0.2,0.5,0.4,0.8,0.5c1.1,0.7,2.2,1.2,3.2,1.5
				c2.5,0.7,4.4,0.1,5.8-1.1c-6-0.3-10.6-7.8-6.3-13.1c-2.1-1.1-4.2-2.3-5.8-3.7C1399.2,257.5,1399.2,257.5,1399.1,257.5
				L1399.1,257.5z M1438.6,276c-0.3,0-0.4,0-0.4,0c-2.6,3.5-12.5,14.2-27.5,23.3c-6.8,4.2-14.7,8-23.4,10.7
				c-6.1,1.9-12.6,3.3-19.5,3.8c-1.6,0.3-3.2,0.6-4.8,0.8c-4.1,0.7-7.8,1.3-11,2.1c-8.9,2.3-14,6.1-12,17
				c2.1,11.3,10.3,13,19.7,11.1c5.9-1.2,12.3-3.9,17.9-6.7c0.9-0.4,1.9-0.9,2.9-1.4c3.6-2,7.5-4.6,10.4-6.3
				c16.1-9.9,40.9-20.6,68.8-16.7c0.2,0,0.7,0.1,0.7,0.1c27.8,3.5,47.5,13.1,40-5.2C1487.3,276.2,1443,275.8,1438.6,276L1438.6,276z
				 M1460.2,282c9.2-0.2,3,3.9,3,3.9s-12.7,8.8-13,4.8C1449.9,286.8,1451,282.2,1460.2,282z M1207.5,301.5l-3.8,17.9l-2.9,13.7
				l-3.4,16l-0.1,0.6l-6.7,31.6l-0.1,0.6l-4.1,19.2l-2,9.2l-5.7,26.9l-1.4,6.4h11.1l1.3-6.4l5.6-26.3l2-9.2l4.4-20.5l0.8-3.7
				l4.4-20.7l1.2-5.6l3.7-17.4l3.5-16.4l3.4-15.9h-7.8C1210.9,301.5,1207.5,301.5,1207.5,301.5z M1442.1,328.1
				c-5.6,0-11.3,0.4-16.8,1.3c-2,0.3-3.9,0.7-5.9,1.1c-2.7,0.8-6,2-9.6,4.2c3.4,0.9,7.9,2.4,13.1,4.3c2.8,1,5.7,2,8.7,3s6,2,9.1,2.9
				c1.1,0.3,3.2,0.9,6.1,1.5c2.8,0.4,5.3,0.5,7.7,0.4c6.5-0.5,14.4-2.3,18.2-8.3c0.9-1.5,1.6-3.4,1.4-5.2c-1.2-0.4-2.5-0.8-3.7-1.1
				C1461,329.3,1451.5,328.1,1442.1,328.1z M1319.3,383.4l-1.1,5l-2.2,10.4l-17.6,81.3c0,0-0.4,2-0.8,5.1c-0.1,0.4-0.1,0.9-0.1,1.4
				c0.1-0.5,0.1-0.9,0.1-1.4c0.3-2.7,0.7-4.7,0.8-5.1l-0.5,2.4c-1.3,6.5-1.8,12.2-1.5,17c0.2,4,0.9,7.6,2.1,11c0,0.1,0,0.2,0.1,0.3
				c1,2.8,2.4,5.5,4,7.8c6.1,8.4,16.4,13.1,29.9,13.1c1.8,0,3.5-0.1,5.2-0.4c-10.6-1.2-18.8-5.6-23.9-12.8c-3.6-5-5.8-11.4-6.2-18.9
				c-0.3-4.8,0.2-10.6,1.5-17L1328,395l2.3-10.6l0.2-1.1h-7.8h-3.4V383.4z M1439.7,383.6l-24.3,111.6c-5.1,23.2-13.1,40.3-24.6,52.3
				c-13.3,13.9-31.9,21-58.3,21.9c1.6,0.1,3.2,0.1,4.8,0.1c29.7,0,50.3-7,64.7-22c11.5-12.1,19.6-29.2,24.6-52.3l24.3-111.6h-7.8
				L1439.7,383.6z M1297.1,490.7c-0.1,2.1-0.2,4.3-0.2,6.7C1296.9,495,1297,492.8,1297.1,490.7z"/>
		</g>
	</g>
	<g>
		<g>
			<path class="st2" d="M692.6,546.4v-24.5l39.4-56.2h31.6V521h9.5v25.4h-9.5v14.5H734v-14.5H692.6z M736.4,499.2L722.1,521h14.3
				V499.2z"/>
			<path class="st2" d="M856.1,490h-38.4v11.1c1.7-1.5,3.9-2.7,6.5-3.6c2.7-0.9,5.7-1.3,9.1-1.3c6,0,11.1,1.4,15.2,4.2
				c4.1,2.8,7.2,6.6,9.3,11.3c2,4.7,3,9.9,3,15.7c0,10.6-3,18.8-8.9,24.7c-6,5.9-14.1,8.8-24.5,8.8c-7.6,0-14.1-1.3-19.6-4
				c-5.5-2.6-9.7-6.3-12.6-11c-2.9-4.7-4.2-10-4-16h28.6c0,1.4,0.5,2.7,1.5,4c1,1.2,2.6,1.9,4.8,1.9c2.2,0,3.8-0.8,4.9-2.4
				c1.1-1.6,1.6-3.7,1.6-6.5c0-2.6-0.6-4.5-1.8-5.8c-1.2-1.3-2.9-2-5.1-2c-1.9,0-3.3,0.4-4.2,1.3c-1,0.9-1.5,1.9-1.5,3h-28.6v-59.2
				h64.8V490z"/>
		</g>
		<g>
			<path class="st2" d="M1075.9,475.2c6.5-8.7,16.5-13.1,30-13.1c13.4,0,23.4,4.4,29.9,13.2c6.5,8.8,9.8,20.7,9.8,35.9
				c0,15.3-3.3,27.3-9.8,36c-6.5,8.8-16.5,13.2-29.9,13.2c-13.5,0-23.5-4.4-30-13.2c-6.5-8.8-9.7-20.8-9.7-36
				C1066.2,496,1069.4,484,1075.9,475.2z M1114.4,495.3c-1.4-3.6-4.3-5.4-8.6-5.4c-4.4,0-7.3,1.8-8.7,5.4c-1.4,3.6-2.1,8.9-2.1,15.9
				c0,7.1,0.7,12.5,2.1,16.1c1.4,3.6,4.3,5.4,8.7,5.4c4.3,0,7.2-1.8,8.6-5.4c1.4-3.6,2.1-8.9,2.1-16.1
				C1116.6,504.2,1115.9,498.8,1114.4,495.3z"/>
			<path class="st2" d="M1195.4,487.8c-1-1.2-2.6-1.9-4.7-1.9c-3.4,0-5.6,1.7-6.7,5.1c-1.1,3.4-1.7,8.7-1.7,15.8
				c1.6-2.5,3.9-4.4,6.9-5.8c3-1.4,6.4-2.1,10.2-2.1c8.5,0,15.2,2.6,20.3,7.8c5.1,5.2,7.6,12.7,7.6,22.6c0,6.6-1.4,12.4-4.2,17.3
				c-2.8,4.9-6.7,8.7-11.8,11.3c-5.1,2.6-11.2,4-18.1,4c-13.8,0-23.5-4.3-28.8-12.8c-5.4-8.5-8.1-20.4-8.1-35.8
				c0-12,1.2-21.7,3.7-29.1c2.5-7.4,6.4-12.9,11.7-16.4c5.3-3.5,12.3-5.3,20.8-5.3c10.5,0,18.4,3,23.7,9c5.3,6,8.3,13.4,8.8,22.1
				h-27.4C1197.2,491,1196.5,489,1195.4,487.8z M1186.5,523.4c-1.4,1.3-2.1,3.2-2.1,5.6c0,2.6,0.7,4.6,2,5.9
				c1.4,1.3,3.3,1.9,5.8,1.9c2.5,0,4.4-0.6,5.8-1.9c1.4-1.3,2-3.2,2-5.9c0-2.4-0.7-4.2-2.1-5.6c-1.4-1.3-3.3-2-5.7-2
				C1189.8,521.4,1187.9,522.1,1186.5,523.4z"/>
		</g>
	</g>
	<line class="st6" x1="814.2" y1="657.8" x2="1105.8" y2="366.2"/>
	<line class="st6" x1="1105.8" y1="657.8" x2="814.2" y2="366.2"/>
	<g>
		<path class="st0" d="M929.7,377.4c0.4-0.3,0.6-0.6,0.7-0.8c0.1-0.2,0.1-0.5,0.1-0.6c0-0.6-0.5-0.9-1-0.9c-0.7,0-1.5,0.7-2.1,1.5
			c-0.2,0.3-0.3,0.6-0.5,0.8c-0.1,0.3-0.2,0.6-0.3,0.8c0,0.1,0,0.1,0,0.2c0.4-0.1,0.8-0.1,1.1-0.2
			C928.6,378,929.2,377.7,929.7,377.4z"/>
		<path class="st0" d="M963,399.9l0.1-2l-0.9-1.6l-1.5-0.7l-1.6-0.1l-1.6,0.8l-1.6,2.5l0.5,2.5l1,0.7l0.5,0.4h0.6h1.8l1.7-1
			L963,399.9z M961,401.6l-1.3,0.6c0,0-0.1,0-1.7-0.2c-0.5-0.2-1.1-0.8-1.1-0.8l-0.5-0.9l0.1-1.8l1.4-1.9l1.6-0.7h1.7l1.5,1.3l0.2,2
			l-0.9,1.8L961,401.6z"/>
		<polygon class="st0" points="959.8,397.7 958.7,398.3 958.1,399.2 958.6,400.3 959.5,400.4 960.4,399.8 960.7,399 960.5,398.1 		
			"/>
		<path class="st0" d="M976.4,370.1c-0.4,0-1.1-0.2-1.4,1.3c-0.3,1.5-0.9,2.8,0.1,2.9c1,0.1,1.2,0.1,1.2,0.1c0.8,0,3.4,0.2,3.5-2.4
			C979.7,371.4,979.5,370.1,976.4,370.1z"/>
		<path class="st0" d="M954,380.9c1.2,0,1.9-1.2,2.4-2.7c0.1-0.3,0.2-0.6,0.3-0.8c0.1-0.3,0.1-0.6,0.2-0.8c0.2-0.9,0.3-1.7,0.4-2.3
			c-0.2-0.3-1.2-0.6-1.7-0.6c-1.5,0-2.3,1.5-2.7,3c-0.1,0.3-0.2,0.6-0.2,0.8c-0.1,0.3-0.1,0.6-0.1,0.8c0,0.2,0,0.3,0,0.5
			C952.5,380.9,953.5,380.9,954,380.9z"/>
		<path class="st0" d="M990,374.9c-1,0-1.7,0.7-2.2,1.7c-0.1,0.3-0.2,0.5-0.3,0.8c-0.1,0.3-0.2,0.6-0.2,0.8c-0.2,0.7-0.3,1.3-0.3,2
			c0,0.3-0.2,1.9,1.7,1.9c0.7,0,2.3,0.1,2.9-3.9c0,0,0,0,0-0.1c0-0.3,0.1-0.5,0.1-0.8c0-0.3,0-0.6,0-0.8
			C991.7,375.6,991.3,374.9,990,374.9z"/>
		<path class="st0" d="M978,376.6c-0.4-0.3-1.1-0.5-2-0.4c-1.5,0-1.9-0.1-1.9-0.1c0,0.2-0.1,0.4-0.1,0.6c0,0.3-0.1,0.6-0.1,0.8
			c-0.1,0.3-0.1,0.6-0.1,0.8c-0.2,1.1-0.3,1.8-0.3,1.8c-0.1,0.5-0.3,1.2,1.8,1.2c2,0,3.6-0.9,3.6-3c0,0,0,0,0-0.1
			c0-0.2,0-0.5-0.1-0.8C978.6,377.1,978.4,376.8,978,376.6z"/>
		<g>
			<path class="st7" d="M940.9,378.3c-0.4-0.3-1-0.6-1.7-0.8c-0.1,0-0.1-0.1-0.2-0.1c-0.8-0.3-1.3-0.5-1.6-0.8
				c-0.6-0.4-0.7-0.8-0.7-1.2c0-0.7,0.8-1,1.6-1c0.8,0,2.3,0.5,3,2.3c0,0.1,0,0.1,0.1,0.2l0.8-0.1l0-0.1l-0.3-3.9
				c-0.6,0.1-0.8,0.1-0.8,0.1l-0.4,0.6c-0.1,0-0.3,0-0.3,0c-0.6-0.4-1.5-0.7-2.4-0.7s-4.1,1-4.1,3.6c0,0.1,0,0.1,0,0.2
				c0,0.3,0.1,0.6,0.2,0.8c0.1,0.3,0.3,0.6,0.6,0.8c0.7,0.7,1.7,1.2,2.9,1.6c0.7,0.3,2,0.9,2,2c0,0.4-0.3,2.5-3.3,2.5
				c-0.8,0-2.4-0.4-2.4-1.6c0-0.3,0.2-1,0.6-1c0.3,0.3,0.7,0.9,1.6,0.9s1.3-0.8,1.3-1.3c0-0.6-0.3-1.6-1.9-1.6
				c-0.6,0-1.9,0.2-2.7,1.1c-0.1-0.1-0.3-0.3-0.5-0.5c-0.7,0.7-2.5,2.3-4.3,2.3c-1.8,0-1.7-1.6-1.7-2.6c3.2-0.4,5-1.1,6.1-1.9
				c0.4-0.3,0.7-0.6,0.9-0.8c0.2-0.3,0.4-0.6,0.5-0.8c0.1-0.4,0.1-0.7,0.1-0.9c0-2.6-2.6-2.4-3.2-2.4c-3.1,0-5.3,1.6-6.5,3.3
				c-0.2,0.3-0.4,0.6-0.5,0.8c-0.2,0.3-0.3,0.6-0.4,0.8c-0.4,0.8-0.5,1.6-0.5,2.1c0,0.9,0.1,1.6,0.4,2.3c0.1,0.1,0.1,0.3,0.2,0.4
				c-0.5,0.1-1,0.1-1.2-0.1c-0.1-0.1-0.2-0.3-0.2-0.6c0-0.5,0.2-2.4,0.4-4.1c0-0.3,0.1-0.6,0.1-0.8c0-0.3,0.1-0.6,0.1-0.8
				c0.2-1.3,0.3-2.4,0.3-2.4c-0.8,0-2.2,0.4-2.9,0.8l-1.2-4.1c0,0-1.6,0.3-3.7,0.6c-0.7,0.1-1.4,0.2-2.2,0.4
				c-0.6,0.1-1.3,0.2-1.9,0.3c-0.7,0.1-1.5,0.2-2.2,0.4c-0.6,0.1-1.2,0.2-1.7,0.3c-1.9,0.4-3.2,1.3-4,2.3c-0.2,0.2-0.3,0.5-0.5,0.7
				c-0.2,0.3-0.3,0.5-0.4,0.8c-0.3,0.7-0.4,1.3-0.4,1.8c0,1.5,0.6,2.8,2.3,2.8c2.1,0,2.9-2,2.9-2.7c0-0.1,0-0.1,0-0.2
				c0-0.4-0.2-0.7-0.4-0.8c-0.4-0.3-1.1-0.2-1.6-0.1c-0.2,0.1-0.5,0.2-0.6,0.2c0-0.1,0-0.3,0-0.4c0-0.3,0.1-0.6,0.2-0.8
				c0.6-1.4,2.1-1.5,2.7-1.6c0.6-0.1,1.2,0.2,1,1.2c0,0,0,0.2-0.1,0.5c0,0.2-0.1,0.5-0.1,0.8c0,0.3-0.1,0.5-0.1,0.8
				c-0.2,2.2-0.5,5.3-0.6,6.1c-0.2,1.3-1.1,2-2.1,2c0,0,0,0.4-0.1,1.8c1.4-0.2,7.3-1.2,7.3-1.2v-1.6v-0.3c0,0-0.1,0-0.1,0
				c-1.1,0.1-1.5-0.2-1.5-0.8c0,0,0.1-0.7,0.2-1.7c0.1-0.7,0.2-1.5,0.2-2.3c0.4-0.1,0.8-0.2,1.1-0.3c0.1,0,0.2,0,0.2,0
				c1,0,1,1.7,1,2.4c0,0,0.9-0.1,1.5-0.2c0-0.3,0.1-1.3,0.2-2.4c0.1-0.5,0.1-1.1,0.2-1.6c0-0.3,0.1-0.6,0.1-0.8
				c0-0.3,0.1-0.6,0.1-0.8c0.1-0.8,0.2-1.4,0.2-1.4s-0.8,0.1-1.5,0.2c0,0-0.1,0.4-0.3,1.1c0,0,0,0,0,0c0,0.1,0,0.2-0.1,0.3
				c-0.1,0.2-0.2,0.4-0.3,0.6c-0.3,0.5-0.9,0.6-1.2,0.7c-0.2,0.1-0.3,0.1-0.5,0.1c0,0-0.1,0-0.1,0c-0.1,0-0.2,0-0.3,0.1
				c0,0,0-0.1,0-0.1c0-0.3,0.1-0.5,0.1-0.8l0-0.1c0-0.3,0.1-0.6,0.1-0.8c0-0.4,0.1-0.8,0.1-1.1c0.1-1.2,0.6-1.7,1.4-1.9
				c0.3-0.1,0.7-0.1,1.1-0.1c0.4,0,0.8,0,1.2,0.1c1.1,0.3,1.8,1,2.5,1.9c-0.3,0-0.4,0-0.4,0l-0.1,1l-0.1,0.8l0,0.1
				c0.5,0,1.6-0.1,1.6,0.7c0,0,0,0,0,0c0,0.4-0.2,1.8-0.3,3.1c-0.2,1.3-0.3,2.5-0.4,2.8c0,0.1,0,0.1,0,0.1c0,0.4,0.7,1.5,2.6,1.5
				c0.2,0,0.4,0,0.6-0.1c0.9-0.2,2-0.7,2.9-1.6c0.4,0.2,0.8,0.4,1.2,0.6c0.5,0.2,1.1,0.2,1.8,0.2c2.2,0,3.7-1,4.8-2
				c0.1,1,0.6,2.9,4.3,2.9c4.1,0,6-2.6,6-4.7C942.3,379.8,941.8,378.9,940.9,378.3z M926.6,378.3c0.1-0.3,0.2-0.5,0.3-0.8
				c0.1-0.3,0.3-0.6,0.5-0.8c0.6-0.8,1.3-1.5,2.1-1.5c0.5,0,1,0.3,1,0.9c0,0.2,0,0.4-0.1,0.6c-0.1,0.3-0.3,0.6-0.7,0.8
				c-0.4,0.3-1,0.6-2,0.8c-0.3,0.1-0.7,0.2-1.1,0.2C926.5,378.4,926.6,378.3,926.6,378.3z"/>
			<path class="st7" d="M960.6,380.7c-0.3,0-0.8-0.3-0.8-0.8c0-0.2,0.1-0.8,0.2-1.6c0-0.3,0.1-0.5,0.1-0.8c0-0.3,0.1-0.6,0.1-0.8
				c0.4-2.2,0.9-4.7,0.9-4.7l-3.1,0l-0.2,0.6c-0.5-0.3-1.4-0.8-2.8-0.8c-1.4,0-4.6,0.8-5.9,4.7c0,0.1,0,0.1-0.1,0.2
				c-0.1,0.2-0.1,0.5-0.2,0.8c0,0.3-0.1,0.5-0.1,0.8c0,0.5,0,1.1,0.1,1.6c-0.6,0.6-1.3,1.1-1.9,1.1c-0.8,0-0.8-0.7-0.7-1.6
				c0-0.2,0.1-0.6,0.1-1.1c0-0.3,0.1-0.5,0.1-0.8c0-0.3,0.1-0.5,0.1-0.8c0.1-0.8,0.2-1.6,0.4-2.5l2.8,0l0.4-2.1h-2.9
				c0.3-1.8,0.5-3.2,0.5-3.2l-1.9,0.1c-0.2,0.7-0.8,2.8-3.5,4c-0.1,0.8-0.2,1.5-0.2,1.5h1.3c0,0-0.1,1-0.3,2.2
				c0,0.3-0.1,0.6-0.1,0.8c0,0.3-0.1,0.6-0.1,0.8c-0.2,1.4-0.3,2.8-0.4,3.2c-0.1,0.9,0.5,2.1,2.7,2.1c1.7,0,3.4-0.8,4.4-1.9
				c0.6,0.8,1.6,1.4,3.3,1.5c1,0,2.4-0.3,3.5-1.7c0.2,0.7,0.7,1.6,2.6,1.6c1,0,2.5-0.4,3.5-1.8c-0.5-0.7-0.9-1.1-0.9-1.1
				C961.3,380.4,960.9,380.7,960.6,380.7z M956.9,376.6c-0.1,0.3-0.1,0.6-0.2,0.8c-0.1,0.3-0.2,0.6-0.3,0.8
				c-0.5,1.5-1.3,2.7-2.4,2.7c-0.5,0-1.4,0-1.4-2.2c0-0.1,0-0.3,0-0.5c0-0.2,0.1-0.5,0.1-0.8c0.1-0.3,0.1-0.6,0.2-0.8
				c0.4-1.5,1.3-3,2.7-3c0.5,0,1.5,0.3,1.7,0.6C957.2,374.8,957.1,375.7,956.9,376.6z"/>
			<path class="st7" d="M982.7,377.4c-0.1-0.3-0.3-0.6-0.5-0.8c-0.6-0.7-1.4-1.1-1.9-1.2c2.8-0.8,3.2-2.6,3.2-3.6
				c0.1-2.8-3-3.2-4.7-3.3c-1.7,0-7.5-0.4-8.5-0.4c-5.7,0-6,3.8-6,4.4c0,1.5,0.9,2.7,2.7,2.7c1.8,0,2.4-1.3,2.4-2.1
				c0-1.5-1-1.5-1.3-1.5s-0.6,0.2-0.8,0.2s-0.3-0.2-0.3-0.3c0-0.8,1.3-1.3,2.9-1.3c1.6,0,1.6,0.6,1.5,1c0,0-0.5,3.1-0.9,5.5
				c-0.1,0.3-0.1,0.6-0.1,0.8c-0.1,0.3-0.1,0.6-0.2,0.8c-0.1,0.3-0.1,0.6-0.2,0.8c-0.4,1.8-1.3,2-2.1,2c0,0-0.1,0.6-0.3,1.8
				c0.5,0,6.6,0.2,10.3,0.3c3.7-0.2,5-3.1,5-4.8c0,0,0-0.1,0-0.1C982.9,377.9,982.8,377.7,982.7,377.4z M978.8,378.3
				c0,2-1.6,3-3.6,3c-2,0-1.8-0.7-1.8-1.2c0,0,0.1-0.7,0.3-1.8c0-0.3,0.1-0.5,0.1-0.8c0-0.3,0.1-0.5,0.1-0.8c0-0.2,0.1-0.4,0.1-0.6
				c0,0,0.3,0.1,1.9,0.1c1,0,1.6,0.2,2,0.4c0.4,0.2,0.6,0.5,0.7,0.8C978.8,377.7,978.8,378,978.8,378.3
				C978.8,378.2,978.8,378.2,978.8,378.3z M976.2,374.3c0,0-0.2,0-1.2-0.1c-1-0.1-0.3-1.4-0.1-2.9c0.3-1.5,1-1.3,1.4-1.3
				c3.2,0,3.3,1.3,3.3,1.8C979.6,374.5,977,374.3,976.2,374.3z"/>
			<path class="st7" d="M1012.6,378.3c0-0.3-0.1-0.6-0.1-0.8c0-0.2-0.1-0.3-0.1-0.5c0,0,0-0.1,0-0.1c0-0.1-0.1-0.2-0.1-0.3
				c-0.2-0.4-0.6-0.8-1-1c-0.8-0.3-1.7-0.2-2.3,0.5c-0.1,0.2-0.2,0.3-0.3,0.5c-0.1,0.3-0.1,0.6-0.1,0.8c0.1,0.3,0.2,0.6,0.3,0.8
				c0.1,0.2,0.2,0.3,0.3,0.4c0.1,0.2,0.3,0.3,0.4,0.6c0,0.1,0.1,0.1,0.1,0.2c0.1,0.2,0.2,0.5,0.2,0.9c0,1.8-1.3,3.4-2.5,3.5
				c0,0-0.1,0-0.1,0c-1.3,0-1.7-0.8-1.6-1c0,0,0.1-0.3,0.2-0.7c0.2-0.7,0.5-2,0.7-3.3c0-0.2,0.1-0.4,0.1-0.7
				c0.1-0.3,0.1-0.6,0.2-0.8c0.1-0.3,0.1-0.6,0.2-0.8c0.1-0.7,0.3-1.2,0.3-1.4c-0.4,0.1-2.1-0.2-3.3-0.4c0,0-0.2,0.8-0.4,1.8
				c-0.1,0.3-0.1,0.5-0.2,0.8c-0.1,0.3-0.1,0.6-0.2,0.8c0,0.1,0,0.2-0.1,0.3c-0.4,1.8-0.9,3.7-1,4.2c-0.2,0.3-0.9,0.5-1.2,0.5
				c-1.2,0-2.1-0.7-1.9-1.4c0.1-0.3,0.4-1.9,0.8-3.5c0,0,0,0,0,0c0.1-0.3,0.1-0.6,0.2-0.8c0.1-0.3,0.1-0.6,0.2-0.8
				c0.2-1,0.4-1.9,0.5-2.3c0,0-0.6-0.1-1.6-0.2c-1.2,0.6-2.8,0.7-3.9,0.7l-0.3,0.8c-1-2.1-3.6-2.7-5.2-2.7c-1.9,0-3.6,0.8-4.2,1.4
				c-0.8,0.7-1.4,1.6-1.7,2.4c-0.1,0.3-0.2,0.6-0.3,0.8c-0.1,0.3-0.1,0.6-0.2,0.8c-0.3,1.9,0.4,3.8,1.6,4.8
				c2.1,1.8,8.9,2.2,10.3-3.4c0.1-0.5,0.2-0.9,0.2-1.4c0-0.3,0-0.6,0-0.8c0-0.3,0-0.6-0.1-0.8c0-0.1,0-0.2-0.1-0.3
				c0.1,0,0.3,0,0.4,0.1c0.2,0,0.4,0.1,0.6,0.3c0.2,0.2,0.3,0.4,0.3,0.5c0,0,0,0.1-0.1,0.3c0,0.2-0.1,0.5-0.2,0.8
				c-0.2,1-0.5,2.5-0.8,3.7c-0.5,1.8,0.3,2.4,1.9,3.1c0.3,0.1,0.6,0.2,0.9,0.3c1.5,0.3,3.1-0.1,3.7-0.5c0.7-0.4,0.6,0,1.2,0.5
				c0.1,0.1,0.2,0.2,0.4,0.3c0.7,0.4,1.5,0.6,2.4,0.6c0.7,0,1.4,0,1.9-0.2c0.2,0,0.3-0.1,0.4-0.2c1.3-0.7,2.2-1.6,2.9-2.5
				C1012.5,381.6,1012.7,379.6,1012.6,378.3z M991.7,377.4c0,0.3-0.1,0.5-0.1,0.8c0,0,0,0,0,0.1c-0.7,4-2.3,3.9-2.9,3.9
				c-1.9,0-1.7-1.7-1.7-1.9c0.1-0.6,0.2-1.3,0.3-2c0.1-0.3,0.1-0.6,0.2-0.8c0.1-0.3,0.2-0.6,0.3-0.8c0.5-1,1.2-1.7,2.2-1.7
				c1.3,0,1.7,0.8,1.7,1.7C991.7,376.8,991.7,377.1,991.7,377.4z"/>
			<path class="st7" d="M1016.6,385.6c-0.6,0-1-0.4-0.9-0.9c0,0,0.8-3.3,1.5-6.4c0.1-0.3,0.1-0.6,0.2-0.8c0.1-0.3,0.1-0.6,0.2-0.8
				c0.5-2.2,1-4,1-4.2c0-0.1-0.8-0.2-1.2-0.2c-0.2,0-0.7,0-1.4,0c-0.8,0-1.6,0-2.3,0.1c-0.1,0-0.3,0-0.4,0l-0.3,1.5
				c0,0,0.1,0,0.3,0.1c0.1,0.1,0.3,0.2,0.6,0.3c0.6,0.3,0.5,0.7,0.3,1.5c0,0-0.1,0.3-0.2,0.9c-0.1,0.2-0.1,0.5-0.2,0.8
				c-0.1,0.3-0.1,0.5-0.2,0.8c-0.2,1-0.5,2.2-0.8,3.3c-0.4,1.9-0.8,3.6-0.8,4c0,1.4,2.1,2.1,3.5,2.1s2.2-0.4,2.7-1
				c0,0-0.5-1.1-0.7-1.5C1017.4,385.4,1016.8,385.6,1016.6,385.6z"/>
			<path class="st7" d="M922.1,372.7c1-0.8,1.4-2.2,0.8-3s-1.9-0.9-2.9,0c-1,0.8-1.4,2.2-0.8,3C919.7,373.6,921,373.6,922.1,372.7z"
				/>
		</g>
		<polygon class="st8" points="954.5,395.3 950,390.8 949.7,391.1 950,391.6 950.5,391.8 954.2,395.5 		"/>
		<path class="st8" d="M958.8,392.9l0.2,0c-0.2-1.8-0.2-4.3-0.2-4.3l0.1-1l-0.6-0.3l-0.1,0.6l0.2,0.5
			C958.6,390,958.7,391.8,958.8,392.9z"/>
		<path class="st8" d="M972.1,396.2l-0.6-0.2l-0.4,0.4c-0.6,0.3-3.3,0.9-5.1,1.2c0,0.1,0.1,0.3,0.1,0.4c0.7-0.2,1.5-0.4,1.9-0.5
			c1-0.3,4.1-0.8,4.1-0.8V396.2z"/>
		<path class="st8" d="M968.3,406.5c0.2,0.2,0.3,0.2,0.3,0.2l0.5-0.2l-0.1-0.3l-0.1-0.4l-0.7-0.2c0,0-0.3-0.2-1.2-1.1
			c-0.1-0.1-0.3-0.2-0.4-0.4c-0.3-0.2-0.5-0.5-0.8-0.7c-0.3-0.3-0.6-0.5-0.9-0.8c-0.1,0.1-0.2,0.2-0.3,0.3c0.2,0.2,0.5,0.4,0.8,0.6
			c0.4,0.4,0.9,0.7,1.3,1.1c0.5,0.5,1.1,0.9,1.5,1.2C968.1,406.2,968.2,406.4,968.3,406.5z"/>
		<path class="st8" d="M952.6,408.1c0.3-0.2,0.6-0.5,1-0.9c0.6-0.6,1.2-1.2,1.7-1.8c0.1-0.1,0.2-0.3,0.4-0.4c0,0,0-0.1,0.1-0.1
			c-0.1,0-0.1-0.1-0.2-0.1l-0.1-0.1c-0.2,0.2-0.4,0.4-0.6,0.6c-0.6,0.6-1.2,1.3-1.7,1.8c-0.5,0.5-0.9,0.9-0.9,0.9l-0.3,0.1l-0.5,0.5
			v0.5l0.7-0.1L952.6,408.1z"/>
		<path class="st9" d="M965.1,392.9l-0.7,0.7l2-0.7l0,0h0h2h0l0,0l1.5,0.3c0.5-1.1,0.6-2.2,0.6-2.2c-1.1,1-3.1,1.1-3.1,1.1
			L965.1,392.9z"/>
		<path class="st8" d="M968.4,393h-2l-2.3,0.8l-0.2,0.1l0.1,0.1c0.2,0.3,0.6,0.6,1,1.1c0.2,0.3,0.4,0.7,0.7,1.4
			c0.1,0.1,0.1,0.3,0.2,0.4l1.7-0.2l2.6-1.5l1.1-1.5l-1.3-0.3L968.4,393z"/>
		<path class="st9" d="M970.2,399.9c0,0-0.1-0.1-0.7-0.4c-0.1-0.1-0.2-0.1-0.3-0.2c-0.8-0.5-2.1-1-2.1-1l-0.9-0.1l0.8,0.2l0.1,0
			l0,0.1l1.1,1.5l0.3,0.4l0,0l0,0l0.3,1.5c1.1-0.8,2.2-1.8,2.2-1.8L970.2,399.9z"/>
		<path class="st10" d="M970,403.4v-1l-0.3,0.4H969l-0.1-0.5l0-0.2l-0.4-1.6l-0.3-0.4l-1.1-1.5l-0.9-0.2c0,0,0,0.1,0,0.1v1.5l-0.5,1
			l-0.6,1.2l-0.2,0.3l0,0l1.4,0.6l0.1,0.1l1,0.8l0.5,0.1l0.9,0.2l1.1-0.8V403.4z"/>
		<path class="st9" d="M967,407l-0.2-0.2l-0.6-1.3l-0.5-0.5l-1.1-1.2l-0.4-0.5l0.2,0.5l0.3,0.7l0,0l0,0c0,0.2,0,0.4-0.1,0.7
			c0,0.5-0.1,0.9-0.1,1c0,0.1,0.1,0.8,0.2,1.3c0,0,0,0.1,0,0.1l0,0c2.1,0.2,2.7-0.3,2.7-0.3L967,407z"/>
		<path class="st8" d="M961.7,409.1c0,0,1,0.5,1.5,0.5c0.4,0,1.2-0.2,1.5-0.3c0.3-0.1,0.9-0.5,0.9-0.5l-1-0.5c0,0,0-0.2-0.1-0.4
			c0,0,0-0.1,0-0.1c-0.1-0.5-0.2-1.2-0.2-1.3c0-0.1,0-0.6,0.1-1c0-0.4,0.1-0.8,0.1-0.8l-0.3-0.7l-0.2-0.5c-0.3,0.3-0.7,0.7-1,0.9
			c-0.1,0.1-0.2,0.2-0.3,0.3c-0.4,0.2-0.7,0.3-1,0.5c-0.3,0.1-0.5,0.3-0.8,0.3c0,0.4,0,0.8-0.1,1.1c0,0.2,0,0.4,0,0.4l0.7,1.8
			L961.7,409.1z"/>
		<path class="st9" d="M959.7,411.3l0.8-2.1l0.1-0.3l-0.1-2l0-0.6l0-0.2c-0.1,0.2-0.3,0.5-0.4,0.8c-0.2,0.4-0.4,0.8-0.7,1.2
			c0,0,0,0,0,0.1l0,0l0,0c-0.1,0.1-0.5,0.3-0.9,0.6c-0.2,0.1-0.3,0.2-0.5,0.3c0.3,0.2,0.5,0.3,0.9,0.5
			C958.9,409.8,959.7,411.3,959.7,411.3z"/>
		<path class="st10" d="M956.6,409.6c0,0,0.5-0.3,1-0.6c0.1-0.1,0.3-0.2,0.4-0.3c0.5-0.3,0.9-0.6,1-0.7c0.1-0.2,0.2-0.4,0.3-0.6
			c0,0,0,0,0,0c0.1-0.2,0.3-0.5,0.4-0.7c0.2-0.4,0.4-0.7,0.5-1c-0.1,0-0.2,0-0.2,0c-1.8,0-2.5,0-2.5,0s-0.1,0-0.3-0.1
			c-0.4-0.1-1-0.4-1.4-0.7c-0.1,0.2-0.1,0.4-0.2,0.6c-0.3,1-0.4,1.9-0.5,2.2c0,0.1,0,0.1,0,0.1l-0.8,0.4l-0.7-0.5v1.2l0.9,0.7
			L956.6,409.6z"/>
		<path class="st9" d="M950.7,407.1l1.3-0.4l1.7-0.5l0.7-1l0.2-0.3v-1l-1.3,1l-0.2,0.1l0,0l0,0l-1.6,0.2l0,0h0h-1.7l-0.2,0.2
			c0,0.1-0.1,0.3-0.1,0.4c-0.2,1.3,0,2.5,0,2.5L950.7,407.1z"/>
		<path class="st8" d="M948.5,406.1l0.6-0.6l0.6-0.6h1.8l1.6-0.2l0.1-0.1l1.4-1.1l0.1,0c-0.5-0.7-1-1.4-1.3-1.8
			c-0.1-0.2-0.2-0.3-0.2-0.3l-0.1-0.8l0-0.2l-0.1,0c-0.1,0-0.2,0-0.3,0.1c-0.9,0.2-2.2,0.4-2.2,0.4l-1,0.8l-0.6,0.4
			c0,0-0.1,0.4-0.2,0.8c-0.1,0.5-0.2,1.1-0.3,1.4c-0.1,0.3-0.1,0.6-0.1,0.9C948.4,405.7,948.5,406.1,948.5,406.1z"/>
		<polygon class="st9" points="948.3,393.6 948.4,395.5 949.3,397.2 952.5,395.6 952.5,395.5 952.6,395.5 953.7,395.6 952.2,394.4 
			949.8,394.3 		"/>
		<polygon class="st10" points="948.9,399.8 950.4,400.1 951.9,400.2 953,400.2 953,400.2 953,400.2 952.9,398.8 953.6,396.9 
			953.9,395.8 953.9,395.8 952.5,395.7 949.4,397.3 948.7,397.7 947.9,397.1 947.9,398.6 947.9,398.6 		"/>
		<path class="st9" d="M954.3,392.6L954.3,392.6L954.3,392.6l0.6-3l0,0l0,0l0.3-0.4c-0.6-0.2-1.4-0.5-2.6-0.9c0.3,0.8,0.4,2,0.4,3.8
			c0.5,1,1,1.8,1.4,2.4C954.4,393.8,954.3,393,954.3,392.6z"/>
		<path class="st8" d="M954.7,395L954.7,395L954.7,395l2.3-1.9l0.1-0.1l1.2-0.1l-1.1-2.3l-0.2-3.4l-1.6,2l-0.4,0.5l-0.6,2.9
			C954.4,393,954.6,394.1,954.7,395L954.7,395z"/>
		<path class="st9" d="M960.8,390.8l2.6-1.6l0,0l-0.8-1l-1.7-0.8l-0.1,1.3c0,0-0.7,1.2-1.3,2c-0.1,0.6,0,1.3,0.1,1.9L960.8,390.8
			L960.8,390.8L960.8,390.8z"/>
		<path class="st10" d="M964.1,387.7l0.5,0.7l-1,0.9l-0.1,0l-2.6,1.6l-1.1,1.8l0.1,0c0,0,2.2,0.3,2.8,0.5c0,0,0,0,0.1,0
			c0.5,0.2,0.9,0.4,0.9,0.4l0,0l2.5-2.9l0.7-1.9l-0.9-1.3L964.1,387.7z"/>
		<g>
			<path class="st8" d="M965.4,398.2L965.4,398.2L965.4,398.2l0-0.1l0-0.1l-0.1-0.2l-0.2-0.7l0-0.1l0-0.1l-0.3-1.1l-0.1-0.4
				l-0.3-0.2l-0.5-0.4l-0.2-0.2l-0.2-0.2l-0.1-0.1l-0.1-0.1l-0.1-0.1l-0.3-0.3l-0.5-0.1l-1.6-0.4h-1.1h-0.3h-0.1h-0.1l-0.1,0l-0.1,0
				l-0.3,0.1l-0.2,0l-0.1,0l-0.1,0l-1.3,0.3l-0.1,0l-2,1.6l-0.2,0.2l0,0l0,0l-0.1,0.1l0,0l0,0l-0.1,0.1l0,0l-0.3,0.2l0,0l-0.2,0.7
				l-0.4,1.5l0.1,1.8l0,0.1l0,0l0,0l0,0.1l0,0.1l0,0.4l0,0.6l0,0.2l0.9,1.1l0.4,0.5l0.1,0.1l0.1,0.1l0.5,0.6l0.3,0.4l0,0.1l0,0
				c0,0,0,0,0.1,0c0,0,0.1,0,0.1,0l0.1,0c0.2,0.1,0.7,0.2,1.5,0.4c0.2,0.1,0.4,0.1,0.7,0.2c0.2,0,0.4,0,0.8,0c0.3,0,0.7-0.1,1-0.1
				c0.2,0,0.3,0,0.5-0.1c0,0,0.1,0,0.1,0c0,0,0.1,0,0.1,0l0,0c0,0,0.1,0,0.1,0c0,0,0.1,0,0.1,0c0.1,0,0.2,0,0.2,0l0.2-0.2l2.1-1.9
				l0.1-0.1l0.1-0.1l0.1-0.1l0,0l0.1-0.1l0.2-0.3l0.1-0.2l0.1-0.1l0-0.1l0,0l0.3-0.4l0.5-0.7l0.4-2.3L965.4,398.2z M963,399.9
				l-1.1,1.5l-1.7,1h-1.8h-0.6l-0.5-0.4l-1-0.7l-0.5-2.5l1.6-2.5l1.6-0.8l1.6,0.1l1.5,0.7l0.9,1.6L963,399.9z"/>
			<path class="st10" d="M959.4,395.8l-1.6,0.7l-1.4,1.9l-0.1,1.8l0.5,0.9c0,0,0.6,0.6,1.1,0.8c1.6,0.2,1.7,0.2,1.7,0.2l1.3-0.6
				l0.8-0.7l0.9-1.8l-0.2-2l-1.5-1.3H959.4z M960.4,399.8l-0.9,0.6l-0.9-0.2l-0.5-1.1l0.6-0.8l1.1-0.6l0.7,0.3l0.3,0.9L960.4,399.8z
				"/>
		</g>
		<path class="st9" d="M961.5,358.4c-0.2,0.6-0.7,1.8-0.8,2.5c0,0.3,0.2,0.6,0.5,0.8c0,0,0.1,0,0.1,0.1l0,0
			c-0.1-0.1-0.2-0.2-0.2-0.5c0.1-0.7,0.6-1.9,0.8-2.5l6.2-15.9l-0.9,0.2c0,0.2-1.6,4.3-1.7,4.5L961.5,358.4z"/>
		<path class="st9" d="M958.1,357c-0.2,0.6-0.5,1.3-0.6,2.1c-0.1,1.5,1.2,2.8,3.8,2.9l0,0c-2.2-0.1-3.4-1.2-3.3-2.5
			c0.1-0.7,0.4-1.6,0.6-2.1l3.7-9.6c0.3-0.9,1.3-3,0.8-3.8l-0.9,0.2v0c0.6,0.8-0.2,2.6-0.6,3.6L958.1,357z"/>
		<path class="st9" d="M959.3,357.5c-0.2,0.6-0.6,1.5-0.7,2.2c-0.1,1.2,0.9,2.1,2.8,2.2l0,0c-0.4,0-0.8-0.1-1.1-0.3
			c-0.8-0.3-1.2-0.8-1.1-1.6c0.1-0.7,0.4-1.7,0.7-2.3l4-10.3c0.2-0.5,1.3-3.1,1.1-3.9l-0.8,0.2v0c0.4,0.6-0.6,3-0.9,3.7L959.3,357.5
			z"/>
		<path class="st9" d="M979.5,361.8L979.5,361.8c2.9-0.4,5.8-6.4,5.9-10.5c0-0.9-0.5-1.8-1.8-2l0,0c0.9,0.2,1.2,0.8,1.2,1.5
			C984.7,354.8,981.8,361.3,979.5,361.8z"/>
		<path class="st9" d="M957,356.5c-0.2,0.6-0.5,1.2-0.5,1.9c-0.2,1.8,1.5,3.5,4.9,3.6l0,0c-3-0.1-4.5-1.6-4.3-3.3
			c0.1-0.7,0.3-1.4,0.6-2l3.5-8.9c0.4-1.1,1.2-2.8,0.6-3.6l-0.8,0.2v0c0.7,0.7,0,2-0.4,3.2L957,356.5z"/>
		<path class="st9" d="M937.7,361.8l-2.9-13.4c-0.4-1.7-0.5-2.2-0.6-2.9h-1.1v0c0.5,0.6,0.6,1.3,1,2.9l2.9,13.4H937.7z"/>
		<path class="st9" d="M940.6,345.6L940.6,345.6l-1.5,0c-0.4,0.2-1.4,0.9-0.9,3.4l1.7,8.4l0.4-0.9l-1.5-7.5
			C938.4,346.8,938.9,345.9,940.6,345.6z"/>
		<path class="st9" d="M942.9,351.4c1.6-3.8,2-4.9,2.7-5.8v0h-1.3v0C944.4,347.1,943.9,348.5,942.9,351.4L942.9,351.4z"/>
		<path class="st9" d="M952,351.3c-0.1-1.3-0.9-2.3-2.5-2.3c-3.4,0-5,2.2-5.6,4.7h0c0.6-2.4,2.1-4.5,5.2-4.5c1.4,0,2.2,0.9,2.3,2.1
			c0.1,1.5-0.4,2.7-0.9,4.1l-2.4,6.4h0.7l2.4-6.3c0.2-0.4,0.3-0.8,0.5-1.2c0.5-1,1.1-2,1.4-2c0.2,0,0.3,0.2,0.3,0.4
			c0.1,0.7-0.2,1.8-0.7,2.7l0,0c0.6-0.5,1.3-2.2,1.3-3c0-0.3-0.2-0.6-0.5-0.6c-0.5,0-1.2,1.1-1.7,2.2c0.1-0.2,0.1-0.4,0.2-0.5
			c0.5-1.1,1.2-2.1,1.9-2.1c0.4,0,0.7,0.3,0.7,0.7c0.1,1.1-1,2.8-1.8,3.3l0,0c1.2-0.5,2.4-2.2,2.4-3.6c0-0.6-0.4-1-0.9-1
			c-0.9,0-1.7,1-2.2,2.2c0-0.1,0-0.2,0.1-0.3c0.6-1.3,1.6-2.4,2.6-2.4c0.6,0,1,0.4,1,1.1c0.1,1.6-1.5,3.4-2.9,3.9l0,0
			c1.7-0.4,3.5-2.3,3.4-4.2c0-0.9-0.6-1.3-1.2-1.3c-1.2,0-2.3,1.1-3,2.5c0-0.1,0-0.2,0-0.2c0.8-1.5,2-2.7,3.4-2.7
			c0.7,0,1.4,0.5,1.4,1.5c0.1,2.2-1.9,4.1-4,4.5l0,0c2.4-0.4,4.7-2.3,4.5-4.8c-0.1-1.2-0.8-1.7-1.6-1.7c-1.5,0-2.9,1.2-3.7,2.9
			C952.1,351.7,952.1,351.5,952,351.3z"/>
		<path class="st9" d="M942.6,361.8h0.7l2.7-6.7c0.4-1,1.2-2.9,1.2-3.5c0-0.4-0.2-0.6-0.6-0.6c-0.8,0-1.8,1.3-2.3,2.7h0
			c0.6-1.2,1.4-2.5,1.9-2.5c0.2,0,0.3,0.1,0.4,0.4c0,0.5-0.9,2.6-1.2,3.5L942.6,361.8z"/>
		<path class="st9" d="M941.9,345.6L941.9,345.6c1.4,0.5,1.7,2,0.8,5.8l0,0c1-3.4,1.4-4.9,0.4-5.8H941.9z"/>
		<path class="st9" d="M942.9,351.5L942.9,351.5c2-3.6,3.1-5.1,5.7-5.9v0h-1.8C945.4,346.4,944.6,347.8,942.9,351.5z"/>
		<path class="st9" d="M932.1,345.6h-1.2v0c1.1,0.4,1.6,1.2,2,3.1l2.8,13.1h0.6l-2.9-13.2C933,346.3,932.5,345.9,932.1,345.6z"/>
		<path class="st9" d="M962.1,361.7L962.1,361.7c3.3-0.9,6.5-6.7,6.7-9.5c0.1-0.7-0.3-1.2-0.8-1.2c-0.8-0.1-1.8,0.5-2.6,1.4l0,0
			c0.6-0.7,1.4-1.3,2-1.2c0.4,0.1,0.6,0.4,0.6,0.9C967.9,354.7,965,360.5,962.1,361.7z"/>
		<path class="st9" d="M962,361.9c4.5-0.5,7.9-6.1,8.2-9.6c0.1-1.2-0.4-1.8-1.2-1.9c-1.2-0.2-2.7,0.6-3.6,2l0,0
			c0.9-1.1,2.1-1.8,3.1-1.7c0.7,0.1,1.1,0.6,1,1.6C969.2,355.4,966.1,361,962,361.9L962,361.9z"/>
		<path class="st9" d="M938.6,360l-2.4-11.3c-0.4-1.8-0.3-2.6-0.2-3.1h-0.9c0,0.7,0,1.3,0.4,2.8l2.7,12.5L938.6,360z"/>
		<path class="st9" d="M939.4,358.2l-1.9-9.3c-0.4-1.8-0.2-2.8,0.4-3.3v0h-1c-0.3,0.7-0.4,1.4,0,3.1l2.2,10.4L939.4,358.2z"/>
		<path class="st9" d="M965.7,343.4L965.7,343.4c0,1-1,3.5-1.3,4.1l-4.1,10.5c-0.2,0.6-0.6,1.7-0.7,2.4c-0.1,0.9,0.7,1.3,1.7,1.5
			l0,0c-0.7-0.1-1.2-0.5-1.2-1.2c0.1-0.7,0.5-1.9,0.7-2.4l4.2-10.7c0.1-0.3,1.7-4.1,1.5-4.3L965.7,343.4z"/>
		<path class="st9" d="M962,361.9c5.4,0,9.3-5.4,9.7-9.7c0.1-1.6-0.6-2.4-1.7-2.5c-1.6-0.2-3.5,0.8-4.7,2.5l0,0
			c1.1-1.5,2.8-2.4,4.2-2.2c1,0.1,1.6,0.9,1.5,2.2C970.6,356.2,966.8,361.6,962,361.9L962,361.9z"/>
		<path class="st9" d="M973.1,352.3c0.2-2-0.7-3-2.1-3.2c-2-0.3-4.4,0.9-5.8,3l0,0c1.3-1.9,3.5-3,5.3-2.7c1.2,0.2,2,1.1,1.9,2.9
			c-0.4,4.6-4.3,9.7-10.5,9.7l0,0C968.3,362.3,972.7,357.2,973.1,352.3z"/>
		<path class="st9" d="M983.6,349.2c1.8,0.3,2.4,1.5,2.4,2.5c-0.1,4.1-3.2,9.6-6.6,10.1l0,0c3.9-0.4,7.1-5.5,7.2-9.7
			C986.6,351.1,985.9,349.5,983.6,349.2L983.6,349.2z"/>
		<path class="st9" d="M973.4,357c0,1.7,1.2,4.7,5.4,5l0,0c-3.7-0.3-4.8-2.9-4.8-4.5c0.1-4.4,3.9-8,9.1-8.4l0,0
			C977.3,349.4,973.4,352.5,973.4,357z"/>
		<path class="st9" d="M975.2,358.4c0.1-4.2,3.5-8.8,7.8-9.3l0,0c-4.8,0.4-8.4,4.5-8.5,8.8c0,1.4,1,3.8,4.2,4l0,0
			C976,361.6,975.2,359.7,975.2,358.4z"/>
		<path class="st9" d="M947.3,355.2c0.4-1.1,1.2-2.8,1.1-3.7c0-0.6-0.4-1-1.1-1c-1.5,0-2.6,1.6-3.1,3.2h0c0.6-1.5,1.5-3,2.7-3
			c0.5,0,0.8,0.3,0.8,0.8c0,0.8-0.8,2.6-1.1,3.6l-2.7,6.7h0.7L947.3,355.2z"/>
		<path class="st9" d="M948.6,355.3c0.5-1.2,1.1-2.7,1.1-3.8c0-0.8-0.6-1.4-1.6-1.4c-2.1,0-3.4,1.8-3.9,3.7h0
			c0.6-1.8,1.8-3.5,3.5-3.5c0.8,0,1.3,0.5,1.3,1.2c0.1,1-0.6,2.6-1.1,3.8l-2.6,6.6h0.7L948.6,355.3z"/>
		<path class="st9" d="M978.8,361.8c-1.8-0.2-2.4-1.5-2.4-2.5c0.1-4,3.3-9.6,6.6-10.1l0,0c-3.8,0.4-7.1,5.6-7.2,9.6
			C975.8,360,976.6,361.7,978.8,361.8L978.8,361.8z"/>
		<path class="st9" d="M983.7,349.2c2.7,0.3,3.6,2.2,3.6,3.5c-0.1,4.3-3.4,8.8-7.8,9.3l0,0c5-0.4,8.4-4.5,8.5-8.8
			C987.9,351.7,986.9,349.4,983.7,349.2L983.7,349.2z"/>
		<path class="st9" d="M949.8,355.4c0.5-1.3,1.1-2.6,1-4c-0.1-1.1-0.8-1.9-2.1-1.9c-2.7,0-4.2,2-4.8,4.2h0c0.6-2.1,2-4,4.4-4
			c1.1,0,1.8,0.7,1.8,1.6c0.1,1.3-0.5,2.7-1,3.9l-2.5,6.5h0.7L949.8,355.4z"/>
		<path class="st9" d="M988.4,353.6c-0.1,4.4-3.5,8-9.1,8.4l0,0c6.1-0.4,9.7-3.5,9.7-8c0-1.7-1.2-4.7-5.4-4.9l0,0
			C987.4,349.4,988.5,352,988.4,353.6z"/>
		<polygon class="st9" points="983.7,349.1 983.7,349.1 983.7,349.1 		"/>
		<path class="st9" d="M983,349.3L983,349.3c-2.8,0.4-5.8,6.5-5.9,10.4c0,0.9,0.4,1.9,1.8,2l0,0c-0.9-0.2-1.2-0.8-1.2-1.5
			C977.7,356.4,980.7,349.7,983,349.3z"/>
		<path class="st9" d="M1020.7,336.8l-55.8-32.2c-3-1.8-6.8-1.8-9.8,0l-55.8,32.2c-3,1.8-4.9,5-4.9,8.5v64.4c0,3.5,1.9,6.8,4.9,8.5
			l55.8,32.2c1.5,0.9,3.2,1.3,4.9,1.3c1.7,0,3.4-0.4,4.9-1.3l55.8-32.2c3-1.8,4.9-5,4.9-8.5v-64.4
			C1025.6,341.8,1023.7,338.6,1020.7,336.8z M1022.7,409.7c0,2.5-1.3,4.8-3.5,6l-55.8,32.2c-2.1,1.2-4.8,1.2-6.9,0l-55.8-32.2
			c-2.1-1.2-3.5-3.5-3.5-6v-64.4c0-2.5,1.3-4.8,3.5-6l55.8-32.2c1.1-0.6,2.3-0.9,3.5-0.9s2.4,0.3,3.5,0.9l55.8,32.2
			c2.1,1.2,3.5,3.5,3.5,6V409.7z"/>
		<polygon class="st7" points="959.9,339 959.9,339.1 959.9,339.1 959.9,339 		"/>
		<polygon class="st7" points="959.9,339.1 959.9,339.1 959.9,339.1 		"/>
		<polygon class="st7" points="960,339 960,339 959.9,339 960,339 		"/>
		<polygon class="st7" points="960,339 960,339.1 960,339.1 960,339 		"/>
		<polygon class="st7" points="959.9,339.1 960,339.1 960,339.1 960,339.1 		"/>
		<polygon class="st7" points="959.9,339.1 960,339.1 960,339.1 		"/>
		<polygon class="st7" points="960,339.1 960,339.1 960,339.1 		"/>
		<polygon class="st7" points="959.9,339.1 959.9,339.1 959.9,339.1 		"/>
		<polygon class="st7" points="960,339.1 960,339.1 960,339.1 		"/>
		<path class="st9" d="M993.4,331.3l-8.7-5L960,339.1l0,0l18.8-16.2l-5.1-2.9L960,339l0-0.1l8.7-22l-5.3-3.1l-3.4,24.9l-3.4-24.8
			l-5.3,3.1l8.7,21.9l0,0.1l-13.7-19.1l-5.1,2.9l18.8,16.2l0,0l-24.7-12.8l-8.7,5l33.4,7.8l0,0l0,0l0,0l0,0l0,0l0,0l0,0l0,0l0,0l0,0
			l0,0l0,0l0,0l0,0l0,0l0,0L993.4,331.3z M960,339L960,339L960,339L960,339L960,339z M959.9,339.1L959.9,339.1L959.9,339.1
			L959.9,339.1L959.9,339.1z M960,339.1L960,339.1L960,339.1L960,339.1L960,339.1z M960,339.1L960,339.1L960,339.1L960,339.1
			L960,339.1z"/>
		<path class="st7" d="M903.2,346.2c0-0.9,0.5-1.8,1.3-2.2l8.5-4.9h46.9l0,0l-33.4-7.8l8.7-5l24.7,12.8l0,0l-18.8-16.2l5.1-2.9
			l13.7,19.1l0-0.1l-8.7-21.9l5.3-3.1l3.4,24.8l3.4-24.9l5.3,3.1l-8.7,22l0,0.1l13.7-19.1l5.1,2.9L960,339l0,0l24.8-12.8l8.7,5
			l-33.4,7.8l0,0h47l8.5,4.9c0.8,0.5,1.3,1.3,1.3,2.2v24h1.3v-24c0-1.4-0.7-2.7-1.9-3.4l-54.2-31.3c-1.2-0.7-2.7-0.7-3.9,0
			l-54.2,31.3c-1.2,0.7-1.9,2-1.9,3.4v24h1.3V346.2z"/>
		<path class="st9" d="M1016.8,408.8c0,0.9-0.5,1.8-1.3,2.2l-16.6,9.6l-6.1-2.3v-1.2v-8.1c0,0,0,0,0-0.1c0-0.8,0.7-1.5,1.5-1.5
			c0.1,0,0.2,0,0.2,0v0h1c0.8,0,1.5-0.7,1.5-1.5v-8.1c0-0.8-0.7-1.5-1.5-1.5s-1.5,0.7-1.5,1.5v7.4c0,0.3-0.3,0.6-0.6,0.6
			c-0.3,0-0.6-0.3-0.6-0.6v-10v-0.7c0-0.8-0.7-1.5-1.5-1.5s-1.5,0.7-1.5,1.5v4.2V410c-0.4,0-0.7-0.3-0.8-0.7c0,0,0,0,0-0.1v-7.5
			c0-0.8-0.7-1.5-1.5-1.5s-1.5,0.7-1.5,1.5v8.7c0,0.8,0.7,1.5,1.5,1.5h0.6v0c0,0,0.1,0,0.1,0c0.8,0,1.5,0.7,1.5,1.5v3.7l-5.5-2.1
			c-1.1-0.4-2.4-0.3-3.4,0.3l-9.7,5.5l-7.3-4c-1.3-0.7-2.8-0.7-4.1,0.1l-5.1,3.2c10.3,3,16.8,8.1,16.3,18.1l45.1-26.1
			c1.2-0.7,1.9-2,1.9-3.4v-14.7h-1.3V408.8z"/>
		<path class="st9" d="M952,420.2l-10.8-5.4c-0.9-0.4-1.9-0.5-2.9-0.3l-7.9,2.3v-3.3c0-0.8,0.7-1.5,1.5-1.5c0,0,0.1,0,0.1,0v0h0.6
			c0.8,0,1.5-0.7,1.5-1.5v-8.7c0-0.8-0.7-1.5-1.5-1.5s-1.5,0.7-1.5,1.5v7.5c0,0,0,0,0,0.1c0,0.4-0.4,0.7-0.8,0.7v-11.2v-4.2
			c0-0.8-0.7-1.5-1.5-1.5s-1.5,0.7-1.5,1.5v0.7v10c0,0.3-0.3,0.6-0.6,0.6c-0.3,0-0.6-0.3-0.6-0.6v-7.4c0-0.8-0.7-1.5-1.5-1.5
			s-1.5,0.7-1.5,1.5v8.1c0,0.8,0.7,1.5,1.5,1.5h1v0c0.1,0,0.2,0,0.2,0c0.8,0,1.5,0.7,1.5,1.5c0,0,0,0,0,0.1v8.1v0.6l-7.4,2.1
			l-15.3-8.9c-0.8-0.5-1.3-1.3-1.3-2.2v-14.7h-1.3v14.7c0,1.4,0.7,2.7,1.9,3.4l47.9,27.7C964.8,424.8,953,423.9,952,420.2z"/>
	</g>
	<g>
		<path class="st2" d="M900.6,642.4c3.6-3.1,6.4-5.6,8.4-7.6c2.1-2,3.8-4.1,5.2-6.2s2.1-4.3,2.1-6.5c0-2.2-0.5-4-1.6-5.2
			c-1.1-1.3-2.7-1.9-5-1.9c-2.2,0-3.9,0.7-5.1,2.1c-1.2,1.4-1.8,3.3-1.9,5.6h-6.1c0.1-4.2,1.4-7.5,3.8-9.7c2.4-2.2,5.5-3.4,9.3-3.4
			c4,0,7.2,1.1,9.5,3.3c2.3,2.2,3.4,5.2,3.4,8.9c0,2.7-0.7,5.2-2,7.7c-1.4,2.5-3,4.7-4.8,6.6c-1.9,1.9-4.3,4.2-7.2,6.8l-2.5,2.2
			h17.7v5.3h-27.1v-4.6L900.6,642.4z"/>
		<path class="st2" d="M932.5,615.1c2.2-3.6,5.9-5.4,11.2-5.4c5.3,0,9.1,1.8,11.2,5.4c2.2,3.6,3.3,8.6,3.3,15.1
			c0,6.5-1.1,11.6-3.3,15.2c-2.2,3.7-5.9,5.5-11.2,5.5c-5.3,0-9-1.8-11.2-5.5c-2.2-3.7-3.3-8.7-3.3-15.2
			C929.2,623.8,930.3,618.7,932.5,615.1z M951.4,622.6c-0.4-2.1-1.2-3.8-2.4-5.1c-1.2-1.3-3-2-5.3-2c-2.3,0-4.1,0.7-5.3,2
			c-1.2,1.3-2,3-2.4,5.1c-0.4,2.1-0.6,4.6-0.6,7.6c0,3.1,0.2,5.7,0.6,7.9c0.4,2.1,1.2,3.8,2.4,5.1c1.2,1.3,3,1.9,5.3,1.9
			c2.3,0,4.1-0.6,5.3-1.9c1.2-1.3,2-3,2.4-5.1c0.4-2.1,0.6-4.7,0.6-7.9C952,627.2,951.8,624.6,951.4,622.6z"/>
		<path class="st2" d="M968.4,642.4c3.6-3.1,6.4-5.6,8.4-7.6c2.1-2,3.8-4.1,5.2-6.2s2.1-4.3,2.1-6.5c0-2.2-0.5-4-1.6-5.2
			c-1.1-1.3-2.7-1.9-5-1.9c-2.2,0-3.9,0.7-5.1,2.1c-1.2,1.4-1.8,3.3-1.9,5.6h-6.1c0.1-4.2,1.4-7.5,3.8-9.7c2.4-2.2,5.5-3.4,9.3-3.4
			c4,0,7.2,1.1,9.5,3.3c2.3,2.2,3.4,5.2,3.4,8.9c0,2.7-0.7,5.2-2,7.7c-1.4,2.5-3,4.7-4.8,6.6c-1.9,1.9-4.3,4.2-7.2,6.8l-2.5,2.2
			h17.7v5.3h-27.1v-4.6L968.4,642.4z"/>
		<path class="st2" d="M1000.9,612.4c2.4-1.9,5.5-2.9,9.3-2.9c2.6,0,4.8,0.5,6.7,1.4c1.9,0.9,3.3,2.2,4.3,3.8c1,1.6,1.4,3.4,1.4,5.4
			c0,2.3-0.6,4.3-1.8,5.9c-1.2,1.6-2.7,2.7-4.4,3.3v0.2c2.2,0.7,3.9,1.9,5.1,3.6c1.2,1.8,1.8,4,1.8,6.8c0,2.2-0.5,4.1-1.5,5.8
			c-1,1.7-2.5,3.1-4.5,4c-2,1-4.3,1.5-7.1,1.5c-4,0-7.3-1-9.9-3.1c-2.6-2.1-4-5-4.1-8.9h6.1c0.1,2,0.9,3.6,2.3,4.8
			c1.4,1.2,3.2,1.9,5.6,1.9c2.3,0,4-0.6,5.2-1.9c1.2-1.2,1.8-2.8,1.8-4.8c0-2.6-0.8-4.4-2.5-5.5c-1.7-1.1-4.2-1.6-7.6-1.6h-1.4v-5.2
			h1.5c3,0,5.3-0.5,6.9-1.5c1.6-1,2.4-2.5,2.4-4.6c0-1.8-0.6-3.2-1.7-4.3c-1.2-1.1-2.8-1.6-4.9-1.6c-2.1,0-3.7,0.5-4.8,1.6
			s-1.8,2.4-2.1,3.9H997C997.2,617,998.5,614.3,1000.9,612.4z"/>
	</g>
</g>
<g id="wireframe">
	<g>
		<defs>
			<rect id="SVGID_1_" x="80" y="849.9" width="510.5" height="39.8"/>
		</defs>
		<clipPath id="SVGID_00000000182177695553217040000007566394158366338489_">
			<use xlink:href="#SVGID_1_"  style="overflow:visible;"/>
		</clipPath>
		<g style="clip-path:url(#SVGID_00000000182177695553217040000007566394158366338489_);">
			
				<rect x="77.3" y="828.1" transform="matrix(0.7071 -0.7071 0.7071 0.7071 -591.7686 310.8495)" class="st12" width="4" height="83.3"/>
			
				<rect x="107.5" y="828.1" transform="matrix(0.7071 -0.7071 0.7071 0.7071 -582.9237 332.1042)" class="st12" width="4" height="83.3"/>
			
				<rect x="137.6" y="828.1" transform="matrix(0.7071 -0.7071 0.7071 0.7071 -574.1074 353.3901)" class="st12" width="4" height="83.3"/>
			
				<rect x="167.7" y="828.1" transform="matrix(0.7071 -0.7071 0.7071 0.7071 -565.3171 374.7175)" class="st12" width="4" height="83.3"/>
			
				<rect x="197.8" y="828.1" transform="matrix(0.7071 -0.7071 0.7071 0.7071 -556.4978 396.0013)" class="st12" width="4" height="83.3"/>
			
				<rect x="227.9" y="828.1" transform="matrix(0.7071 -0.7071 0.7071 0.7071 -547.6589 417.2551)" class="st12" width="4" height="83.3"/>
			
				<rect x="258" y="828.1" transform="matrix(0.7071 -0.7071 0.7071 0.7071 -538.8409 438.5377)" class="st12" width="4" height="83.3"/>
			
				<rect x="288.1" y="828.1" transform="matrix(0.7071 -0.7071 0.7071 0.7071 -530.0459 459.8697)" class="st12" width="4" height="83.3"/>
			
				<rect x="318.2" y="828.1" transform="matrix(0.7071 -0.7071 0.7071 0.7071 -521.2285 481.1568)" class="st12" width="4" height="83.3"/>
			
				<rect x="348.3" y="828.1" transform="matrix(0.7071 -0.7071 0.7071 0.7071 -512.3905 502.3993)" class="st12" width="4" height="83.3"/>
			
				<rect x="378.4" y="828.1" transform="matrix(0.7071 -0.7071 0.7071 0.7071 -503.5921 523.7347)" class="st12" width="4" height="83.3"/>
			
				<rect x="408.5" y="828.1" transform="matrix(0.7071 -0.7071 0.7071 0.7071 -494.7733 545.0182)" class="st12" width="4" height="83.3"/>
			
				<rect x="438.6" y="828.1" transform="matrix(0.7071 -0.7071 0.7071 0.7071 -485.9414 566.265)" class="st12" width="4" height="83.3"/>
			
				<rect x="468.7" y="828.1" transform="matrix(0.7071 -0.7071 0.7071 0.7071 -477.1239 587.5469)" class="st12" width="4" height="83.3"/>
			
				<rect x="498.8" y="828.1" transform="matrix(0.7071 -0.7071 0.7071 0.7071 -468.3198 608.8831)" class="st12" width="4" height="83.3"/>
			
				<rect x="528.9" y="828.1" transform="matrix(0.7071 -0.7071 0.7071 0.7071 -459.5025 630.17)" class="st12" width="4" height="83.3"/>
			
				<rect x="559" y="828.1" transform="matrix(0.7071 -0.7071 0.7071 0.7071 -450.6744 651.4128)" class="st12" width="4" height="83.3"/>
			
				<rect x="589.1" y="828.1" transform="matrix(0.7071 -0.7071 0.7071 0.7071 -441.8573 672.6945)" class="st12" width="4" height="83.3"/>
		</g>
	</g>
	<g>
		<defs>
			<rect id="SVGID_00000025429323358173290090000002503417311774990743_" x="1329.5" y="129.3" width="510.5" height="39.8"/>
		</defs>
		<clipPath id="SVGID_00000131348194273193198100000008868955742240872104_">
			<use xlink:href="#SVGID_00000025429323358173290090000002503417311774990743_"  style="overflow:visible;"/>
		</clipPath>
		<g style="clip-path:url(#SVGID_00000131348194273193198100000008868955742240872104_);">
			<line class="st14" x1="1870.1" y1="178.7" x2="1811.2" y2="119.8"/>
			<line class="st14" x1="1840" y1="178.7" x2="1781.1" y2="119.8"/>
			<line class="st14" x1="1809.9" y1="178.7" x2="1751" y2="119.8"/>
			<line class="st14" x1="1779.8" y1="178.7" x2="1720.9" y2="119.8"/>
			<line class="st14" x1="1749.7" y1="178.7" x2="1690.8" y2="119.8"/>
			<line class="st14" x1="1719.6" y1="178.7" x2="1660.7" y2="119.8"/>
			<line class="st14" x1="1689.5" y1="178.7" x2="1630.6" y2="119.8"/>
			<line class="st14" x1="1659.4" y1="178.7" x2="1600.5" y2="119.8"/>
			<line class="st14" x1="1629.3" y1="178.7" x2="1570.3" y2="119.8"/>
			<line class="st14" x1="1599.2" y1="178.7" x2="1540.2" y2="119.8"/>
			<line class="st14" x1="1569" y1="178.7" x2="1510.1" y2="119.8"/>
			<line class="st14" x1="1538.9" y1="178.7" x2="1480" y2="119.8"/>
			<line class="st14" x1="1508.8" y1="178.7" x2="1449.9" y2="119.8"/>
			<line class="st14" x1="1478.7" y1="178.7" x2="1419.8" y2="119.8"/>
			<line class="st14" x1="1448.6" y1="178.7" x2="1389.7" y2="119.8"/>
			<line class="st14" x1="1418.5" y1="178.7" x2="1359.6" y2="119.8"/>
			<line class="st14" x1="1388.4" y1="178.7" x2="1329.5" y2="119.8"/>
			<line class="st14" x1="1358.3" y1="178.7" x2="1299.4" y2="119.8"/>
		</g>
	</g>
</g>
</svg>
