<?xml version="1.0" encoding="utf-8"?>
<!-- Generator: Adobe Illustrator 28.5.0, SVG Export Plug-In . SVG Version: 9.03 Build 54727)  -->
<svg version="1.0" id="katman_1" xmlns="http://www.w3.org/2000/svg" xmlns:xlink="http://www.w3.org/1999/xlink" x="0px" y="0px"
	 viewBox="0 0 500 500" style="enable-background:new 0 0 500 500;" xml:space="preserve">
<style type="text/css">
	.st0{fill-rule:evenodd;clip-rule:evenodd;fill:#913140;}
</style>
<g>
	<path class="st0" d="M302.1,485c0,0,24-10.2,37.2-50c11.6,24.2,8.6,49.1,8.6,49.1C337.3,486.6,302.1,485,302.1,485z M431.1,257.8
		c0,0,14.7,79.8-37.2,82.6c-50.1,2.6-73.7-72.7-73.7-72.7s12.1,147.2,82.2,137.5C481.6,394.3,431.1,257.8,431.1,257.8L431.1,257.8z
		 M50,466c0,0,0.1,0,0.1,0c58.5-13.3,103.3-81.6,116.5-109.1l8.4-17.4l5,18.6c0.3,1,5.7,21.5,5.7,48.6c0,3-0.1,6.1-0.2,9.2
		c20.2,0.8,34.6-3.3,43.6-12.6c12.8-13.3,16.7-38.5,11.9-77c-2.3-18.4-9.1-47.7-15.2-73.6c-3.1-13.2-6-25.7-7.8-34.6
		c-11.3-56.6,2.7-91.7,16.4-111.2c2.2-3,4.5-6,7-8.7C200.9,111.9,167,133.1,132,168l24.7,28.6l10.1-9.4c9.5,35.5,2.7,68.2,2.7,68.2
		c-12.9-19.8-28.3-35.8-28.3-35.8l6.7-11.2l-22.2-25.8l-2.6-2.9c-27.3,37.5-36.1,68.2-36.1,68.2l19.4,17.7l11.3,10.2l3.8-10.9
		c20.8,39,1.8,75.4,1.8,75.4c-3.4-13.3-17.1-32.9-17.1-32.9l5.4-17.9l-28.8-26.1c-30,93.7-70.1,124.1-70.1,124.1s43.4-7.8,67.5-15.9
		C80,371.6,79.3,421,50,466z"/>
	<path class="st0" d="M487.5,128.1l-69.2,2.9c0.1,8.2-1,16.4-3.7,24.2c6.5,28.3,2,43.6,2,43.6c-11.6-26.9-20.4-34.4-20.4-34.4
		c-63.6-28.3-99.3,35.6-95.5,76.8c3.1,33.9,15.4,78.8,25,149.3c8.1,59.3-21.9,85-56.5,90.9c-0.8,0.1-1.5,0.3-2.3,0.4
		c-0.2,0-0.4,0-0.5,0.1c-5.9,0.7-11.9,1-17.9,0.9c-0.2,0-0.4,0-0.6,0c-0.7,0-1.4-0.1-2.1-0.1c-2.7-0.2-5.3-0.4-8-0.8
		c-26.9-3.7-87.1-14.6-149.3-16.1c36.6-21.4,65.2-58.3,81.1-84.5c0.9,7.3,1.7,16.1,1.7,25.9c0,4.9-0.2,10-0.6,15.2l-0.6,7.1l7.1,0.6
		c28.6,2.5,48.9-3,62.1-16.7c16.2-16.9,21.3-45.1,15.8-88.7c-2.4-19.2-9.3-48.9-15.4-75.1c-3.1-13.1-5.9-25.5-7.7-34.1
		c-10.3-51.6,2-82.9,14.1-100.1c9.5-13.5,22.6-23.3,36.9-28.1c0.3,0,0.5-0.1,0.8-0.1l23.6-72.5h7.4L299,84.2
		c3.7-0.6,7.4-1.2,11.2-1.8l20.4-64.3h7.4l-13.3,62.3c21.1-2.7,44-4.8,69.4-6.7c4.1,1.7,8.6,6.4,12.5,13.1l66.6-20.5l2.5,7.2
		l-63.7,24.7c0.5,1.3,1,2.7,1.4,4l69.6-8.7l1.2,7.5l-67.6,13.5c0.2,1.2,0.5,2.5,0.6,3.8l70.3,2.2L487.5,128.1L487.5,128.1z
		 M286.9,159.2c14-9.8,37.7-17.3,60-15.6c5.7,0.4,10.4-1,4.4-4.3c-16.7-8.8-55.5-5.8-69.3,3.6c-22,15-18.3,41.7-17.8,42.4
		C268.6,177.6,276,166.8,286.9,159.2L286.9,159.2z"/>
</g>
</svg>
