<?xml version="1.0" encoding="UTF-8"?>
<svg id="Layer_1" data-name="Layer 1" xmlns="http://www.w3.org/2000/svg" version="1.1" viewBox="0 0 1024 576">
  <defs>
    <style>
      .cls-1 {
        fill: #af0;
      }

      .cls-1, .cls-2, .cls-3, .cls-4 {
        stroke-width: 0px;
      }

      .cls-2 {
        fill: #08df00;
      }

      .cls-3 {
        fill: #690;
      }

      .cls-4 {
        fill: #81c200;
      }
    </style>
  </defs>
  <path class="cls-2" d="M500.2,497.5c-.1.3-.3.6-.3.9h0c.1-.3.2-.6.3-1h0Z"/>
  <path class="cls-2" d="M504.3,485.8h.2c-.2,0-.4,0-.6.1h.4Z"/>
  <path class="cls-2" d="M501.2,492.5c.1.4.2.8.2,1.1.3-.7.7-1.3,1.5-1.7h-.2l-.2-.5c-.1-.3-.1-.5,0-.8h-.6c-.7-.2-1.1-1.1-1.1-1.9s0-.4,0-.7v-.7c-.1.2-.3.3-.4.5-.6.7-1.1,1.2-1.2,2h.1c.1,0,.2.1.4.2,1,.6,1.3,1.7,1.6,2.4h0Z"/>
  <path class="cls-2" d="M194.9,365.5l.8.3h0l-.8-.4h0Z"/>
  <path class="cls-2" d="M502.7,496.1c-.1.4-.3.8-.4,1.3,0,.1,0,.2-.1.4.3-.8.5-1.5.8-2.3.2-.5.3-.9.5-1.4-.1.2-.2.5-.4,1-.1.3-.2.7-.4,1.1h0Z"/>
  <path class="cls-2" d="M502,485.5s-.1.2-.2.3c.3,0,.5-.1.8-.2h-.6,0Z"/>
  <path class="cls-2" d="M536.9,455v.7s.2.1.3.2c0,0,.3.2.5.3h0c0-.3-.4-1.1-.7-1.1h0Z"/>
  <path class="cls-2" d="M485.3,522.4h0l.7-.5h0l-.8.4h0Z"/>
  <path class="cls-2" d="M535.4,467c-.3.3-.5.7-.7,1h1v-.2c-.2-.3-.3-.5-.3-.8Z"/>
  <path class="cls-2" d="M540.8,459.5c-.5-.7-.3-1.6,0-2.7,0-.4.2-.6.2-.7h-.5c-.3.7-.7,1.4-1.4,1.4h-.2c.3.5.2,1,.2,1.4v.7c0,.5,0,.6.6.9,0,.1.3.2.4.4.5.5.8.9.9,1.3l1.4-1.5s.2-.3.3-.5c-.8,0-1.4-.2-1.8-.8h-.1Z"/>
  <path class="cls-2" d="M514.1,476.7v-.3.3Z"/>
  <path class="cls-2" d="M622.9,127l.4-.7h0l-.5.7h0Z"/>
  <polygon class="cls-2" points="622.8 127 622.8 127 622.8 127 622.8 127"/>
  <g>
    <path class="cls-3" d="M961.9,82.7c-.6-.9,0-1.9.2-2.3,0,0,0-.2.2-.4,0,0,0-.8-.2-1.1h0c-.4,0-1.2,0-1.6-.9-1.3-.8-1.1-2.2-.9-2.9v-.4c-1.1,0-2.1-.2-3.1-1.5-.2-.4-.4-.7-.5-1.1,0,0,0-.4,0-.5-.5-.2-1.2-.2-2-.2s-1.4,0-2.1-.2c-2.6-.7-3.1-2.3-3.4-4.2v-.4c0-.4-.1-.6-.2-.7-.1,0-.6-.2-.7-.4,0,0-.2,0-.4-.2h-1.4l.2-2c.2-1.1.4-2.1,0-3.1-.2-.6-.2-1.2-.4-1.8,0-.5,0-.9-.2-1.4-.2-.8-.5-1.6-.7-2.5-.5-1.6-.9-3.3-1.6-4.7-1.1-2.2-1.5-4.2-2-6.5l-.2-1.1c-.7-2.7-1.2-4.2-2.8-6-.7-.7-1.5-1.2-2.5-1.8-.2,0-.6-.4-.8-.5-.4-.2-.7-.5-.9-.7-.4-.2-1.1-.8-1.3-.7,0,0-.5.4-.6.6-.2.2-.5.6-.8.8-.6.5-.9.7-1.3,1.3v.2c-.5.6-.9,1.3-2,1.6-.5,0-.9,0-1.3,0h-.8c-.2,0-.4,0-.5.2-.5.2-1.1.5-1.8.5h0c-1.8,0-3.2-2-4-3.6,0-.2-.2-.6-.4-.9s-.5-1.3-.7-1.3c-.6,0-1.2,1.1-1.4,2.2,0,.6-.4,1.1-.5,1.6-.4,1.3-.8,2.7-1.1,4,0,.7-.2,1.3-.4,1.9-.2,1.3-.5,2.7-.8,4.1-.4,1.1-.6,2.1-.9,3.2-.7,2.3-1.5,4.9-2,7.4,0,.5,0,1.1.4,1.6,0,.4.2.7.4,1.1,0,.8,0,1.4,0,2v1.1c0,0,0,.4.2.6.2.5.5.9.6,1.8,0,.6,0,1.1-.2,1.5,0,.4-.2.8,0,1.1,0,0,.2.2.4.4.2.2.6.7.8,1.2.4.9,0,2.2,0,3.2v.5c0,.9-.4,2.2-1.6,3.2,0,0-.4.2-.5.4,0,0,0,0-.2,0v.5c0,.6.2,1.6-.5,2.2,0,.2,0,.4.2.6.6,2,1.5,4.7-.5,5.8-.2,0-.5,0-.7,0v.2c0,1.2,0,2.2-.5,3.2-.2.8-.7,1.9-1.6,2.2-.4,0-1.1.4-1.8,0-.7-.2-1.1-.8-1.3-1.3h0c-.4.2-1.1.8-2,.7h-.4c0,.2-.4.6-.7.8-.5.2-.9.4-1.2.4v1.3c0,.7,0,1.6-.4,2.5-.6,1.3-1.9,2.1-2.6,2.6h-.4c-1.4.7-2.9,1.1-4.3,1.3-.7,0-1.5.2-2.1.5-2.7.6-5.4,1.2-8.1,1.8-1.3.2-2.7.6-4,.8-.7,0-1.5.4-2.2.5-.6,0-1.2.2-1.8.4-3.1.7-6.2,1.4-9.3,2.1-3.6.8-7.3,1.6-10.9,2.5-.7,0-1.4.4-2.2.5-.7,0-1.3.4-2,.5,0,0-.4.2-.5.4-.2.2-.5.4-.7.6,0,0-.2.4-.5.6-.2.4-.6.7-.9,1.2-.7.7-1.4,1.4-2.2,2.1-1.2,1.2-2.5,2.3-3.5,3.5l-.9,1.1c-.7.8-1.3,1.6-2,2.5,0,.2-.4.4-.5.5-.7.7-1.2,1.3-1.3,2v1.3c0,2.1-.8,3.8-2.9,5.3s-1.3.9-1.9,1.5h1.3l.9.2v2.6c-.2,1.2-.7,1.9-1.1,2.5-.6.8-.8,1.3-.5,2.1,0,.2,0,.5.2.7.6,1.8,1.3,3.9-1.4,5.6-.4.2-.6.4-.9.6-1.3.8-2.3,1.5-3.2,2.7,0,.2-.2.5-.4.8-.8,1.5-1.8,3.4-4.6,3.2h-.6c-.7,0-1.3-.1-1.9,0s-1.2.5-1.8.8l-.5.2c-1.9,1.1-4.2,2.1-6.8,1.4-.5-.1-.9-.2-1.3-.4-1.4-.5-2.2-.7-3.5-.2-.9.4-2,.7-3.1.7s-1.1,0-1.4-.2c-.5,0-.8-.1-1.2-.1-1.1,0-2.3.6-3.6,1.1-.6.2-1.2.5-1.6.6-1.2.4-2.1.9-3.2,1.8.2.4.4.6.6.9,0,.2.2.5.4.7,0,.2.4.4.7.6.5.4.9.7,1.4,1.3,1.3,2,.9,4.3.6,6.3-.4,2.2-1.2,3.6-2.9,5.4s-1.2,1.2-1.6,1.9c-.4.5-.7.8-1.1,1.2-.4.5-.8.8-1.3,1.2-.6.5-1.1.9-1.4,1.4,0,.2-.2.6-.5.8-.4.8-.8,1.9-2.1,2.5-.4.1-.7.2-1.1.4h-.6c-.6.4-1.1.5-1.5.7l-.5.4c-.7.5-1.4,1.1-1.9,1.6-.2.2-.4.5-.5.7-.6.9-1.3,2-2.8,2.5-.5.1-.9.2-1.3.4-.6,0-1.1.2-1.5.4-.5.1-.8.4-1.3.6-.5.4-.9.9-1.4,1.4-.4.5-.7.8-1.2,1.3-.6.5-1.2.9-1.8,1.3s-1.1.7-1.5,1.2c-.4.2-.6.7-.8,1.1-.4.7-.8,1.4-1.6,1.9-.6.4-1.1.6-1.5.7-.8.4-1.3.6-1.6,1.1-.2.5-.5,1.1-.7,1.5-.4,1.1-.7,2.1-1.8,3.2-1.6,1.5-3.5,1.5-4.8,1.4h-.5c-1.1-.2-2.2-.4-3.1,0-.4.1-.6.6-.9,1.1-.5.6-.9,1.3-1.6,1.6-1.2.6-2.3.4-3.2,0-1.1-.2-1.8-.2-2.5-.1h-2.2s-.6.1-.9.2c-1.6.5-3.2.9-3.9-.1-.2-.4-.4-.8-.2-1.4,0-.1,0-.4.2-.5-.6-.1-1.2-.5-1.6-.9-.9,0-1.8-.2-2.3-.5-.4-.1-.6-.2-.9-.4h-.8c-.8,0-2-.1-2.7-1.2,0-.2-.4-.6-.5-1.2-.4-1.9.8-3.3,1.9-4.3.6-.7,1.3-1.4,1.3-2.1s0-.9-.2-1.4c0-.6-.4-1.3-.2-2.1,0-1.3.8-2.2,1.3-3.1.9-1.4,2.1-2.5,3.2-3.5.5-.5.8-.8,1.3-1.3.8-.8,1.2-1.9,1.5-3.2,0-.2,0-.6.2-.8.2-.7.5-1.3.5-1.9v-.4c0-.7.2-1.5.9-2.2.2-.2.4-.4.6-.6s.6-.5.7-.7c.4-.6,0-1.8-.2-2.6-.4-.7-.4-1.4-.5-2.1,0-.6,0-1.2-.4-1.5,0-.2-.4-.5-.5-.7-.6-.8-1.3-1.9-1.2-3.4v-.9c0-1.1,0-1.8-.4-2.5-.2-.5-.6-.8-.9-1.3-.5-.6-1.1-1.3-1.4-2.2-.2-.7-.4-1.4-.4-2s0-1.4-.5-1.9c-.4-.7-1.3-1.4-2.1-1.6-.5-.1-.6,0-1.4.6-.4.2-.6.5-.9.7-1.1.7-2.3.7-3.4.7,0,.5,0,1.4-.9,2-.2.2-.6.2-.7.4h0c0,.2-.2.5-.4.6,0,.1,0,.4-.2.7-.6,2.2-1.3,4.2-2.7,4.9-1.3.7-3.4.7-5.8-3.2-1.9-2.9,0-4.9,1.3-6,1.1-1.1,1.5-2.2,2.1-3.6l.2-.7c.4-.9.9-1.6,1.5-2.2.5-.5.9-1.1,1.1-1.5.5-1.1,0-2.6-.4-4.1-.2-.7-.4-1.4-.5-2.1,0-.8,0-1.5,0-2.3s0-2.1-.5-2.9c0-.1-.7-.9-1.2-1.5-2-2.6-2.5-3.2-2-4h0c.7-1.1,1.8-.7,2.6-.4-.5-.6-1.3-1.4-2.6-2.5-1.6-1.6-3.1-2.8-4.8-3.2-.6,0-1.3-.2-1.9-.2-1.2,0-2.3-.2-3.5-.8h-.2c-1.5-.8-2.3-1.2-3.8-.7-2.6.9-3.5-.4-4.8-1.8-.8-1.1-1.4-1.3-1.5-1.3-.4,0-.8.4-1.1.6-1.6,1.6-1.8,2.6-1.5,3.1,0,.2.6.7.8,1.1,1.1,1.1,2.3,2.5,1.8,3.9-.5,1.3-2.2,1.5-3.6,1.6-.6,0-1.4.1-1.6.4-.6.4-.6.9-.2,2.5,0,.4,0,.6,0,.9.2,1.3,0,2.6,0,3.8v2.3c0,1.2,0,2.3-.5,3.6l-.9,2.5-1.2-2.3c0-.4-.4-.7-.5-.9,0-.2-.2-.5-.4-.6-.2,1.2-.5,2.5-1.6,2.8-.5.1-1.1,0-1.4-.4-1.1-.9-.2-3.9-.2-3.9,0-.7.5-1.3.7-1.9,0-.4.4-.7.5-1.1.2-.6.2-2.6,0-3.6,0,.4-.4.7-.5,1.2,0,.4,0,.7-.2,1.1,0,.8-.2,1.6-.7,2.5s-1.3,1.2-1.9,1.4c-.2,0-.5.1-.6.2-.4.2-.5.7-.6,1.5v.4c-.4,1.2-.8,2-1.2,2.8-.6,1.1-.9,1.8-.9,2.9.2,2.8,0,5.2-.6,7.6-.2.9-.7,1.8-1.2,2.6-.6.9-1.1,1.8-.8,2.6,0,.4.2.8.5,1.3.2.6.6,1.2.7,2,.2,1.3-.4,2.3-.7,3.2v.4c-.8,1.8-.7,3.1.5,4.5l.2.4v.4c0,1.4.4,2,1.2,2.6,1.8,1.3,2,2.6,2.3,4.2v.5c.4.9.6,2.1,1.1,2.9,0,.2.2.5.5.7.6.8,1.2,1.8.7,3.5-.4,1.4-.5,2.8-.5,4.2s0,2.9-.5,4.5c-.2,1.1-.6,2-.8,2.9-.6,1.8-1.1,3.4-1.3,5.3-.4,2.3-1.4,4.8-2.9,6.6-.4.5-.8.8-1.2,1.2-.8.6-1.5,1.3-2.5,1.8-3.6,2.3-8.6,3.5-11.5,0-.9-1.2-1.6-2.6-2.2-4.1,0-.1,0-.3,0-.4,0-.2,0-.4-.2-.6-.4-.7-.7-1.5-1.2-2.3-.4-.7-.7-1.4-1.1-2.1-1.2-2.6-1.4-5.2-1.4-7.3v-5.2c0-1.6-.7-3.3-1.4-5-.8-2.2-1.8-4.6-1.5-7.3,0-1.6.6-3.1,1.1-4.5,0-.5.4-.9.5-1.4.6-1.8.7-3.5.7-5,0-2.3.6-4.7,1.1-6.8.4-1.6.7-3.4.9-5.2,0-.6,0-1.2,0-1.8,0-1.6.2-3.3.7-4.9.5-1.5,1.3-2.7,2.1-3.9.4-.5.6-.8.8-1.3,1.2-1.9,1.8-3.9,1.9-6v-1.6c-.4.7-.7,1.8-.9,2.2-.2.6-.4.9-.5,1.3-.9,1.8-2,3.5-3.3,5.2-1.2,1.5-2.2,3.1-3.2,4.6-1.1,1.5-2.1,3.2-3.3,4.7l-1.9,2.5-.2-3.1c0-.7,0-1.2,0-1.6v-2.1c0-2.1,1.1-3.8,2-5.3.2-.4.5-.8.7-1.2.7-1.2,1.1-2.6,1.4-4,.2-1.2.6-2.2,1.1-3.4,0-.1,0-.2,0-.4s0-.2,0-.4c0-.4.4-.8.6-1.2.8-1.6,1.6-3.3,1.6-4.8s0-1.8.6-2.7c.4-.5.7-.8,1.1-1.2.2-.2.5-.5.7-.7v-.7c0-.8.2-2,1.2-2.7.4-.2.9-.5,1.9-.4l.8.2v.8h0c0,0,.4,0,.5,0,.2,0,.6,0,.9-.2.4,0,.5-.4.7-1.5s.2-1.1.5-1.6c.4-.8,1.3-1.4,2.1-1.4s1.4.4,1.8,1.1c.6,1.2,0,2.3-.6,3.1,0,0-.2.4-.4.5,0,0,0,.2,0,.5h0c.2-.2.5-.5.7-.8.4-.4.7-.7.8-1.1,0-.2.4-.5.5-.8.4-.6.6-1.2,1.2-1.8,1.6-1.9,3.9-2.1,5.8-2.3h.4c.8,0,1.3-.2,1.6-.5.7-.7,1.3-1.2,2-1.8,0,0,.4-.4.6-.6.4-.5.8-.9,1.5-1.3.8-.4,1.8-.2,2.6,0h.8c1.2,0,1.9,0,2.9.6.5.2.9.2,1.5.4.4,0,.7,0,1.2,0h.5c.8.4,1.9.6,2.6,1.2.4.2.7.7.9,1.1,0,0,0,.2.2.2v-.2c0-.8-.4-1.9.2-2.7.2-.4.7-.7,1.5-.7h.6c0,0,.2,0,.2,0,0,0,.2,0,.4-.2,1.1-.7,2-.6,2.8-.5h.7c0-.2-.4-.6-.7-.8l-.4-.2c-.7-.5-1.5-.9-2-1.9-.2-.6-.4-1.1-.5-1.5,0-.4,0-.6-.2-.8-.7-1.6-4.8-1.2-6.9-.9-.6,0-1.2,0-1.5,0h-1.3v-.5c-.9-.4-1.5-.8-2-1.5-.6-1.1-.4-2-.2-2.7v-1.1c-.2-.2-1.1-.4-2.2,0-.6,0-1.1.4-1.6.7-.8.5-1.8.9-3.1.9s-1.5,0-2.2,0c-.9,0-1.8-.2-2.5,0-.7,0-1.2.6-1.9,1.3-.5.5-.9,1.1-1.6,1.5h-.4c0,.2-.4.4-.6.6-.4.2-.7.6-1.1.7,0,0-.4,0-.6.2-.6.2-.8.4-1.2.8-.8.9-1.6,1.4-2.9,1.6-.2,0-.6,0-.9,0h-.5c-.4,1.9-1.5,2.3-2.5,2.2-1.3-.2-1.6-1.4-1.9-2.1,0-.2,0-.5-.2-.5,0,0-.7,0-1.2-.2-.8,0-2.1,0-2.9-1.2-.7,0-1.3-.6-1.6-.9,0,0-.4-.2-.5-.4-1.3-.9-1.8-1.1-2-1.1h-.2c-.5,0-1.6.6-2.6-.7,0,0,0,0-.2.2-.7.7-2.6.8-3.3.5l-.7-.4v-1.9h.4c0,0,0-.2,0-.4-.4.5-1.4,1.5-2.8.7l-.6-.4v-2.6h0c-.2.5-.5.8-.8,1.1-.2.6-.6,1.2-1.1,1.6-.8.9-1.6.9-2.2.8-.5,0-1.2-.6-1.5-1.8-.5-1.6,0-3.6.9-5,.7-1.1,1.6-1.6,2.5-2.2.2,0,.5-.2.6-.5.7-.5,1.2-1.1,1.6-2,.6-1.2,1.4-2.6,2.6-3.6.5-.5.9-.7,1.5-1.1,0,0,.4-.2.5-.4-.8,0-1.9.2-2.2.4-1.5.6-2.9,1.9-4.1,3.2-.4.4-.7.7-1.2,1.1-.9.8-1.9,1.9-2.8,2.8-1.2,1.3-2.3,2.6-3.8,3.6-.6.5-1.1.8-1.6,1.3-1.3,1.1-2.6,2-3.6,3.2-2,2.1-3.9,2.2-6,2.3h-1.2c-1.6,0-2.6,1.1-3.8,2.1-.5.4-.9.8-1.4,1.2-1.5,1.1-3.2,1.9-4.8,2.5h-.4c-1.6.6-2.6-.4-3.2-.9-.2-.2-.5-.5-.8-.7h-.2s0,.2-.2.2c-.2.4-.8,1.1-1.5,1.3-.6.9-1.4,2-3.4,1.2h0c-.5-.2-1.8-.8-1.8-2s.2-1.6,1.6-1.8h0s0-.4,0-.6c0-.4-.2-.8-.2-1.4s.2-1.3.5-1.8c-1.6.2-3.3.6-4.6,1.5-.5.4-1.1.7-1.5.9-1.3.9-2.6,1.8-4.3,2.3-1.4.5-5,.8-6.8,0-.9-.5-1.2-1.2-1.2-1.6,0-1.2.8-2.2,1.5-2.9,1.3-1.2,2.5-2.3,3.6-3.5,1.9-1.9,3.9-3.8,6-5.5.6-.5,1.2-.9,1.8-1.4,1.1-.8,2-1.6,2.9-2.6.8-.8,1.5-1.6,2.2-2.6.7-.8,1.4-1.6,2.1-2.5,2.2-2.3,4.9-3.5,7.5-4.7,2-.8,3.8-1.8,5.4-2.9h0c0,0-.6-.5-1.4-.8-.5-.2-.8-.5-1.2-.7-.6-.4-1.1-.7-1.5-.7h-1.1c-.9,0-1.8,0-3.1-.8-.5-.4-.6-.4-1.1-.2-.5,0-1.1.4-2,.2-.7,0-1.2-.5-1.5-.7h0c0,0,0,0-.2,0-1.3.8-2,.7-2.8.5-.2,0-.5,0-.7,0-.4,0-.5,0-.9.2s-.7.5-1.3.6-1.2,0-1.5,0h-.7c0,0-.2.4-.4.6-.2.5-.6.9-1.1,1.4-1.2,1.1-2,.9-2.9.5,0,0-.4,0-.6-.2-.4,0-.7,0-1.1-.2-.6,0-1.3,0-1.9-.5-.6-.2-1.2-.7-1.8-1.1-.2,0-.5-.4-.8-.5-.4-.2-.7-.5-1.2-.8-.9-.7-2.5-1.6-3.3-1.4-.2,0-.4,0-.5.2-.5.2-1.8.9-3.1-.5-.5-.5-.7-1.1-.9-1.6,0-.4-.4-.8-.5-.9-.4-.4-.6-.4-1.1-.5-.2,0-.6,0-.9-.2-.9-.2-1.5-.8-1.9-1.2s-.4-.4-.6-.6c-.2,0-.6,0-1.1,0s-1.1,0-1.8-.2c-.5,0-1.1-.5-1.4-.6-.7-.4-1.3-.6-2-.6-1.1,0-2.3.6-3.5,1.3,0,0-.2.2-.4.4-.5.5-1.2,1.2-2.3.9h-.8c0,0,0-.9,0-.9,0-.7-.6-1.2-1.5-1.6-.6-.4-1.2-.7-1.6-1.2-.6-.5-1.1-.9-1.6-1.1-.4,0-.6,0-.9,0-.8.2-2,.5-3.2-.8-.2-.2-.7-.2-1.5-.2h-1.8c-1.8-.5-2.1-1.8-2.2-2.7,0-.4,0-.7-.2-.9-.2-.5-.4-.8-2.2,0-.4,0-.6.5-.9,1.1s-.7,1.2-1.5,1.6c-.9.6-1.6.5-2.1.2-.9-.6-1.1-1.8-1.2-2.6v-.7h-16.7v449.1c.2,0,.4-.1.6-.2.6,0,1.2,0,1.8.6,0,0,0-.2.2-.4.4-.7,1.2-1.9,2.8-1.6h.9v2.5h0c.2,0,.7-.5,1.1-.7,1.2-.9,3.1-2.3,4.8-1.2l.9.7-.6.9c-.4.6-.8,1.3-1.4,2h.4c.6,0,1.2,0,1.5-.1.2-.1.5-.5.7-.9s.6-.8.9-1.2c1.6-1.6,4.2-3.2,4.9-3.5.5-.4,1.1-.6,1.5-.7.8-.4,1.5-.7,1.9-1.1h-.7v-1.2c0-1.5,1.2-3.5,2.5-4.7,1.2-1.1,2.3-1.4,3.3-1.2l1.2.2v.5c1.2-1.5,1.2-1.8.2-2.6s-.2-.2-.4-.4c-.6-.6-1.2-1.2-1.4-2.6v-1.8s0-.1-.4-.5c0-.1-.4-.2-.6-.4-.6-.4-1.6-.9-1.6-2.7s.5-1.9,1.2-2.3c.6-.5,1.3-.6,2-.4.8.2,1.3.8,1.8,1.4v-.2h.8c1.5,0,2.8,0,3.5.8s.4,2,0,3.1c0,.5-.2.8-.2.9h2.2l.2.8c0,.2,0,.6,0,.8.2-.1.4-.2.6-.4.7-.6,1.4-1.1,2.2-1.4,2.3-.9,4.8-1.8,7.3-2.6,1.2-.5,2.5-.8,4-1.1,1.4-.2,2.7-.5,4-.6,1.2-.1,2.5-.4,3.6-.6.5,0,1.1-.2,1.8-.5,1.9-.5,3.9-1.1,5.3-.5.6.2.9.7,1.3,1.1s.6.6.8.7c.8.4,1.8.5,2.8.7,1.3.2,3.8.6,5.9.2.2,0,.5,0,.7-.1,1.1-.2,1.9-.4,3.3.2.4.1.7.4.9.5.6.4.7.4,1.3.1,0,0,.4-.2.6-.4.5-.4,1.1-.7,1.9-.8,1.3,0,1.9.5,2.2.7.2.1.2.2.5.2.6.2,1.2,0,2-.2,1.1-.4,2.3-.7,3.8,0l1.2.5-.6,1.1c2.6.2,5.3.8,6.9,2.5l.8.8-.8.8c-.5.5-.8.8-1.3,1.1s-.4.4-.6.5l.4.2c1.2.7,2.2.8,3.5.9h.8c1.5.2,2.6.7,3.9,1.2l.5.2c.2.1.5.2.6.2.2-.5.6-1.3,1.5-2,1.1-.6,2.3-.4,3.4-.1.5,0,1.1.2,1.3.2s.6-.1.8-.2c1.2-.4,1.9-.6,2.6-.2h0c.4.4.6.6.6,1.1.2-.4.6-.7.9-.9.6-.4,1.1-.4,1.4-.4h.2c0-.2.2-.7.2-1.1s0-.6,0-.8v-.5c.2-1.6.8-4.5,2.8-4.7.9-.1,1.5.2,1.9.6.7.7.7,1.8.7,2.7h0c.5-.2.9-.4,1.5-.5h0c-.5-1.8.5-2.7.9-3.3.2-.2.4-.4.5-.6.2-.4.4-.7.5-.9.5-.8.8-1.8,1.9-2.6.2-.1.5-.4.7-.6.4-.2,1.3-.9,1.4-1.2,0,0-.7-.2-1.1-.2-.9-.2-2-.5-2.7-1.4l-.6-.8.7-.7c.4-.4.6-.6.7-.9-.4-.4-1.1-.8-1.5-.9h-.4c-.6-.1-1.4-.4-1.9-1.1h0c-.2-.6-.2-1.2,0-1.8v-.5h0c0-.9-.6-1.6-1.2-2.2s-.6-.5-1.1-.7h0c-.4-.2-.7-.5-1.1-.7-.8-.7-1.1-1.2-1.3-1.9,0-.1,0-.4-.2-.6l2.1-.9c0,.4.2.6.4.8,0,.4,0,.5.5.7.2.2.6.4.8.6.5.2.9.6,1.4.9,1.1.9,1.6,2.2,1.9,3.8v.9h0c0,.1.2.1.4.1h.2v-.6c.2-1.3,1.8-2.5,5-3.8.9-.4,1.6-.5,2.5-.5.9-.1,1.8-.2,2.6-.6,0,0,0,0,.2-.1v-.7h2.6v.8l.4.4c.2.2.5.5.7.6h.2s.2-.5.2-1.2v-2.1h1.8c1.2.5,1.8,1.2,2.1,1.8.4.5.6.7.9.7h0c.2-.9.6-2.1,1.6-2.6s1.6-.1,2.1.1c.2-.6.6-1.1.8-1.5.4-.6.7-1.1.8-1.5,0-.1,0-.5,0-.8.2-1.3.4-2.9,1.5-3.8.4-.2,1.1-.5,1.9-.2l1.3.4-.5,1.2c-.2.6-.2,1.1.2,1.4.5.4.9.7,1.5,1.4,1.1,1.4.6,3.1.2,4.3.4,0,.8-.2,1.2-.4.5-.1.9-.2,1.2-.4,0,0,.2,0,.4-.1.5-.2,1.2-.6,2-.2.7.2,1.1.9,1.1,1.3.5-.1.9-.6,1.3-.8.2-.2.5-.4.7-.5,1.8-1.3,3.1-1.5,5.2-1.1l1.5.4-.6,1.1h.6l.4-.8c.7-1.8,3.4-4.7,5.3-5.4,2.5-.9,5.5.1,7.6,1.1l-.4,1.1h.8c1.3-.4,2.6-.5,3.9-.5h0c2.1,0,3.3.8,4.6,1.9.4.2.8.7,1.2,1.1,0-.6,0-1.2.2-1.9l.8-2.3,1.3,2.1c.2.5.8.9,1.4,1.5,1.3,1.2,2.8,2.5,2.5,4.5v.6c.4.4.8.7,1.2.8,0,0,.6.1.9.2.9.2,2.3.5,2.9,1.6.4.6.4,1.3.4,2l.2-.2.9.5c0,0,.7-.5,1.1-.7.9-.7,2.6-2,4.5-.8s1.1,1.4,1.2,2c0,0,0,0,.2-.1.2-.2.2-.6.2-1.1l-.2-2,1.9.8c.5.2.8.4.9.4,0-.2.2-.5.2-.8v-.6c.8-1.9,1.9-2.5,3.1-2.6v-.6c0-.8.5-1.3,1.2-2l.2-.2c.6-.6,1.4-.9,2-1.2.4-.1.9-.4,1.1-.6l.6-.7.9.2c2.3.9,4.6,2.1,6.8,3.4,1.2.7,2.5,1.4,3.8,2,1.9.9,3.5,2.2,4.7,3.6.5.6.7,1.2.9,1.8.4.7.5,1.2.9,1.5,0,0,.2,0,.5.2.4.1.9.4,1.5.8.5.6.7,1.2.8,1.6,0,.4,0,.6.2.7.4.5.9.5,2,.4.8,0,1.8,0,2.7.4,1.9.7,3.2,2.8,4.3,4.6.5.8.9,1.5,1.4,2,2.2,2.7,2,5.4,1.8,8.2,0,1.3-.7,2.5-1.2,3.5-.8,1.8-1.3,3.1-.7,4.5l.2.5c.5,1.1.7,1.8.4,3.5v.4c-.2,1.2-.4,1.5,0,2.3.2.5.7,1.2,1.1,1.5h0v-2.3l1.4.2s0-.2.2-.4c.4-.6,1.2-1.9,3.1-1.5h.8v1.1c.2,2.1,0,5.2-1.1,7.4-1.1,2-1.1,2.1.6,3.4,1.3,1.1,1.8,2,2.2,2.9.2.6.5,1.1.9,1.6.6.8.9,1.8,1.4,2.8,1.3,2.9,2.1,4.5,3.5,4.6-.2-1.3,0-2.6.5-3.3.4-.5.8-.7,1.4-.6,1.1,0,1.5,1.2,1.9,2.2,0,.5.2,1.2.4,2,0,.6.2,1.8.5,2.6.2-.5.6-.8.9-1.1.5-.2,1.1-.4,1.6,0,1.6.7,1.2,2.6,1.1,3.4v.5c0,.2,0,.5,0,.8h0c.2.4.6.6.7,1.2s0,1.1,0,1.5v1.2c.6,1.9,2,3.3,3.4,4.9.6.7,1.3,1.4,1.9,2.2,1.5,2,3.1,1.9,5.9,1.9h.6c3.5,0,5,.7,6.9,3.6l.2.4c1.8,2.6,1.9,2.6,4.2,1.6,1.6-.7,2.9-.7,3.9,0,.6.5.8,1.2.7,2.1-.2,1.5-1.6,2.9-3.4,3.5-.6.2-1.4.2-2.3.4-1.3,0-4.1.4-4.1,1.1v.4c.8.6,3.5,0,4.9-.5,1.5-.6,3.2-1.1,4.7-1.4,1.2-.4,2.3-.6,3.4-.9,2.8-.9,2.9-5.9,3.1-10.1,0-2.6,0-5,.7-6.8l.7-1.9,1.2,1.3c0-.7-.2-1.4-.5-2,0-.4,0-.7-.2-1.1-.2-1.4-.4-2.8-.4-4.1v-1.4c0-1.3-.4-2.5-.7-3.8,0-.6-.2-1.2-.5-1.6-.5-2.1-1.3-4.5-2.1-6.6-.5-1.3-.9-2.6-1.3-3.8l-.4-1.2c-.9-2.9-2-6.3-3.6-8.6-1.1-1.4-2.3-2.8-3.8-4-.2-.2-.6-.5-.9-.7-1.2-.7-2.8-1.8-2.7-3.9v-2.1l1.9,1.2c.9.6,1.8,1.6,2.6,2.6.4.5.7.8,1.2,1.3h0c-.2-.6-.4-1.1-.4-1.5-.2-.9-.4-1.5-1.1-2.3-1.9-1.9-2.8-4.2-3.9-6.6-.4-.8-.7-1.6-1.1-2.5-1.1-2.2-3.3-4.7-5.2-6.6-.5-.5-1.1-.9-1.5-1.3s-1.5-1.1-2.2-2c-.4-.5-.7-.8-1.1-1.3-.7-.8-1.4-1.6-2-2.9l-.7-1.6h1.8c.5,0,1.1.1,1.8.2.5,0,1.3.4,1.8.4h0c0-.6-1.3-1.2-2.1-1.6-.5-.2-1.1-.5-1.4-.8-.2-.2-.6-.4-.9-.6-2.2-1.6-5-3.6-6.2-6-.5-.9-.7-2.1-.9-3.3,0-.7-.4-1.3-.5-1.9-.4-.9-.6-1.9-.7-2.8-.2-.7-.4-1.4-.6-2.1-.2-.7-.5-1.4-.7-2.2-.7-2.5-1.5-5-2.5-7.2-.2-.6-.7-1.2-1.1-1.6-.4-.6-.8-1.1-1.2-1.8-.2-.4-.4-.7-.5-1.1-.6-1.6-.4-3.2,0-4.5-.5,0-.8-.2-1.2-.5-.5-.4-1.1-.8-1.1-1.5s.5-1.1.8-1.3l.4-.2c.2-.2.6-.5.8-.7.7-.5.9-.8,1.1-1.5,0-.4,0-.5-.5-.9-.4-.4-.8-.9-.9-1.8-.2-1.4.9-2.5,2-3.1,0-.4-.4-.8-.4-1.3v-.7l.6-.4c.8-.5,1.4-2.1,1.2-2.6h-.2c-1.1-.8-1.2-1.8-.6-2.9.8-1.5,2.2-1.4,2.8-1.3h.5c.5,0,.9-.2,1.2-.5h0c0-.2,0-.7.5-1.2s.8-.6,1.1-.7h0c.5-.6.8-1.3,1.1-1.9v-.6c0-.5,0-1.4.6-2,0-.2-.4-.6-.5-.8-.6-.8-1.9-2.7,0-4l1.5-1.1v.5c0-.2,0-.5.2-.7.6-1.4,1.9-1.5,2.6-1.5s.7,0,.8-.1c.4-.4.6-1.4.8-2.1,0-.2,0-.4,0-.6l2.3-8.7v9h0c1.2-.4,2.2-1.3,2.2-2.1s0-.4,0-.6c0-.5-.4-1.2,0-1.8.4-.7,1.1-.9,1.6-1.1,1.4-.4,2.5.4,3.2,1.1.9-.7,1.2-1.8,1.6-3.2v-.6c.9-2.9,2.7-3.1,4.2-3.1-.6-1.9-1.6-4.9,1.1-6.1l.8-.4.6.8c.2.2.4.5.5.8.8-.8,1.3-2.2,1.8-3.5.2-.7.5-1.3.7-1.9.7-1.5,1.3-2.9,2-4.5l.6-1.3c.8-1.9,2.1-3.2,3.4-4.6l.6-.6c1.6-1.6,2.7-2.1,4.3-2.9l.7-.4c.9-.5,1.3-.7,1.6-1.5,0-.1,0-.4,0-.6,0-.7.4-2.1,2.1-2.5l1.3-.2v1.3c0,.4,0,.7,0,.9.2-.4.4-.7.6-1.1.5-.9.8-1.9,1.3-2.8,1.1-2.5,2.1-4.9,4-7,.8-.8,1.6-1.5,2.6-2.1.4-.2.8-.6,1.2-.8.5-.4,1.1-.6,1.6-.9.5-.2,1.1-.5,1.5-.8l.4-.2h.8c.8.4,2.5,0,3.6-.4.6-.1,1.2-.2,1.6-.4h0c2.2-.4,3.4-.6,4.5-2.2.2-.4.6-.8.8-1.3,1.1-1.5,2.3-3.4,2.5-4.9,0-.6,0-1.1-.4-1.3-.4-.4-1.2-.6-2.3-.5-.4,0-1.1.2-1.6.5-1.5.5-3.1.9-4.1.2-.7-.4-1.1-.9-1.1-1.5,0-1.1.6-1.8,1.2-2.3s.4-.4.5-.5c0-.4-.7-1.3-1.1-1.8l-1.1-1.2,1.2-.7v-.4c0-.5.5-1.9,2.1-1.9s1.2.2,1.5.6c0-.1.4-.4.6-.5.6-.2,1.2-.2,1.6.1.4.2.6.7.7,1.2.6-.4.9-1.2,1.5-2.5.5-1.2,1.1-2.3,2-3.1.9-.7,1.3-1.6,1.3-2.8v-.5c0-1.2,0-2.3-.5-3.2-.8-1.4-4.1-.7-6.1,0-1.1.5-2.3.7-3.4.9-.4,0-.7.1-1.1.2-.9.2-1.8,0-2.5,0s-1.4-.1-2,0c0,0-.5.4-.7.5-.8.7-2,1.5-3.2,1.3-.5,0-1.1-.4-1.5-1.2-.5-.9,0-2,.2-2.9,0-.5.4-1.1.4-1.3l-.2-1.3h.4c0-.5,0-.9.5-1.4l.5-.6h.7c1.9.5,2.1,1.8,2.2,2.5,0,.4,0,.6.2.7.4.4,1.5.1,2,0h.5c-.7-.7-2-2.1-1.1-3.6l.5-.8,1.3.5c.8.2,1.6.5,2.6,1.2.2.2.5.4.7.6h0c0-1.3.2-2.6.9-3.3s.9-.6,1.4-.6h0c.5,0,.7.2,1.2.7,0,0,.4.4.5.5h0c0,0,.4-.1.5-.1-1.3-.9-1.5-2.5-1.5-3.5h-.4v-.4h-1.1l-.2-2.3h.7c.2-.1.4-.2.6-.2,0-.8,0-1.3-.5-1.8,0,0-.2-.2-.5-.2-.4-.2-.9-.5-1.2-.9-.4-.7-.5-1.3-.5-1.8v-.6c-.2-.9-1.1-1.9-2-1.9h0c-.4.2-.8.6-1.5.5-.7,0-1.2-.4-1.5-.6-.5-.2-.7-.5-1.1-.4h-1.4v-1.3c.2-1.2-1.3-2.7-2.2-3.6l-.2-.2c0-.1-.5-.4-.8-.6-.9-.7-2.2-1.6-2.3-2.9,0-.8.2-1.5.8-2.2.2-.4.6-.5.8-.7,0,0-.2,0-.4-.1-1.3-.7-2.6-3.2-2.1-4.8.2-.7.7-1.3,1.6-1.4.2-.5.5-.8.7-1.2.8-1.3.9-1.4,0-2.1-.8-.7-2.3-1.2-3.6-1.5-.6-.2-1.2-.4-1.6-.6-1.1-.5-2.1-.4-3.2-.4h-2.8c-1.8-.2-4.3-1.9-5.3-3.9-.4-.8-.5-1.8-.2-2.5l.5-1.4,1.3.7c.5.2,1.1.2,1.9,0,.7,0,1.5-.2,2.5,0s.8.4,1.1.5h.2s.2-.2.4-.2c.5-.4,1.4-1.2,2.7-.7s1.8,1.5,2.1,2.3c.5.9.5,1.1,1.1.9.4,0,.5,0,.6-.1,0-.4-.5-1.1-.6-1.4-.8-1.5-1.5-2.9-2.2-4.3-.7-1.5-1.5-3.1-2.3-4.6s-.7-3.6.2-4.8c.8-1.1,2-1.4,3.4-1.1,2.2.6,3.1,3.5,3.3,5.2v.9c0,.5,0,.9.2,1.3l.5.2c.4.1.7.4,1.1.7.6.6.8,1.3.9,1.8,0,.1,0,.4.2.6v.4c.5.8.5.9.9,1.1h.4v-.4c0-.7,0-1.8,1.1-2.2.9-.6,2.1-.2,2.5,0,1.3.5,1.6.9,1.8,2.1h0c0,.2,0,.5,0,.7.2.6.5,1.3.2,2h0v.7c.2.6,0,1.1,0,1.4.6.4,1.1.8,1.2,1.5v.6c.4,0,.8-.1,1.2,0h1.1v.8c.7,0,1.5,0,1.9.9.2.5.2.9,0,1.3-.2.7-1.1,1.1-1.5,1.3h0c0,.2-.2.6-.6.8h0c-.2.2-.4.2-.6.4,0,.2-.2.6-.6.7,0,0-.2,0-.2.1h0c0,.4,0,1.1-.7,1.4h0c0,.2.4.6.5.9,0,.4.4,1.3-.4,1.9,0,0,0,.1,0,.2.4.7.4,1.5,0,2,.5.8.9,1.6.9,2.7v1.1c0,.4,0,.9,0,1.2.2-.1.5-1.1.6-1.4l.2-.7c0-.5.2-.8.2-1.1,0,0,0-.4-.2-.6,0-.4-.4-.7-.5-1.1-.2-1.2,0-2.2.8-2.7,0,0,.2-.1.2-.2-.4-.6-.7-1.2-.5-2,.2-.6.7-1.1,1.6-1.4.7-.2,1.5-1.2,1.9-1.9,0-.5,0-.8,0-1.3,0-.8-.2-2,.8-3.3h0l-.7-.7c0-.1-.2-.4-.4-.4-.7-.5-1.5-1.2-1.4-2.6,0-.7.4-1.8,1.2-2.2.6-.4,1.3-.4,1.9,0,0,0,.4.2.5.4h0c.2-.3.2-.4.2-.6h0v-.4c0-.4.4-1.2,1.3-1.5h.4c0-.6.2-.9.5-1.4l.2-.4c.6-1.3-.5-3.2-1.4-4.9-.5-.8-.9-1.6-1.2-2.5v-.4c-.5-1.1-.9-1.5-2.1-2.3-1.3-.9-3.2-2.2-4.2-4-.5-.8-.7-1.6-.8-2.5-.2-.9-.4-1.6-.8-2.2,0-.1-.4-.2-.6-.5-1.1-.9-3.2-2.7-1.8-4.6.4-.5.8-.7,1.3-.7s1.2.2,1.8.7c.5.4.8.8,1.2,1.3.2.2.5.6.6.6.2.1.6.2,1.1.4.8.1,1.8.4,2.7,1.4,0,.1.2.2.4.5,0,0,0,.1,0,.2,0,0,.2-.2.4-.4s.5-.5.6-.6c.9-.7,1.8-.9,2.5-.6,1.3.7,1.3,2.6,1.3,4.9h0c.5-1.6.9-2.7,1.8-4.1.9-1.3,1.3-2.3,1.4-3.6v-.8c0-1.6,0-3.3,1.2-5v-.2c.8-1.2,1.3-2,1.3-3.3s0-3.2-.4-4.6c-.5-1.9-.7-3.5.2-5.8.6-1.4.4-1.9-1.1-2.7s-3.2-1.9-1.9-4.7c.4-.7.9-1.6,1.9-2,.4-.1.7-.1,1.1,0,0-.7.5-1.3.9-1.8.4-.2.9-.6,1.8-.5h.2c.5-.7,1.3-.8,1.9-.9h.4c0,0,.5-.2.7-.5.4-.2.6-.4.9-.6.2,0,.6-.2.8-.4.4,0,.6-.2.8-.4.4-.2.6-.5.9-.6.7-.5,1.4-.9,2.2-1.3.7-.2,1.1-.6,1.6-1.1.2-.1.5-.4.7-.5,1.1-.8,2.3-.9,3.4-1.2.8-.1,1.5-.2,2.1-.6h-1.3v-1.2c0-.6.2-1.1.5-1.5,0,0-.2,0-.4.1l-1.4.4c-.2,0-.6.1-.8.2-.4,0-.6.1-.8.2-.6,0-.8.1-1.3.5s-.8.7-1.2,1.1c-.2.2-.5.5-.7.6-1.2,1.1-2.5.9-3.4.9s-.9,0-1.3.1-.6.6-.8,1.1c-.5.8-1.4,2.5-3.8,1.6l-.8-.4v-.9c.2-.8.6-1.4.8-2.1.2-.4.4-.7.5-.9,0-.2.4-.9.7-1.3.6-.6,1.3-.8,2.1-1.1.7-.1,1.2-.4,1.4-.6,0,0,.2-.4.2-.6,0-.5.4-1.1.9-1.6.5-.4.9-.6,1.4-.7.4,0,.6-.2.7-.4s.2-.2.4-.4c.4-.5.9-1.1,2-1.3.7-.1,1.4-.5,2.1-.9.7-.4,1.4-.8,2.3-1.1.4,0,.7-.2,1.2-.4,1.2-.4,2.2-.7,3.4-.8h1.2s0-.1.2-.2c0-.2.4-.5.6-.7.4-.4.8-.5,1.2-.6h.4c0-.1.2-.4.4-.5h0c1.2-1.1,3.5-1.9,5.3-1.1v-1.2l.7-.2c.6-.2,1.1-.5,1.4-.7h0c.4-.4.8-.7,1.4-.9h0c.4-.1.8-.1,1.2-.1h.2c0-.2,0-.4-.2-.6-.2-.6-.5-1.2-.5-1.8,0-1.2.8-2.6,2-3.1.9-.5,2-.2,2.7.4.5.5.7,1.1.9,1.5,0,.2.2.6.4.7,0,0,0-.2,0-.8v-.8c0-.4,0-.7,0-1.1.4-1.1,1.1-1.9,1.6-2.6.4-.4.6-.7.8-.9.6-.8,1.3-1.6,2.2-1.5,1.1.1,1.4,1.2,1.9,2.1.5,1.2.8,1.4.9,1.5h.4c.7-.4,1.5-1.4,1.6-2.1v-.4s-.6-.4-.8-.5c-.2,0-.5-.2-.7-.4-1.1-.5-1.5-1.4-2-2.1s-.4-.7-.7-.9c-.2-.2-.6-.5-1.1-.6-.7-.4-1.5-.7-2.1-1.6-.4-.6-.6-1.2-.8-1.8-.2-.7-.5-1.3-.9-1.6-.4-.2-.9-.4-1.4-.4-.9-.1-1.9-.2-2.7-1.1-1.2-1.3-.6-3.2,0-4.3,0-.2,0-.4,0-.5.4-1.8,1.3-2.3,2.2-2.9,0,0,.2-.1.4-.2h-.2c-2.1-.8-2.5-2.7-2.6-4.2,0-1.1,0-2.1.4-2.8,0-.2,0-.5.2-.7,0-.2,0-.5,0-.7,0-.6,0-1.2,0-1.9v-1.5h0v-2.5c-.2-1.8.6-2.5,1.2-3.1.2-.2.5-.5.7-.8.2-.5.5-1.1.7-1.6.2-.6.4-1.2.6-1.6.6-1.3,1.6-2.3,2.6-3.2h.2c.4-.5.4-.8.2-1.6,0-.7,0-1.6.2-2.5l.5-1.3,1.2.7c0,0,.4.2.5.4h0s0-.2-.2-.4c-.2-.5-.9-1.4-.2-2.6.5-.9,1.6-1.3,2.9-.8v-.8c0,0,0-.2.2-.4,0-.6.4-2.6,2.1-2.3.4,0,.7.2.9.5.2-.4.6-.6.9-.7.6-.2.9,0,1.3,0-.2-.2-.5-.5-.6-.8-.2-.6-.2-1.1,0-1.5.4-.7.9-.9,1.3-1.1h.2c0-.2-.2-.9-.7-2.1v-.2c-.4-.6-.8-1.6-.4-2.5.2-.5.7-.8,1.3-.9h.4c0-.4,0-.7.2-1.1.6-1.3,1.6-1.4,2.1-1.4,1.5,0,2.7,1.8,2.9,2.6,0,.5,0,.8,0,1.2.6,0,1.1.2,1.6.4-.2-.8-.5-2.3,0-3.5.4-.7.9-1.2,1.6-1.3.9-.2,1.5,0,1.9.2,0-.2.4-.5.6-.6.6-.4,1.3-.4,2,0,0,0,0,0,.2,0,0-1.2,0-2.5.9-2.9.4,0,.9-.2,1.8.4,0,0,0-.4,0-.5.5-1.5,1.3-1.8,1.8-1.8s1.3,0,1.8,1.4c0,0,0,.2,0,.4h0c.2,0,.6-.2.7-.4.4-.4.5-.9.5-1.5s.2-1.4.6-2c.2-.4.8-1.5,1.9-1.4.2,0,.5,0,.7,0h0c0-1.2.8-1.9,1.4-2.5h0c-.9.2-2.7,0-3.3-1.2l2.4-1.8.8.3Z"/>
    <path class="cls-1" d="M503.5,57.4c-33.4,0-67.3-1.2-100.8-3.5-57.7-4.1-115.6-11.5-172.2-22.2-6-1.2-11.7-2.2-17.1-3.4h-.4c-43.9-9-72.7-17.1-80.3-19.3.2.5.2,1.1-.2,1.9h0c.6.7,1.5.9,2.5,1.2l1.1.4.2.5h.1c.2.5.7.9.7,1.6s-.4,1.1-.6,1.4c.1.1.2.4.4.6.2.6.1,1.3,0,1.9v1.5h-1.3c-.7,0-1.3-.2-1.8-.5-.6-.2-1.1-.4-1.5-.2-.8.1-1.9.7-2.2,1.4-.2.4-.2,1.1-.1,1.5,0,0,0-.2.1-.5.2-.6.6-2,1.8-2.1.5,0,1.1,0,1.4.4s.6.9.5,1.6c0,.9-.6,1.8-.9,2.1,0,.1-.2.2-.4.5h0c.5.2,1.1.5,1.4.9.6.6,1.1,2,.5,3.1-.4.7-1.1,1.1-1.9.9.1.7.1,1.4,0,2.2l-.2.8h-.8c-1.2,0-2.5-1.8-2.6-1.8-.4-.5-.5-.9-.6-1.3-.6,0-.9-.6-1.1-.8h0c0-.2,0-.4-.2-.4v.4c0,.7,0,2.1-1.6,2.3h0c-.5,0-.9-.2-1.3-.6-.5-.6-.5-1.4-.4-1.9h0v-.6c-.5-.5-1.2-.6-2.1-.7h-.7c-1.3-.2-2.5-.7-3.5-1.3-.8-.4-1.6-.7-2.6-.9l-.7-.2c-1.3-.5-2.3-1.3-3.2-2.1,0-.1-.4-.4-.5-.5-.6-.5-1.3-1.1-1.9-1.6-.5-.4-.8-.7-1.3-1.2-.8-.7-1.4-1.5-2-2.2s-1.2-1.4-1.9-2c-.4-.4-1.1-.5-1.4-.5h0v1.3c0,.6,0,1.3-.2,2v.4c-.4.8-.6,1.5-.8,2.3v.7c-.4,1.2-.6,2.2-.5,3.3,0,.8.4,1.5.6,2.5s.4.9.5,1.4c.5,1.6.5,3.4.5,5s0,2.2,0,3.2c.4,2.8.4,4.9.2,7,0,1.4,0,2.8-.2,4.2v1.2c0,.9,0,1.9-.4,2.8-.2.6-.6,1.1-.9,1.4-.2.2-.5.6-.6.8,0,.2,0,.5-.2.7,0,.5-.4.9-.6,1.4v.4c0,.8.2,1.3.7,1.9.5.5.6.5,1.3.6.2,0,.6,0,.9.2,1.4.2,2,1.1,2.6,1.8,0,0,.2.4.5.6s.5.5.8.7l.6.4h0c.5.4.9.7,1.2,1.4l.6,1.4h-1.5c-.8.2-1.8.2-2.6,0h-1.2c-.9,0-1.6-.4-2.1-.6-.4,0-.7-.2-.9-.4h0c0,0,0,.5-.2.6,0,.4-.2.6-.4.9-.2.6-.7,1.2-1.1,1.5-.2.4-.6.6-.7.9-.7,1.4-.9,3.6-1.1,5.5,0,.6,0,1.3-.2,1.9-.2,1.8-.9,3.2-1.5,4.6-.2.6-.6,1.3-.8,2-.4.9-.6,1.9-.9,2.9-.5,1.5-.8,3.1-1.5,4.5-.2.6-.6,1.1-.8,1.6-.7,1.4-1.4,2.6-1.8,4.1,0,.6-.2,1.3-.4,1.9-.4,1.6-.6,3.4-1.8,4.9-1.4,2-1.9,3.8-2.5,6.2-.5,1.8-1.3,3.2-2.1,4.7-.2.5-.6.9-.8,1.5-.5.8-.9,1.5-1.4,2.2-.6.8-1.1,1.5-1.4,2.5l-.2.6c-.6,1.5-1.3,3.2-2.3,4.6-.9,1.3-1.9,2.8-2.7,4.3h0c-.4.8-.9,1.4-1.4,2-.7.8-1.3,1.5-1.5,2.3-.4.9-.2,2.1,0,3.3v2.5c0,.8-.2,1.6-.4,2.3-.2,1.4-.5,2.8-.2,4,0,.9.4,1.8.6,2.7.2.8.5,1.6.6,2.5h0v.6h0c0,1.2,0,2.1,0,3.2,0,1.1-.2,2,0,2.8v1.1c0,.8.2,1.8,0,2.7,0,.7-.5,1.3-.7,1.8s-.2.5-.4.8c-.2.7-.4,1.4-.5,2.2,0,1.1-.2,2.2-.8,3.4,0,.2-.2.5-.4.7-.4.6-.6,1.2-.7,1.8v.7c0,.7,0,1.6-.9,2.5-.4.4-.7.5-1.1.6.4.4,1.1,1.3.6,2.5-.6,1.3-1.9,1.5-3.1,1.8-.6.1-1.4.2-1.6.6-.7.9-1.6,3.2-1.8,4.5,0,.8.5,1.9,1.1,2.9.2.5.6,1.1.8,1.5.4.9.6,1.9.8,2.8.2,1.2.5,2.2.9,3.2,1.1,2,1.9,3.4,1.6,6.1v1.4c0,1.6-.2,3.3-.6,5-.2.7-.5,1.4-.8,2.1-.5.9-.9,1.9-.7,2.6,0,.6.4,1.1.5,1.6.4,1.3.8,2.6.8,4.1s-.6,1.8-.9,2.3c-.2.4-.4.6-.5.8,0,.4,0,.5.4,1.2l.5.9c1.1,2.1,2.1,4.2,2.9,6.5.2.7.8,1.5,1.3,2.3,0,.2.4.6.5.8,1.1,1.6,1.2,2.6,1.2,4.3s0,2.7-1.3,4.2l-.7.7h0c.2.1.5.2.7.4.7.4,1.5.6,2.2,1.8,0,.1,0,.2.2.4l.2.4c1.1-.4,1.6,0,2.1.5.5.6.5,1.2.5,1.6h0c.4,0,.9.2,1.4.7.8,1.2.2,2.5-.2,3.4s-.4.6-.4.7v.5c0,.5,0,1.3-.6,2-.4.5-.8.6-1.1.7,0,.1.2.4.4.5.4.5.8,1.2.9,2,0,1.2,0,2.1-.4,3.1-.2,1.5-.5,2.6.6,4,.4.4.6.8.7,1.2.4.6.6,1.1,1.1,1.4.4.2.7.5,1.1.7.7.5,1.4.9,2.1,1.8,1.1,1.3,1.5,2.2,1.3,4,0,.9,0,2.6-1.3,3.3-.5.4-1.2.4-1.8.1h0c0,.7-.2,1.4-.5,2.1,0,.4-.2.8-.5,1.2-.4.8-.5,1.3-.4,2,.4,1.5,1.2,2.8,2.1,4.2.6.9,1.3,2,1.8,3.2,0,.2.2.5.4.7.5.9,1.1,2,1.1,3.3s0,1.1-.2,1.4c-.2.5,0,.8.2,1.1,1.4.9,1.6,1.4,2,2.7,0,.2,0,.5.2.7,0,.2.2.5.6.7.5.4.9.9,1.3,1.8,0,.2,0,.5,0,.6,0,.3,0,.5.2.5q.2,0,.4.1c.4,0,.8.2,1.3.7,1.3,1.2,3.1,5.2,2,7.3h.4v.7c.7.2,1.2.6,1.6,1.2.9,1.5.4,2.9,0,3.9-.2.5-.4.8-.5,1.2v2.3c0,.4-.2.7-.4.9,0,.4-.2.7-.4.9v.6c0,.6,0,1.3-.4,2-.4.6-.8.9-1.2,1.2,0,0-.4.2-.5.4,0,.1.9.7,1.4.9.4.2.6.4.8.6,1.3,1.1,2.3,1.5,3.6,1.8.5,0,.9,0,1.4.1,1.2,0,2.5.2,3.6.8.6.4,1.1.8,1.5,1.2.7.6.9.9,1.8.9,1.4,0,2.6.5,3.8.8.4.1.8.2,1.2.4,2,.6,2.7,1.6,3.3,2.7.2.4.5.7.7,1.1.2.2.5.5.7.7.4.2.7.6.9,1.1.5.6.7,1.2.9,1.8,0,.4.2.7.5.9.4.6,1.5,1.2,2.5,1.5.4.1.7.4.9.5.5.2.9.2,1.5.2.9,0,2.1,0,3.2.9l.2.2c1.2,1.1,2.8,2.5,2.6,4.6,0,.5-.2,1.8,0,2.1,0,0,.2.1.5.1s.6-.1.9-.2c.8-.4,2.5-1.1,3.8,1.1.4.6.6,1.1.7,1.5.4.8.7,1.5,1.3,2.1.5.4.8.7,1.4,1.1.9.6,2,1.4,2.7,2.6,1.5,2.5,2.5,4.6,3.1,6.3,1.1,3.4,1.1,6.6.8,10.1h.5c.9,0,2.1.4,2.6,1.4.1.4.4,1.3-.5,2.2-.5.6-1.2.8-1.6.9-.1,0-.4,0-.4.1v1.3c.6,0,.9,0,1.2.1h.4c.8.2,1.8.4,2.7.4h1.2c3.8.4,7.6.7,11.5.9,3.2.2,6.5.6,9.5.8,1.2,0,2.2.2,3.4.4,3.5.4,6.9.6,10.6,1.1,1.3.1,2.6.2,3.8.4h2.5l-3.4,6.6c6.3,3.6,43.1,24.3,63.3,35.6,2.3.4,26,3.2,35.1,4.3l13.4,1.6c0-1.3.2-4.1.6-9.7v-.5l.4-.4c.3-.2,6,.2,17,1.3,8.1.8,16.1,1.6,16.1,1.6l1.8.2.2.7c.1.4.2.8.5,1.2.4.6.8.9,1.4,1.3,1.1.7,1.3,1.5,1.4,2.1,0,.2,0,.5.2.6.2.5.6.8,1.1,1.2.8.7,1.9,1.5,2,3.2,0,.4.2.7.5.8,1.2.6,2.1,1.4,2.9,2.2.9.9,1.6,2.1,2.3,3.2.2.4.4.7.6.9.2.5.7.7,1.3,1.1,1.2.6,1.9,1.5,2.1,2.9h0c.1.9.2,1.3.6,1.5.1.1.4.2.6.4.6.4,1.3.8,1.8,1.4.2.5.5.8.7,1.3.1.4.4.7.5,1.1h.9c1.8-.4,2.5.9,2.8,1.5,0,.2.2.4.4.5,0,0,.2.2.5.4.5.2,1.2.7,1.5,1.5.5.8.2,1.9.1,2.7v1.6c0,.7,0,1.4.1,1.9.2.8.8,1.6,1.3,2.5.6.9,1.2,1.9,1.5,2.9.2.8.5,1.8.7,2.6.4,1.4.7,2.8,1.3,4.1.6,1.1,1.3,2,2,3.1.5.7.9,1.3,1.3,2,1.1,1.5,2.3,2.8,3.9,4.1l.5.5c.8.7,1.8,1.5,2.7,2.1.6.4,1.3.6,2,.8.4.1.7.2,1.1.4,1.3.5,2.5,1.2,3.5,2.1.5.4.8.8,1.3,1.3s.7.8,1.1,1.1c1.5,1.4,4.2,2,6,1.4.8-.2,1.3-1.2,1.9-2.6.4-.8.7-1.6,1.2-2.3.5-.6,1.1-1.2,1.5-1.8l.9-.9c.5-.6.9-1.4,1.4-2.6.9-2.7,2.2-4.3,4.2-5.8,1.6-1.2,3.5-1.8,5.9-2.1.4-.2.8-.5,1.3-.2.7.1,1.1.7,1.3,1.1h.4c.4,0,.8-.2,1.3-.1.4,0,.7,0,.9.1h1.1c.5-.1,1.2-.4,2,.1.4.1.6.4.7.6s.2.2.2.2h1.2c.6-.4,1.5-.7,2.5-.4.5.1.8.5,1.1.7,0,0,.2.1.2.2h.5c.4,0,.8,0,1.3.2.8.4,1.3,1.1,1.6,1.5.2.5.5.8.6,1.3.4.9.5.9.7,1.1,1.4.1,2.8.5,4,2.1l.2.2c.6.8,1.1,1.5,1.6,2,0,0,.2.1.4.2.4.2.9.5,1.2,1.2.2.5.4.8.4,1.2v.5c.1.4.5.7.9,1.1,0,0,.2,0,.5.1.5.1,1.1.4,1.6.9s.8,1.6.8,2.2v.4h0c.4.2,1.1.7,1.3,1.8,0,.2,0,.4.2.6.4.6.6,1.1.6,1.6s.2,1.5.5,2.2c.2.6.7,1.1,1.2,1.6s.7.8,1.1,1.2c.7,1.1.9,2.1,1.2,2.9,0,.5.2.8.5,1.3.2.5.4.9.5,1.4,0,.4.4.7.7,1.1.2.2.6.6.8,1.1.2.4.4.9.4,1.3v.2s.1.2.5.5l.5.5c.2.2.6.5.8.7.6.4,1.2.7,1.6,1.4.4.6.5,1.2.5,1.5s0,.4.1.4c0,0,.1,0,.2,0,.2,0,.6.4.9.8.4.5.5.9.6,1.3h0c0,.4.4.6.6.8.2.4.6.6.8,1.1.5.9.8,2.1,1.1,2.7.1.6.2.6,1.1,1.1l.5.4c.7.5,1.4.8,2,1.6.6.7.9,1.4,1.3,2.1v.2c.2.2.4.4.5.6.4.5.7,1.1.9,1.8.2.8.2,1.6.2,2.3v2.7c0,.2.2.6.2.9,0,.7-.2,1.2-.4,1.5h0c.7.6.7,1.3.8,1.6v.2c0,0,.2.4.5.5.2.2.6.5.9.9.5.7.6,1.4.6,1.9v.5s.2,0,.4.2c.1,0,.4,0,.5.2,1.5,1.1,2.2,2.7,2,4.9,0,.4-.1.8-.2,1.2,0,.2-.1.4-.1.6v.4h.1c.1,0,.4.2.5.2.4,0,.7.2,1.1.5.5.2.7.6.9.8.1,0,.4.2.5.5.2,0,.5.2.7.4s.5.2.7.5c.2,0,.5.4.7.6.1,0,.2.2.4.4.4.2.8.5,1.3.7.8.4,1.9.8,2.5,1.6,0,0,0,0,.1,0,.4,0,.8-.4,1.1-.5.2,0,.4,0,.5-.2.4-.2.7-.5,1.3-.6.7,0,1.4-.2,2.3,0,.6,0,1.3.2,1.9.9.1,0,.2.2.2.4l.4.4h.2c.4.2,1.1.5,1.4,1.4,0,0,0,0,.1.2,0,.2.1.4.2.5,0,0,.5.2,2,.5h1.5c.5,0,.8.4,1.1.5,0,0,.1,0,.2,0,.4,0,.8,0,1.3,0h1.1c.8,0,1.6.2,2.5,1.1.4.5.7.6,1.6.7.2,0,.5,0,.6,0,.7,0,1.2.4,1.6.8l.4.4s.1,0,.2.2c.1,0,.5-.2.7-.2h.8c.1-.2.2-.5.2-.6s-.1-.6-.2-.7c0,0,0-.2-.1-.4-.5-.9-.9-2.1-1.4-2.9-.2-.4-.6-.7-.9-1.1-.4-.4-.7-.7-1.1-1.2-1.1-1.5-.7-2.6-.4-3.4,0-.2.2-.5.2-.8.7-2.6.7-4.7-.2-7,0,0-.1-.4-.2-.6-1.1-2.5-1.9-4.8-.8-6.1.4-.5,1.1-.8,2.3-.5l.7.2v.7c.6,2,.8,3.9.9,5.9.2,2.2.4,4.3,1.1,6.3.6,1.8,1.8,4.5,2.6,5.9-.2-1.8-1.6-5.2-2.1-6.5-.5-1.2-.8-2-.9-2.6-1.3-5.9-.1-11.3,1.4-16.4-.2.6-.6,1.3-.9,1.8l-.2.4c-.6.9-1.4,2.2-2.6,2.3-.4,0-.9,0-1.5-.7-.7-1.1-.2-2.1,0-2.7.2-.7.5-1.4.7-2.2s.6-1.6.9-2.3c.6-1.2,1.1-2.2.7-3.3-.2-.7-.5-1.3-.8-1.5-.1,0-.2,0-.4-.2-.6-.4-1.5-.9-1.3-2.6.4-1.6,1.2-2.6,2-3.5.4-.5.7-.8,1.1-1.3l.2-.4c.5-.7.9-1.5,1.9-2.1.9-.6,1.9-.6,2.5,0,.1,0,.4.2.5.6h0c.2-.2.2-.4.4-.5.1-.2.4-.5.6-.7s.6-.5.8-.7c.1,0,.2-.2.4-.2l1.8,1.5h0c.1.5.5,1.2.1,2.1-.4,1.3-1.6,2.5-2.7,3.1h-.2c.4.6.4,1.4,0,2.2.6-.4,1.2-1.1,1.9-1.8s1.5-1.6,2.5-2.1c.2,0,.5-.2.8-.5,1.9-1.1,3.1-1.9,3.8-2.5h0c0,0-.4-.2-.6-.4-.8-.4-2.2-1.1-2.2-2.7s1.5-2.5,2.5-3.1c.2-.1.6-.4.7-.5-.4-.4-.8-1.1-.9-2,0-1.3.7-2.3,1.5-2.8V57.4h-11.5Z"/>
    <polygon class="cls-4" points="642.4 98.8 642.4 98.8 642.4 98.8 642.4 98.8"/>
    <path class="cls-4" d="M900.4,182.5c-.4,0-.8.2-1.2.4-.6.1-1.2.5-1.9.8-.8.5-1.8.9-2.8,1.2-.4,0-.4.1-.7.5,0,.2-.4.5-.6.6-.6.5-1.2.7-1.6.8-.2,0-.5.1-.6.2,0,0,0,.4-.2.5,0,.5-.4,1.1-.8,1.5,0,.1-.2.2-.4.4h.4c.8,0,1.2,0,1.6-.4,0-.1.4-.4.6-.6.5-.5.8-.8,1.4-1.2.8-.7,1.5-.8,2.2-.9.2,0,.4,0,.6-.1.4,0,.6-.1.9-.2.5,0,.8-.2,1.2-.4.5-.1.8-.5,1.2-.7.2-.1.4-.4.6-.5.2-.1.5-.2.6-.4.6-.4,1.1-.7,1.5-1.2,0,0,0-.1.2-.2.2-.2.5-.6.8-.9h0c-.9.1-2,.5-3.1.7h.2Z"/>
    <path class="cls-4" d="M941,98.7c0,.2.2.5.4.7h0c0-.2-.2-.5-.5-.6h0Z"/>
  </g>
</svg>